<?xml version="1.0" encoding="utf-8"?>
<!-- Generator: Adobe Illustrator 24.0.2, SVG Export Plug-In . SVG Version: 6.00 Build 0)  -->
<svg version="1.1" id="Слой_1" xmlns="http://www.w3.org/2000/svg" xmlns:xlink="http://www.w3.org/1999/xlink" x="0px" y="0px"
	 width="96.12px" height="40.303px" viewBox="0 0 96.12 40.303" enable-background="new 0 0 96.12 40.303" xml:space="preserve">
<g>
	<g>
		<path fill="#009FE3" d="M86.503,25.966c0,0-0.006-0.277-0.059-0.683c-0.103-0.786-0.587-1.274-0.799-1.453l-0.826-0.725
			c-0.054-0.228-0.126-0.5-0.213-0.765c-0.398-1.199-1.023-2.146-1.166-2.354c-0.846-1.3-3.462-1.99-5.492-2.336
			c-3.84-0.738-8.111-1.616-9.328-1.944c-4.455-5.414-10.334-8.658-10.395-8.691C48.109,1.494,16.23,3.278,14.878,3.355
			l-0.124,0.013c-2.361,0.335-3.036,2.618-3.529,4.286l-0.099,0.332c-0.8,2.664-1.082,4.814-1.117,5.358
			c-0.036,0.545-0.354,6.216-0.354,6.216l-0.368,4.005l-0.243,0.326l0.067,3.239c-0.001,0.001-0.002,0.002-0.003,0.003
			c-0.539,0.521-0.587,1.256-0.564,1.71c0.165,1.844,1.057,2.809,1.276,3.024c1.277,1.169,3.582,1.529,4.191,1.604l0.671,0.138
			c0.616,3.349,3.551,5.896,7.076,5.896c3.211,0,5.937-2.115,6.862-5.023l0.356,0.033l35.401,0.932h0.939
			c1.169,2.398,3.626,4.058,6.468,4.058c2.935,0,5.462-1.768,6.582-4.294l0.115-0.006c0.736-0.034,4.473-0.229,5.817-0.683
			c1.757-0.594,2.236-2.312,2.242-3.252L86.503,25.966z M21.759,36.497c-2.311,0-4.191-1.881-4.191-4.191s1.88-4.191,4.191-4.191
			s4.191,1.881,4.191,4.191S24.071,36.497,21.759,36.497z M71.784,36.497c-2.311,0-4.191-1.881-4.191-4.191s1.88-4.191,4.191-4.191
			c2.311,0,4.191,1.881,4.191,4.191S74.095,36.497,71.784,36.497z M83.335,31.674c-0.462,0.156-1.777,0.303-3.093,0.406
			c0.013-0.191,0.019-0.383,0.019-0.575c0-4.533-3.687-8.22-8.22-8.22c-4.73,0-8.12,3.129-8.631,7.952l-0.14,1.174L30.53,31.55
			c0-0.017,0-0.032,0-0.049c0-4.874-3.964-8.838-8.838-8.838c-4.42,0-8.094,3.263-8.737,7.507c-0.428-0.133-0.821-0.296-1.05-0.479
			c-0.062-0.085-0.216-0.328-0.306-0.745c0.003-0.003,0.005-0.005,0.006-0.005l0.546-0.462l-0.076-3.622l0.132-0.178l0.45-4.899
			c0-0.001,0.319-5.698,0.355-6.243c0.03-0.468,0.323-2.449,0.997-4.687l0.102-0.345c0.282-0.956,0.602-2.036,1.03-2.152
			c1.876-0.101,32.521-1.677,41.644,3.303c0.055,0.03,5.645,3.114,9.754,8.26c0.413,0.517,0.567,0.711,10.871,2.693
			c1.483,0.254,3.144,0.76,3.549,1.078c0.05,0.073,0.517,0.771,0.792,1.599c0.131,0.397,0.219,0.88,0.22,0.884l0.093,0.519
			l1.426,1.253c0.004,0.049,0.006,0.078,0.006,0.078v-0.001l0.036,5.223C83.532,31.245,83.499,31.618,83.335,31.674z"/>
		<path fill="#009FE3" d="M39.066,7.716C38.921,7.708,24.13,7.038,20.557,7.524c-3.569,0.485-4.934,2.442-5.172,2.83
			c-0.114,0.179-0.893,1.439-1.298,2.802c-0.426,1.431-0.42,2.877-0.418,3.038l0.006,0.108c0.061,0.723,0.643,2.031,2.435,2.352
			l22.654,1.675c0.091,0.011,0.228,0.023,0.394,0.023c0.521,0,1.342-0.117,2.065-0.729c0.526-0.446,1.155-1.302,1.155-2.856
			l-0.002-5.264C42.442,10.052,41.614,7.846,39.066,7.716z M39.37,16.767c0,0.415-0.088,0.554-0.083,0.555
			c-0.029,0.015-0.111,0.025-0.117,0.027l-22.475-1.66c0.027-0.424,0.097-1.072,0.276-1.675c0.304-1.023,0.953-2.044,0.975-2.08
			c0.03-0.045,0.762-1.122,3.016-1.428c2.799-0.378,15.068,0.066,17.951,0.215c0.162,0.009,0.465,0.024,0.458,0.715
			C39.37,11.435,39.37,16.767,39.37,16.767z"/>
		<path fill="#009FE3" d="M61.487,14.373c-0.675-0.988-1.818-2.021-2.534-2.451c-4.41-2.643-10.005-3.236-12.111-3.46
			c-0.218-0.023-0.394-0.042-0.521-0.058c-1.069-0.141-1.765,0.221-2.162,0.548c-0.618,0.51-0.873,1.245-0.905,1.763l-0.006,0.081
			l0.289,6.191c-0.045,1.361,0.724,3.366,3.08,3.563c1.824,0.152,13.948,0.773,14.463,0.799c0.035,0.002,0.07,0.003,0.105,0.003
			c0.59,0,1.152-0.254,1.554-0.707c0.373-0.421,0.771-1.2,0.544-2.524C63.115,17.134,62.514,15.878,61.487,14.373z M46.87,17.553
			c-0.149-0.013-0.334-0.028-0.325-0.473l0.006-0.082l-0.259-5.571c0.072,0.008,0.15,0.017,0.234,0.025
			c1.925,0.205,7.041,0.748,10.882,3.05c0.363,0.218,1.166,0.936,1.608,1.583c0.668,0.98,1.047,1.732,1.214,2.209
			C57.206,18.139,48.346,17.677,46.87,17.553z"/>
	</g>
</g>
</svg>
