<?xml version="1.0" encoding="utf-8"?>
<!-- Generator: Adobe Illustrator 25.2.0, SVG Export Plug-In . SVG Version: 6.00 Build 0)  -->
<svg version="1.1" id="Слой_1" xmlns="http://www.w3.org/2000/svg" xmlns:xlink="http://www.w3.org/1999/xlink" x="0px" y="0px"
	 width="96.483px" height="67px" viewBox="0 0 96.483 67" enable-background="new 0 0 96.483 67" xml:space="preserve">
<g>
	<g>
		<path fill="#1B9DD9" d="M86.063,38.767l-0.138-0.332c-1.164-2.819-5.911-5.586-5.957-5.609c-0.791-0.41-1.575-0.758-2.326-1.035
			L60.539,0.915L39.572,12.88l-7.211,14.848l12.806,0.221v-7.512l12.196-8.674l13.753,22.378c-0.064,0.479-0.061,0.951,0.057,1.353
			c0.178,0.607,0.476,1.745,0.591,2.185c0.029,3.527-1.726,7.387-2.397,8.733l-1.703,0.646l-2.892,6.945l19.378-7.361
			c1.622-0.616,2.796-2.177,2.855-3.795C87.067,41.176,86.603,40.059,86.063,38.767z M42.008,18.808v5.925l-4.64-0.079l4.62-9.515
			l17.335-9.892l14.28,25.777c-0.229,0.02-0.439,0.055-0.623,0.112L58.287,7.23L42.008,18.808z M83.029,43.688l-10.818,4.11
			c0.821-1.641,2.819-6.097,2.711-10.372l-0.049-0.355c0,0-0.162-0.628-0.337-1.279h4.257c1.064,0.652,3.703,2.612,4.213,3.847
			l0.141,0.342c0.476,1.142,0.737,1.77,0.703,2.752C83.837,43.036,83.476,43.519,83.029,43.688z"/>
		<path fill="#1B9DD9" d="M53.343,51.603H7.716c-3.206,0-5.814,2.608-5.814,5.813v1.862c0,3.205,2.607,5.814,5.814,5.814h45.627
			c3.205,0,5.814-2.608,5.814-5.814v-1.862C59.156,54.212,56.548,51.603,53.343,51.603z M55.995,59.278
			c0,1.463-1.19,2.653-2.653,2.653H7.716c-1.463,0-2.653-1.19-2.653-2.653v-1.862c0-1.463,1.19-2.653,2.653-2.653h45.627
			c1.463,0,2.653,1.19,2.653,2.653L55.995,59.278L55.995,59.278z"/>
		<path fill="#1B9DD9" d="M50.783,37.25l-4.561-8.188H30.878v6.514l-3.958,0.251v-1.75H14.235v1.504h-3.159v14.54h39.707
			C50.783,50.119,50.783,37.25,50.783,37.25z M47.624,46.958H14.238V38.74h3.157v-1.504h6.364v1.959l10.279-0.652v-6.32h10.326
			l3.259,5.848C47.624,38.071,47.624,46.958,47.624,46.958z"/>
		<path fill="#1B9DD9" d="M35.09,33.344v8.926h11.192v-4.969l-2.819-3.958H35.09z M43.121,39.11H38.25v-2.606h3.583l1.288,1.808
			V39.11z"/>
	</g>
	<path fill="#1B9DD9" d="M57.903,41.513l-1.048-0.921c0.175-0.198,4.253-4.813,7.575-5.462l5.117-3.485l0.784,1.154l-5.526,3.681
		C62.437,36.852,59.019,40.239,57.903,41.513z"/>
	<path fill="#1B9DD9" d="M93.162,46.283c-0.014-0.328,0.008-0.643,0.017-0.964c-0.058-0.088-0.113-0.173-0.136-0.238
		c0.047-0.076,0.096-0.173,0.145-0.269c0.138-2.242,0.763-4.332,1.382-6.451c0.066-1.788-0.157-3.49-0.907-4.514
		c-2.038-2.779-11.594-3.987-12.835-4.116l-4.298,0.466l0.149,1.389l4.141-0.468c2.777,0.33,10.292,1.611,11.717,3.553
		c1.895,2.584-0.148,8.863-0.655,9.645c-0.141,0.168-0.297,0.46-0.239,0.882c0.084,0.624,0.733,1.432,1.57,2.242
		C93.196,47.053,93.179,46.67,93.162,46.283z"/>
	<path fill="#1B9DD9" d="M64.125,56.882l-1.046-0.892c0.169-0.253,0.523-0.784,7.253-1.911l0.117-0.022l0.117,0.022
		c2.54,0.444,12.246-0.752,12.341-0.766l0.171,1.383c-0.401,0.048-9.731,1.198-12.628,0.773
		C67.742,55.926,64.584,56.591,64.125,56.882z"/>
	<rect x="84.773" y="33.329" fill="#1B9DD9" width="1.409" height="1.409"/>
	<rect x="65.89" y="38.454" fill="#1B9DD9" width="1.373" height="1.373"/>
	<rect x="82.393" y="48.839" fill="#1B9DD9" width="1.373" height="1.373"/>
	
		<rect x="60.253" y="42.379" transform="matrix(0.2064 -0.9785 0.9785 0.2064 6.1869 94.1576)" fill="#1B9DD9" width="1.771" height="1.771"/>
	<rect x="68.589" y="57.431" fill="#1B9DD9" width="1.394" height="3.485"/>
	<rect x="75.136" y="57.803" fill="#1B9DD9" width="1.394" height="3.613"/>
	<path fill="#1B9DD9" d="M91.19,56.035c-0.994-0.668-2.912-1.797-4.851-2.018L86.182,55.4c1.972,0.226,4.051,1.646,4.708,2.121
		C90.931,57.014,91.033,56.514,91.19,56.035z"/>
	<path fill="#1B9DD9" d="M82.523,62.726l-1.16-0.773c0.002-0.002,0.317-0.482,0.575-1.099c0.129-0.305,0.08-1.286-0.043-2.01
		l1.374-0.233c0.054,0.316,0.307,1.939-0.045,2.779C82.912,62.139,82.539,62.702,82.523,62.726z"/>
	<path fill="#1B9DD9" d="M84.009,66.085l-0.001-1.394c0.02,0,1.89-0.01,3.256-0.711c1.005-0.514,0.683-1.59,0.668-1.636l1.332-0.414
		c0.241,0.773,0.267,2.458-1.365,3.291C86.228,66.074,84.099,66.085,84.009,66.085z"/>
</g>
</svg>
