<?xml version="1.0" encoding="utf-8"?>
<!-- Generator: Adobe Illustrator 25.2.0, SVG Export Plug-In . SVG Version: 6.00 Build 0)  -->
<svg version="1.1" id="Слой_1" xmlns="http://www.w3.org/2000/svg" xmlns:xlink="http://www.w3.org/1999/xlink" x="0px" y="0px"
	 width="60.447px" height="67px" viewBox="0 0 60.447 67" enable-background="new 0 0 60.447 67" xml:space="preserve">
<g>
	<path fill="#1B9DD9" d="M58.454,33.692c-0.054-0.016-0.183-0.11-0.205-0.081c-0.002-0.004-0.044-0.103-0.074-0.455
		c-0.029-0.338-0.008-0.645,0.018-0.855c0.184-0.005,0.415-0.055,0.629-0.223c0.254-0.2,0.395-0.506,0.395-0.859
		c0-0.395-0.156-2.578-0.217-3.035c-0.156-1.168-0.988-1.378-1.334-1.414c-0.013-0.002-0.033-0.013-0.055-0.027
		c-0.037-0.169-0.064-0.331-0.063-0.392c0.008-0.171,0.067-0.448,0.106-0.482c0.235-0.17,0.673-0.486,0.703-1.066
		c0.018-0.369-0.249-2.515-0.562-3.177l-0.104-0.227c-0.184-0.408-0.435-0.967-1.115-1.035c-0.081-0.014-0.316-0.112-0.441-0.164
		c-0.057-0.024-0.113-0.047-0.167-0.068c-0.008-0.045-0.014-0.088-0.017-0.113c0-0.083,0.007-0.201-0.019-0.158
		c0.101-0.162,0.409-0.511,0.414-0.516l0.084-0.116c0.08-0.136,0.248-0.52,0.084-1.148c-0.105-0.407-0.746-2.009-0.853-2.272
		c-0.137-0.426-0.457-1.177-1.064-1.42c-0.188-0.075-0.551-0.211-0.853-0.321c0.095-0.225,0.194-0.449,0.194-0.449
		c0.183-0.381,0.251-1.034-0.163-1.627c-0.261-0.373-1.093-1.664-1.257-1.92c-0.1-0.202-0.375-0.65-0.933-0.901
		c-0.223-0.1-0.582-0.221-0.897-0.321c0.063-0.308,0.13-0.942-0.255-1.391c-0.172-0.202-1.498-1.552-1.968-2.023
		c-0.161-0.129-0.569-0.443-0.879-0.559c-0.165-0.062-0.502-0.131-0.855-0.193c-0.105-0.35-0.272-0.722-0.538-0.947
		c-0.298-0.251-1.411-0.855-1.891-1.111l-1.168-0.59c-0.191-0.095-0.378-0.117-1.093-0.17c-0.153-0.011-0.286-0.02-0.327-0.025
		c-0.051-0.01-0.128-0.024-0.206-0.038c-0.234-0.255-0.624-0.59-1.112-0.668c-0.433-0.07-1.854-0.321-1.923-0.33
		c0,0-1.631-0.142-2.141-0.17c-0.557-0.032-2.584-0.013-3.079-0.001c-0.558,0.015-2.725,0.219-2.968,0.242l-1.836,0.168
		l-0.194,0.043c-0.413,0.147-0.995,0.304-1.205,0.304c-0.54,0-1.677,0.142-2.212,0.277c-0.033,0.008-3.458,0.883-4.005,1.094
		c-0.431,0.167-3.295,1.154-3.31,1.159c-2.017,0.739-2.197,0.934-2.314,1.062c-0.131,0.142-0.248,0.322-0.333,0.471
		c-2.125,1.042-3.35,1.811-3.644,2.287c-0.208,0.338-0.615,0.686-0.755,0.791l-0.126,0.119C9.752,9.35,9.752,9.729,9.752,9.854
		c0,0.025,0.001,0.051,0.001,0.076l-1.339,0.839L6.36,13.78c-0.328,0.419-0.604,1.131-0.301,1.76
		c0.047,0.097,0.099,0.193,0.153,0.283l-1.581,1.186l-1.449,3.696c-0.214,0.509-0.261,1.256,0.312,1.687
		c0.145,0.108,0.327,0.267,0.456,0.383c-0.517,0.487-1.023,0.944-1.207,1.074c-0.494,0.205-0.701,0.744-0.721,1.131l-0.524,3.306
		c-0.046,0.154-0.173,0.692,0.126,1.128c0.175,0.256,0.449,0.412,0.768,0.437c0.122,0.01,0.404,0.108,0.556,0.178
		c0.064,0.082,0.134,0.191,0.172,0.269c-0.138,0.29-0.535,0.87-0.685,0.982c-0.493,0.247-0.827,0.627-0.922,0.746
		c-0.042,0.064-0.255,0.405-0.298,0.905c-0.029,0.33,0.083,2.365,0.155,3.588c0.024,0.223,0.113,0.633,0.44,0.885
		c0.199,0.154,0.446,0.221,0.632,0.185C2.533,37.592,2.8,37.658,2.914,37.7c0.095,0.035,0.347,0.154,0.496,0.237
		c0.033,0.107,0.066,0.259,0.062,0.338c-0.011,0.154-0.181,0.576-0.279,0.694c-0.143,0.171-0.351,0.413-0.467,0.522
		c-0.157,0.092-0.417,0.256-0.417,0.256l-0.468,0.295l0.776,3.498c0.177,0.902,0.546,1.39,1.096,1.449
		c0.246,0.029,1.092,0.026,1.55,0.02c0.054,0.174,0.084,0.394,0.096,0.538c-0.052,0.1-0.15,0.262-0.221,0.369l-0.911,1.177
		l-0.12,0.222c-0.032,0.091-0.181,0.568,0.043,1.049c0.098,0.211,0.813,1.404,1.254,2.135c0.375,0.933,0.595,1.15,0.912,1.255
		c0.168,0.054,0.342,0.112,1.666-0.157c0.091-0.018,0.23-0.058,0.379-0.104c0.002,0.113-0.008,0.228-0.041,0.329
		c-0.079,0.243-0.341,0.605-0.455,0.742l-0.125,0.206c-0.062,0.148-0.348,0.923,0.078,1.588c0.24,0.375,1.214,1.536,1.443,1.806
		l0.672,0.697c0.214,0.324,0.646,0.569,1.244,0.458c0.372-0.064,0.697-0.23,0.938-0.366c-0.171,0.505-0.215,0.725-0.199,0.921
		c0.018,0.239,0.174,0.917,0.587,1.137l0.095,0.1c0.147,0.159,0.348,0.376,0.609,0.526c0.125,0.073,0.323,0.21,0.499,0.33
		c0.243,0.167,0.462,0.303,0.52,0.327c0.108,0.05,0.465,0.247,0.468,0.248l1.615,0.276c0.216,0.081,0.453,0.197,0.577,0.28
		c0.105,0.545,0.437,0.928,0.509,1.007l2.277,1.536l0.37-0.126c0.471-0.161,1.076-0.348,1.223-0.37
		c0.107-0.011,0.27-0.049,0.45-0.095c0.056,0.264,0.106,0.499,0.106,0.499l0.079,0.366l2.223,1.155l1.633-0.437
		c0.061,0.004,0.124,0.01,0.183,0.017c-0.003,0.111-0.009,0.208-0.014,0.255l-0.063,0.692l0.676,0.155
		c1.021,0.233,2.364,0.386,2.964-0.212c0.109-0.109,0.258-0.194,0.392-0.255c0.171,0.112,0.334,0.227,0.459,0.322l-0.042,0.098
		l0.358,0.395c0.171,0.19,0.375,0.284,0.673,0.284c0.323,0,0.757-0.112,1.38-0.339l0.117-0.052c0.355-0.2,0.799-0.407,0.82-0.431
		c0.267,0.013,0.527-0.075,0.82-0.187c0.076,0.146,0.165,0.26,0.268,0.344l0.245,0.199l0.315-0.023
		c1.436-0.105,2.249-0.444,2.467-1.032c0.34,0.063,0.625,0.123,0.662,0.13c0.42,0.28,1.144,0.224,1.609,0.029
		c0.446-0.187,0.735-0.52,0.814-0.935c0.039-0.205,0.191-0.599,0.321-0.902c1.307,0.453,1.463,0.456,1.586,0.456
		c0.303,0,0.454,0,2.795-1.879l0.297-0.239v-1.479h-1.589v0.717c-0.62,0.493-1.284,1.002-1.621,1.237
		c-0.34-0.105-0.96-0.316-1.486-0.502l-0.447,1.257l-0.898-0.413c-0.06,0.131-0.334,0.738-0.469,1.242
		c-0.052,0.011-0.137,0.024-0.159,0.017c-0.142-0.068-0.434-0.163-1.056-0.283l0.963-0.446l0.6-1.418l-1.462-0.618l-0.361,0.853
		l-1.515,0.701l0.481,1.037c-0.243,0.156-0.447,0.386-0.538,0.701c-0.132,0.041-0.323,0.081-0.532,0.116
		c-0.085-0.194-0.228-0.353-0.418-0.457c-0.472-0.26-1.006-0.058-1.434,0.106c-0.083,0.032-0.162,0.064-0.228,0.083
		c-0.068,0.001-0.179,0.019-0.315,0.053c0.713-0.471,0.835-0.626,0.893-0.703c0.103-0.137,0.231-0.309,0.793-2.705l-1.546-0.363
		c-0.19,0.808-0.434,1.771-0.548,2.121c-0.186,0.142-0.598,0.415-0.936,0.627l0.77,1.23c-0.191,0.085-0.409,0.191-0.678,0.34
		c-0.132,0.047-0.272,0.092-0.398,0.129c-0.294-0.323-0.759-0.641-1.331-0.977l-0.276-0.162l-0.312,0.075
		c-0.084,0.02-0.806,0.205-1.356,0.712c-0.163,0.036-0.527,0.019-0.926-0.033c-0.004-0.073-0.01-0.147-0.018-0.218
		c-0.078-0.676-0.731-1.051-1.837-1.057l-1.36,0.334l-1.012-0.525c-0.054-0.253-0.121-0.571-0.153-0.731l-0.124-0.419l-0.292-0.183
		c-0.431-0.268-0.946-0.13-1.401-0.008c-0.09,0.024-0.172,0.048-0.22,0.056c-0.253,0.024-0.774,0.181-1.205,0.322l-1.375-0.913
		c-0.04-0.061-0.079-0.141-0.083-0.198c-0.029-0.399-0.284-0.714-0.625-0.962l0.871-0.436l-0.044-0.088
		c0.217-0.013,0.437-0.062,0.65-0.183c0.57-0.321,1.105-1.04,1.207-1.181l0.096-0.134l0.035-0.161
		c0.001-0.005,0.182-0.839,0.283-1.144c0.047-0.107,0.299-0.351,0.447-0.434c0.253-0.14,1.604-0.899,1.604-0.899l0.102-0.068
		c0.369-0.291,1.015-0.811,1.202-1.031c0.086-0.095,0.497-0.447,0.826-0.716l-1.003-1.231c-0.244,0.199-0.832,0.686-1.022,0.905
		c-0.093,0.1-0.55,0.48-0.938,0.786c-0.253,0.143-1.319,0.742-1.542,0.866c-0.253,0.141-0.96,0.653-1.179,1.312
		c-0.088,0.264-0.225,0.849-0.292,1.142c-0.177,0.224-0.434,0.508-0.57,0.592c-0.12-0.004-0.23-0.079-0.292-0.138
		c-0.209-0.209-1.222-0.95-1.838-1.393c-0.072-0.047-0.271-0.234-0.293-0.378l-0.043-0.271c-0.016-0.097-0.036-0.216-0.047-0.309
		c0.187-0.159,0.431-0.36,0.63-0.493c0.079-0.052,0.185-0.103,0.295-0.159c0.354-0.178,0.756-0.381,0.984-0.736l0.106-0.177
		c0.118-0.2,0.28-0.476,0.457-0.551c0.505-0.211,1.423-0.653,1.612-0.766c0.045-0.025,0.15-0.079,0.279-0.144
		c0.619-0.317,0.903-0.471,1.058-0.601c0.169-0.14,1.632-1.378,1.632-1.378l-1.026-1.212c0,0-1.453,1.229-1.603,1.354
		c-0.137,0.097-0.515,0.285-0.786,0.423c-0.174,0.089-0.314,0.162-0.365,0.192c-0.123,0.072-0.938,0.468-1.415,0.668
		c-0.666,0.279-1.008,0.864-1.213,1.212l-0.032,0.07c-0.06,0.055-0.274,0.163-0.403,0.228c-0.174,0.087-0.339,0.173-0.46,0.255
		c-0.314,0.208-0.732,0.563-0.961,0.76c-0.504,0.432-0.4,1.063-0.308,1.621l0.04,0.248c0.006,0.038,0.026,0.065,0.034,0.101
		c-0.144-0.036-0.276-0.06-0.37-0.06c-0.107,0-0.234,0.025-0.379,0.092c-0.035-0.108-0.083-0.21-0.142-0.305
		c0.174-0.212,0.298-0.521,0.297-0.976c0.008-0.172,0.042-1.05-0.004-1.467c-0.011-0.101-0.048-0.195-0.079-0.29
		c0.122,0.021,0.25,0.037,0.386,0.037c0.107,0,0.218-0.008,0.33-0.026c0.615-0.103,1.164-0.386,1.26-0.439
		c0.272-0.163,0.616-0.553,0.769-1.162c0.123-0.494,0.342-1.261,0.348-1.282c0.06-0.234,0.211-0.594,0.285-0.667
		c0.207-0.16,1.316-0.668,2.229-1.045c0,0,1.167-0.499,1.605-0.732l-0.747-1.4c-0.402,0.214-1.473,0.668-1.473,0.668
		c-1.018,0.421-2.308,0.992-2.673,1.326c-0.472,0.434-0.704,1.22-0.759,1.433c0,0-0.228,0.8-0.357,1.315
		c-0.03,0.12-0.071,0.185-0.053,0.186c-0.136,0.066-0.428,0.188-0.696,0.234c-0.142,0.026-0.342-0.039-0.449-0.086
		c-0.616-0.496-1.229-1.064-1.43-1.319l-0.003-1.582c0.003-0.036,0.044-0.175,0.069-0.203c0.381-0.19,1.853-1.115,2.154-1.517
		c0.157-0.194,1.191-1.182,1.301-1.278c0.085-0.042,0.277-0.113,0.506-0.202c0.966-0.37,1.441-0.574,1.681-0.784
		c0.201-0.144,1.29-0.627,2.181-0.989l-0.598-1.472c-1.003,0.407-2.268,0.954-2.586,1.232c-0.168,0.117-0.896,0.396-1.246,0.531
		c-0.481,0.184-0.64,0.247-0.768,0.332c-0.264,0.175-1.53,1.394-1.706,1.634c-0.173,0.174-1.225,0.89-1.629,1.093
		c-0.821,0.41-0.93,1.371-0.944,1.551v1.498c-0.426-0.104-0.877,0.031-1.213,0.287c-0.086-0.129-0.197-0.233-0.327-0.317
		c0.136-0.124,0.248-0.22,0.306-0.258c0.394-0.183,0.747-0.548,0.814-0.619l0.214-0.229v-2.747l-0.14-0.203
		c0,0-0.255-0.371-0.536-0.776c0.112,0.042,0.226,0.064,0.344,0.064l1.414-0.007c0.093,0.012,0.242,0.026,0.417,0.026
		c0.528,0,1.306-0.128,1.588-0.831c0.172-0.429,0.678-1.583,0.677-1.583c0.203-0.404,0.516-0.88,0.644-0.977l0.261-0.197
		c0.261-0.197,0.872-0.657,0.957-0.711l0.299-0.045c1.771-0.265,2.167-0.359,2.387-0.47l-0.664-1.44
		c-0.166,0.056-0.824,0.169-1.957,0.339l-0.327,0.05c-0.342,0.057-0.713,0.302-1.65,1.01l-0.248,0.185
		c-0.514,0.379-0.989,1.28-1.139,1.583c0,0-0.419,0.956-0.639,1.484c-0.118,0.016-0.305,0.014-0.505-0.005h-1.262
		c-0.047-0.067-0.098-0.15-0.137-0.223l-0.101-0.149c-0.251-0.295-0.507-0.716-0.527-0.83c0.024-0.309,0.19-1.074,0.307-1.561
		c0.132-0.206,0.295-0.419,0.349-0.463c0.209-0.12,0.775-0.521,1.275-0.879l0.59-0.42c0.347-0.241,0.829-0.711,1.254-1.126
		c0.208-0.202,0.381-0.376,0.463-0.44c0.258-0.188,1.415-0.935,1.611-1.023c0.257-0.085,1.087-0.31,1.618-0.364l-0.159-1.58
		c-0.756,0.076-1.752,0.368-1.961,0.437c-0.445,0.15-2.03,1.236-2.043,1.247c-0.105,0.076-0.35,0.307-0.638,0.587
		c-0.324,0.316-0.814,0.793-1.052,0.96l-0.607,0.431c-0.45,0.322-0.956,0.686-1.143,0.794c-0.428,0.246-0.829,0.866-0.981,1.121
		l-0.089,0.217c-0.034,0.138-0.332,1.363-0.377,1.935c-0.008,0.103,0.021,0.208,0.036,0.313C7.858,42.516,7.35,42.65,7,42.868
		c-0.355,0.222-0.585,0.573-0.769,0.854c0,0-0.001,0.001-0.001,0.001c-0.093-0.07-0.187-0.127-0.287-0.171
		c0.258-0.32,0.661-0.803,0.84-0.978c0.196-0.192,0.794-0.673,1.125-0.93l0.203-0.157l0.072-0.247
		c0.264-0.908,0.603-2.005,0.692-2.197c0.148-0.316,0.133-0.653,0.056-0.956c0.011,0.007,0.018,0.016,0.029,0.023
		c0.146,0.085,0.354,0.167,0.619,0.167c0.14,0,0.296-0.023,0.468-0.08c0.683-0.227,1.768-1.224,2.084-1.523l0.125-0.151
		c0.086-0.136,0.851-1.353,1.134-2.125c0.222-0.611,0.375-0.967,0.93-1.171c0.493-0.182,0.902-0.398,1.231-0.573
		c0.299-0.158,0.582-0.308,0.755-0.333c0.173-0.026,0.351-0.066,0.532-0.108c0.339-0.078,0.657-0.153,0.872-0.077l0.534-1.495
		c-0.648-0.233-1.268-0.091-1.763,0.024c-0.139,0.032-0.276,0.064-0.408,0.084c-0.443,0.066-0.842,0.277-1.265,0.501
		c-0.317,0.168-0.645,0.341-1.038,0.486c-1.272,0.47-1.633,1.461-1.901,2.196c-0.138,0.378-0.605,1.18-0.902,1.658
		c-0.42,0.391-0.889,0.772-1.188,0.97l-0.865-2.225c0.007-0.145,0.034-0.412,0.131-0.664c0.171-0.443,0.524-1.265,0.642-1.539
		c0.061-0.072,0.169-0.18,0.255-0.223c0.18-0.09,0.465-0.288,0.771-0.508c0.264-0.19,0.593-0.426,0.786-0.522
		c0.521-0.261,1.525-1.158,1.785-1.397c0.487-0.394,1.125-0.872,1.284-0.948c0.078-0.03,0.195-0.079,0.336-0.14
		c0.3-0.129,1.096-0.471,1.362-0.481c0.477-0.018,0.839-0.001,0.852-0.001l0.082-1.585c-0.001,0.001-0.432-0.024-0.998-0.001
		c-0.517,0.021-1.205,0.3-1.924,0.609l-0.276,0.116c-0.371,0.141-1.138,0.729-1.751,1.227c-0.53,0.482-1.243,1.072-1.461,1.18
		c-0.307,0.153-0.66,0.408-1.003,0.654c-0.221,0.159-0.423,0.311-0.553,0.376c-0.449,0.225-0.754,0.606-0.851,0.737
		c0.056-0.161,0.063-0.239,0.068-0.289c0.009-0.054,0.031-0.115,0.052-0.184c0.101-0.328,0.27-0.877,0.131-1.545
		c-0.029-0.139-0.073-0.326-0.121-0.527c0.185,0.466,0.636,0.88,1.232,0.88c0.061,0,0.125-0.004,0.19-0.014
		c0.477-0.069,1.031-0.42,1.22-0.548c0.197-0.146,1.202-0.898,1.609-1.4c0.366-0.45,1.371-1.845,1.371-1.847
		c0.326-0.395,0.749-0.831,0.87-0.904c0.329-0.152,1.78-0.714,1.96-0.77c0.253-0.065,1.004-0.128,1.21-0.046
		c0.465,0.219,0.904,0.44,0.907,0.441l0.713-1.418c0,0-0.457-0.23-0.944-0.459c-0.846-0.397-2.309-0.049-2.323-0.044
		c-0.256,0.075-1.832,0.689-2.189,0.854c-0.46,0.213-1.093,0.929-1.461,1.378c-0.002,0.002-0.989,1.375-1.346,1.814
		c-0.207,0.255-0.897,0.81-1.29,1.101c-0.095,0.064-0.211,0.13-0.313,0.182c-0.137-0.583-0.429-1.916-0.445-1.975
		c-0.033-0.107-0.06-0.256-0.063-0.344c0.235-0.311,0.964-1.284,1.223-1.716c0.123-0.11,0.475-0.348,0.654-0.433
		c0.118-0.057,0.451-0.272,0.84-0.533c0.35-0.234,1.056-0.706,1.308-0.827c0.249-0.041,0.744-0.257,2.345-1.415
		c0.307-0.099,1.111-0.363,1.62-0.571c0.585-0.239,1.068-0.283,1.269-0.225c0.389,0.115,0.66,0.162,0.9,0.204l0.206,0.037
		l0.311-1.557l-0.246-0.045c-0.193-0.033-0.411-0.07-0.723-0.162c-0.831-0.248-1.809,0.069-2.319,0.279
		c-0.593,0.242-1.615,0.564-1.621,0.567l-0.228,0.115c-0.683,0.497-1.55,1.081-1.823,1.212c-0.062,0.011-0.134,0.038-0.206,0.065
		c0.043-0.024,0.092-0.051,0.131-0.072c0.898-0.494,1.173-0.651,1.325-0.883c0.131-0.138,0.455-0.413,0.771-0.686
		c0.534-0.463,0.782-0.682,0.907-0.832c0.102-0.122,0.483-0.545,1.104-0.846c0.192-0.094,0.392-0.196,0.59-0.298
		c0.361-0.185,0.906-0.465,1.08-0.494l0.135-0.023c0.611-0.104,0.99-0.116,1.128-0.034c0.36,0.211,0.496,0.343,0.497,0.344
		l1.17-1.074c-0.06-0.066-0.296-0.309-0.867-0.642c-0.705-0.412-1.636-0.254-2.311-0.14c-0.417,0.066-0.945,0.337-1.556,0.65
		c-0.187,0.096-0.377,0.193-0.559,0.282c-0.882,0.428-1.434,1.022-1.625,1.252c-0.104,0.116-0.417,0.381-0.733,0.655
		c-0.585,0.506-0.839,0.732-0.975,0.897c-0.155,0.101-0.549,0.318-0.845,0.481c-0.28,0.154-0.514,0.284-0.712,0.397l-0.112-1.38
		c0.009-0.121,0.06-0.274,0.015-0.283c0.424-0.236,1.345-1.193,1.791-1.681c0.002-0.002,0.258-0.209,0.857-0.437
		c0.498-0.188,1.853-0.87,3.442-1.677c0.509-0.258,0.916-0.466,1.071-0.539c0.079-0.021,0.19-0.054,0.361-0.106
		c1.275-0.379,2.036-0.574,2.25-0.579c0.466,0.024,0.763,0.132,0.993,0.363l1.123-1.123c-0.512-0.512-1.177-0.782-2.034-0.825
		c-0.38-0.022-1.085,0.14-2.633,0.598c0.363-0.262,0.696-0.501,0.801-0.566c0.252-0.155,0.964-0.518,1.47-0.654
		c0.633-0.168,1.848-0.545,1.853-0.547c0.171-0.045,0.585-0.083,0.782,0.079c0.403,0.331,0.52,0.518,0.521,0.52l1.419-0.71
		c-0.061-0.132-0.274-0.496-0.932-1.037c-0.883-0.726-2.077-0.419-2.232-0.376c0,0-1.199,0.372-1.821,0.538
		c-0.718,0.192-1.586,0.647-1.894,0.837c-0.153,0.094-0.743,0.519-1.265,0.895c-0.351,0.253-0.669,0.483-0.778,0.556
		c-0.144,0.095-0.995,0.539-1.794,0.949c0.024-0.258,0.054-0.543,0.085-0.817c0.001-0.021,0.005-0.05,0.01-0.074
		c0.465-0.249,1.347-0.929,1.709-1.214c0.23-0.171,0.652-0.443,0.87-0.516c0.163-0.054,0.671-0.233,1.267-0.444
		c0.911-0.322,2.287-0.809,2.501-0.868c0.136-0.038,0.385-0.134,0.678-0.249c0.323-0.128,1.079-0.427,1.276-0.441l0.107,0.006
		l0.105-0.023c0.599-0.132,1.765-0.305,2.34-0.2c0.351,0.062,0.76,0.65,0.923,1.023l1.46-0.625
		c-0.076-0.176-0.775-1.726-2.105-1.962c-0.185-0.032-0.391-0.045-0.602-0.049c0.224-0.056,0.447-0.108,0.645-0.145
		c0.711-0.134,1.182-0.223,2.012-0.002c0.347,0.092,0.506,0.758,0.525,1.048l1.585-0.094c-0.043-0.768-0.45-2.156-1.703-2.49
		c-0.196-0.052-0.38-0.091-0.554-0.12c0.752-0.136,1.609-0.274,1.805-0.274c0.001,0,0.001,0,0.001,0
		c0.262,0.027,0.72,0.236,0.811,0.404l1.396-0.755c-0.073-0.135-0.181-0.241-0.284-0.352c0.457-0.013,0.965-0.027,1.058-0.02
		c0.151,0.076,0.495,0.423,0.548,0.679l1.556-0.322c-0.093-0.448-0.354-0.867-0.658-1.196c0.339-0.003,0.708-0.004,1.049-0.004
		l-0.009,0.02c0.005,0.002,0.471,0.233,0.576,0.623c0.192,0.71,0.272,1.335,0.273,1.341l1.576-0.196
		c-0.005-0.03-0.093-0.738-0.316-1.56c-0.006-0.021-0.015-0.037-0.021-0.058c0.32,0.108,0.581,0.256,0.599,0.35l1.113-0.212
		c0.41,0.071,0.87,0.15,1.078,0.183c0.066,0.025,0.206,0.158,0.292,0.273c0.206,0.373,0.409,0.819,0.431,0.953
		c0.033,0.308,0,0.653,0,0.656l1.579,0.16c0.006-0.051,0.05-0.517,0-0.983c-0.009-0.082-0.039-0.179-0.064-0.273
		c0.05,0.005,0.108,0.009,0.147,0.014l0.165,0.083c0.066,0.244,0.116,0.533,0.08,0.701l1.553,0.333
		c0.012-0.055,0.016-0.111,0.023-0.166c0.395,0.219,0.729,0.408,0.784,0.441c0.054,0.084,0.141,0.382,0.177,0.614l0.092,0.574
		l0.574,0.088c0.423,0.064,0.96,0.16,1.063,0.192c0.074,0.033,0.289,0.183,0.384,0.253c0.606,0.616,1.47,1.5,1.748,1.795
		c-0.001,0.051-0.011,0.115-0.02,0.149c-0.08,0.258-0.092,0.653-0.092,0.864v0.598l0.575,0.165c0.375,0.108,1.066,0.323,1.324,0.438
		c0.097,0.044,0.151,0.14,0.153,0.14c0,0,0,0,0-0.001l0.066,0.126c0,0,1.023,1.591,1.343,2.068c0,0-0.347,0.793-0.423,1.036
		c-0.171,0.545,0.115,1.019,0.41,1.26l0.23,0.131c0.001,0,0.951,0.344,1.192,0.421c0.064,0.064,0.183,0.304,0.262,0.544
		c0.329,0.82,0.697,1.771,0.806,2.162c-0.371,0.447-0.441,0.599-0.471,0.666c-0.122,0.269-0.14,0.644-0.137,0.89
		c0.027,0.473,0.179,1.295,0.874,1.489c0.074,0.02,0.174,0.066,0.284,0.112c0.216,0.09,0.437,0.182,0.654,0.236
		c0.02,0.044,0.042,0.094,0.067,0.15l0.116,0.254c0.138,0.297,0.354,1.708,0.402,2.251c-0.012,0.008-0.024,0.017-0.036,0.025
		c-0.128,0.092-0.273,0.197-0.39,0.361c-0.327,0.456-0.372,1.322-0.373,1.327c-0.019,0.354,0.11,0.88,0.166,1.089l0.041,0.153
		l0.097,0.126c0.079,0.101,0.486,0.592,1.152,0.701c0.002,0.016,0.006,0.033,0.008,0.055c0.041,0.303,0.144,1.684,0.185,2.413
		c-0.336,0.103-0.41,0.147-0.468,0.181c-0.26,0.157-0.413,0.431-0.496,0.889c-0.012,0.067-0.116,0.672-0.052,1.415
		c0.061,0.723,0.194,1.09,0.509,1.405c0.109,0.109,0.304,0.249,0.526,0.363c-0.016,0.299-0.117,1.648-0.18,2.285
		c-0.227,0.035-0.478,0.074-0.478,0.074l-0.507,0.075l-0.128,0.509c0,0-0.214,0.842-0.229,0.967c-0.02,0.154-0.05,0.941-0.032,1.189
		c0.029,0.432,0.335,0.916,0.76,1.238c-0.196,0.823-0.429,1.74-0.574,2.243c-0.235-0.035-0.532-0.074-0.532-0.074L55.06,43.48
		l-0.581,1.996c-0.116,0.388-0.063,0.787-0.051,0.864l0.025,0.16l0.085,0.137c0.069,0.112,0.284,0.447,0.533,0.71
		c-0.361,0.928-0.774,1.936-0.945,2.313c-0.379-0.088-0.664-0.116-0.84-0.11c-0.76,0.06-0.954,0.886-1.046,1.28
		c-0.06,0.246-0.085,0.423-0.107,0.586c-0.055,0.293,0.032,0.477,0.293,1.023c0.048,0.1,0.098,0.202,0.137,0.287
		c-0.035,0.073-0.086,0.166-0.136,0.242c0,0.001-0.895,1.396-1.223,1.888h-0.002c-0.086-0.026-0.237-0.095-0.316-0.155
		c-0.31-0.237-0.691-0.311-1.037-0.208c-0.305,0.094-0.543,0.314-0.638,0.6c-0.014,0.045-0.149,0.521-0.196,0.706
		c-0.086,0.344,0.043,1.053,0.214,1.47c-0.008,0.052-0.022,0.105-0.034,0.153c-0.627,0.629-1.321,1.305-1.635,1.58h-0.308
		l-0.889-0.296l-0.501,1.508l1.01,0.336l0.944,0.041c0.369,0,0.48,0,2.689-2.234L49.941,57.8l0.258-0.752
		c0.431,0.148,0.567,0.58,0.543,0.741c0.074-0.336,0.177-0.797-0.05-1.128c-0.027-0.064-0.066-0.221-0.094-0.336
		c0.236,0.086,0.483,0.142,0.717,0.118c0.218-0.013,0.729-0.044,1.056-0.478c0.13-0.173,1.018-1.552,1.386-2.126
		c0.267-0.401,0.548-0.985,0.369-1.488c-0.043-0.123-0.154-0.363-0.266-0.596c-0.047-0.098-0.094-0.196-0.13-0.276
		c0.011-0.07,0.027-0.161,0.054-0.271c0.006,0.001,0.011,0.002,0.011,0.002c0.396,0.126,1.003,0.119,1.422-0.324
		c0.107-0.115,0.332-0.351,1.468-3.323c0.088-0.354,0.027-0.903-0.432-1.28c-0.05-0.042-0.156-0.175-0.255-0.317
		c0.001-0.017,0.002-0.03,0.005-0.039l0.194-0.663c0.664,0.246,1.144-0.125,1.361-0.54c0.185-0.355,0.555-1.822,0.837-3.018
		c0.202-0.515,0.085-1.196-0.548-1.539c-0.117-0.063-0.193-0.178-0.187-0.116c-0.01-0.134,0.012-0.763,0.02-0.859
		c0.01-0.055,0.037-0.172,0.069-0.298c0.023-0.005,0.038-0.008,0.041-0.011c0.633,0.037,1.021-0.372,1.14-0.756
		c0.12-0.389,0.285-2.974,0.286-2.998l0.01-0.135C59.311,33.967,58.759,33.734,58.454,33.692z M9.41,18.08
		c0.181-0.108,0.356-0.22,0.516-0.325c-0.025,0.152-0.036,0.281-0.039,0.361l0.056,0.73c-0.04-0.237-0.142-0.476-0.356-0.651
		C9.543,18.158,9.483,18.117,9.41,18.08z M21.311,5.688c0.444-0.217,0.961-0.43,1.108-0.456c0.012-0.002,0.03-0.005,0.053-0.01
		c-0.36,0.157-0.713,0.311-0.892,0.385c-0.165,0.068-0.386,0.157-0.627,0.253C21.162,5.76,21.31,5.689,21.311,5.688z M11.837,10.438
		c1.036-0.719,2.194-1.499,2.478-1.631c0.11-0.051,0.242-0.114,0.385-0.183c-0.443,0.321-0.887,0.648-0.991,0.741
		C13.509,9.515,12.371,10.158,11.837,10.438z M8.459,16.121l-0.076-0.09c0.388-0.394,0.844-0.85,1.037-1.021
		c0.135-0.12,0.307-0.295,0.491-0.486c0.223-0.229,0.639-0.656,0.792-0.737c0.188-0.089,0.481-0.277,0.775-0.471
		c-0.003,0.021-0.006,0.044-0.009,0.067c-0.069,0.506-0.131,0.722-0.119,0.694l-1.774,1.991c-0.506,0.364-1.315,0.887-1.664,0.999
		c-0.628,0.203-1.038,0.697-1.338,1.059c-0.086,0.104-0.217,0.261-0.268,0.299C6.193,18.5,5.91,18.709,5.571,18.962l0.374-0.954
		L8.459,16.121z M3.6,25.184c0.276-0.187,0.802-0.63,1.961-1.751l0.496-0.48l-0.14-0.192c0.273-0.472,0.921-1.34,1.624-2.159
		c0.284-0.23,0.613-0.481,0.899-0.682c0.053,0.54,0.122,1.236,0.146,1.414C8.582,21.393,8.521,21.544,8.49,21.6l-0.741,1.086
		c-0.27,0.506-0.669,1.06-0.814,1.15c-0.54,0.217-1.27,0.851-1.971,1.481l-0.172,0.153c-0.011,0.01-1.025,0.912-1.469,1.434
		l0.268-1.673L3.6,25.184z M3.744,28.657c0.133-0.102,0.262-0.204,0.374-0.301c-0.056,0.12-0.125,0.252-0.212,0.4
		C3.858,28.722,3.804,28.69,3.744,28.657z M2.799,33.068c0.005-0.057,0.019-0.104,0.031-0.137c0.071-0.068,0.189-0.167,0.318-0.231
		c0.639-0.319,1.433-1.61,1.553-2.109c0.012-0.049,0.009-0.097,0.014-0.146c0.257-0.374,0.771-1.155,0.969-1.701
		c0.044-0.105,0.231-0.361,0.966-0.95c0.141,0.542,0.342,1.328,0.427,1.736c0.055,0.267-0.017,0.503-0.094,0.753
		c-0.049,0.158-0.1,0.321-0.103,0.422c-0.054,0.186-0.422,0.883-0.759,1.472l-1.426,1.14L4.6,33.407
		c-1.066,1.185-1.364,1.637-1.464,1.848c-0.048,0.048-0.134,0.119-0.235,0.2C2.84,34.302,2.791,33.243,2.799,33.068z M4.195,36.558
		c-0.027-0.016-0.052-0.03-0.079-0.045c0.122-0.108,0.209-0.197,0.273-0.272C4.322,36.345,4.258,36.45,4.195,36.558z M14.415,57.75
		c0.063,0.027,0.118,0.058,0.146,0.082c0.258,0.23,1.604,1.298,1.604,1.298l0.173,0.1l-1.013-0.15
		c-0.15-0.081-0.38-0.204-0.416-0.217c-0.059-0.035-0.175-0.116-0.306-0.205c-0.091-0.062-0.187-0.127-0.279-0.189
		c0.023-0.108,0.052-0.214,0.042-0.337C14.359,58.052,14.382,57.898,14.415,57.75z M10.542,51.645
		c0.486,0.484,1.613,1.626,1.627,1.639c0.105,0.101,0.228,0.268,0.245,0.315c0.024,0.211,0.013,0.806-0.003,1.217
		c-0.165,0.103-0.379,0.286-0.627,0.535c-0.043,0.015-0.097,0.024-0.133,0.042c-0.058,0.03-0.129,0.07-0.211,0.117
		c-0.117,0.067-0.267,0.154-0.407,0.206l-0.594-0.614c-0.452-0.537-1.149-1.387-1.262-1.548c-0.003-0.02,0.001-0.061,0.008-0.1
		c0.172-0.223,0.496-0.681,0.644-1.143c0.01-0.029,0.011-0.058,0.019-0.087C10.052,52.055,10.352,51.807,10.542,51.645z
		 M7.182,45.092c0.148-0.148,0.265-0.327,0.378-0.501c0.042-0.064,0.1-0.151,0.154-0.227c0.102,0.297,0.256,0.635,0.488,0.961
		c0.255,0.36,0.685,0.983,0.905,1.303v1.59C9.065,48.251,9.027,48.277,9,48.289c-0.269,0.124-1.402,1.084-1.946,1.865
		c-0.021,0.004-0.047,0.008-0.067,0.012c-0.045-0.1-0.092-0.21-0.132-0.313l-0.058-0.118c-0.449-0.743-0.941-1.57-1.133-1.905
		l0.757-0.981c0.387-0.566,0.489-0.859,0.518-1.034C7.02,45.509,7.149,45.149,7.182,45.092z M6.729,40.552
		c-0.294,0.233-0.817,0.654-1.057,0.888c-0.326,0.32-0.967,1.118-1.031,1.199c-0.119,0.144-0.303,0.328-0.49,0.483l-0.516-2.325
		c0.119-0.082,0.329-0.273,0.778-0.811c0.321-0.386,0.623-1.151,0.646-1.637c0-0.004-0.001-0.009-0.001-0.012
		c0.193-0.414,0.595-1.213,0.923-1.593c0.148-0.172,0.294-0.323,0.425-0.45c0.248,0.582,0.618,1.411,0.76,1.727l0.062,0.112
		c0.067,0.104,0.138,0.254,0.163,0.342C7.218,38.91,6.898,39.977,6.729,40.552z M7.561,33.1c-0.262,0.682-0.24,1.34-0.237,1.414
		l0.113,0.303c-0.302-0.319-0.762-0.422-1.144-0.367l-0.199,0.03l-0.161,0.121c-0.023,0.017-0.58,0.438-1.154,1.105
		c-0.076,0.088-0.152,0.188-0.227,0.293c0.01-0.026,0.017-0.048,0.021-0.065c0.099-0.18,0.673-0.865,1.165-1.415l1.491-1.192
		l0.191-0.221c0.226-0.389,0.397-0.699,0.534-0.959C7.813,32.476,7.659,32.847,7.561,33.1z M7.997,26.705
		c-0.085-0.202-0.339-0.688-0.854-0.819c-0.137-0.035-0.275-0.03-0.41-0.006c0.308-0.257,0.624-0.502,0.79-0.569
		C7.653,25.26,7.778,25.176,7.9,25.08c-0.147,0.492-0.02,1.033,0.048,1.234c0.083,0.379,0.174,0.79,0.257,1.161
		C8.099,27.07,8.012,26.748,7.997,26.705z M11.252,21.559c-0.293,0.196-0.542,0.366-0.641,0.419
		c-0.007,0.003-0.418,0.21-0.786,0.479c0.1-0.166,0.408-0.728,0.338-1.289c-0.014-0.111-0.043-0.384-0.074-0.696
		c0.071,0.266,0.28,0.82,0.826,0.971c0.085,0.024,0.171,0.035,0.256,0.035c0.102,0,0.2-0.03,0.296-0.062
		C11.392,21.467,11.336,21.503,11.252,21.559z M9.963,19.087l0.032,0.417c-0.013-0.135-0.024-0.254-0.031-0.325
		C9.966,19.15,9.962,19.118,9.963,19.087z M12.842,14.555c0.073-0.226,0.143-0.531,0.201-0.957c0.085-0.621,0.133-1.066,0.129-1.142
		c0.015-0.147,0.042-0.528-0.171-0.843c0.108-0.059,0.218-0.12,0.333-0.184c-0.066,0.575-0.168,1.532-0.146,1.845l0.084,0.494
		l0.336,0.215c0.077,0.05,0.163,0.086,0.256,0.113c-0.119,0.054-0.223,0.1-0.292,0.125C13.268,14.336,13.039,14.448,12.842,14.555z
		 M17.19,8.113c0.019-0.05,0.045-0.101,0.058-0.15c0.055-0.201,0.173-0.421,0.23-0.52c0.044,0.181,0.124,0.346,0.255,0.479
		C17.517,7.998,17.325,8.066,17.19,8.113z M57.779,37.296c0.01-0.001,0.017-0.002,0.024-0.002c0.001,0,0.001,0,0.002,0
		C57.802,37.294,57.792,37.295,57.779,37.296z"/>
	<path fill="#1B9DD9" d="M26.504,55.721l0.117-0.192v-0.982h-1.588v0.537c-0.158,0.265-0.414,0.713-0.52,0.994
		c-0.067,0.115-0.379,0.415-0.689,0.67c-0.251,0.075-0.763,0.233-1.121,0.359c-0.6,0.212-1.223,0.74-1.267,0.778
		c-0.003,0.002-0.803,0.639-1.124,0.853c-0.157,0.105-0.786,0.376-1.275,0.564l0.569,1.482c0.276-0.105,1.206-0.471,1.586-0.724
		c0.351-0.235,1.23-0.929,1.254-0.95c0.188-0.161,0.556-0.425,0.785-0.505c0.46-0.163,1.191-0.379,1.195-0.381l0.264-0.136
		c0.488-0.381,1.109-0.935,1.29-1.405C26.058,56.479,26.333,55.997,26.504,55.721z"/>
	<polygon fill="#1B9DD9" points="26.96,60.306 27.866,59.378 28.766,58.006 27.431,57.145 26.656,58.349 26.053,58.997 
		24.778,59.753 25.587,61.12 	"/>
	<path fill="#1B9DD9" d="M45.856,33.324c0-7.205-3.619-12.849-8.239-12.849s-8.238,5.644-8.238,12.849
		c0,7.204,3.618,12.849,8.238,12.849S45.856,40.528,45.856,33.324z M32.197,26.822c0.988,1.746,1.546,3.938,1.546,6.224
		c0,2.402-0.607,4.676-1.68,6.455c-0.691-1.775-1.096-3.896-1.096-6.177C30.967,30.901,31.425,28.661,32.197,26.822z M37.617,44.584
		c-1.675,0-3.203-1.062-4.374-2.799c1.866-2.145,2.976-5.346,2.976-8.738c0-3.292-1.007-6.337-2.765-8.491
		c1.141-1.556,2.588-2.493,4.163-2.493c3.667,0,6.65,5.052,6.65,11.261S41.284,44.584,37.617,44.584z"/>
	<path fill="#1B9DD9" d="M55.586,32.593c0-13.146-7.174-23.842-15.992-23.842c-8.817,0-15.991,10.695-15.991,23.842
		c0,13.147,7.173,23.842,15.991,23.842C48.412,56.435,55.586,45.74,55.586,32.593z M25.191,32.593
		c0-12.271,6.461-22.254,14.403-22.254c7.942,0,14.403,9.983,14.403,22.254c0,12.271-6.461,22.253-14.403,22.253
		C31.652,54.846,25.191,44.864,25.191,32.593z"/>
	<path fill="#1B9DD9" d="M29.478,62.691c0.655-0.188,1.344-1.185,2.049-2.962l-1.476-0.585c-0.369,0.928-0.89,1.894-1.011,2.02
		c-0.658,0.188-2.106,0.888-2.269,0.966l0.693,1.429C28.032,63.284,29.081,62.804,29.478,62.691z"/>
</g>
</svg>
