<?xml version="1.0" encoding="utf-8"?>
<!-- Generator: Adobe Illustrator 24.0.2, SVG Export Plug-In . SVG Version: 6.00 Build 0)  -->
<svg version="1.1" id="Слой_1" xmlns="http://www.w3.org/2000/svg" xmlns:xlink="http://www.w3.org/1999/xlink" x="0px" y="0px"
	 width="410.532px" height="227.383px" viewBox="0 0 410.532 227.383" enable-background="new 0 0 410.532 227.383"
	 xml:space="preserve">
<g>
	<path fill="#333333" d="M98.383,11.578c0.596-5.018-0.286-8.186-1.878-9.619l0.001-0.001c-2.569-2.447-11.247-2.809-14.321,0.11
		c-1.38,1.428-1.867,3.524-1.92,6.118c-0.053,2.595-0.117,7.457,4.414,8.776h0.004l-0.004,2.014c0,0-0.031,0.816,0.49,0.98
		c0.596,0.193,0.866-0.186,2.72-2.4c3.101,0.269,5.482-0.347,5.752-0.437C94.268,16.909,97.81,16.44,98.383,11.578L98.383,11.578z
		 M88.195,16.138c0,0-1.962,2.447-2.573,3.082c-0.2,0.206-0.419,0.187-0.415-0.222c0-0.269,0.015-3.344,0.015-3.344
		c-3.841-1.101-3.614-5.24-3.573-7.406c0.042-2.166,0.438-3.941,1.607-5.135C85.953,0.584,93.56,1.15,95.499,2.971
		c2.37,2.101,1.526,8.035,1.531,8.238c-0.487,4.058-3.358,4.315-3.886,4.491C92.918,15.775,90.824,16.314,88.195,16.138
		L88.195,16.138z"/>
	<path fill="#333333" d="M89.28,3.589c-0.321,0-0.321,0.5,0,0.504c2.487,0.019,4.535,1.753,4.558,4.932
		c0,0.336,0.491,0.331,0.487-0.004h-0.001C94.298,5.594,92.061,3.608,89.28,3.589L89.28,3.589z"/>
	<path fill="#333333" d="M92.552,8.498c-0.007,0.331,0.483,0.347,0.487,0.012c0.041-1.889-1.124-3.445-3.313-3.609
		c-0.321-0.023-0.354,0.48-0.034,0.504C91.59,5.548,92.59,6.843,92.552,8.498L92.552,8.498z"/>
	<path fill="#333333" d="M92.027,10.647c-0.411-0.238-0.83-0.09-1.003,0.144l-0.362,0.469c-0.184,0.238-0.528,0.206-0.528,0.206
		c-2.509-0.664-3.181-3.29-3.181-3.29S86.922,7.82,87.152,7.63l0.453-0.375c0.226-0.18,0.37-0.613,0.139-1.038
		c-0.616-1.113-1.03-1.497-1.241-1.792c-0.221-0.277-0.555-0.34-0.901-0.152h-0.007c-0.72,0.421-1.509,1.21-1.256,2.022
		c0.43,0.856,1.221,3.584,3.743,5.646c1.185,0.975,3.06,1.974,3.856,2.205l0.007,0.012c0.784,0.261,1.547-0.558,1.954-1.3v-0.006
		c0.181-0.359,0.121-0.699-0.143-0.921C93.288,11.474,92.582,10.97,92.027,10.647L92.027,10.647z"/>
	<path fill="#333333" d="M90.069,6.758c0.8,0.047,1.188,0.465,1.23,1.323c0.015,0.336,0.502,0.312,0.487-0.023
		c-0.053-1.121-0.638-1.745-1.69-1.803C89.775,6.236,89.745,6.739,90.069,6.758L90.069,6.758z"/>
</g>
<path fill="#333333" d="M108.977,20h-4.704v-8.323h-2.703V6.979h2.703V5.068c0-3.078,1.893-5.068,4.823-5.068
	c1.281,0,2.31,0.102,2.57,0.138l0.6,0.082v4.26h-2.394c-0.807,0-0.895,0.186-0.895,0.916v1.583h3.098l-0.585,4.698h-2.512
	L108.977,20L108.977,20z M105.663,18.61h1.924v-8.323h2.675l0.239-1.918h-2.915V5.395c0-0.571,0.002-2.305,2.285-2.305h1.004V1.456
	c-0.454-0.034-1.09-0.067-1.78-0.067c-2.182,0-3.433,1.34-3.433,3.678v3.301h-2.703v1.918h2.703L105.663,18.61L105.663,18.61z"/>
<path fill="#333333" d="M13.889,20c-0.842,0-8.282-0.016-10.391-0.588c-1.424-0.383-2.549-1.507-2.933-2.934
	C0.006,14.376,0,10.178,0,10c0-0.177,0.006-4.353,0.565-6.474c0.381-1.415,1.531-2.575,2.931-2.959C5.59,0.016,13.046,0,13.889,0
	c0.844,0,8.305,0.016,10.393,0.588c1.422,0.383,2.546,1.507,2.93,2.932c0.582,2.128,0.567,6.328,0.566,6.506
	c0,0.172-0.006,4.349-0.564,6.469c-0.385,1.431-1.51,2.555-2.936,2.939C22.189,19.984,14.733,20,13.889,20z M13.889,1.835
	c-2.226,0-8.346,0.091-9.917,0.504c-0.775,0.213-1.42,0.865-1.634,1.659C1.842,5.884,1.835,9.959,1.835,10s0.006,4.135,0.504,6.004
	c0.214,0.794,0.842,1.422,1.638,1.636c1.587,0.43,7.694,0.524,9.913,0.524c2.226,0,8.346-0.091,9.917-0.504
	c0.792-0.213,1.42-0.841,1.634-1.638c0.497-1.888,0.502-5.96,0.502-6.001c0-0.046,0.014-4.134-0.502-6.019L25.44,3.998
	c-0.214-0.796-0.842-1.424-1.639-1.639C22.23,1.93,16.113,1.835,13.889,1.835z M10.386,15.477V4.523L19.895,10L10.386,15.477z
	 M12.221,7.698v4.604L16.218,10L12.221,7.698z"/>
<g>
	<path fill="#333333" d="M50.725,5.88c-0.047-1.063-0.219-1.793-0.465-2.426c-0.254-0.672-0.645-1.274-1.157-1.774
		c-0.5-0.508-1.106-0.903-1.77-1.153c-0.637-0.246-1.363-0.418-2.426-0.465C43.837,0.012,43.497,0,40.781,0
		c-2.715,0-3.055,0.012-4.122,0.059c-1.063,0.047-1.793,0.219-2.426,0.465c-0.672,0.254-1.274,0.645-1.774,1.157
		c-0.508,0.5-0.902,1.106-1.153,1.77c-0.246,0.637-0.418,1.363-0.465,2.426c-0.051,1.071-0.063,1.41-0.063,4.126
		s0.012,3.055,0.059,4.122c0.047,1.063,0.219,1.793,0.465,2.426c0.254,0.672,0.648,1.274,1.156,1.774
		c0.5,0.508,1.106,0.903,1.77,1.153c0.637,0.246,1.363,0.418,2.426,0.465C37.722,19.988,38.062,20,40.778,20
		c2.715,0,3.055-0.012,4.122-0.059c1.063-0.047,1.793-0.219,2.426-0.465c1.344-0.52,2.407-1.582,2.926-2.926
		c0.246-0.637,0.418-1.364,0.465-2.426c0.047-1.067,0.059-1.407,0.059-4.122S50.772,6.947,50.725,5.88z M48.924,14.046
		c-0.043,0.977-0.207,1.504-0.344,1.856c-0.336,0.871-1.028,1.563-1.899,1.899c-0.352,0.137-0.883,0.301-1.856,0.344
		c-1.055,0.047-1.371,0.059-4.04,0.059s-2.989-0.012-4.04-0.059c-0.977-0.043-1.504-0.207-1.856-0.344
		c-0.434-0.16-0.828-0.414-1.149-0.746c-0.332-0.324-0.586-0.715-0.746-1.149c-0.137-0.352-0.301-0.883-0.344-1.856
		c-0.047-1.055-0.059-1.371-0.059-4.04s0.012-2.989,0.059-4.04c0.043-0.977,0.207-1.504,0.344-1.856
		c0.16-0.434,0.414-0.828,0.75-1.149c0.324-0.332,0.715-0.586,1.149-0.746c0.352-0.137,0.883-0.301,1.856-0.344
		c1.055-0.047,1.371-0.059,4.04-0.059c2.672,0,2.989,0.012,4.04,0.059c0.977,0.043,1.504,0.207,1.856,0.344
		c0.434,0.16,0.828,0.414,1.149,0.746c0.332,0.324,0.586,0.715,0.746,1.149c0.137,0.352,0.301,0.883,0.344,1.856
		c0.047,1.055,0.059,1.371,0.059,4.04S48.971,12.991,48.924,14.046z"/>
	<path fill="#333333" d="M40.781,4.864c-2.836,0-5.138,2.301-5.138,5.138s2.301,5.138,5.138,5.138s5.138-2.301,5.138-5.138
		S43.618,4.864,40.781,4.864z M40.781,13.335c-1.84,0-3.333-1.492-3.333-3.333c0-1.84,1.493-3.333,3.333-3.333
		s3.333,1.492,3.333,3.333C44.114,11.842,42.622,13.335,40.781,13.335z"/>
	<path fill="#333333" d="M47.322,4.661c0,0.662-0.537,1.199-1.2,1.199c-0.662,0-1.199-0.537-1.199-1.199
		c0-0.663,0.537-1.199,1.199-1.199C46.785,3.462,47.322,3.999,47.322,4.661z"/>
</g>
<path fill="#333333" d="M72.069,19.999c-0.332,0-0.735-0.091-1.207-0.356l-0.085-0.055l-4.471-3.302l-1.93,1.86
	c-0.297,0.298-0.719,0.721-1.573,0.721h-0.876l0.447-6.338l4.714-4.268l-6.637,4.188l-5.312-1.666
	c-1.198-0.374-1.352-1.129-1.362-1.436c-0.014-0.41,0.166-1.179,1.534-1.714L74.694,0.15c0.717-0.27,1.438-0.171,1.933,0.262
	c0.323,0.281,0.823,0.948,0.546,2.253l-0.051,0.238l-3.247,15.341c-0.186,0.823-0.564,1.363-1.127,1.616
	C72.574,19.935,72.347,19.999,72.069,19.999z M71.697,18.229c0.234,0.125,0.362,0.134,0.39,0.125
	c0.024-0.016,0.122-0.14,0.196-0.466l3.309-15.635c0.074-0.403-0.005-0.576-0.03-0.598c-0.01-0.008-0.104-0.037-0.291,0.033
	L55.899,9.167c-0.066,0.026-0.125,0.051-0.177,0.075l4.5,1.411l11.191-7.061c0.673-0.449,1.451-0.42,1.833,0.081
	c0.268,0.352,0.31,0.949-0.23,1.431l-9.06,8.204l-0.224,3.185l2.437-2.349L71.697,18.229z"/>
<g>
	<path fill="#333333" d="M126.518,30.5c-0.931,0-1.768-0.463-2.238-1.239l-7.592-13.195c-1.947-3.383-1.891-7.398,0.148-10.741
		c1.987-3.257,5.513-5.247,9.432-5.323c0.166-0.003,0.333-0.003,0.499,0c3.919,0.077,7.445,2.066,9.432,5.323l0,0
		c2.04,3.342,2.095,7.357,0.148,10.741l-7.573,13.163C128.286,30.037,127.449,30.5,126.518,30.5z M126.518,1.5
		c-0.074,0-0.148,0-0.221,0.002c-3.403,0.066-6.461,1.788-8.18,4.604c-1.75,2.868-1.798,6.311-0.129,9.211l7.573,13.163
		c0.396,0.653,1.521,0.651,1.913,0.002l7.574-13.165c1.668-2.901,1.621-6.344-0.129-9.211c-1.719-2.817-4.777-4.539-8.181-4.604
		C126.665,1.501,126.592,1.5,126.518,1.5z M126.518,14.641c-2.782,0-5.044-2.166-5.044-4.828s2.263-4.828,5.044-4.828
		s5.045,2.166,5.045,4.828S129.299,14.641,126.518,14.641z M126.518,6.485c-1.955,0-3.544,1.493-3.544,3.328s1.59,3.328,3.544,3.328
		s3.545-1.493,3.545-3.328S128.472,6.485,126.518,6.485z"/>
</g>
<g>
	<path fill="#333333" d="M145.633,15.954c2.376,2.83,5.237,5.058,8.501,6.634c1.243,0.587,2.905,1.283,4.757,1.402
		c0.115,0.005,0.225,0.01,0.339,0.01c1.243,0,2.241-0.428,3.055-1.308c0.005-0.005,0.015-0.015,0.02-0.025
		c0.29-0.348,0.619-0.661,0.963-0.995c0.235-0.224,0.474-0.458,0.704-0.696c1.063-1.104,1.063-2.506-0.01-3.576l-3-2.989
		c-0.509-0.527-1.118-0.806-1.757-0.806s-1.253,0.278-1.777,0.801l-1.787,1.78c-0.165-0.094-0.334-0.179-0.494-0.259
		c-0.2-0.099-0.384-0.194-0.549-0.298c-1.627-1.029-3.105-2.372-4.518-4.098c-0.714-0.9-1.193-1.656-1.528-2.427
		c0.469-0.423,0.909-0.865,1.333-1.298c0.15-0.154,0.305-0.308,0.459-0.462c0.539-0.537,0.829-1.159,0.829-1.79
		s-0.285-1.253-0.829-1.79l-1.488-1.482c-0.175-0.174-0.339-0.343-0.509-0.517c-0.329-0.338-0.674-0.686-1.013-1
		C146.821,0.264,146.217,0,145.578,0c-0.634,0-1.243,0.264-1.777,0.771l-1.867,1.86c-0.679,0.676-1.063,1.497-1.143,2.447
		c-0.095,1.189,0.125,2.452,0.694,3.978C142.358,11.418,143.676,13.611,145.633,15.954z M142.009,5.182
		c0.06-0.661,0.314-1.213,0.794-1.691l1.857-1.85c0.29-0.278,0.609-0.423,0.919-0.423c0.305,0,0.614,0.144,0.899,0.433
		c0.334,0.308,0.649,0.632,0.988,0.975c0.17,0.174,0.344,0.348,0.519,0.527l1.488,1.482c0.31,0.308,0.469,0.622,0.469,0.93
		s-0.16,0.622-0.469,0.93c-0.155,0.154-0.309,0.313-0.464,0.467c-0.464,0.467-0.899,0.91-1.378,1.333
		c-0.01,0.01-0.015,0.015-0.025,0.025c-0.414,0.413-0.349,0.806-0.25,1.104c0.005,0.015,0.01,0.025,0.015,0.04
		c0.384,0.92,0.919,1.795,1.752,2.84c1.498,1.84,3.075,3.267,4.812,4.366c0.215,0.139,0.444,0.249,0.659,0.358
		c0.2,0.099,0.384,0.194,0.549,0.298c0.02,0.01,0.035,0.02,0.055,0.03c0.165,0.085,0.324,0.124,0.484,0.124
		c0.399,0,0.659-0.254,0.744-0.338l1.867-1.86c0.29-0.288,0.604-0.443,0.914-0.443c0.379,0,0.689,0.234,0.884,0.443l3.01,2.994
		c0.599,0.597,0.594,1.243-0.015,1.875c-0.21,0.224-0.429,0.438-0.664,0.661c-0.349,0.338-0.714,0.686-1.043,1.079
		c-0.574,0.617-1.258,0.905-2.142,0.905c-0.085,0-0.175-0.005-0.26-0.01c-1.637-0.104-3.16-0.741-4.303-1.283
		c-3.105-1.497-5.831-3.62-8.092-6.316c-1.862-2.233-3.115-4.312-3.944-6.54C142.123,7.281,141.929,6.182,142.009,5.182z"/>
</g>
<g>
	<g>
		<path fill="#333333" d="M192.436,0h-23.333c-0.733,0-1.333,0.588-1.333,1.308v14.385c0,0.719,0.6,1.308,1.333,1.308h23.333
			c0.733,0,1.333-0.588,1.333-1.308V1.308C193.769,0.588,193.169,0,192.436,0z M191.935,0.981l-10.399,7.65
			c-0.187,0.14-0.474,0.227-0.767,0.226c-0.293,0.001-0.58-0.086-0.767-0.226l-10.399-7.65
			C169.603,0.981,191.935,0.981,191.935,0.981z M186.38,9.136l5.667,6.865c0.006,0.007,0.013,0.012,0.019,0.018h-22.593
			c0.006-0.007,0.013-0.011,0.019-0.018l5.667-6.865c0.174-0.211,0.141-0.519-0.074-0.69c-0.215-0.17-0.529-0.138-0.703,0.073
			l-5.611,6.798V1.594l10.633,7.822c0.4,0.292,0.886,0.42,1.367,0.422c0.48-0.001,0.967-0.129,1.367-0.422l10.633-7.822v13.723
			l-5.611-6.798c-0.174-0.211-0.489-0.243-0.703-0.073C186.24,8.616,186.207,8.925,186.38,9.136z"/>
	</g>
</g>
<path fill="#FFFFFF" d="M11.5,43.463c-0.327,0-0.643-0.119-0.889-0.334c-0.929-0.813-1.825-1.576-2.615-2.25l-0.004-0.004
	c-2.317-1.974-4.318-3.68-5.71-5.36C0.725,33.638,0,31.857,0,29.912c0-1.89,0.648-3.633,1.825-4.91C3.015,23.711,4.649,23,6.425,23
	c1.328,0,2.544,0.419,3.614,1.247c0.54,0.418,1.03,0.929,1.461,1.526c0.432-0.596,0.921-1.108,1.461-1.526
	C14.032,23.419,15.247,23,16.575,23c1.776,0,3.41,0.711,4.601,2.003c1.177,1.276,1.825,3.02,1.825,4.91
	c0,1.945-0.725,3.726-2.281,5.604c-1.392,1.68-3.393,3.385-5.71,5.36c-0.792,0.674-1.689,1.44-2.62,2.254
	C12.143,43.344,11.827,43.463,11.5,43.463z M6.715,24.907c-1.316,0-2.525,0.522-3.404,1.47c-0.892,0.962-1.384,2.292-1.384,3.744
	c0,1.533,0.574,2.904,1.859,4.445c1.242,1.49,3.09,3.055,5.231,4.867l0.004,0.003c0.748,0.634,1.596,1.352,2.479,2.119
	c0.888-0.768,1.737-1.487,2.487-2.123c2.14-1.812,3.988-3.377,5.23-4.867c1.285-1.542,1.859-2.912,1.859-4.445
	c0-1.453-0.491-2.783-1.384-3.744c-0.879-0.948-2.088-1.47-3.404-1.47c-0.964,0-1.849,0.305-2.63,0.905
	c-0.696,0.536-1.182,1.212-1.466,1.686c-0.146,0.243-0.404,0.389-0.689,0.389c-0.286,0-0.542-0.146-0.689-0.389
	c-0.284-0.474-0.77-1.15-1.466-1.686C8.564,25.212,7.679,24.907,6.715,24.907z"/>
<g>
	<rect x="26.015" y="23" fill="#FFFFFF" width="22.866" height="2.401"/>
	<rect x="30.829" y="29.021" fill="#FFFFFF" width="18.052" height="2.401"/>
	<rect x="26.015" y="35.041" fill="#FFFFFF" width="22.866" height="2.401"/>
	<rect x="30.829" y="41.062" fill="#FFFFFF" width="18.052" height="2.401"/>
</g>
<path fill="#333333" d="M63.381,43.463c-0.327,0-0.643-0.119-0.889-0.334c-0.929-0.813-1.825-1.576-2.615-2.25l-0.004-0.004
	c-2.317-1.974-4.318-3.68-5.71-5.36c-1.557-1.877-2.282-3.658-2.282-5.603c0-1.89,0.648-3.633,1.825-4.91
	c1.19-1.291,2.824-2.002,4.6-2.002c1.328,0,2.544,0.419,3.614,1.247c0.54,0.418,1.03,0.929,1.461,1.526
	c0.432-0.596,0.921-1.108,1.461-1.526C65.913,23.419,67.128,23,68.456,23c1.776,0,3.41,0.711,4.601,2.003
	c1.177,1.276,1.825,3.02,1.825,4.91c0,1.945-0.725,3.726-2.281,5.604c-1.392,1.68-3.393,3.385-5.71,5.36
	c-0.792,0.674-1.689,1.44-2.62,2.254C64.024,43.344,63.708,43.463,63.381,43.463z M58.596,24.907c-1.316,0-2.525,0.522-3.404,1.47
	c-0.892,0.962-1.384,2.292-1.384,3.744c0,1.533,0.574,2.904,1.859,4.445c1.242,1.49,3.09,3.055,5.231,4.867l0.004,0.003
	c0.748,0.634,1.596,1.352,2.479,2.119c0.888-0.768,1.737-1.487,2.487-2.123c2.14-1.812,3.988-3.377,5.23-4.867
	c1.285-1.542,1.859-2.912,1.859-4.445c0-1.453-0.491-2.783-1.384-3.744c-0.879-0.948-2.088-1.47-3.404-1.47
	c-0.964,0-1.849,0.305-2.63,0.905c-0.696,0.536-1.182,1.212-1.466,1.686c-0.146,0.243-0.404,0.389-0.689,0.389
	c-0.286,0-0.542-0.146-0.689-0.389c-0.284-0.474-0.77-1.15-1.466-1.686C60.445,25.212,59.56,24.907,58.596,24.907z"/>
<g>
	<rect x="77.896" y="23" fill="#333333" width="22.866" height="2.401"/>
	<rect x="82.71" y="29.021" fill="#333333" width="18.052" height="2.401"/>
	<rect x="77.896" y="35.041" fill="#333333" width="22.866" height="2.401"/>
	<rect x="82.71" y="41.062" fill="#333333" width="18.052" height="2.401"/>
</g>
<g>
	<path fill="#333333" d="M204.321,2.434l-5.371,4.448l0,0l0,0v4.531c0,0.168,0.084,0.336,0.168,0.42s0.252,0.168,0.42,0.168h3.608
		V8.392h2.434V12h3.608c0.168,0,0.336-0.084,0.42-0.168c0.084-0.084,0.168-0.252,0.168-0.42V6.965V6.881L204.321,2.434z"/>
	<path fill="#333333" d="M211.79,5.874l-2.014-1.678v-3.86c0-0.084,0-0.168-0.084-0.252C209.608,0,209.524,0,209.44,0h-1.762
		c-0.084,0-0.168,0-0.252,0.084s-0.084,0.168-0.084,0.252v1.846l-2.35-1.93C204.825,0.084,204.573,0,204.321,0
		s-0.503,0.084-0.671,0.252l-6.713,5.622c-0.168,0.084-0.168,0.168-0.168,0.252c0,0.084,0,0.168,0.084,0.252l0.587,0.671
		c0,0,0.084,0.084,0.168,0.084s0.168,0,0.252-0.084l6.462-5.455l6.462,5.371c0.084,0.084,0.084,0.084,0.168,0.084l0,0
		c0.084,0,0.168-0.084,0.168-0.084l0.587-0.671c0.168-0.084,0.168-0.084,0.168-0.168C211.874,6.042,211.79,5.958,211.79,5.874
		L211.79,5.874z"/>
</g>
<g>
	<g>
		<path fill="#009FE3" d="M9.995,54.644c-0.679,0-1.162,0.287-1.162,0.71v5.752c0,0.362,0.483,0.725,1.162,0.725
			c0.649,0,1.178-0.362,1.178-0.725v-5.752C11.173,54.931,10.644,54.644,9.995,54.644z"/>
		<path fill="#009FE3" d="M9.995,51.096c-0.694,0-1.238,0.498-1.238,1.072c0,0.574,0.544,1.087,1.238,1.087
			c0.679,0,1.223-0.513,1.223-1.087C11.218,51.594,10.674,51.096,9.995,51.096z"/>
	</g>
	<path fill="#009FE3" d="M0,56.463c0,5.527,4.47,10,9.994,10c4.51,0,8.256-2.97,9.528-6.973l3.352-2.274
		c0.249-0.169,0.399-0.451,0.399-0.752s-0.149-0.583-0.399-0.752l-3.352-2.274c-1.273-4.006-5.019-6.973-9.528-6.973
		C4.467,46.463,0,50.939,0,56.463z M17.868,54.252c0.058,0.207,0.187,0.387,0.365,0.507l2.511,1.704l-2.511,1.704
		c-0.178,0.121-0.307,0.3-0.365,0.508c-0.953,3.408-4.087,5.971-7.874,5.971c-4.508,0-8.176-3.67-8.176-8.182
		s3.668-8.182,8.176-8.182C13.785,48.281,16.916,50.848,17.868,54.252z"/>
</g>
<g>
	<g>
		<path fill="#333333" d="M40.849,57.471l-2.093-2.093c-0.748-0.748-2.019-0.449-2.318,0.523c-0.224,0.673-0.972,1.047-1.645,0.897
			c-1.495-0.374-3.514-2.318-3.888-3.888c-0.224-0.673,0.224-1.42,0.897-1.645c0.972-0.299,1.271-1.57,0.523-2.318l-2.093-2.093
			c-0.598-0.523-1.495-0.523-2.019,0l-1.42,1.42c-1.42,1.495,0.15,5.458,3.663,8.971s7.476,5.158,8.971,3.663l1.42-1.42
			C41.372,58.892,41.372,57.995,40.849,57.471z"/>
	</g>
</g>
<g>
	<g>
		<path fill="#009FE3" d="M44.241,56.463c0,5.527,4.47,10,9.994,10c4.51,0,8.256-2.97,9.528-6.973l3.352-2.274
			c0.249-0.169,0.399-0.451,0.399-0.752s-0.149-0.583-0.399-0.752l-3.352-2.274c-1.273-4.006-5.019-6.973-9.528-6.973
			C48.708,46.463,44.241,50.939,44.241,56.463z M62.109,54.252c0.058,0.207,0.187,0.387,0.365,0.507l2.511,1.704l-2.511,1.704
			c-0.178,0.121-0.307,0.3-0.365,0.508c-0.953,3.408-4.087,5.971-7.874,5.971c-4.508,0-8.176-3.67-8.176-8.182
			s3.668-8.182,8.176-8.182C58.026,48.281,61.157,50.848,62.109,54.252z"/>
	</g>
	<g>
		<path fill="#009FE3" d="M52.986,58.198v-0.514c0-0.445,0.095-0.831,0.285-1.16s0.537-0.678,1.042-1.049
			c0.486-0.347,0.807-0.63,0.962-0.848s0.233-0.461,0.233-0.729c0-0.301-0.111-0.53-0.333-0.688
			c-0.222-0.157-0.533-0.236-0.931-0.236c-0.695,0-1.487,0.227-2.376,0.681l-0.757-1.521c1.033-0.579,2.128-0.868,3.286-0.868
			c0.954,0,1.712,0.229,2.275,0.688c0.563,0.458,0.844,1.07,0.844,1.834c0,0.509-0.116,0.949-0.347,1.32
			c-0.232,0.37-0.672,0.787-1.32,1.25c-0.445,0.329-0.726,0.579-0.844,0.75s-0.177,0.396-0.177,0.674v0.417L52.986,58.198
			L52.986,58.198z M52.764,60.574c0-0.389,0.104-0.683,0.313-0.882s0.512-0.299,0.91-0.299c0.384,0,0.682,0.102,0.893,0.306
			s0.316,0.496,0.316,0.875c0,0.366-0.107,0.654-0.32,0.865s-0.509,0.316-0.889,0.316c-0.389,0-0.69-0.103-0.903-0.309
			C52.87,61.24,52.764,60.949,52.764,60.574z"/>
	</g>
</g>
<path fill="#009FE3" d="M72.869,52.195c-1.298,0-2.355-1.056-2.355-2.355s1.056-2.355,2.355-2.355s2.355,1.056,2.355,2.355
	S74.167,52.195,72.869,52.195z"/>
<path fill="#009FE3" d="M92.776,51.008H78.951c-0.373,0-0.675-0.523-0.675-1.168s0.302-1.168,0.675-1.168h13.825
	c0.373,0,0.675,0.523,0.675,1.168S93.149,51.008,92.776,51.008z"/>
<path fill="#009FE3" d="M89.403,57.133H78.794c-0.286,0-0.518-0.523-0.518-1.168s0.232-1.168,0.518-1.168h10.609
	c0.286,0,0.518,0.523,0.518,1.168S89.688,57.133,89.403,57.133z"/>
<path fill="#009FE3" d="M84.142,63.158h-5.593c-0.151,0-0.273-0.523-0.273-1.168s0.122-1.168,0.273-1.168h5.593
	c0.151,0,0.273,0.523,0.273,1.168S84.293,63.158,84.142,63.158z"/>
<path fill="#009FE3" d="M72.869,58.27c-1.298,0-2.355-1.056-2.355-2.355s1.056-2.355,2.355-2.355s2.355,1.056,2.355,2.355
	C75.223,57.214,74.167,58.27,72.869,58.27z"/>
<path fill="#009FE3" d="M72.869,64.345c-1.298,0-2.355-1.056-2.355-2.355s1.056-2.355,2.355-2.355s2.355,1.056,2.355,2.355
	C75.223,63.289,74.167,64.345,72.869,64.345z"/>
<g>
	<path fill="#009FE3" d="M108.451,52.465c-0.061,0-0.122-0.011-0.18-0.033l-6.5-2.5c-0.193-0.074-0.32-0.26-0.32-0.467
		s0.127-0.393,0.32-0.467l6.5-2.5c0.116-0.044,0.243-0.044,0.359,0l6.5,2.5c0.194,0.074,0.321,0.26,0.321,0.467
		s-0.127,0.393-0.32,0.467l-6.5,2.5C108.573,52.454,108.512,52.465,108.451,52.465z M103.344,49.465l5.107,1.964l5.107-1.964
		l-5.107-1.964L103.344,49.465z"/>
	<path fill="#009FE3" d="M108.451,60.465c-0.061,0-0.122-0.011-0.18-0.033l-6.5-2.5c-0.193-0.074-0.32-0.26-0.32-0.467v-8
		c0-0.276,0.224-0.5,0.5-0.5s0.5,0.224,0.5,0.5v7.657l6,2.308l6-2.308v-7.657c0-0.276,0.224-0.5,0.5-0.5s0.5,0.224,0.5,0.5v8
		c0,0.207-0.127,0.393-0.32,0.467l-6.5,2.5C108.573,60.454,108.512,60.465,108.451,60.465z"/>
	<path fill="#009FE3" d="M108.451,60.465c-0.276,0-0.5-0.224-0.5-0.5v-8c0-0.276,0.224-0.5,0.5-0.5s0.5,0.224,0.5,0.5v8
		C108.951,60.241,108.727,60.465,108.451,60.465z"/>
	<path fill="#009FE3" d="M106.951,67.465c-0.152,0-0.302-0.069-0.4-0.2c-0.166-0.221-0.121-0.534,0.1-0.7l1.466-1.1l-1.466-1.1
		c-0.221-0.166-0.266-0.479-0.1-0.7s0.479-0.265,0.7-0.1l2,1.5c0.126,0.094,0.2,0.243,0.2,0.4c0,0.157-0.074,0.306-0.2,0.4l-2,1.5
		C107.161,67.432,107.056,67.465,106.951,67.465L106.951,67.465z"/>
	<path fill="#009FE3" d="M108.451,65.965c-1.512,0-2.943-0.072-4.254-0.213c-1.814-0.183-7.746-0.961-7.746-3.287
		c0-0.949,0.979-1.742,2.908-2.356c0.317-0.098,0.657,0.149,0.657,0.477c0,0.242-0.168,0.444-0.396,0.49
		c-1.6,0.515-2.169,1.07-2.169,1.389c0,0.666,2.125,1.816,6.85,2.292c1.278,0.138,2.673,0.208,4.15,0.208c0.276,0,0.5,0.224,0.5,0.5
		S108.727,65.965,108.451,65.965z"/>
	<path fill="#009FE3" d="M111.941,65.815c-0.258,0-0.477-0.198-0.498-0.459c-0.022-0.275,0.183-0.517,0.458-0.539
		c5.15-0.421,7.55-1.652,7.55-2.352c0-0.322-0.579-0.883-2.212-1.403c-0.263-0.084-0.408-0.365-0.325-0.628
		c0.084-0.263,0.364-0.408,0.628-0.325c1.93,0.614,2.909,1.407,2.909,2.356c0,2.465-6.482,3.186-8.469,3.349
		C111.968,65.815,111.954,65.815,111.941,65.815L111.941,65.815z"/>
</g>
<path fill="#009FE3" d="M138.412,51.216l-2.511-4.572l0,0l-0.009-0.016c-0.034-0.062-0.089-0.102-0.152-0.129
	c-0.007-0.003-0.009-0.013-0.017-0.015c-0.011-0.004-0.022,0.004-0.033,0.002c-0.024-0.006-0.046-0.02-0.072-0.02h-4.668h-0.001
	h-4.667c-0.026,0-0.047,0.014-0.072,0.02c-0.012,0.003-0.022-0.006-0.034-0.002c-0.008,0.003-0.01,0.012-0.017,0.016
	c-0.062,0.027-0.118,0.067-0.152,0.129l-2.52,4.588c-0.062,0.112-0.048,0.253,0.035,0.351l7.187,8.537
	c0.012,0.014,0.029,0.021,0.043,0.033c0.012,0.01,0.023,0.02,0.037,0.028c0.049,0.03,0.102,0.051,0.16,0.051
	s0.111-0.021,0.159-0.051c0.014-0.009,0.025-0.018,0.038-0.029c0.013-0.011,0.03-0.018,0.042-0.032l7.187-8.537
	C138.46,51.469,138.474,51.33,138.412,51.216z M133.293,51.788l-2.342,6.584l-2.342-6.584H133.293z M128.56,50.958l2.393-3.438
	l2.411,3.438H128.56z M133.917,50.407l-2.246-3.203h3.386L133.917,50.407z M127.998,50.407l-1.132-3.183h3.347L127.998,50.407z
	 M127.298,50.923h-2.852l1.731-3.153L127.298,50.923z M127.688,51.797l2.125,5.976l-5.031-5.976
	C124.782,51.797,127.688,51.797,127.688,51.797z M134.213,51.792h2.91l-5.038,5.985L134.213,51.792z M134.572,50.958l1.146-3.223
	l1.769,3.223H134.572z"/>
<path fill="#009FE3" d="M156.767,53.263c0.308-0.3,0.417-0.741,0.284-1.151c-0.133-0.41-0.48-0.702-0.907-0.764l-3.791-0.551
	c-0.161-0.024-0.301-0.125-0.373-0.271l-1.695-3.435c-0.19-0.386-0.577-0.626-1.007-0.626c-0.43,0-0.816,0.24-1.007,0.626
	l-1.695,3.435c-0.072,0.146-0.212,0.248-0.373,0.271l-3.791,0.551c-0.426,0.062-0.773,0.354-0.906,0.764
	c-0.133,0.41-0.024,0.851,0.284,1.151l2.743,2.674c0.117,0.114,0.171,0.278,0.143,0.439l-0.647,3.776
	c-0.073,0.424,0.098,0.845,0.446,1.098c0.348,0.254,0.801,0.287,1.183,0.086l3.39-1.783c0.145-0.076,0.317-0.076,0.461,0
	l3.391,1.783c0.166,0.087,0.345,0.13,0.523,0.13c0.232,0,0.462-0.072,0.659-0.216c0.348-0.253,0.519-0.674,0.446-1.098l-0.648-3.775
	c-0.028-0.161,0.026-0.325,0.143-0.439L156.767,53.263z M152.353,55.907l0.5,2.913c0.025,0.147-0.032,0.287-0.152,0.374
	c-0.121,0.087-0.271,0.098-0.403,0.029l-2.616-1.376c-0.126-0.066-0.265-0.099-0.403-0.099s-0.277,0.033-0.403,0.1l-2.616,1.375
	c-0.132,0.069-0.283,0.058-0.403-0.029c-0.12-0.088-0.177-0.227-0.152-0.374l0.5-2.913c0.048-0.281-0.045-0.568-0.249-0.767
	l-2.117-2.063c-0.107-0.104-0.143-0.251-0.097-0.392c0.046-0.142,0.161-0.239,0.309-0.261l2.925-0.425
	c0.282-0.041,0.526-0.218,0.652-0.474l1.308-2.65c0.066-0.134,0.194-0.213,0.343-0.213s0.277,0.08,0.343,0.213l1.308,2.65
	c0.126,0.256,0.37,0.433,0.652,0.474l2.925,0.425c0.147,0.022,0.263,0.119,0.309,0.261c0.046,0.142,0.01,0.288-0.097,0.392
	l-2.116,2.063C152.398,55.339,152.305,55.626,152.353,55.907z"/>
<g>
	<g>
		<g>
			<path fill="#009FE3" d="M164.194,62.465h-1.957c-1.175,0-2.13-0.956-2.13-2.13v-5.217c0-1.175,0.956-2.131,2.13-2.131h3.435
				v8.897l-0.199,0.15C165.1,62.316,164.657,62.465,164.194,62.465z M162.325,54.488c-0.54,0-0.979,0.439-0.979,0.979v4.518
				c0,0.54,0.439,0.979,0.979,0.979h1.694c0.145,0,0.285-0.032,0.414-0.093v-6.383C164.433,54.488,162.325,54.488,162.325,54.488z"
				/>
		</g>
	</g>
	<g>
		<g>
			<path fill="#009FE3" d="M173.441,61.813h-5.986c-0.461,0-1.21-0.134-1.844-0.433l-0.287-0.135V53.63l0.197-0.1l1.759-3.811
				v-2.102c0-0.252,0.113-0.487,0.309-0.645c0.119-0.091,0.7-0.507,1.496-0.507c1.083,0,2.457,1.464,2.457,3.109
				c0,0.689-0.172,1.484-0.345,2.108h3.354c1.133,0,2.099,0.849,2.199,1.933c0.041,0.45-0.063,0.898-0.289,1.28
				c0.194,0.308,0.297,0.665,0.297,1.038c0,0.592-0.262,1.138-0.704,1.505c0.035,0.146,0.052,0.298,0.052,0.452
				c0,0.592-0.262,1.138-0.705,1.506c0.067,0.288,0.07,0.591,0.005,0.886C175.21,61.169,174.383,61.813,173.441,61.813z
				 M166.632,60.304c0.364,0.129,0.76,0.196,1.011,0.196h5.353c0.427,0,0.799-0.281,0.885-0.669c0.044-0.2,0.021-0.401-0.069-0.578
				l-0.2-0.399l0.399-0.201c0.293-0.147,0.475-0.441,0.475-0.768c0-0.135-0.03-0.264-0.09-0.384l-0.199-0.399l0.398-0.2
				c0.292-0.147,0.474-0.441,0.474-0.767c0-0.228-0.088-0.441-0.248-0.602l-0.302-0.302l0.288-0.316
				c0.193-0.21,0.284-0.485,0.258-0.772c-0.047-0.513-0.52-0.915-1.076-0.915h-4.221l0.193-0.587c0.165-0.5,0.442-1.451,0.442-2.192
				c0-1.07-0.925-1.886-1.303-1.886c-0.331,0-0.601,0.143-0.719,0.217l-0.041,2.084l-1.709,3.701v5.739H166.632z"/>
		</g>
	</g>
</g>
<g>
	<path fill="#FFFFFF" d="M230.492,18.6c-0.8,0-1.9-0.2-3-0.5c-2.2-0.8-4.9-2.4-7.1-4.6s-4-4.4-4.9-6.6s-0.8-4,0.2-4.9
		c0-0.2,0-0.3,0.2-0.3c0.8-0.8,1.9-1.7,3.4-1.7c1,0,1.9,0.5,2.7,1.5c2.5,2.7,1.5,4,0,5.2l0,0c0.2,0.3,0.5,1,2.5,2.9
		c1,1.2,1.9,1.9,2.4,2.2c0.3,0.3,0.5,0.3,0.7,0.3l0,0c1.5-1.3,2.7-2.2,5.7,0c1.2,0.7,1.7,1.5,1.7,2.4c0,1.3-1,2.2-1.7,2.9l-0.3,0.3
		C232.392,18.3,231.492,18.6,230.492,18.6z"/>
</g>
</svg>
