<?xml version="1.0" encoding="utf-8"?>
<!-- Generator: Adobe Illustrator 24.0.2, SVG Export Plug-In . SVG Version: 6.00 Build 0)  -->
<svg version="1.1" id="Слой_1" xmlns="http://www.w3.org/2000/svg" xmlns:xlink="http://www.w3.org/1999/xlink" x="0px" y="0px"
	 width="300px" height="116px" viewBox="0 0 300 116" enable-background="new 0 0 300 116" xml:space="preserve">
<g>
	<g>
		<path fill="#333333" d="M135.156,14.249v36.906h-3.477V14.249H135.156z"/>
		<path fill="#333333" d="M169.548,14.249v3.102h-28.08v-3.102H169.548z M157.245,14.249v36.906h-3.53V14.249H157.245z"/>
		<path fill="#333333" d="M187.573,13.607c1.498,0,2.79,0.036,3.877,0.107c1.087,0.072,2.094,0.179,3.022,0.321
			c0.926,0.143,1.889,0.34,2.888,0.589l-0.428,2.674c-1.07-0.142-2.051-0.258-2.941-0.348c-0.892-0.088-1.837-0.151-2.835-0.187
			c-0.999-0.035-2.193-0.053-3.584-0.053c-2.639,0-4.725,0.508-6.258,1.524c-1.533,1.016-2.621,2.683-3.262,5.001
			c-0.642,2.318-0.963,5.474-0.963,9.467c0,3.994,0.321,7.15,0.963,9.467c0.642,2.318,1.729,3.985,3.262,5.001
			c1.533,1.016,3.619,1.524,6.258,1.524c2.21,0,4.083-0.053,5.616-0.16c1.533-0.107,3.031-0.268,4.493-0.481l0.428,2.621
			c-1.498,0.393-3.041,0.677-4.626,0.856c-1.587,0.178-3.557,0.267-5.91,0.267c-3.46,0-6.231-0.615-8.317-1.845
			c-2.086-1.23-3.593-3.236-4.52-6.018c-0.928-2.781-1.391-6.525-1.391-11.232c0-4.707,0.463-8.451,1.391-11.232
			c0.927-2.781,2.434-4.787,4.52-6.017C181.341,14.222,184.113,13.607,187.573,13.607z"/>
		<path fill="#333333" d="M208.593,14.249v36.906h-3.477V14.249H208.593z M227.795,29.867v3.049h-19.63v-3.049H227.795z
			 M230.682,14.249v36.906h-3.477V14.249H230.682z"/>
		<path fill="#333333" d="M268.069,14.249v35.408c0,0.999-0.481,1.498-1.444,1.498h-3.744c-0.428,0-0.776-0.098-1.043-0.294
			c-0.268-0.196-0.491-0.489-0.669-0.882l-14.12-28.027c-0.321-0.677-0.678-1.417-1.07-2.219c-0.393-0.802-0.714-1.542-0.963-2.22
			H244c0.035,0.714,0.062,1.444,0.08,2.193c0.018,0.749,0.027,1.498,0.027,2.246v29.204h-3.477V15.746
			c0-0.998,0.499-1.498,1.498-1.498h3.583c0.428,0,0.776,0.099,1.043,0.294c0.268,0.197,0.49,0.491,0.669,0.883l13.692,27.385
			c0.392,0.749,0.802,1.551,1.23,2.407c0.427,0.856,0.837,1.712,1.23,2.567h1.123c0-0.891-0.018-1.782-0.053-2.674
			c-0.036-0.891-0.053-1.765-0.053-2.621V14.249H268.069z"/>
		<path fill="#333333" d="M284.221,14.195c1.747,0,3.512,0,5.295,0c1.782,0,3.557,0.027,5.322,0.08
			c1.765,0.053,3.485,0.134,5.161,0.24l-0.16,2.728h-15.03c-1.177,0-2.078,0.321-2.701,0.963c-0.624,0.642-0.936,1.587-0.936,2.835
			v23.32c0,1.249,0.312,2.202,0.936,2.862c0.624,0.66,1.524,0.99,2.701,0.99h15.03l0.16,2.674c-1.677,0.107-3.396,0.179-5.161,0.214
			c-1.765,0.036-3.54,0.062-5.322,0.08c-1.783,0.018-3.548,0.027-5.295,0.027c-1.961,0-3.539-0.562-4.733-1.685
			c-1.195-1.124-1.792-2.594-1.792-4.413V20.293c0-1.854,0.597-3.333,1.792-4.439C280.682,14.748,282.26,14.195,284.221,14.195z
			 M278.605,30.134H297.7v2.834h-19.095V30.134z"/>
	</g>
	<path fill="#333333" d="M115.624,115.812H0V0.188h115.624V115.812z M7.226,108.585h101.171V7.415H7.226V108.585z"/>
	<g>
		<path fill="#333333" d="M92.154,32.828l-8.727,50.045c-0.155,0.927-0.618,1.699-1.39,2.317c-0.772,0.618-1.699,0.927-2.781,0.927
			H68.212c-1.03,0-1.944-0.309-2.742-0.927c-0.798-0.618-1.274-1.415-1.429-2.394L58.095,48.12
			c-0.155-1.184-0.309-2.356-0.463-3.514c-0.155-1.159-0.309-2.304-0.464-3.437h-1.467c-0.103,1.133-0.231,2.292-0.386,3.475
			c-0.154,1.185-0.309,2.343-0.463,3.476l-5.947,34.676c-0.155,0.978-0.631,1.776-1.429,2.394c-0.799,0.618-1.712,0.927-2.742,0.927
			H33.613c-1.03,0-1.944-0.309-2.742-0.927c-0.798-0.618-1.274-1.39-1.429-2.317l-8.727-50.045h11.894l5.561,37.071
			c0.154,1.133,0.282,2.343,0.386,3.63c0.102,1.287,0.205,2.652,0.309,4.093h1.467c0.205-1.236,0.424-2.536,0.656-3.9
			c0.232-1.364,0.425-2.638,0.579-3.823l5.87-33.441c0.154-1.081,0.618-1.956,1.39-2.626c0.772-0.668,1.699-1.004,2.78-1.004h9.731
			c1.081,0,1.995,0.336,2.742,1.004c0.746,0.669,1.197,1.545,1.351,2.626l5.947,33.518c0.205,1.236,0.411,2.51,0.618,3.823
			c0.205,1.313,0.386,2.587,0.54,3.823h1.545c0.103-1.236,0.219-2.522,0.348-3.862c0.128-1.338,0.243-2.574,0.347-3.707
			l5.483-37.225H92.154z"/>
	</g>
</g>
</svg>
