<?xml version="1.0" encoding="utf-8"?>
<!-- Generator: Adobe Illustrator 24.0.2, SVG Export Plug-In . SVG Version: 6.00 Build 0)  -->
<svg version="1.1" id="Слой_1" xmlns="http://www.w3.org/2000/svg" xmlns:xlink="http://www.w3.org/1999/xlink" x="0px" y="0px"
	 width="57px" height="57px" viewBox="0 0 57 57" enable-background="new 0 0 57 57" xml:space="preserve">
<path fill="#009FE3" d="M28.5,57C12.785,57,0,44.215,0,28.5S12.785,0,28.5,0S57,12.785,57,28.5S44.215,57,28.5,57z M28.5,0.757
	C13.202,0.757,0.757,13.202,0.757,28.5c0,15.297,12.446,27.743,27.744,27.743c15.297,0,27.743-12.446,27.743-27.743
	C56.243,13.202,43.798,0.757,28.5,0.757z"/>
<g>
	<path fill="#009FE3" d="M32.034,48.452l-0.142-0.007c-0.639-0.031-1.235-0.447-1.504-1.083l-1.913-4.507l-1.858,4.496
		c-0.274,0.646-0.87,1.063-1.56,1.098c-0.003,0-0.005,0-0.008,0c-0.739,0-1.336-0.354-1.647-0.925l-1.427-2.595l-2.854,0.806
		c-0.662,0.19-1.359-0.015-1.819-0.531c-0.459-0.521-0.579-1.238-0.314-1.873l4.11-9.787l-0.737-0.071
		c-1.429-0.138-2.565-1.274-2.702-2.702l-0.276-2.866c-0.04-0.42-0.203-0.814-0.471-1.138l-1.833-2.223
		c-0.912-1.108-0.912-2.714-0.001-3.821l1.834-2.225c0.268-0.324,0.431-0.718,0.471-1.138l0.276-2.868
		c0.137-1.427,1.273-2.563,2.701-2.701l2.868-0.275c0.419-0.041,0.813-0.205,1.138-0.473l2.223-1.832
		c1.07-0.884,2.75-0.882,3.821,0.001l2.223,1.83c0.326,0.269,0.719,0.432,1.138,0.473l2.868,0.275
		c1.429,0.138,2.565,1.274,2.702,2.702l0.276,2.866c0.041,0.421,0.203,0.814,0.471,1.138l1.834,2.223
		c0.912,1.108,0.912,2.714,0,3.821v0.001l-1.833,2.223c-0.268,0.324-0.431,0.717-0.471,1.138l-0.276,2.868
		c-0.137,1.427-1.273,2.563-2.701,2.701l-0.739,0.071l4.109,9.783c0.266,0.642,0.146,1.358-0.311,1.874
		c-0.46,0.519-1.158,0.722-1.823,0.533l-2.851-0.805l-1.429,2.596C33.284,48.098,32.685,48.452,32.034,48.452z M25.202,46.536
		L25.202,46.536L25.202,46.536z M29.575,40.192l2.488,5.861l1.933-3.514l0.818,0.197l3.087,0.872l-4.141-9.857
		c-0.414,0.043-0.804,0.206-1.126,0.472l-0.896,0.738L29.575,40.192z M22.925,42.528l0.445,0.679l1.564,2.841l3.853-9.323
		c-0.77,0.076-1.566-0.151-2.197-0.673l-2.223-1.83c-0.323-0.267-0.713-0.429-1.128-0.472l-4.14,9.858L22.925,42.528z M28.5,10.581
		c-0.221,0-0.435,0.076-0.603,0.215l-2.224,1.833c-0.642,0.529-1.42,0.852-2.248,0.931l-2.867,0.275
		c-0.451,0.044-0.811,0.404-0.854,0.854l-0.276,2.869c-0.08,0.829-0.402,1.606-0.931,2.247l-1.833,2.223
		c-0.288,0.349-0.288,0.858,0.001,1.209l1.832,2.222c0.529,0.642,0.851,1.419,0.931,2.247l0.276,2.868
		c0.043,0.452,0.403,0.812,0.855,0.856l2.866,0.275c0.828,0.079,1.606,0.401,2.248,0.931l2.223,1.832
		c0.35,0.29,0.858,0.291,1.207,0.001l2.225-1.833c0.642-0.529,1.42-0.852,2.247-0.931l2.868-0.275
		c0.451-0.044,0.811-0.404,0.854-0.854l0.276-2.869c0.08-0.83,0.402-1.607,0.932-2.247l1.832-2.222h-0.001
		c0.289-0.35,0.289-0.86,0-1.21l-1.832-2.222c-0.529-0.64-0.851-1.417-0.931-2.247l-0.276-2.868
		c-0.043-0.452-0.403-0.812-0.855-0.856l-2.867-0.275c-0.828-0.079-1.605-0.401-2.247-0.931l-2.223-1.832
		C28.935,10.657,28.721,10.581,28.5,10.581z"/>
	<path fill="#009FE3" d="M28.5,31.15c-4.696,0-8.517-3.821-8.517-8.518c0-3.349,1.975-6.4,5.031-7.773l0.841,1.874
		c-2.32,1.042-3.818,3.357-3.818,5.899c0,3.564,2.899,6.464,6.463,6.464s6.464-2.9,6.464-6.463c0-3.564-2.9-6.464-6.464-6.464
		v-2.054c4.696,0,8.517,3.821,8.517,8.518C37.017,27.329,33.196,31.15,28.5,31.15z"/>
	<path fill="#009FE3" d="M27.463,25.754c-0.601,0-1.167-0.234-1.594-0.659l-1.755-1.755l1.452-1.452l1.754,1.754
		c0.078,0.078,0.207,0.079,0.285-0.001l3.827-3.828l1.452,1.452l-3.828,3.829C28.63,25.52,28.064,25.754,27.463,25.754z"/>
</g>
</svg>
