<?xml version="1.0" encoding="utf-8"?>
<!-- Generator: Adobe Illustrator 24.0.2, SVG Export Plug-In . SVG Version: 6.00 Build 0)  -->
<svg version="1.1" id="Слой_1" xmlns="http://www.w3.org/2000/svg" xmlns:xlink="http://www.w3.org/1999/xlink" x="0px" y="0px"
	 width="57px" height="57px" viewBox="0 0 57 57" enable-background="new 0 0 57 57" xml:space="preserve">
<path fill="#009FE3" d="M28.5,57C12.785,57,0,44.215,0,28.5S12.785,0,28.5,0S57,12.785,57,28.5S44.215,57,28.5,57z M28.5,0.757
	C13.202,0.757,0.757,13.202,0.757,28.5c0,15.297,12.446,27.743,27.744,27.743c15.297,0,27.743-12.446,27.743-27.743
	C56.243,13.202,43.798,0.757,28.5,0.757z"/>
<g>
	<g>
		<g>
			<path fill="#009FE3" d="M33.057,31.193c-0.935-0.511-2.007-0.801-3.147-0.801h-2.709c-1.172,0-2.272,0.307-3.224,0.844
				c-2.003,1.128-3.356,3.275-3.356,5.737v2.03h15.87v-2.03C36.49,34.479,35.103,32.309,33.057,31.193z"/>
		</g>
	</g>
	<g>
		<g>
			<path fill="#009FE3" d="M40.539,28.589h-2.252c-1.315,0-2.541,0.389-3.569,1.059c0.494,0.324,0.958,0.703,1.386,1.131
				c1.654,1.654,2.565,3.854,2.565,6.195v0.955h8.43V35.15C47.1,31.533,44.157,28.589,40.539,28.589z"/>
		</g>
	</g>
	<g>
		<g>
			<path fill="#009FE3" d="M18.714,28.589h-2.252c-3.618,0-6.561,2.943-6.561,6.561v2.778h8.54v-0.955
				c0-2.34,0.912-4.54,2.566-6.195c0.412-0.412,0.857-0.778,1.331-1.094C21.299,28.993,20.053,28.589,18.714,28.589z"/>
		</g>
	</g>
	<g>
		<g>
			<path fill="#009FE3" d="M39.41,18.722c-0.012,0-0.024,0-0.035,0c-2.438,0.02-4.405,2.127-4.383,4.698
				c0.021,2.558,2.003,4.625,4.425,4.625c0.012,0,0.024,0,0.035,0c1.196-0.01,2.311-0.514,3.141-1.418
				c0.811-0.884,1.252-2.048,1.242-3.279C43.814,20.788,41.832,18.722,39.41,18.722z"/>
		</g>
	</g>
	<g>
		<g>
			<path fill="#009FE3" d="M17.584,18.722c-0.012,0-0.024,0-0.035,0c-2.438,0.02-4.405,2.127-4.383,4.698
				c0.021,2.558,2.003,4.625,4.425,4.625c0.012,0,0.024,0,0.035,0c1.195-0.01,2.311-0.514,3.141-1.418
				c0.811-0.884,1.252-2.048,1.242-3.279C21.988,20.788,20.007,18.722,17.584,18.722z"/>
		</g>
	</g>
	<g>
		<g>
			<path fill="#009FE3" d="M28.556,17.997c-2.811,0-5.098,2.416-5.098,5.386c0,2.146,1.194,4.003,2.919,4.868
				c0.661,0.332,1.4,0.517,2.179,0.517s1.518-0.185,2.179-0.517c1.724-0.865,2.919-2.722,2.919-4.868
				C33.653,20.413,31.367,17.997,28.556,17.997z"/>
		</g>
	</g>
</g>
</svg>
