<?xml version="1.0" encoding="utf-8"?>
<!-- Generator: Adobe Illustrator 24.0.2, SVG Export Plug-In . SVG Version: 6.00 Build 0)  -->
<svg version="1.1" id="Слой_1" xmlns="http://www.w3.org/2000/svg" xmlns:xlink="http://www.w3.org/1999/xlink" x="0px" y="0px"
	 width="57px" height="57px" viewBox="0 0 57 57" enable-background="new 0 0 57 57" xml:space="preserve">
<g>
	<path fill="#009FE3" d="M42.125,30.577c1.377-1.81,1.101-4.354-0.574-5.837c0.127-0.406,0.21-0.825,0.207-1.252
		c0-0.03,0-0.059,0-0.089c-0.022-2.104-1.546-3.839-3.543-4.2c0.145-0.371,0.229-0.765,0.227-1.168
		c-0.001-1.15-0.616-2.185-1.572-2.759c-0.005-0.005-0.008-0.012-0.013-0.016c-1.643-1.267-3.536-2.169-5.554-2.647
		c-0.851-0.193-1.743,0.038-2.394,0.62c-0.156,0.153-0.289,0.324-0.404,0.504c-0.116-0.181-0.249-0.351-0.404-0.504
		c-0.651-0.582-1.542-0.813-2.394-0.62c-2.019,0.478-3.912,1.38-5.555,2.647c-0.007,0.006-0.009,0.014-0.015,0.02
		c-0.936,0.566-1.568,1.582-1.569,2.755c-0.002,0.404,0.082,0.798,0.228,1.17c-2.034,0.367-3.568,2.151-3.546,4.287
		c-0.002,0.427,0.08,0.846,0.208,1.253c-0.925,0.816-1.465,1.99-1.463,3.233c0.001,0.996,0.343,1.91,0.911,2.639
		c-0.12,0.185-0.231,0.375-0.322,0.576c-0.925,2.052-0.106,4.443,1.823,5.521c-0.059,0.287-0.099,0.577-0.1,0.87
		c-0.008,2.03,1.411,3.761,3.372,4.192c0.839,1.636,2.516,2.681,4.367,2.685c1.979-0.002,3.68-1.175,4.459-2.861
		c0.779,1.686,2.48,2.859,4.459,2.861c1.851-0.003,3.529-1.049,4.368-2.684c1.961-0.431,3.38-2.163,3.373-4.192
		c0-0.295-0.041-0.587-0.101-0.875c0.193-0.108,0.381-0.226,0.555-0.363c1.77-1.39,2.153-3.887,0.943-5.736
		C42.109,30.596,42.118,30.587,42.125,30.577z M25.702,43.182c-2.013,0.915-4.387,0.026-5.302-1.987
		c-0.003-0.007-0.009-0.011-0.013-0.017c-0.021-0.041-0.047-0.077-0.079-0.109c-0.011-0.011-0.022-0.022-0.034-0.032
		c-0.031-0.026-0.064-0.045-0.101-0.062c-0.02-0.009-0.039-0.017-0.06-0.023c-0.018-0.005-0.032-0.016-0.051-0.019
		c-1.643-0.266-2.849-1.688-2.842-3.352c0-0.334,0.048-0.666,0.143-0.986c0.007-0.025,0.003-0.049,0.006-0.073
		s0.007-0.046,0.006-0.069c-0.001-0.037-0.008-0.071-0.018-0.106c-0.006-0.021-0.011-0.042-0.02-0.062
		c-0.015-0.033-0.034-0.061-0.056-0.09c-0.014-0.018-0.027-0.036-0.043-0.053c-0.025-0.025-0.055-0.043-0.086-0.061
		c-0.015-0.009-0.026-0.023-0.042-0.03c-1.215-0.55-1.996-1.759-1.997-3.092c-0.002-0.588,0.154-1.161,0.441-1.668
		c0.748,0.62,1.708,0.992,2.755,0.991c0.148,0,0.295-0.008,0.438-0.022c0.25-0.025,0.433-0.249,0.408-0.499
		s-0.249-0.433-0.499-0.408c-0.114,0.012-0.23,0.017-0.347,0.017c-1.059-0.001-2.058-0.496-2.7-1.338
		c-1.141-1.494-0.854-3.63,0.64-4.77c0.009-0.007,0.013-0.017,0.021-0.024c0.025-0.022,0.044-0.046,0.064-0.071
		c0.017-0.022,0.033-0.044,0.045-0.068c0.013-0.026,0.02-0.053,0.028-0.081c0.008-0.029,0.015-0.056,0.018-0.086
		c0.002-0.027-0.001-0.053-0.004-0.081c-0.003-0.032-0.008-0.063-0.018-0.095c-0.003-0.01-0.002-0.02-0.006-0.03
		c-0.16-0.392-0.24-0.812-0.237-1.236c0-0.026,0-0.053,0-0.079c0.021-1.823,1.475-3.282,3.276-3.35
		c0.031,0.007,0.06,0.022,0.093,0.022h0.001c0.052,0,0.104-0.011,0.152-0.028c1.842,0.065,3.307,1.582,3.285,3.434
		c0,0.252,0.204,0.456,0.456,0.456c0.252,0,0.456-0.204,0.456-0.456c0-0.03,0-0.059,0-0.089c-0.024-2.3-1.844-4.156-4.113-4.261
		c-0.187-0.338-0.291-0.717-0.289-1.107c0-1.004,0.646-1.894,1.601-2.205c1.218-0.397,2.528,0.268,2.925,1.486
		c0.002,0.006,0.004,0.013,0.006,0.019c0.084,0.237,0.344,0.362,0.581,0.279c0.237-0.084,0.362-0.344,0.279-0.581
		c-0.368-1.124-1.315-1.934-2.444-2.158c1.088-0.603,2.246-1.075,3.461-1.369c0.561-0.134,1.152,0.012,1.587,0.391
		c0.401,0.41,0.609,0.971,0.573,1.544v6.835c-0.473-0.47-1.128-0.813-1.988-0.728c-0.251,0.025-0.433,0.249-0.408,0.499
		c0.025,0.251,0.249,0.433,0.499,0.408c1.272-0.131,1.799,1.238,1.897,1.53V36.62c-1.106-1.453-2.826-1.81-2.852-1.815
		c-0.247-0.048-0.486,0.114-0.534,0.361s0.114,0.486,0.361,0.534c1.809,0.372,3.086,1.994,3.025,3.84l0,0v0.003
		C28.046,41.11,27.129,42.533,25.702,43.182z M39.895,36.049c-0.012,0.006-0.018,0.019-0.03,0.026
		c-0.055,0.031-0.1,0.07-0.137,0.118c-0.011,0.014-0.024,0.025-0.034,0.041c-0.037,0.063-0.058,0.134-0.061,0.208
		c0,0.008-0.007,0.015-0.007,0.024c0,0.028,0.011,0.053,0.016,0.079c0.003,0.017-0.001,0.033,0.004,0.049
		c0.095,0.32,0.143,0.652,0.143,0.986c0.007,1.665-1.199,3.086-2.842,3.352c-0.021,0.003-0.037,0.014-0.057,0.02
		c-0.016,0.005-0.03,0.01-0.045,0.016c-0.042,0.018-0.079,0.041-0.113,0.069c-0.008,0.007-0.017,0.013-0.024,0.02
		c-0.04,0.039-0.073,0.083-0.097,0.134c-0.001,0.001-0.002,0.002-0.003,0.004c-0.002,0.004-0.004,0.007-0.006,0.011
		c-0.003,0.006-0.007,0.011-0.01,0.018c-0.655,1.412-2.069,2.319-3.628,2.32c-2.211,0.001-4.004-1.791-4.005-4.002V21.714
		c0.101-0.292,0.633-1.649,1.895-1.526c0.25,0.025,0.474-0.157,0.499-0.408c0.025-0.25-0.157-0.474-0.408-0.499
		c-0.857-0.086-1.513,0.258-1.986,0.728v-4.573c-0.036-0.572,0.172-1.133,0.573-1.544c0.435-0.379,1.026-0.525,1.588-0.391
		c1.218,0.296,2.378,0.769,3.468,1.375c-1.108,0.22-2.073,1.001-2.449,2.151c-0.071,0.234,0.055,0.482,0.285,0.563
		c0.237,0.084,0.498-0.041,0.581-0.279c0.312-0.952,1.2-1.596,2.201-1.598c1.281-0.002,2.322,1.035,2.324,2.317
		c0.002,0.389-0.101,0.768-0.289,1.106c-2.309,0.107-4.138,2.02-4.114,4.351c0,0.252,0.204,0.456,0.456,0.456
		s0.456-0.204,0.456-0.456c0-0.026,0-0.052,0-0.079c0.021-1.835,1.493-3.303,3.312-3.353c0.041,0.012,0.082,0.026,0.127,0.026
		c0.038,0,0.072-0.017,0.108-0.026c1.83,0.077,3.283,1.587,3.262,3.432c0.003,0.423-0.078,0.842-0.237,1.234
		c-0.004,0.009-0.002,0.019-0.005,0.027c-0.012,0.034-0.017,0.068-0.021,0.104c-0.001,0.015-0.008,0.028-0.008,0.043
		c0,0.009,0.005,0.016,0.005,0.025c0.002,0.037,0.011,0.071,0.021,0.106c0.007,0.023,0.013,0.045,0.023,0.067
		c0.014,0.028,0.033,0.053,0.053,0.078c0.018,0.023,0.035,0.044,0.056,0.063c0.009,0.008,0.013,0.018,0.022,0.025
		c0.847,0.644,1.344,1.647,1.343,2.711c-0.002,1.878-1.526,3.399-3.404,3.397c-0.117,0-0.233-0.006-0.347-0.017
		c-0.25-0.025-0.474,0.157-0.499,0.408c-0.025,0.25,0.157,0.474,0.408,0.499c0.144,0.014,0.29,0.022,0.438,0.022
		c1.015-0.001,1.986-0.36,2.751-0.996c0.29,0.507,0.447,1.082,0.445,1.672C41.891,34.29,41.11,35.499,39.895,36.049z"/>
	<polygon fill="#009FE3" points="38.697,32.28 38.696,32.28 38.695,32.28 	"/>
	<path fill="#009FE3" d="M37.452,29.186c-1.418-0.028-2.12-1.073-2.428-1.751c2.246-0.145,4.025-2.006,4.027-4.289
		c0-0.11-0.004-0.22-0.012-0.328c0-0.005-0.001-0.01-0.001-0.016c-0.023-0.251-0.245-0.435-0.496-0.412s-0.435,0.245-0.412,0.496
		c0.006,0.086,0.01,0.172,0.01,0.259c0,1.007-0.448,1.962-1.222,2.606c-1.439,1.198-3.577,1.002-4.775-0.437
		c-0.005-0.006-0.009-0.011-0.014-0.017c-0.166-0.189-0.454-0.209-0.643-0.043c-0.189,0.166-0.209,0.454-0.043,0.643
		c0.659,0.793,1.577,1.31,2.579,1.482c0.354,1.064,1.396,2.677,3.413,2.716h0.009c0.252,0.002,0.458-0.2,0.46-0.451
		C37.906,29.394,37.704,29.188,37.452,29.186z"/>
	<path fill="#009FE3" d="M35.841,35.206c-0.243-0.009-0.471,0.002-0.69,0.024c0.001-1.01-0.341-1.997-0.985-2.789
		c-0.879-0.931-2.066-1.512-3.341-1.635c-0.251-0.018-0.469,0.171-0.488,0.422c-0.018,0.251,0.171,0.469,0.422,0.488
		c1.032,0.105,1.993,0.572,2.714,1.318c0.54,0.678,0.792,1.528,0.748,2.386c-2.142,0.701-2.86,2.949-2.921,4.266l0,0
		c-0.012,0.251,0.183,0.465,0.434,0.476h0.021c0.243,0,0.443-0.191,0.455-0.434c0.007-0.153,0.221-3.732,3.597-3.61
		c0.252,0.009,0.463-0.187,0.473-0.439S36.093,35.215,35.841,35.206z"/>
	<path fill="#009FE3" d="M23.094,27.979c-0.307,0.678-1.009,1.726-2.429,1.753c-0.252,0.002-0.454,0.208-0.451,0.46
		c0.002,0.252,0.208,0.454,0.46,0.451h0.009c2.017-0.041,3.061-1.657,3.414-2.718c1.001-0.171,1.92-0.688,2.579-1.482
		c0.161-0.193,0.135-0.481-0.059-0.642s-0.481-0.135-0.642,0.059c-0.644,0.773-1.598,1.221-2.605,1.221
		c-1.873,0-3.391-1.517-3.391-3.39c0-0.088,0.003-0.174,0.01-0.26c0-0.005,0.001-0.01,0.001-0.016
		c0.015-0.251-0.177-0.467-0.428-0.482s-0.467,0.177-0.482,0.428c-0.008,0.108-0.012,0.218-0.012,0.329
		C19.071,25.973,20.849,27.834,23.094,27.979z"/>
	<path fill="#009FE3" d="M21.953,34.19c0.723-0.746,1.685-1.214,2.719-1.322l0,0c0.251-0.018,0.44-0.237,0.422-0.488
		c-0.021-0.25-0.238-0.437-0.488-0.422c-1.275,0.123-2.461,0.704-3.34,1.635c-0.645,0.793-0.987,1.78-0.985,2.79
		c-0.219-0.021-0.446-0.032-0.689-0.023c-0.252,0.009-0.448,0.221-0.439,0.473s0.221,0.448,0.473,0.439
		c3.369-0.131,3.589,3.458,3.597,3.611c0.012,0.243,0.212,0.434,0.456,0.434l0.021-0.001l0,0c0.251-0.012,0.446-0.225,0.434-0.476
		c-0.061-1.317-0.782-3.567-2.922-4.267C21.166,35.717,21.416,34.868,21.953,34.19z"/>
</g>
<path fill="#009FE3" d="M28.5,57C12.785,57,0,44.215,0,28.5S12.785,0,28.5,0S57,12.785,57,28.5S44.215,57,28.5,57z M28.5,0.757
	C13.202,0.757,0.757,13.202,0.757,28.5c0,15.297,12.446,27.743,27.744,27.743c15.297,0,27.743-12.446,27.743-27.743
	C56.243,13.202,43.798,0.757,28.5,0.757z"/>
</svg>
