<?xml version="1.0" encoding="utf-8"?>
<!-- Generator: Adobe Illustrator 24.0.2, SVG Export Plug-In . SVG Version: 6.00 Build 0)  -->
<svg version="1.1" id="Слой_1" xmlns="http://www.w3.org/2000/svg" xmlns:xlink="http://www.w3.org/1999/xlink" x="0px" y="0px"
	 width="57px" height="57px" viewBox="0 0 57 57" enable-background="new 0 0 57 57" xml:space="preserve">
<path fill="#009FE3" d="M28.5,57C12.785,57,0,44.215,0,28.5S12.785,0,28.5,0S57,12.785,57,28.5S44.215,57,28.5,57z M28.5,0.757
	C13.202,0.757,0.757,13.202,0.757,28.5c0,15.297,12.446,27.743,27.744,27.743c15.297,0,27.743-12.446,27.743-27.743
	C56.243,13.202,43.798,0.757,28.5,0.757z"/>
<g>
	<path fill="#009FE3" d="M42.391,23.257c0-1.209-0.238-2.381-0.703-3.488c-0.452-1.066-1.097-2.024-1.919-2.846
		c-0.822-0.822-1.78-1.467-2.846-1.919c-1.104-0.469-2.279-0.703-3.488-0.703s-2.381,0.238-3.488,0.703
		c-1.066,0.452-2.024,1.097-2.846,1.919c-0.822,0.822-1.467,1.78-1.919,2.846c-0.469,1.104-0.703,2.279-0.703,3.488
		c0,1.511,0.38,2.992,1.104,4.31L14.86,38.279c-0.248,0.248-0.326,0.625-0.173,0.982c0.031,0.075,0.082,0.143,0.139,0.2l2.401,2.401
		c0.058,0.058,0.126,0.105,0.2,0.139c0.357,0.153,0.734,0.078,0.982-0.173l1.484-1.484l2.136,2.136
		c0.058,0.058,0.126,0.105,0.2,0.139c0.357,0.153,0.734,0.078,0.982-0.173l2.367-2.367c0.058-0.058,0.105-0.126,0.139-0.2
		c0.153-0.357,0.078-0.734-0.173-0.982l-2.102-2.102l5.679-5.682c1.314,0.723,2.799,1.104,4.31,1.104
		c1.209,0,2.381-0.238,3.488-0.703c1.066-0.452,2.024-1.097,2.846-1.919c0.822-0.822,1.467-1.78,1.919-2.846
		C42.153,25.638,42.391,24.466,42.391,23.257z M36.573,26.399c-0.839,0.839-1.956,1.301-3.142,1.301
		c-1.185,0-2.303-0.462-3.142-1.301s-1.304-1.956-1.304-3.142c0-1.189,0.462-2.303,1.301-3.142s1.956-1.301,3.142-1.301
		c1.185,0,2.303,0.462,3.142,1.301c0.839,0.839,1.301,1.956,1.301,3.142C37.877,24.442,37.415,25.56,36.573,26.399z"/>
</g>
</svg>
