<?xml version="1.0" encoding="utf-8"?>
<!-- Generator: Adobe Illustrator 24.0.2, SVG Export Plug-In . SVG Version: 6.00 Build 0)  -->
<svg version="1.1" id="Слой_1" xmlns="http://www.w3.org/2000/svg" xmlns:xlink="http://www.w3.org/1999/xlink" x="0px" y="0px"
	 width="57px" height="57px" viewBox="0 0 57 57" enable-background="new 0 0 57 57" xml:space="preserve">
<path fill="#009FE3" d="M28.5,57C12.785,57,0,44.215,0,28.5S12.785,0,28.5,0S57,12.785,57,28.5S44.215,57,28.5,57z M28.5,0.757
	C13.202,0.757,0.757,13.202,0.757,28.5c0,15.297,12.446,27.743,27.744,27.743c15.297,0,27.743-12.446,27.743-27.743
	C56.243,13.202,43.798,0.757,28.5,0.757z"/>
<g>
	<path fill="#009FE3" d="M35.695,35.201c-0.985,0-1.845-0.692-2.041-1.665l-0.134-0.66c-0.297-0.08-0.591-0.176-0.88-0.287
		l-0.468,0.438c-0.764,0.724-1.949,0.755-2.757,0.072l-1.41-1.19c-0.803-0.679-0.97-1.852-0.391-2.729l0.363-0.548
		c-0.144-0.246-0.276-0.498-0.395-0.754l-0.647-0.02c-1.05-0.036-1.91-0.85-2.001-1.897l-0.157-1.845
		c-0.084-1.054,0.63-2.001,1.659-2.208l0.545-0.11c0.08-0.328,0.178-0.653,0.294-0.97l-0.398-0.425
		c-0.722-0.763-0.754-1.949-0.072-2.756l1.189-1.415c0.68-0.804,1.853-0.972,2.73-0.394l0.405,0.268
		c0.337-0.207,0.688-0.392,1.05-0.552l0.016-0.47c0.033-1.048,0.848-1.91,1.897-1.999l1.842-0.157
		c1.058-0.101,2.003,0.63,2.209,1.658l0.094,0.463c0.366,0.093,0.725,0.209,1.072,0.347l0.321-0.3
		c0.761-0.722,1.948-0.755,2.756-0.072l1.411,1.19c0.81,0.685,0.972,1.865,0.375,2.743l-0.267,0.403
		c0.168,0.289,0.32,0.588,0.455,0.895l0.498,0.015c1.048,0.032,1.91,0.846,2.001,1.897l0.157,1.845
		c0.084,1.052-0.63,1.999-1.659,2.206l-0.509,0.104c-0.088,0.332-0.194,0.662-0.319,0.986l0.39,0.414
		c0.724,0.765,0.756,1.951,0.075,2.759l-1.191,1.408c-0.678,0.804-1.849,0.972-2.729,0.392l-0.503-0.332
		c-0.306,0.177-0.623,0.337-0.947,0.48l-0.02,0.61c-0.033,1.048-0.849,1.91-1.898,1.999l-1.842,0.157
		C35.807,35.198,35.751,35.201,35.695,35.201z M32.26,30.325l0.587,0.274c0.542,0.255,1.103,0.438,1.667,0.546l0.63,0.121
		l0.383,1.889c0.016,0.084,0.098,0.132,0.179,0.134l1.835-0.157c0.084-0.007,0.15-0.075,0.152-0.159l0.062-1.887l0.614-0.216
		c0.596-0.213,1.161-0.498,1.679-0.85l0.529-0.358l1.55,1.024c0.072,0.046,0.162,0.033,0.218-0.032l1.191-1.408
		c0.053-0.063,0.052-0.157-0.005-0.215l-1.267-1.345l0.278-0.589c0.268-0.567,0.46-1.16,0.57-1.76l0.116-0.634l1.75-0.36
		c0.085-0.017,0.143-0.095,0.136-0.177l-0.156-1.837c-0.007-0.082-0.075-0.149-0.157-0.151l-1.776-0.056l-0.219-0.614
		c-0.204-0.576-0.483-1.124-0.826-1.632l-0.361-0.529l0.97-1.457c0.052-0.076,0.04-0.166-0.023-0.22l-1.41-1.19
		c-0.065-0.054-0.157-0.05-0.215,0.004l-1.261,1.182l-0.591-0.285c-0.572-0.278-1.188-0.477-1.832-0.593l-0.637-0.116l-0.348-1.708
		c-0.016-0.082-0.072-0.129-0.181-0.134l-1.835,0.157c-0.084,0.007-0.149,0.075-0.151,0.159l-0.059,1.744l-0.611,0.218
		c-0.623,0.224-1.211,0.532-1.747,0.92l-0.535,0.384l-1.482-0.981c-0.069-0.046-0.161-0.033-0.216,0.032l-1.189,1.415
		c-0.055,0.065-0.053,0.159,0.003,0.216l1.251,1.335l-0.258,0.578c-0.25,0.561-0.429,1.154-0.532,1.76l-0.109,0.645l-1.806,0.367
		c-0.083,0.017-0.141,0.095-0.134,0.181l0.156,1.835c0.007,0.082,0.076,0.149,0.16,0.151l1.892,0.059l0.226,0.595
		c0.199,0.52,0.464,1.028,0.789,1.505l0.36,0.529l-1.057,1.597c-0.046,0.069-0.033,0.163,0.031,0.216l1.409,1.19
		c0.065,0.054,0.157,0.05,0.215-0.004L32.26,30.325z M35.929,28.552c-1.075,0-2.107-0.377-2.94-1.08
		c-0.935-0.789-1.505-1.895-1.606-3.111c-0.104-1.212,0.272-2.397,1.061-3.331c0.789-0.936,1.894-1.507,3.111-1.607
		c1.208-0.108,2.397,0.272,3.333,1.061c0.935,0.789,1.506,1.893,1.607,3.111c0.104,1.212-0.272,2.398-1.062,3.333
		c-0.789,0.936-1.894,1.507-3.11,1.607C36.191,28.546,36.06,28.552,35.929,28.552z M35.947,21.315c-0.076,0-0.154,0.004-0.231,0.009
		c-0.711,0.059-1.353,0.392-1.813,0.936c-0.459,0.545-0.679,1.233-0.618,1.94c0.059,0.711,0.392,1.352,0.935,1.813
		c0.545,0.459,1.238,0.672,1.941,0.619h0.002c0.707-0.059,1.349-0.392,1.809-0.936c0.46-0.545,0.68-1.235,0.619-1.941
		c-0.059-0.711-0.392-1.352-0.936-1.813C37.172,21.534,36.573,21.315,35.947,21.315z"/>
	<path fill="#009FE3" d="M19.641,44.082c-0.011,0-0.023,0-0.035,0l-1.128-0.013c-1.055-0.011-1.932-0.811-2.041-1.861l-0.026-0.252
		c-0.17-0.067-0.339-0.142-0.506-0.222l-0.178,0.138c-0.831,0.645-2.016,0.559-2.753-0.189L12.18,40.87
		c-0.734-0.75-0.789-1.934-0.128-2.753l0.151-0.189c-0.066-0.149-0.128-0.3-0.185-0.453l-0.233-0.03
		c-1.044-0.132-1.823-1.027-1.807-2.085l0.014-1.13c0.008-1.052,0.807-1.93,1.858-2.041l0.161-0.017
		c0.071-0.194,0.15-0.386,0.238-0.575l-0.109-0.142c-0.644-0.832-0.563-2.014,0.189-2.753l0.816-0.797
		c0.749-0.737,1.933-0.791,2.755-0.127l0.078,0.062c0.229-0.106,0.464-0.203,0.702-0.285l0.011-0.089
		c0.131-1.046,0.978-1.783,2.087-1.807l1.128,0.013c1.053,0.007,1.932,0.807,2.041,1.861l0.008,0.088
		c0.222,0.084,0.44,0.179,0.655,0.284l0.049-0.037c0.831-0.642,2.013-0.558,2.751,0.19l0.794,0.813
		c0.734,0.75,0.789,1.934,0.128,2.753l-0.069,0.086c0.081,0.186,0.157,0.379,0.223,0.571l0.114,0.015
		c1.044,0.132,1.823,1.028,1.807,2.085l-0.014,1.13c-0.008,1.054-0.809,1.932-1.861,2.038l-0.131,0.015
		c-0.076,0.199-0.161,0.395-0.255,0.589l0.101,0.129c0.643,0.833,0.561,2.018-0.19,2.755l-0.811,0.793
		c-0.754,0.731-1.938,0.789-2.755,0.127l-0.154-0.123c-0.202,0.088-0.408,0.17-0.617,0.241l-0.025,0.198
		C21.563,43.31,20.683,44.082,19.641,44.082z M15.74,39.451l0.557,0.328c0.404,0.239,0.832,0.425,1.271,0.556l0.614,0.181
		l0.156,1.496c0.009,0.084,0.078,0.147,0.161,0.147l1.135,0.013c0.072-0.046,0.155-0.058,0.165-0.14l0.186-1.466l0.635-0.157
		c0.477-0.118,0.944-0.3,1.385-0.541l0.561-0.304l1.123,0.908c0.066,0.054,0.157,0.05,0.221-0.009l0.809-0.791
		c0.062-0.062,0.068-0.153,0.014-0.222l-0.878-1.137l0.336-0.559c0.254-0.421,0.448-0.871,0.581-1.337l0.176-0.623l1.388-0.142
		c0.083-0.009,0.146-0.076,0.147-0.159l0.014-1.137c0.001-0.084-0.059-0.155-0.141-0.164l-1.372-0.18l-0.16-0.628
		c-0.12-0.472-0.297-0.923-0.527-1.345l-0.307-0.563l0.857-1.052c0.052-0.065,0.049-0.157-0.009-0.216l-0.793-0.811
		c-0.058-0.057-0.15-0.063-0.222-0.014l-1.06,0.815l-0.558-0.337c-0.441-0.265-0.91-0.468-1.394-0.604l-0.627-0.176l-0.138-1.35
		c-0.008-0.08-0.078-0.146-0.157-0.146l-1.137-0.013c-0.075-0.03-0.155,0.058-0.165,0.14l-0.174,1.345l-0.627,0.16
		c-0.504,0.129-0.991,0.328-1.446,0.591l-0.572,0.33l-1.071-0.873c-0.065-0.056-0.155-0.052-0.215,0.009l-0.816,0.797
		c-0.061,0.059-0.067,0.151-0.016,0.218l0.868,1.123l-0.311,0.552c-0.246,0.434-0.43,0.884-0.548,1.337l-0.168,0.641l-1.441,0.147
		c-0.084,0.009-0.147,0.078-0.147,0.16l-0.014,1.137c-0.001,0.084,0.061,0.155,0.141,0.164l1.468,0.19l0.168,0.614
		c0.118,0.431,0.286,0.845,0.503,1.231l0.315,0.565l-0.944,1.166c-0.053,0.067-0.052,0.159,0.007,0.218l0.793,0.811
		c0.059,0.062,0.152,0.067,0.222,0.015L15.74,39.451z M19.223,38.708c-0.013,0-0.027,0-0.041,0c-2.149-0.024-3.879-1.796-3.856-3.95
		c0.024-2.133,1.772-3.853,3.903-3.853c0.015,0,0.03,0,0.045,0l0,0c1.039,0.011,2.012,0.427,2.74,1.171
		c0.73,0.746,1.127,1.733,1.114,2.777C23.106,36.987,21.358,38.708,19.223,38.708z M19.229,32.815c-1.089,0-1.982,0.876-1.994,1.966
		c-0.012,1.1,0.871,2.005,1.968,2.018c1.055,0.052,2.004-0.873,2.016-1.968c0.007-0.533-0.196-1.037-0.57-1.419
		c-0.371-0.379-0.867-0.591-1.396-0.597l0,0C19.245,32.815,19.238,32.815,19.229,32.815z"/>
</g>
</svg>
