<?xml version="1.0" encoding="utf-8"?>
<!-- Generator: Adobe Illustrator 24.0.2, SVG Export Plug-In . SVG Version: 6.00 Build 0)  -->
<svg version="1.1" id="Слой_1" xmlns="http://www.w3.org/2000/svg" xmlns:xlink="http://www.w3.org/1999/xlink" x="0px" y="0px"
	 width="57px" height="57px" viewBox="0 0 57 57" enable-background="new 0 0 57 57" xml:space="preserve">
<g>
	<g>
		<path fill="#009FE3" d="M30.162,26.948h-3.325c-1.894,0-3.435-1.541-3.435-3.435s1.541-3.435,3.435-3.435h6.649
			c0.857,0,1.552-0.695,1.552-1.552s-0.695-1.552-1.552-1.552h-3.435v-3.435c0-0.857-0.695-1.552-1.552-1.552
			s-1.552,0.695-1.552,1.552v3.435h-0.11c-3.606,0-6.539,2.933-6.539,6.539s2.933,6.539,6.539,6.539h3.325
			c1.894,0,3.435,1.541,3.435,3.435s-1.541,3.435-3.435,3.435h-6.649c-0.857,0-1.552,0.695-1.552,1.552s0.695,1.552,1.552,1.552
			h3.435v3.435c0,0.857,0.695,1.552,1.552,1.552s1.552-0.695,1.552-1.552v-3.435h0.11c3.605,0,6.539-2.933,6.539-6.539
			S33.769,26.948,30.162,26.948z"/>
	</g>
</g>
<path fill="#009FE3" d="M28.5,57C12.785,57,0,44.215,0,28.5S12.785,0,28.5,0S57,12.785,57,28.5S44.215,57,28.5,57z M28.5,0.757
	C13.202,0.757,0.757,13.202,0.757,28.5c0,15.297,12.446,27.743,27.744,27.743c15.297,0,27.743-12.446,27.743-27.743
	C56.243,13.202,43.798,0.757,28.5,0.757z"/>
</svg>
