<?xml version="1.0" encoding="utf-8"?>
<!-- Generator: Adobe Illustrator 24.0.2, SVG Export Plug-In . SVG Version: 6.00 Build 0)  -->
<svg version="1.1" id="Слой_1" xmlns="http://www.w3.org/2000/svg" xmlns:xlink="http://www.w3.org/1999/xlink" x="0px" y="0px"
	 width="36px" height="36px" viewBox="0 0 36 36" enable-background="new 0 0 36 36" xml:space="preserve">
<g>
	<path fill="#333333" d="M36,36H0V0h36V36z M2.25,33.75h31.5V2.25H2.25V33.75z"/>
	<g>
		<path fill="#333333" d="M28.693,10.163l-2.717,15.582c-0.048,0.289-0.192,0.529-0.433,0.721c-0.24,0.192-0.529,0.289-0.866,0.289
			h-3.439c-0.321,0-0.605-0.096-0.854-0.289c-0.249-0.192-0.397-0.441-0.445-0.745l-1.852-10.797
			c-0.048-0.369-0.096-0.733-0.144-1.094s-0.096-0.717-0.144-1.07h-0.457c-0.032,0.353-0.072,0.713-0.12,1.082
			c-0.048,0.369-0.096,0.73-0.144,1.082l-1.852,10.797c-0.048,0.305-0.196,0.553-0.445,0.745c-0.249,0.192-0.533,0.289-0.854,0.289
			h-3.463c-0.321,0-0.605-0.096-0.854-0.289c-0.249-0.192-0.397-0.433-0.445-0.721L6.448,10.163h3.703l1.731,11.542
			c0.048,0.353,0.088,0.73,0.12,1.13c0.032,0.401,0.064,0.826,0.096,1.274h0.457c0.064-0.385,0.132-0.789,0.204-1.214
			c0.072-0.425,0.132-0.821,0.18-1.19l1.827-10.412c0.048-0.337,0.192-0.609,0.433-0.818c0.24-0.208,0.529-0.313,0.866-0.313h3.03
			c0.337,0,0.621,0.105,0.854,0.313c0.232,0.208,0.373,0.481,0.421,0.818l1.852,10.436c0.064,0.385,0.128,0.781,0.192,1.19
			s0.12,0.806,0.168,1.19h0.481c0.032-0.385,0.068-0.785,0.108-1.202c0.04-0.417,0.076-0.801,0.108-1.154l1.707-11.59
			C24.986,10.163,28.693,10.163,28.693,10.163z"/>
	</g>
</g>
</svg>
