<?xml version="1.0" encoding="utf-8"?>
<!-- Generator: Adobe Illustrator 24.0.2, SVG Export Plug-In . SVG Version: 6.00 Build 0)  -->
<svg version="1.1" id="Слой_1" xmlns="http://www.w3.org/2000/svg" xmlns:xlink="http://www.w3.org/1999/xlink" x="0px" y="0px"
	 width="102.047px" height="102.047px" viewBox="0 0 102.047 102.047" enable-background="new 0 0 102.047 102.047"
	 xml:space="preserve">
<g>
	<circle fill="#FCF6F2" cx="51.024" cy="51.024" r="51"/>
	<g>
		<path fill="#BC7A40" d="M39.129,49.274c0.223,0,0.448-0.001,0.67-0.025c1.11-0.121,1.826-1.208,1.504-2.276
			c-0.258-0.858-0.926-1.306-1.972-1.307c-4.846-0.002-9.692,0.02-14.538-0.017c-1.115-0.008-1.944,0.302-2.416,1.35
			c0,0.298,0,0.597,0,0.895c0.411,1.029,1.17,1.403,2.27,1.395C29.474,49.256,34.302,49.275,39.129,49.274z"/>
		<path fill="#BC7A40" d="M77.773,48.968c-1.234-1.574-2.316-3.219-3.179-5.029c-1.255-2.633-2.62-5.215-3.912-7.831
			c-0.455-0.922-1.125-1.352-2.169-1.332c-2.013,0.039-4.027,0.011-6.041,0.011c-1.279,0-1.279,0-1.279-1.306
			c0-1.693-0.622-2.308-2.335-2.308c-4.829,0-9.658,0-14.487,0c-4.848,0-9.695,0-14.543,0.001c-0.242,0-0.485,0.002-0.726,0.027
			c-0.873,0.091-1.527,0.756-1.588,1.601c-0.067,0.937,0.471,1.689,1.357,1.917c0.295,0.076,0.591,0.068,0.889,0.068
			c9.043,0.001,18.085,0.007,27.128-0.015c0.608-0.002,0.712,0.182,0.708,0.738c-0.024,3.841-0.014,7.682-0.012,11.523
			c0.001,1.547,0.657,2.195,2.219,2.195c4.363,0.001,8.726,0.006,13.089-0.01c0.4-0.001,0.64,0.121,0.873,0.437
			c0.652,0.884,1.342,1.74,2.017,2.608c0.147,0.19,0.282,0.368,0.281,0.642c-0.011,2.871-0.012,5.743,0.001,8.614
			c0.002,0.34-0.126,0.399-0.424,0.394c-0.82-0.016-1.641-0.025-2.461,0.003c-0.389,0.014-0.564-0.09-0.694-0.489
			c-0.974-2.985-3.719-4.972-6.835-4.988c-3.103-0.016-5.897,2.007-6.875,5.016c-0.113,0.349-0.241,0.462-0.604,0.46
			c-3.244-0.014-6.488-0.014-9.733,0c-0.359,0.001-0.492-0.104-0.607-0.456c-1.058-3.23-4.05-5.222-7.428-4.979
			c-2.892,0.208-5.35,2.126-6.277,4.944c-0.13,0.396-0.302,0.499-0.693,0.492c-1.249-0.024-2.498-0.011-3.747-0.007
			c-0.223,0.001-0.448,0.011-0.667,0.048c-0.946,0.16-1.541,0.893-1.51,1.845c0.033,1.011,0.802,1.714,1.947,1.73
			c1.342,0.019,2.685,0.018,4.027-0.004c0.37-0.006,0.536,0.085,0.668,0.461c1.039,2.966,3.7,4.862,6.793,4.883
			c3.091,0.021,5.779-1.892,6.843-4.888c0.112-0.315,0.235-0.46,0.612-0.458c3.263,0.02,6.526,0.017,9.789,0.003
			c0.35-0.001,0.508,0.088,0.63,0.435c1.058,3.007,3.726,4.913,6.827,4.909c3.102-0.005,5.776-1.915,6.825-4.917
			c0.128-0.366,0.3-0.429,0.637-0.425c1.473,0.015,2.946,0.01,4.419,0.006c1.435-0.005,2.132-0.7,2.133-2.123
			c0.002-3.002,0.018-6.004-0.004-9.006C79.628,50.758,80.057,51.88,77.773,48.968z M61.58,45.625
			c-0.336,0.001-0.394-0.12-0.393-0.42c0.011-2.143,0.013-4.286-0.002-6.429c-0.002-0.324,0.098-0.397,0.407-0.395
			c1.938,0.013,3.876,0.01,5.814,0.002c0.245-0.001,0.398,0.049,0.519,0.293c1.115,2.246,2.245,4.484,3.37,6.725
			c0.023,0.047,0.031,0.101,0.064,0.216C68.064,45.618,64.822,45.613,61.58,45.625z M41.015,67.26
			c-1.993,0.024-3.637-1.59-3.646-3.58c-0.009-1.975,1.575-3.583,3.556-3.609c2-0.027,3.629,1.572,3.643,3.575
			C44.581,65.614,42.986,67.236,41.015,67.26z M65.66,67.259c-1.989,0.012-3.637-1.625-3.63-3.604
			c0.008-1.967,1.615-3.575,3.586-3.587c1.992-0.013,3.638,1.62,3.631,3.6C69.242,65.632,67.627,67.248,65.66,67.259z"/>
		<path fill="#BC7A40" d="M27.333,42.182c4.991,0.005,9.982,0.002,14.973,0.001c0.13,0,0.261,0.002,0.391-0.012
			c0.967-0.103,1.654-0.894,1.626-1.865c-0.03-1-0.787-1.715-1.879-1.72c-2.551-0.013-5.103-0.004-7.654-0.004
			c-2.514,0-5.028-0.006-7.542,0.003c-0.978,0.004-1.663,0.525-1.858,1.365C25.105,41.174,25.973,42.181,27.333,42.182z"/>
		<path fill="#BC7A40" d="M35.54,56.367c0.771-0.009,1.328-0.465,1.59-1.201c0.399-1.124-0.36-2.313-1.56-2.358
			c-1.431-0.054-2.866-0.013-4.3-0.013c0-0.003,0-0.005,0-0.008c-1.396,0-2.793-0.026-4.188,0.009
			c-1.008,0.025-1.727,0.776-1.758,1.738c-0.03,0.953,0.723,1.824,1.727,1.836C29.88,56.403,32.71,56.399,35.54,56.367z"/>
	</g>
</g>
</svg>
