<?xml version="1.0" encoding="utf-8"?>
<!-- Generator: Adobe Illustrator 24.0.2, SVG Export Plug-In . SVG Version: 6.00 Build 0)  -->
<svg version="1.1" id="Слой_1" xmlns="http://www.w3.org/2000/svg" xmlns:xlink="http://www.w3.org/1999/xlink" x="0px" y="0px"
	 width="102.047px" height="102.047px" viewBox="0 0 102.047 102.047" enable-background="new 0 0 102.047 102.047"
	 xml:space="preserve">
<g>
	<circle fill="#FCF6F2" cx="51.023" cy="51.023" r="51"/>
	<g>
		<path fill="#BC7A40" d="M51.064,23.986C36.163,23.964,24,36.09,23.982,50.986c-0.017,14.91,12.093,27.054,27.002,27.076
			c14.902,0.022,27.06-12.1,27.081-27C78.086,36.154,65.973,24.008,51.064,23.986z M76.841,44.456
			c0.141,0.784,0.312,1.563,0.49,2.339c0.077,0.336-0.053,0.396-0.357,0.395c-5.312-0.021-10.623-0.034-15.935-0.048
			c-3.245-0.008-6.49-0.015-9.735-0.022c-0.198,0-0.396,0-0.761,0c1.048-1.043,1.985-1.972,2.915-2.906
			c0.149-0.15,0.324-0.135,0.504-0.135c7.452,0,14.903,0.001,22.354-0.005C76.61,44.075,76.781,44.123,76.841,44.456z
			 M53.714,50.614c-0.014,1.471-1.263,2.697-2.724,2.672c-1.473-0.024-2.69-1.279-2.657-2.74c0.033-1.454,1.252-2.65,2.697-2.645
			C52.499,47.907,53.728,49.149,53.714,50.614z M75.65,40.868c0.234,0.722,0.497,1.437,0.777,2.143
			c0.152,0.384,0.076,0.497-0.347,0.49c-1.341-0.022-2.683-0.008-4.024-0.008c-5.71,0-11.42,0-17.13,0c-0.193,0-0.387,0-0.58,0
			c-0.02-0.042-0.04-0.084-0.06-0.126c0.925-0.917,1.854-1.831,2.772-2.755c0.168-0.169,0.356-0.148,0.552-0.148
			c5.801-0.001,11.601,0.002,17.402-0.008C75.347,40.456,75.539,40.526,75.65,40.868z M73.754,37.147
			c0.497,0.862,0.994,1.724,1.421,2.686c-5.759,0-11.486,0-17.336,0c0.984-0.981,1.908-1.897,2.824-2.822
			c0.15-0.151,0.32-0.142,0.5-0.142c4.003,0,8.007,0.002,12.01-0.004C73.427,36.863,73.612,36.901,73.754,37.147z M71.304,33.78
			c0.636,0.764,1.246,1.546,1.84,2.431c-3.898,0-7.736,0-11.691,0c0.879-0.874,1.691-1.672,2.491-2.481
			c0.16-0.162,0.336-0.182,0.541-0.182c2.084,0.003,4.167,0.004,6.25-0.002C70.967,33.545,71.145,33.589,71.304,33.78z
			 M67.73,30.303c0.978,0.793,1.905,1.639,2.804,2.632c-1.946,0-3.807,0-5.805,0c0.947-0.942,1.812-1.801,2.675-2.661
			C67.529,30.149,67.627,30.22,67.73,30.303z M64.713,28.184c0.683,0.476,1.379,0.935,2.079,1.386
			c0.235,0.151,0.251,0.276,0.033,0.443c-0.057,0.044-0.103,0.102-0.154,0.153c-6.038,6.037-12.075,12.073-18.114,18.109
			c-0.112,0.112-0.233,0.216-0.443,0.41c0-1.455,0.005-2.775-0.005-4.095c-0.002-0.229,0.108-0.368,0.252-0.512
			c5.27-5.266,10.539-10.533,15.804-15.804C64.342,28.098,64.473,28.016,64.713,28.184z M61.352,26.475
			c0.697,0.346,1.398,0.685,2.109,0.999c0.372,0.164,0.398,0.286,0.097,0.583c-1.895,1.871-3.773,3.76-5.656,5.643
			c-3.088,3.087-6.177,6.173-9.261,9.265c-0.139,0.139-0.229,0.326-0.342,0.49c-0.062-0.045-0.123-0.091-0.185-0.136
			c0-1.282,0.005-2.564-0.005-3.847c-0.002-0.23,0.115-0.366,0.258-0.509c4.127-4.124,8.254-8.247,12.374-12.378
			C60.942,26.385,61.103,26.351,61.352,26.475z M57.322,25.143c1.009,0.269,2.02,0.534,2.91,0.904
			c-4.044,4.044-8.082,8.083-12.118,12.119c0-1.243,0.003-2.541-0.003-3.839c-0.001-0.212,0.127-0.328,0.254-0.456
			c2.834-2.834,5.668-5.667,8.503-8.5C56.993,25.248,57.096,25.082,57.322,25.143z M53.292,24.484
			c1.018,0.116,2.04,0.206,2.993,0.442c-2.716,2.716-5.429,5.428-8.171,8.17c0-1.145,0.003-2.299-0.003-3.454
			c-0.001-0.212,0.135-0.326,0.262-0.453c1.487-1.488,2.975-2.975,4.463-4.463C52.963,24.6,53.073,24.459,53.292,24.484z
			 M48.109,24.922c-0.005-0.267,0.066-0.396,0.35-0.417c1.226-0.091,2.452-0.168,3.708-0.09c-1.354,1.354-2.681,2.681-4.016,4.016
			c-0.088-0.38-0.028-0.807-0.034-1.227C48.106,26.444,48.124,25.683,48.109,24.922z M44.819,25.114
			c0.715-0.12,1.426-0.261,2.134-0.417c0.43-0.095,0.592-0.01,0.586,0.484c-0.029,2.031-0.012,4.062-0.012,6.093
			c0,6.437,0,12.875,0,19.312c0,0.193,0,0.387,0,0.728c-1.059-1.056-2.005-2.005-2.958-2.948c-0.149-0.147-0.15-0.316-0.15-0.499
			c0.001-7.417,0.003-14.833-0.006-22.25C44.411,25.302,44.506,25.166,44.819,25.114z M41.174,26.275
			c0.706-0.229,1.41-0.464,2.101-0.735c0.453-0.178,0.568-0.09,0.567,0.41c-0.016,5.98-0.01,11.961-0.01,17.941
			c0,1.192,0,2.385,0,3.73c-1.035-1.034-1.967-1.968-2.905-2.897c-0.153-0.151-0.127-0.328-0.127-0.506
			c-0.001-5.799,0.002-11.598-0.008-17.398C40.791,26.514,40.89,26.368,41.174,26.275z M37.533,28.06
			c0.743-0.375,1.482-0.762,2.211-1.163c0.378-0.207,0.469-0.126,0.467,0.3c-0.012,4.713-0.008,9.426-0.008,14.14
			c0,0.829,0,1.659,0,2.669c-1.038-1.041-1.955-1.965-2.879-2.882c-0.152-0.151-0.131-0.326-0.131-0.504
			c-0.001-3.988,0.003-7.976-0.007-11.964C37.185,28.364,37.271,28.192,37.533,28.06z M34.215,30.373
			c0.743-0.572,1.483-1.148,2.356-1.693c0,3.906,0,7.732,0,11.671c-0.91-0.907-1.75-1.741-2.586-2.579
			c-0.131-0.131-0.085-0.307-0.086-0.466c-0.002-2.082,0.004-4.164-0.008-6.246C33.889,30.76,33.975,30.558,34.215,30.373z
			 M30.61,33.925c0.809-0.931,1.651-1.829,2.656-2.722c0,1.98,0,3.855,0,5.838c-0.369-0.36-0.685-0.665-0.996-0.974
			c-0.54-0.537-1.07-1.084-1.62-1.611C30.46,34.272,30.417,34.147,30.61,33.925z M28.425,36.929
			c0.466-0.646,0.918-1.303,1.366-1.962c0.152-0.223,0.255-0.289,0.486-0.058c6.119,6.135,12.245,12.262,18.37,18.392
			c0.012,0.012,0.017,0.03,0.079,0.142c-1.425,0-2.778-0.002-4.132,0.002c-0.191,0.001-0.291-0.128-0.404-0.241
			c-5.23-5.229-10.459-10.46-15.695-15.684C28.289,37.315,28.253,37.167,28.425,36.929z M26.647,40.271
			c0.382-0.719,0.742-1.449,1.1-2.181c0.123-0.253,0.239-0.283,0.424-0.062c0.115,0.139,0.253,0.258,0.382,0.387
			c4.83,4.83,9.659,9.659,14.491,14.487c0.141,0.141,0.3,0.263,0.451,0.394c-0.018,0.049-0.037,0.098-0.055,0.148
			c-1.314,0-2.629-0.003-3.944,0.003c-0.214,0.001-0.321-0.146-0.446-0.271c-4.088-4.085-8.173-8.174-12.266-12.254
			C26.576,40.714,26.498,40.551,26.647,40.271z M25.255,44.241c0.289-0.986,0.572-1.974,0.96-2.866
			c4.022,4.021,8.04,8.038,12.071,12.068c-1.287,0-2.603-0.002-3.919,0.002c-0.192,0.001-0.29-0.13-0.403-0.243
			c-2.835-2.833-5.67-5.667-8.504-8.501C25.335,44.574,25.189,44.467,25.255,44.241z M25.031,45.277
			c2.714,2.714,5.424,5.425,8.165,8.165c-1.154,0-2.326-0.002-3.498,0.002c-0.19,0.001-0.29-0.126-0.404-0.24
			c-1.512-1.511-3.024-3.023-4.537-4.534c-0.129-0.129-0.247-0.244-0.222-0.462C24.65,47.208,24.793,46.213,25.031,45.277z
			 M24.477,53.225c-0.087-1.293-0.164-2.586-0.015-3.84c1.35,1.343,2.698,2.685,4.079,4.059c-1.248,0-2.478,0-3.708-0.001
			C24.672,53.443,24.494,53.472,24.477,53.225z M25.004,56.736c-0.112-0.734-0.235-1.467-0.393-2.192
			c-0.092-0.426,0.039-0.513,0.452-0.511c3.715,0.015,7.431,0.009,11.146,0.009c4.93,0,9.859,0,14.789,0c0.195,0,0.39,0,0.585,0
			c0.017,0.043,0.035,0.086,0.052,0.129c-0.938,0.928-1.881,1.853-2.811,2.789c-0.162,0.162-0.338,0.178-0.541,0.178
			c-7.594-0.002-15.187-0.003-22.781,0.006C25.183,57.144,25.052,57.049,25.004,56.736z M26.081,60.362
			c-0.226-0.726-0.463-1.449-0.721-2.164c-0.146-0.405-0.005-0.47,0.38-0.469c3.482,0.013,6.965,0.008,10.447,0.008
			c3.7,0,7.4,0,11.1,0c0.198,0,0.397,0,0.759,0c-1.028,1.025-1.95,1.94-2.864,2.862c-0.148,0.149-0.316,0.153-0.499,0.153
			c-6.021,0-12.043-0.003-18.064,0.007C26.304,60.759,26.169,60.644,26.081,60.362z M27.862,64.163
			c-0.483-0.888-0.969-1.773-1.361-2.785c5.97,0,11.872,0,17.89,0c-1.009,1.01-1.949,1.951-2.889,2.892
			c-0.133,0.133-0.301,0.103-0.462,0.103c-4.223,0.001-8.447,0-12.67,0.002C28.168,64.375,27.983,64.387,27.862,64.163z
			 M30.102,67.486c-0.607-0.785-1.185-1.589-1.74-2.49c4.141,0,8.215,0,12.447,0c-0.915,0.905-1.741,1.715-2.557,2.534
			c-0.151,0.151-0.323,0.136-0.501,0.136c-2.372,0-4.745,0-7.117,0C30.435,67.667,30.252,67.681,30.102,67.486z M33.946,71.455
			c-1.112-0.956-2.161-1.971-3.186-3.179c2.291,0,4.439,0,6.587,0c0.083,0.147-0.052,0.199-0.117,0.265
			c-0.932,0.938-1.867,1.872-2.803,2.806C34.291,71.481,34.191,71.665,33.946,71.455z M36.866,73.583
			c-0.611-0.453-1.236-0.89-1.874-1.303c-0.35-0.227-0.297-0.371-0.029-0.637c2.703-2.683,5.392-5.38,8.085-8.073
			c3.399-3.398,6.798-6.796,10.194-10.197c0.139-0.139,0.245-0.312,0.367-0.469c0.059,0.031,0.117,0.062,0.176,0.093
			c0,1.353,0,2.706,0.001,4.059c0,0.188-0.135,0.287-0.249,0.401C48.189,62.804,42.84,68.15,37.498,73.504
			C37.28,73.724,37.132,73.78,36.866,73.583z M44.095,76.751c-0.955-0.28-1.902-0.579-2.759-0.93
			c4.133-4.135,8.278-8.28,12.449-12.453c0,1.286,0,2.601,0,3.916c0,0.188-0.14,0.285-0.253,0.398
			c-2.959,2.96-5.919,5.918-8.877,8.879C44.494,76.724,44.361,76.829,44.095,76.751z M47.989,77.489
			c-0.944-0.121-1.882-0.267-2.76-0.48c2.85-2.85,5.695-5.693,8.555-8.553c0,1.144,0,2.327,0,3.51c0,0.187-0.144,0.283-0.257,0.397
			c-1.625,1.626-3.254,3.248-4.872,4.881C48.459,77.441,48.273,77.525,47.989,77.489z M53.555,77.543
			c-1.42,0.11-2.84,0.196-4.221,0.037c1.483-1.482,2.959-2.958,4.455-4.453c0,0.715,0,1.466,0,2.216c0,0.598,0.001,1.197,0,1.795
			C53.788,77.317,53.826,77.522,53.555,77.543z M53.531,62.588c-4.219,4.218-8.439,8.434-12.651,12.659
			c-0.211,0.211-0.375,0.278-0.65,0.132c-0.72-0.382-1.451-0.743-2.181-1.105c-0.242-0.12-0.296-0.244-0.063-0.425
			c0.043-0.033,0.078-0.076,0.116-0.115c5.091-5.09,10.182-10.18,15.273-15.269c0.098-0.098,0.202-0.192,0.413-0.391
			c0,1.454-0.002,2.757,0.002,4.06C53.791,62.345,53.66,62.459,53.531,62.588z M57.065,76.969c-0.769,0.115-1.534,0.264-2.297,0.419
			c-0.28,0.057-0.419,0.009-0.377-0.303c0.007-0.053,0.001-0.109,0.001-0.163c0-8.734,0-17.468,0-26.202c0-0.122,0-0.245,0-0.367
			c0.041-0.02,0.082-0.039,0.123-0.059c0.929,0.938,1.854,1.88,2.789,2.811c0.162,0.161,0.176,0.341,0.176,0.543
			c-0.001,7.592-0.003,15.185,0.005,22.777C57.486,76.751,57.418,76.916,57.065,76.969z M60.733,75.829
			c-0.76,0.238-1.512,0.501-2.262,0.768c-0.315,0.112-0.429,0.024-0.385-0.302c0.012-0.089,0.002-0.181,0.002-0.272
			c0-7.141,0-14.282,0-21.423c0-0.181,0-0.362,0-0.703c1.043,1.043,1.986,1.987,2.929,2.929c0.15,0.15,0.1,0.339,0.1,0.515
			c0.002,5.963,0,11.926,0.008,17.889C61.126,75.547,61.054,75.729,60.733,75.829z M64.726,73.38
			c0.001,0.352-0.09,0.555-0.409,0.726c-0.843,0.449-1.678,0.912-2.601,1.295c0-5.956,0-11.852,0-17.896
			c0.776,0.783,1.433,1.524,2.174,2.17c0.637,0.556,0.861,1.162,0.85,2.015C64.69,65.585,64.713,69.483,64.726,73.38z
			 M68.016,71.154c0,0.201,0,0.38-0.191,0.528c-0.786,0.612-1.578,1.214-2.506,1.785c0-4.123,0-8.16,0-12.204
			c0.183-0.07,0.241,0.111,0.331,0.199c0.698,0.686,1.384,1.385,2.084,2.07c0.191,0.187,0.291,0.375,0.289,0.659
			C68.009,66.513,68.014,68.833,68.016,71.154z M71.643,67.855c-0.891,1.095-1.868,2.105-3.002,3.121c0-2.21,0-4.312,0-6.538
			c1.067,1.07,2.055,2.066,3.048,3.055C71.847,67.65,71.732,67.745,71.643,67.855z M73.771,64.869
			c-0.469,0.666-0.923,1.343-1.369,2.025c-0.15,0.229-0.274,0.245-0.441,0.031c-0.066-0.085-0.152-0.155-0.229-0.232
			c-5.819-5.818-11.636-11.638-17.46-17.45c-0.459-0.458-0.759-1.06-1.299-1.511c1.321,0,2.642,0.003,3.963-0.003
			c0.211-0.001,0.327,0.123,0.455,0.251c5.434,5.434,10.867,10.869,16.307,16.297C73.901,64.479,73.941,64.627,73.771,64.869z
			 M75.493,61.565c-0.388,0.797-0.746,1.608-1.167,2.33c-5.4-5.398-10.767-10.763-16.154-16.148c1.315,0,2.648-0.001,3.981,0.001
			c0.231,0,0.332,0.204,0.467,0.339c4.235,4.229,8.464,8.464,12.705,12.688C75.578,61.029,75.659,61.223,75.493,61.565z
			 M76.858,57.518c-0.269,0.992-0.549,1.979-0.924,2.891c-4.214-4.213-8.422-8.42-12.657-12.654c1.286,0,2.554,0.005,3.822-0.005
			c0.22-0.002,0.368,0.078,0.518,0.228c3.007,3.014,6.019,6.023,9.03,9.034C76.786,57.151,76.928,57.262,76.858,57.518z
			 M77.117,56.362c-2.868-2.867-5.757-5.756-8.6-8.598c0.983,0,2.088,0.007,3.192-0.005c0.254-0.003,0.438,0.068,0.62,0.25
			c1.658,1.671,3.324,3.333,4.991,4.996c0.144,0.144,0.258,0.277,0.23,0.513C77.43,54.503,77.31,55.487,77.117,56.362z
			 M73.043,47.775c0.629,0,1.25,0,1.87,0c0.724,0,1.448-0.002,2.172,0.001c0.171,0.001,0.367-0.055,0.399,0.229
			c0.159,1.437,0.241,2.874,0.135,4.36C76.061,50.804,74.571,49.309,73.043,47.775z"/>
		<path fill="none" stroke="#BC7A40" stroke-width="2" stroke-miterlimit="10" d="M50.984,78.222
			C35.987,78.2,23.804,65.984,23.821,50.986c0.018-14.984,12.253-27.183,27.243-27.161c14.998,0.022,27.183,12.241,27.162,27.237
			C78.204,66.05,65.974,78.244,50.984,78.222z"/>
	</g>
</g>
</svg>
