<?xml version="1.0" encoding="utf-8"?>
<!-- Generator: Adobe Illustrator 24.0.2, SVG Export Plug-In . SVG Version: 6.00 Build 0)  -->
<svg version="1.1" id="Слой_1" xmlns="http://www.w3.org/2000/svg" xmlns:xlink="http://www.w3.org/1999/xlink" x="0px" y="0px"
	 width="102.047px" height="102.047px" viewBox="0 0 102.047 102.047" enable-background="new 0 0 102.047 102.047"
	 xml:space="preserve">
<g>
	<circle fill="#FCF6F2" cx="51.023" cy="51.023" r="51"/>
	<g>
		<path fill="#BC7A40" d="M50.824,55.852c-2.82-0.768-5.264-0.039-7.422,1.845c-0.869,0.759-1.491,1.711-2.088,2.682h-0.001
			c0.012-0.091,0.019-0.182,0.036-0.272c0.379-1.97,0.896-3.905,1.469-5.825l0,0c0.473,0.059,0.946,0.161,1.42,0.17
			c4.599,0.087,7.829-2.187,10.195-5.941c0.103-0.163,0.109-0.255-0.083-0.353c-0.552-0.282-1.118-0.526-1.724-0.658
			c-2.668-0.581-4.995,0.148-7.083,1.831c-0.53,0.427-0.905,1.004-1.45,1.41c0.074-0.218,0.138-0.44,0.224-0.653
			c0.686-1.704,1.475-3.361,2.28-5.011l0,0l0,0c0.105,0.019,0.215,0.023,0.313,0.06c1.447,0.531,2.932,0.719,4.465,0.519
			c3.12-0.408,5.642-1.892,7.691-4.243c0.162-0.186,0.157-0.277-0.044-0.431c-0.708-0.541-1.475-0.961-2.333-1.203
			c-2.585-0.73-4.944-0.188-7.14,1.273c-0.306,0.204-0.566,0.477-0.915,0.618c-0.124-0.105,0.013-0.156,0.052-0.217
			c0.571-0.894,1.147-1.786,1.721-2.679l0,0l0,0c0.134-0.073,0.264-0.155,0.403-0.217c0.663-0.294,1.325-0.589,1.957-0.948
			c1.866-1.061,3.425-2.47,4.755-4.144c0.008-0.011,0.015-0.022,0.02-0.033c-0.013,0.001-0.024,0.004-0.036,0.006
			c0,0,0-0.001-0.001-0.001c0.306-0.449,0.879-1.326,1.575-2.553c0.003,0.007,0.006,0.015,0.009,0.022
			c0.012-0.007,0.025-0.012,0.038-0.022l0,0c0.079-0.165,0.156-0.33,0.231-0.496c0.001-0.002,0.002-0.004,0.004-0.007
			c0.119-0.216,0.197-0.404,0.243-0.569c0.34-0.827,0.62-1.675,0.821-2.551c-0.371,0-0.742,0-1.114,0
			c-0.065,0.141-0.211,0.123-0.321,0.142c-1.936,0.338-3.616,1.21-5.089,2.483c-2.04,1.764-3.453,3.914-3.986,6.6
			c-0.126,0.635-0.066,1.289-0.255,1.912l0,0l0,0c-0.533,0.713-1.023,1.454-1.493,2.21c-0.161,0.258-0.266,0.561-0.524,0.751
			c-0.009-0.002-0.017-0.005-0.026-0.008c0.01-0.081,0.015-0.164,0.035-0.242c0.516-2.012,0.704-4.042,0.327-6.099
			c-0.337-1.838-1.099-3.46-2.461-4.777c-0.219-0.212-0.324-0.186-0.493,0.044c-1.785,2.422-2.845,5.09-2.681,8.143
			c0.109,2.037,0.783,3.858,2.279,5.317c0.376,0.367,0.842,0.614,1.224,0.971l0,0l0,0c-1.001,1.855-1.843,3.781-2.604,5.744
			c-0.106-0.065-0.058-0.182-0.091-0.271c0,0,0,0,0,0.001c0,0,0,0,0-0.001c0.073-1.579,0.028-3.15-0.37-4.691
			c-0.586-2.269-1.674-4.205-3.671-5.544c-0.232-0.155-0.341-0.183-0.479,0.099c-1.287,2.64-1.887,5.384-1.221,8.302
			c0.579,2.541,1.873,4.549,4.377,5.598c0.107,0.045,0.193,0.097,0.184,0.23c-0.645,1.972-1.152,3.978-1.506,6.022
			c-0.001,0-0.003,0-0.004,0.001c-0.177-0.054-0.151-0.209-0.163-0.341c-0.157-1.772-0.602-3.466-1.4-5.057
			c-0.963-1.922-2.331-3.447-4.342-4.322c-0.192-0.084-0.34-0.185-0.436,0.145c-0.974,3.338-0.937,6.598,0.836,9.682
			c1.042,1.814,2.546,3.089,4.656,3.526c0.118,0.024,0.207,0.053,0.229,0.183c-0.219,1.472-0.294,2.957-0.401,4.439l0,0
			c-0.023,0.004-0.047,0.004-0.07-0.001l0,0c-0.204-0.29-0.395-0.591-0.616-0.867c-1.345-1.68-2.949-2.979-5.116-3.438
			c-0.835-0.177-1.911-0.166-2.381,0.038c2.5,0.225,4.332,1.527,5.767,3.48c1.084,1.474,1.808,3.115,2.258,4.883
			c0.011,0.176,0.076,0.333,0.163,0.483l0,0c0.008,0.448,0.023,0.895,0.021,1.343c-0.001,0.261,0.022,0.462,0.373,0.403
			c0.264-0.044,0.575,0.039,0.531-0.421c-0.058-0.598-0.068-1.201-0.099-1.802c0.032-0.527-0.052-1.061,0.098-1.58l0,0
			c0.094-0.294,0.179-0.591,0.283-0.882c0.799-2.252,2.226-3.933,4.464-4.861c1.126-0.467,2.312-0.51,3.509-0.457
			c0.124,0.077,0.252,0.081,0.384,0.042c0.016,0.006,0.033,0.012,0.049,0.02c0.001,0.001,0.003,0.002,0.004,0.002
			c-0.002-0.002-0.008-0.007-0.022-0.021c-0.004-0.003-0.01-0.004-0.014-0.007c0.031-0.01,0.062-0.021,0.093-0.036
			c-0.13-0.033-0.261-0.065-0.391-0.098l0,0c-3.228-0.925-5.967-0.087-8.297,2.375c-0.005-0.002-0.01-0.003-0.016-0.006
			c-0.002-0.001-0.003-0.002-0.004-0.002c0.091-1.035,0.175-1.975,0.258-2.916l0,0c0.083-0.175,0.226-0.143,0.387-0.147
			c1.036-0.029,2.06-0.153,3.039-0.519c3.426-1.281,5.651-3.744,6.998-7.085C51.232,56.025,51.143,55.939,50.824,55.852z
			 M55.487,31.666l0.027,0.056c-0.026-0.012-0.051-0.023-0.077-0.035C55.454,31.68,55.47,31.673,55.487,31.666z"/>
		<path fill="#BC7A40" d="M64.775,50.965c3.068-1.386,5.06-3.699,5.982-6.94c0.084-0.294,0.016-0.354-0.258-0.327
			c-0.664,0.066-1.319,0.19-1.922,0.474c-2.857,1.349-4.51,3.551-4.72,6.755c-0.433,0.623-0.866,1.247-1.299,1.87
			c-0.122-0.119,0.001-0.233,0.023-0.337c0.211-0.986,0.337-1.98,0.249-2.988c-0.125-1.441-0.595-2.737-1.644-3.78
			c-0.154-0.154-0.243-0.229-0.414,0.006c-1.156,1.583-1.847,3.327-1.715,5.307c0.112,1.68,0.748,3.112,2.278,4.011l0,0
			c-0.588,1.218-1.175,2.438-1.657,3.703c-0.033-0.031-0.067-0.062-0.1-0.093l0,0l0,0c0.035-0.928,0.028-1.852-0.172-2.765
			c-0.343-1.56-1.039-2.896-2.376-3.844c-0.208-0.148-0.308-0.176-0.439,0.092c-0.798,1.628-1.141,3.332-0.797,5.124
			c0.346,1.798,1.231,3.217,3.029,3.909c-0.396,1.367-0.795,2.734-1.009,4.146l0,0l0,0c-0.104-0.097-0.068-0.229-0.086-0.348
			c-0.132-0.9-0.284-1.795-0.63-2.645c-0.608-1.492-1.52-2.707-3.018-3.418c-0.275-0.131-0.356-0.074-0.434,0.201
			c-0.395,1.39-0.508,2.791-0.176,4.205c0.418,1.778,1.294,3.228,3.026,4.02c0.304,0.139,0.629,0.233,0.945,0.348
			c-0.164,0.944-0.214,1.899-0.266,2.854l0,0c-0.029,0.011-0.06,0.013-0.09,0.007l0,0l0,0c-0.281-0.442-0.61-0.848-0.986-1.211
			c-0.891-0.859-1.884-1.524-3.174-1.59c-0.36-0.131-0.71-0.096-1.052,0.091c0.071,0,0.143,0,0.214,0l0,0l0,0
			c0.988,0.147,1.85,0.556,2.588,1.233c1.184,1.087,1.89,2.451,2.327,3.974c0.008,0.178,0.07,0.339,0.162,0.49l0,0
			c0.006,0.29,0.017,0.581,0.017,0.871c0,0.186,0.013,0.323,0.266,0.316c0.245-0.007,0.321-0.105,0.302-0.335
			c-0.021-0.259-0.02-0.519-0.029-0.778c0.047-0.496-0.067-1.003,0.099-1.491l0,0l0,0c0.639-2.116,1.91-3.554,4.19-3.911
			c0.432,0.007,0.864,0.015,1.296,0.023c0.086,0.103,0.183,0.123,0.301,0.043c-0.087-0.096-0.187-0.143-0.312-0.131l0,0l0,0
			c-0.154-0.028-0.307-0.057-0.461-0.085l0,0c-1.952-0.47-3.569,0.113-4.914,1.557c-0.135-0.051-0.068-0.182-0.107-0.271
			c0.04-0.458,0.08-0.917,0.12-1.375l0,0c0.058-0.215,0.17-0.327,0.422-0.302c0.212,0.021,0.433-0.004,0.645-0.04
			c2.861-0.496,4.629-2.284,5.733-4.858c0.097-0.227,0.056-0.329-0.187-0.399c-0.696-0.202-1.399-0.248-2.108-0.121
			c-1.745,0.314-2.983,1.337-3.887,2.816c-0.026-0.031-0.052-0.062-0.078-0.093l0,0l0,0c0.016-0.121,0.022-0.244,0.051-0.362
			c0.262-1.051,0.529-2.101,0.794-3.151l0,0l0,0c0.115-0.119,0.247-0.078,0.388-0.058c0.817,0.117,1.633,0.104,2.435-0.107
			c2.079-0.547,3.61-1.813,4.741-3.611c0.153-0.244,0.054-0.311-0.138-0.4c-1.68-0.782-3.293-0.595-4.866,0.315
			c-0.621,0.359-1.08,0.907-1.633,1.346c0.043-0.13,0.08-0.261,0.13-0.388c0.428-1.097,0.96-2.147,1.453-3.215
			c0.724,0.213,1.449,0.443,2.212,0.439c2.39-0.012,4.304-1.045,5.888-2.776c0.144-0.157,0.123-0.234-0.037-0.358
			c-0.731-0.565-1.56-0.867-2.473-0.941c-1.651-0.132-3.051,0.466-4.3,1.494l0,0c0.266-0.684,0.778-1.219,1.121-1.856l0,0l0,0
			C64.385,51.144,64.577,51.055,64.775,50.965z"/>
	</g>
</g>
</svg>
