<?xml version="1.0" encoding="utf-8"?>
<!-- Generator: Adobe Illustrator 26.2.1, SVG Export Plug-In . SVG Version: 6.00 Build 0)  -->
<svg version="1.1" id="Слой_1" xmlns="http://www.w3.org/2000/svg" xmlns:xlink="http://www.w3.org/1999/xlink" x="0px" y="0px"
	 width="40px" height="40px" viewBox="0 0 40 40" enable-background="new 0 0 40 40" xml:space="preserve">
<g>
	<path fill="#333333" d="M39.103,9.037c-0.204-0.842-0.475-1.654-0.865-2.431c-1.428-2.842-3.687-4.669-6.725-5.567
		c-0.591-0.175-1.198-0.206-1.8-0.289c-0.075,0-0.15,0-0.225,0c-0.05,0-0.1,0-0.15,0c-6.185,0-12.37,0-18.555,0
		c-0.075,0-0.15,0-0.225,0c-0.1,0-0.2,0-0.3,0C9.906,0.849,9.537,0.794,9.184,0.872C6.683,1.419,4.607,2.665,3.016,4.676
		c-1.51,1.908-2.28,4.07-2.269,6.529c0.026,5.947,0.006,11.894,0.012,17.84c0.001,0.549,0.013,1.102,0.123,1.643
		c0.338,1.657,0.992,3.179,2.057,4.5c2.108,2.614,4.808,4.058,8.209,4.06c5.972,0.005,11.944,0.001,17.915,0.001
		c0.375,0,0.75-0.022,1.122-0.061c1.133-0.119,2.194-0.475,3.214-0.979c2.481-1.227,4.196-3.15,5.237-5.698
		c0.353-0.864,0.523-1.767,0.618-2.689c0-0.15,0-0.301,0-0.451c0-0.05,0-0.1,0-0.15s0-0.1,0-0.15c0-6.06,0-12.12,0-18.18
		c0-0.05,0-0.1,0-0.15c0-0.05,0-0.1,0-0.15c0-0.125,0-0.25,0-0.376C39.145,9.83,39.197,9.427,39.103,9.037z M31.203,5.603
		c1.754,0,3.2,1.448,3.197,3.2c-0.003,1.747-1.463,3.209-3.2,3.205c-1.738-0.004-3.205-1.473-3.205-3.208
		C27.996,7.061,29.459,5.603,31.203,5.603z M20.03,9.439c5.814,0.017,10.492,4.689,10.535,10.522
		c0.043,5.78-4.703,10.54-10.532,10.563c-5.793,0.023-10.55-4.729-10.554-10.541C9.477,14.176,14.233,9.422,20.03,9.439z"/>
	<path fill="#333333" d="M19.984,28.252c4.553,0.033,8.283-3.667,8.308-8.242c0.025-4.556-3.68-8.282-8.251-8.299
		c-4.559-0.017-8.281,3.692-8.29,8.26C11.743,24.52,15.421,28.218,19.984,28.252z"/>
	<path fill="#333333" d="M31.222,10.426c0.869-0.009,1.605-0.766,1.599-1.644c-0.006-0.887-0.739-1.607-1.63-1.6
		c-0.873,0.007-1.624,0.765-1.614,1.63C29.586,9.668,30.368,10.435,31.222,10.426z"/>
</g>
</svg>
