<?xml version="1.0" encoding="utf-8"?>
<!-- Generator: Adobe Illustrator 26.2.1, SVG Export Plug-In . SVG Version: 6.00 Build 0)  -->
<svg version="1.1" id="ар_1" xmlns="http://www.w3.org/2000/svg" xmlns:xlink="http://www.w3.org/1999/xlink" x="0px" y="0px"
	 width="406.469px" height="74.553px" viewBox="0 0 406.469 74.553" enable-background="new 0 0 406.469 74.553"
	 xml:space="preserve">
<g>
	<polygon points="4.892,30.288 15.992,30.288 15.992,62.096 32.37,62.096 32.37,30.288 43.469,30.288 43.469,18.511 4.892,18.511 	
		"/>
	<path d="M77.375,29.34c-1.67,0-3.262,0.192-4.772,0.575c-1.512,0.384-2.719,0.823-3.621,1.32V16.481H52.605v45.615h16.376V42.741
		c0.315-0.361,0.779-0.677,1.388-0.948c0.608-0.271,1.139-0.406,1.59-0.406c1.489,0,2.233,0.768,2.233,2.301v18.409h16.378V42.334
		c0-4.421-1.061-7.693-3.18-9.813C85.268,30.4,81.931,29.34,77.375,29.34z"/>
	<path d="M130.703,33.401c-3.293-2.707-7.692-4.061-13.196-4.061c-6.047,0-10.592,1.535-13.638,4.602
		c-3.044,3.069-4.568,7.151-4.568,12.25c0,3.61,0.881,6.644,2.64,9.103c1.759,2.46,4.138,4.32,7.14,5.583
		c3.001,1.263,6.397,1.894,10.185,1.894c6.451,0,11.371-0.812,14.753-2.435v-8.799c-1.083,0.406-2.572,0.778-4.465,1.117
		c-1.895,0.338-3.858,0.507-5.89,0.507c-2.48,0-4.5-0.236-6.057-0.71c-1.555-0.473-2.673-1.139-3.349-1.996h21.386v-5.482
		C135.644,39.966,133.997,36.107,130.703,33.401z M121.635,42.266h-7.377c0-0.902,0.294-1.669,0.879-2.3
		c0.587-0.632,1.557-0.948,2.912-0.948c1.398,0,2.344,0.282,2.842,0.846c0.496,0.565,0.744,1.162,0.744,1.793V42.266z"/>
	<polygon points="190.192,36.514 181.327,18.511 165.761,18.511 165.761,62.096 182.137,62.096 182.137,46.801 185.996,54.651 
		194.319,54.651 198.177,46.801 198.177,62.096 214.556,62.096 214.556,18.511 198.99,18.511 	"/>
	<polygon points="223.352,41.793 227.818,41.793 227.818,62.096 244.197,62.096 244.197,30.017 224.706,30.017 	"/>
	<rect x="226.668" y="16.076" width="17.529" height="10.098"/>
	<path d="M272.586,50.862c-0.338-0.406-0.507-1.038-0.507-1.895V16.481h-16.377v34.651c0,3.971,0.956,6.903,2.875,8.799
		c1.919,1.894,5.246,2.842,9.983,2.842c2.255,0,4.016-0.147,5.279-0.439c1.262-0.293,2.593-0.733,3.993-1.32V50.862
		c-0.993,0.405-2.121,0.609-3.384,0.609C273.544,51.47,272.926,51.267,272.586,50.862z"/>
	<path d="M302.499,50.862c-0.338-0.406-0.507-1.038-0.507-1.895V16.481h-16.376v34.651c0,3.971,0.956,6.903,2.875,8.799
		c1.919,1.894,5.246,2.842,9.983,2.842c2.255,0,4.016-0.147,5.279-0.439c1.262-0.293,2.593-0.733,3.993-1.32V50.862
		c-0.993,0.405-2.121,0.609-3.384,0.609C303.457,51.47,302.839,51.267,302.499,50.862z"/>
	<path d="M347.268,33.401c-3.293-2.707-7.692-4.061-13.196-4.061c-6.047,0-10.592,1.535-13.638,4.602
		c-3.044,3.069-4.568,7.151-4.568,12.25c0,3.61,0.881,6.644,2.64,9.103c1.759,2.46,4.138,4.32,7.139,5.583
		c3.001,1.263,6.397,1.894,10.185,1.894c6.452,0,11.371-0.812,14.753-2.435v-8.799c-1.083,0.406-2.572,0.778-4.465,1.117
		c-1.895,0.338-3.858,0.507-5.89,0.507c-2.48,0-4.5-0.236-6.057-0.71c-1.555-0.473-2.673-1.139-3.349-1.996h21.386v-5.482
		C352.209,39.966,350.563,36.107,347.268,33.401z M338.201,42.266h-7.377c0-0.902,0.294-1.669,0.879-2.3
		c0.587-0.632,1.557-0.948,2.912-0.948c1.398,0,2.344,0.282,2.842,0.846c0.496,0.565,0.745,1.162,0.745,1.793V42.266z"/>
	<path d="M378.736,31.844l-0.338-1.827H362.36v32.079h16.376V42.741c1.263-0.451,2.933-0.789,5.009-1.016
		c2.074-0.225,3.948-0.338,5.618-0.338V29.34c-2.076,0-4.072,0.26-5.991,0.778C381.454,30.638,379.91,31.213,378.736,31.844z"/>
	<polygon points="399.202,11.781 397.087,17.82 395.074,11.781 392.619,11.781 392.619,19.935 394.214,19.935 394.214,15.14 
		394.169,13.794 394.237,13.794 396.33,19.935 397.709,19.935 399.891,13.794 399.959,13.794 399.914,15.253 399.914,19.935 
		401.576,19.935 401.576,11.781 	"/>
	<polygon points="385.742,13.24 388.028,13.24 388.028,19.935 389.678,19.935 389.678,13.24 391.997,13.24 391.997,11.781 
		385.742,11.781 	"/>
</g>
</svg>
