<?xml version="1.0" encoding="utf-8"?>
<!-- Generator: Adobe Illustrator 27.0.0, SVG Export Plug-In . SVG Version: 6.00 Build 0)  -->
<svg version="1.1" id="Слой_1" xmlns="http://www.w3.org/2000/svg" xmlns:xlink="http://www.w3.org/1999/xlink" x="0px" y="0px"
	 width="102.047px" height="102.047px" viewBox="0 0 102.047 102.047" enable-background="new 0 0 102.047 102.047"
	 xml:space="preserve">
<g>
	<path fill="#BC7A40" d="M91.461,31.637c-0.715-0.621-1.255-0.206-1.752,0.398c-1.432,1.74-3.17,3.115-5.161,4.158
		c-1.168,0.612-2.381,1.132-3.831,1.347c0.168-0.24,0.253-0.375,0.351-0.499c1.584-2.011,2.498-4.286,2.628-6.845
		c0.027-0.527,0.316-0.745,0.656-1.01c2.596-2.017,4.046-4.694,4.491-7.923c0.272-1.975-0.179-2.394-2.134-2.23
		c-2.024,0.169-3.985,0.587-5.894,1.421c-0.187-1.214-0.396-2.318-0.836-3.36c-0.166-0.392-0.011-0.707,0.162-1.033
		c1.405-2.642,3.659-4.19,6.518-5.099c0.163,1.555,0.188,3.031-0.106,4.504c-0.147,0.736,0.105,1.283,0.861,1.423
		c0.736,0.136,1.108-0.343,1.223-1.006c0.356-2.047,0.381-4.097-0.063-6.136c-0.247-1.136-0.621-1.332-1.775-1.031
		c-2.308,0.601-4.374,1.665-6.297,3.348c0.475-1.946,1.161-3.618,2.072-5.198c0.648-1.125,1.405-2.17,2.306-3.112
		c0.468-0.49,0.447-1.033-0.03-1.496c-0.453-0.44-0.971-0.389-1.429,0.016c-0.297,0.263-0.563,0.564-0.818,0.869
		c-2.489,2.974-3.852,6.457-4.582,10.3c-0.859-0.552-1.514-0.154-2.157,0.381c-1.56,1.299-2.689,2.913-3.564,4.731
		c-0.628,1.306-1.003,2.697-1.403,4.101c-1.962-1.437-2.193-1.395-3.509,0.598c-0.128,0.194-0.251,0.39-0.371,0.589
		c-1.037,1.716-1.775,3.563-2.37,5.659c-0.495-2.107-0.606-4.064-0.587-6.021c0.044-4.622,0.924-9.093,2.582-13.407
		c0.271-0.704,0.332-1.347-0.48-1.658c-0.725-0.278-1.167,0.108-1.438,0.81c-2.656,6.872-3.575,13.915-2.066,21.185
		c0.186,0.898,0.274,1.505-0.508,2.304c-1.237,1.265-1.67,3.054-2.152,4.749c-0.426,1.498-0.581,3.046-0.796,4.83
		c-0.622-1.275-0.954-2.377-1.191-3.506c-0.885-4.204-0.611-8.382,0.321-12.541c0.152-0.678,0.139-1.301-0.667-1.519
		c-0.766-0.207-1.193,0.19-1.36,0.923c-1.175,5.159-1.547,10.357,0.199,15.422c0.646,1.874,0.746,3.368-0.07,5.187
		c-1.249,2.784-1.471,5.817-1.329,8.869c-1.283-0.302-1.621-0.179-2.168,1.09c-0.33,0.764-0.833,1.086-1.65,1.173
		c0.311-3.979-0.339-7.726-1.977-11.294c-0.136-0.295-0.146-0.551,0.024-0.843c1.311-2.247,1.956-4.706,2.189-7.272
		c0.382-4.212-0.098-8.346-1.235-12.412c-0.196-0.7-0.631-1.033-1.327-0.836c-0.861,0.244-0.823,0.899-0.637,1.608
		c0.97,3.687,1.416,7.43,1.099,11.24c-0.24,2.889-0.931,5.668-2.826,7.933c-1.55,1.853-3.327,3.519-4.245,5.979
		c-0.838-1.978-1.568-3.789-2.373-5.567c-0.379-0.837-0.596-1.686-0.612-2.59c-0.057-3.134,1.07-5.704,3.619-7.677
		c0.891,1.649,1.396,3.32,1.759,5.045c0.143,0.681,0.581,1.091,1.289,0.91c0.687-0.176,0.907-0.723,0.759-1.407
		c-0.429-1.983-1.038-3.905-2.003-5.699c-0.8-1.486-0.967-1.553-2.524-1.065c-0.026-0.095-0.062-0.188-0.075-0.284
		c-0.513-3.77-1.659-7.297-4.013-10.35c-0.293-0.38-0.092-0.67,0.01-1.008c1.518-5.031,0.47-9.767-1.674-14.369
		c-0.327-0.702-0.907-0.866-1.561-0.419c-0.636,0.435-0.467,1.001-0.2,1.589c1.46,3.223,2.271,6.576,1.924,10.141
		c-0.143,1.464-0.532,2.855-1.388,4.258c-0.237-0.831-0.4-1.504-0.62-2.158c-0.937-2.783-2.338-5.259-4.691-7.12
		c-0.741-0.586-1.375-0.552-2.013,0.101c-0.195,0.2-0.381,0.408-0.618,0.664c-1.979-3.24-4.931-5.012-8.419-6.02
		c-1.046-0.302-1.557-0.041-1.752,0.984c-0.323,1.699-0.496,3.408-0.322,5.149c0.155,1.547,0.554,3.025,1.184,4.621
		c-2.496-0.984-4.303-2.518-5.717-4.544c-0.426-0.61-0.929-1.016-1.653-0.499c-0.725,0.518-0.486,1.118-0.063,1.725
		c1.395,1.999,3.154,3.582,5.337,4.669c0.511,0.255,0.772,0.52,0.858,1.148c0.442,3.203,1.764,5.965,4.377,7.982
		c0.499,0.385,0.687,0.759,0.68,1.4c-0.036,3.359,1.067,6.242,3.711,8.435c2.121,1.76,4.625,2.695,7.263,3.302
		c2.615,0.602,4.823,1.639,5.52,4.553c0.083,0.348,0.3,0.662,0.438,0.999c0.509,1.243,1.012,2.488,1.516,3.732
		c-1.711-0.997-3.551-1.397-5.352-1.902c-2.688-0.754-4.543-2.382-5.347-5.105c-0.218-0.737-0.549-1.358-1.449-1.076
		c-0.926,0.29-0.711,1.045-0.576,1.742c0.094,0.489,0.545,0.883,0.423,1.549c-3.137-1.407-6.241-2.688-8.085-5.767
		c-0.342-0.572-0.884-0.742-1.453-0.415c-0.633,0.363-0.663,0.942-0.317,1.548c0.668,1.169,1.565,2.138,2.61,2.977
		c2.547,2.046,5.489,3.323,8.561,4.315c0.619,0.2,0.841,0.509,0.923,1.076c0.192,1.319,0.608,2.578,1.087,3.814
		c0.608,1.572,1.482,3.009,2.419,4.463c-0.197,0.036-0.302,0.088-0.386,0.065c-2.843-0.761-5.762-0.824-8.674-1.061
		c-4.653-0.379-8.444-2.22-10.172-6.976c-0.274-0.755-1-0.985-1.604-0.559c-0.629,0.444-0.475,1.039-0.249,1.611
		c1.26,3.188,3.519,5.409,6.634,6.785c2.352,1.039,4.847,1.323,7.384,1.373c2.134,0.042,4.226,0.356,6.289,0.903
		c0.539,0.143,0.753,0.337,0.665,0.947c-0.189,1.306,0.044,2.587,0.552,3.797c1.512,3.599,4.305,5.813,7.891,7.091
		c1.685,0.601,3.193,1.445,4.507,2.649c0.271,0.249,0.501,0.498,0.551,0.903c0.42,3.45,0.659,6.91,0.673,10.449
		c-0.385-0.228-0.424-0.579-0.568-0.854c-1.261-2.394-2.986-4.375-5.201-5.932c-0.381-0.268-0.776-0.399-1.206-0.177
		c-0.38,0.196-0.576,0.533-0.578,0.971c-0.002,0.555,0.418,0.781,0.796,1.056c3.001,2.184,4.907,5.084,5.61,8.736
		c0.47,2.443,0.498,4.874-0.367,7.264c-0.234,0.646-0.299,1.388,0.568,1.649c0.813,0.245,1.226-0.258,1.428-0.992
		c0.246-0.893,0.554-1.773,0.742-2.678c1.188-5.689,1.094-11.433,0.426-17.152c-0.276-2.363-0.089-4.389,1.644-6.111
		c0.141-0.14,0.259-0.303,0.395-0.448c0.492-0.524,0.697-1.099,0.103-1.65c-0.596-0.553-1.184-0.275-1.662,0.215
		c-0.441,0.452-0.822,0.962-1.303,1.534c-0.484-2.472-0.992-4.802-1.592-7.111c-0.056-0.215-0.047-0.472,0.009-0.689
		c0.658-2.523,2.347-4.135,4.673-5.324c-0.142,1.274-0.229,2.43-0.136,3.592c0.2,2.493,0.939,4.72,2.917,6.427
		c0.962,0.83,1.597,1.938,2.135,3.091c0.147,0.315,0.22,0.612,0.148,0.956c-1.063,5.106-1.698,10.276-2.283,15.452
		c-0.343,3.036-0.619,6.079-0.683,9.137c-0.015,0.726,0.211,1.295,0.991,1.344c0.858,0.054,1.124-0.549,1.15-1.3
		c0.001-0.033,0.005-0.066,0.004-0.1c-0.088-3.169,1.177-5.879,2.94-8.386c2.35-3.342,5.422-5.899,8.939-7.938
		c0.671-0.389,1.312-0.773,0.883-1.692c-0.312-0.668-0.962-0.693-1.98-0.115c-1.706,0.97-3.298,2.105-4.804,3.362
		c-2.019,1.685-3.759,3.624-5.261,5.851c-0.165-0.471,0.002-0.803,0.116-1.142c0.59-1.77,1.404-3.436,2.439-4.984
		c3.562-5.328,8.514-8.94,14.3-11.503c0.717-0.318,1.285-0.699,0.934-1.551c-0.332-0.807-1.002-0.715-1.682-0.424
		c-5.788,2.473-10.721,6.057-14.519,11.126c-0.176,0.235-0.258,0.593-0.7,0.663c0.399-2.682,0.871-5.289,1.373-7.893
		c0.114-0.589,0.369-0.948,0.843-1.25c1.3-0.829,2.766-1.25,4.194-1.78c4.25-1.576,7.308-4.278,8.078-8.972
		c0.113-0.69,0.357-0.988,0.956-1.264c4.606-2.123,8.108-5.349,9.974-10.167c0.26-0.672,0.361-1.373-0.445-1.693
		c-0.837-0.332-1.215,0.202-1.527,0.952c-2.131,5.127-5.976,8.323-11.276,9.8c-2.568,0.716-5.223,1.12-7.698,2.249
		c1.125-6.771,5.006-10.737,11.135-11.384c-0.446,1.869-1.221,3.577-2.256,5.166c-0.423,0.65-0.55,1.258,0.18,1.711
		c0.742,0.46,1.224,0.019,1.62-0.614c1.402-2.245,2.388-4.65,2.828-7.266c0.08-0.474,0.261-0.864,0.572-1.235
		c1.73-2.067,2.567-4.471,2.534-7.154c-0.008-0.654,0.244-0.749,0.79-0.807c4.874-0.513,8.753-2.855,11.901-6.527
		C91.824,32.811,92.13,32.218,91.461,31.637z M28.466,16.708c0.589-1.113,0.622-1.113,1.431-0.201
		c2.142,2.418,3.1,5.337,3.559,8.463c0.027,0.186,0.037,0.432-0.06,0.57c-0.779,1.117-1.301,2.353-1.737,3.801
		c-1.178-2.013-2.378-3.831-3.338-5.768C27.2,21.312,27.27,18.968,28.466,16.708z M18.994,11.288
		c0.037-0.411,0.152-0.558,0.628-0.378c2.633,0.996,4.781,2.551,6.146,5.08c0.251,0.466,0.339,0.869,0.142,1.391
		c-0.475,1.256-0.506,2.582-0.394,4.077c-1.533-0.812-2.93-1.403-4.427-1.716c-0.389-0.081-0.527-0.384-0.69-0.66
		C18.963,16.66,18.749,14.014,18.994,11.288z M18.957,22.166c-0.147-0.644,0.126-0.724,0.663-0.615
		c3.457,0.702,6.502,1.996,8.215,5.386c0.665,1.316,1.477,2.557,2.275,3.923c-2.46-0.625-4.92-0.74-7.002-2.275
		C20.881,26.943,19.563,24.813,18.957,22.166z M27.234,38.219c-2.075-1.589-3.291-4.028-3.28-6.729
		c1.218,0.613,2.471,0.762,3.706,0.983c0.423,0.076,0.846,0.158,1.262,0.267c1.784,0.47,3.221,1.257,3.964,3.164
		c0.729,1.869,1.781,3.613,2.76,5.548C32.669,40.575,29.69,40.099,27.234,38.219z M37.514,40.443
		c-1.342-2.605-2.617-4.991-3.801-7.422c-0.417-0.857-0.212-1.829-0.045-2.748c0.406-2.242,1.555-4.033,3.32-5.51
		c2.016,3.087,3.029,6.434,3.239,10.044c0.018,0.317-0.044,0.575-0.26,0.818C38.78,36.955,38.024,38.516,37.514,40.443z
		 M32.474,51.68c7.237,1.203,10.087,4.181,11.86,12.191C37.817,62.419,34.222,57.964,32.474,51.68z M42.221,71.134
		c-3.235-1.353-5.665-3.503-6.459-7.104c-0.012-0.056,0.011-0.12,0.031-0.296c2.876,0.859,6.084,0.635,8.422,3.019
		c0.807,0.823,1.481,1.648,1.637,2.849c0.151,1.162,0.547,2.287,0.632,3.584C45.113,72.222,43.647,71.73,42.221,71.134z
		 M49.039,58.387c-0.04,0.285-0.132,0.492-0.363,0.66c-1.026,0.747-1.861,1.678-2.635,2.889c-0.817-2.38-1.576-4.585-2.33-6.791
		c-0.149-0.437,0.025-0.853,0.125-1.266c0.602-2.472,1.846-4.547,3.846-6.29C49.106,51.16,49.552,54.711,49.039,58.387z
		 M80.481,23.386c0.102-0.328,0.333-0.485,0.585-0.636c1.595-0.96,3.37-1.333,5.185-1.576c0.503-0.067,0.43,0.198,0.378,0.528
		c-0.616,3.88-4.094,7.261-8.021,7.788c-0.612,0.082-1.223,0.173-2.016,0.285c0.813-1.248,1.519-2.359,2.253-3.451
		C79.473,25.388,80.141,24.475,80.481,23.386z M72.761,24.309c0.483-2.994,1.465-5.764,3.553-8.055c0.42-0.46,0.666-0.62,1.03,0.081
		c0.695,1.34,1.167,2.739,1.357,4.228c0.151,1.191-0.1,2.309-0.762,3.319c-1.104,1.685-2.216,3.365-3.444,5.229
		c-0.308-1.609-0.809-2.892-1.598-4.049C72.728,24.817,72.719,24.571,72.761,24.309z M66.159,33.425
		c0.228-3.125,1.178-6.008,2.79-8.692c0.341-0.567,0.561-0.457,0.935-0.076c2.177,2.22,3.006,4.844,2.411,7.906
		c-0.025,0.129-0.055,0.264-0.117,0.379c-1.118,2.082-2.242,4.16-3.482,6.459c-0.398-1.919-1.078-3.414-2.144-4.712
		C66.229,34.294,66.123,33.914,66.159,33.425z M59.105,63.75c-0.569,1.999-1.066,4.019-1.629,6.177
		c-0.748-1.128-1.774-1.856-2.489-2.83c-1.322-1.801-1.454-3.93-1.301-6.074c0.07-0.987,0.291-1.955,0.661-2.888
		c0.186-0.469,0.321-0.659,0.81-0.264c1.479,1.194,2.816,2.504,3.755,4.181C59.217,62.6,59.284,63.12,59.105,63.75z M64.31,62.8
		c1.815-0.605,3.695-0.949,5.676-1.443c-0.413,2.576-1.858,4.317-3.781,5.768c-1.895,1.431-4.276,1.713-6.574,2.9
		c0.394-1.544,0.573-2.915,1.099-4.136C61.397,64.348,62.696,63.338,64.31,62.8z M62.522,53.357
		c-0.778,2.202-1.565,4.401-2.372,6.661c-0.755-0.984-1.48-1.888-2.354-2.655c-0.238-0.209-0.346-0.454-0.392-0.769
		c-0.491-3.378-0.123-6.66,1.033-9.866c0.215-0.597,0.351-0.836,0.934-0.252c1.806,1.81,2.743,4.016,3.15,6.49
		C62.543,53.095,62.563,53.241,62.522,53.357z M63.936,49.822c-0.617-1.534-1.331-2.782-2.253-3.909
		c-0.137-0.168-0.235-0.411-0.253-0.627c-0.305-3.67,0.177-7.203,1.878-10.516c0.029-0.057,0.088-0.099,0.133-0.147
		c2.587,1.723,3.918,5.387,3.079,8.812C65.984,45.622,64.786,47.558,63.936,49.822z M72.699,47.807
		c-0.923,0.459-1.889,0.809-2.897,1.009c-1.309,0.26-2.508,0.788-3.889,1.591c0.947-2.108,1.887-3.927,2.585-5.835
		c0.661-1.807,2.047-2.489,3.701-2.902c1.41-0.352,2.907-0.275,4.268-0.918C76.755,43.571,75.119,46.603,72.699,47.807z
		 M77.918,37.313c-1.972,1.84-4.435,2.047-6.976,2.409c1.172-2.373,2.352-4.706,3.833-6.833c0.649-0.932,2.052-0.963,3.183-1.179
		c1.162-0.221,2.347-0.331,3.558-0.825C81.075,33.537,79.8,35.557,77.918,37.313z"/>
	<path fill="#BC7A40" d="M67.474,5.728c0.623,0.016,1.011-0.396,1.107-1.054c-0.059-0.629-0.389-1.046-1.042-1.068
		c-0.667-0.023-1.055,0.416-1.09,1.03C66.413,5.282,66.851,5.712,67.474,5.728z"/>
	<path fill="#BC7A40" d="M47.86,21.995c0.577-0.081,0.996-0.397,0.975-1.081c-0.019-0.619-0.394-0.979-1.004-1.013
		c-0.684-0.038-1.082,0.379-1.095,1.012C46.724,21.549,47.13,21.934,47.86,21.995z"/>
	<path fill="#BC7A40" d="M17.815,37.385c-0.044-0.596-0.445-0.972-1.058-0.963c-0.662,0.01-1.054,0.398-1.029,1.071
		c0.025,0.672,0.456,0.981,1.102,1.025C17.499,38.43,17.863,38.032,17.815,37.385z"/>
</g>
</svg>
