<?xml version="1.0" encoding="utf-8"?>
<!-- Generator: Adobe Illustrator 25.2.0, SVG Export Plug-In . SVG Version: 6.00 Build 0)  -->
<svg version="1.1" id="Слой_1" xmlns="http://www.w3.org/2000/svg" xmlns:xlink="http://www.w3.org/1999/xlink" x="0px" y="0px"
	 width="102px" height="102px" viewBox="0 0 102 102" enable-background="new 0 0 102 102" xml:space="preserve">
<circle fill="#EAF6FE" cx="51" cy="51" r="51"/>
<g>
	<path fill="#009FE3" d="M68.211,47.737c-1.051-0.181-2.092-0.421-3.145-0.581c-0.406-0.062-0.548-0.246-0.656-0.605
		c-0.199-0.658-0.448-1.305-0.798-1.899c-0.186-0.316-0.163-0.545,0.05-0.843c0.632-0.883,1.214-1.802,1.846-2.686
		c0.202-0.283,0.168-0.434-0.069-0.666c-1.301-1.275-2.594-2.557-3.863-3.863c-0.273-0.281-0.438-0.242-0.718-0.045
		c-0.888,0.626-1.802,1.217-2.693,1.839c-0.252,0.176-0.454,0.211-0.735,0.054c-0.657-0.367-1.353-0.659-2.078-0.865
		c-0.328-0.093-0.45-0.265-0.505-0.599c-0.173-1.05-0.398-2.091-0.587-3.139c-0.059-0.327-0.154-0.5-0.551-0.495
		c-1.823,0.024-3.646,0.019-5.469,0.004c-0.349-0.003-0.464,0.123-0.521,0.454c-0.186,1.09-0.422,2.172-0.607,3.263
		c-0.05,0.296-0.173,0.426-0.449,0.508c-0.721,0.215-1.426,0.483-2.079,0.859c-0.302,0.174-0.516,0.13-0.79-0.064
		c-0.87-0.616-1.771-1.188-2.639-1.807c-0.305-0.217-0.484-0.236-0.767,0.054c-1.256,1.29-2.534,2.558-3.821,3.817
		c-0.254,0.248-0.303,0.404-0.076,0.716c0.639,0.878,1.216,1.801,1.848,2.684c0.201,0.281,0.212,0.497,0.046,0.788
		c-0.364,0.635-0.633,1.316-0.84,2.016c-0.095,0.322-0.252,0.454-0.595,0.509c-1.052,0.169-2.094,0.407-3.145,0.585
		c-0.373,0.063-0.527,0.175-0.521,0.592c0.027,1.777,0.023,3.555,0.002,5.333c-0.005,0.389,0.102,0.551,0.497,0.613
		c0.95,0.148,1.889,0.369,2.84,0.51c0.549,0.082,0.882,0.287,1.017,0.867c0.147,0.628,0.434,1.218,0.761,1.777
		c0.162,0.276,0.128,0.479-0.049,0.731c-0.624,0.889-1.213,1.803-1.842,2.689c-0.199,0.28-0.248,0.444,0.036,0.719
		c1.308,1.267,2.597,2.554,3.868,3.858c0.272,0.279,0.432,0.246,0.72,0.04c0.885-0.631,1.802-1.217,2.694-1.838
		c0.25-0.174,0.447-0.219,0.732-0.057c0.673,0.381,1.391,0.67,2.136,0.884c0.247,0.071,0.365,0.197,0.411,0.47
		c0.186,1.09,0.429,2.171,0.605,3.263c0.065,0.401,0.225,0.5,0.612,0.496c1.781-0.02,3.562-0.026,5.343,0.003
		c0.422,0.007,0.531-0.159,0.594-0.519c0.188-1.069,0.423-2.13,0.597-3.201c0.049-0.302,0.182-0.429,0.442-0.507
		c0.722-0.216,1.426-0.486,2.077-0.865c0.326-0.19,0.553-0.13,0.841,0.073c0.888,0.627,1.798,1.222,2.697,1.834
		c0.198,0.135,0.339,0.241,0.575,0c1.333-1.36,2.69-2.698,4.037-4.045c0.07-0.07,0.127-0.152,0.192-0.231
		c-0.086-0.128-0.156-0.231-0.226-0.335c-0.609-0.899-1.207-1.807-1.836-2.693c-0.193-0.272-0.243-0.484-0.07-0.787
		c0.373-0.653,0.652-1.353,0.865-2.074c0.088-0.3,0.239-0.419,0.558-0.471c1.072-0.176,2.135-0.414,3.206-0.596
		c0.362-0.061,0.478-0.202,0.474-0.57c-0.019-1.798-0.02-3.597,0.001-5.396C68.695,47.925,68.562,47.797,68.211,47.737z
		 M66.27,52.649c-0.91,0.134-1.808,0.339-2.715,0.495c-0.381,0.066-0.612,0.201-0.696,0.629c-0.265,1.345-0.833,2.577-1.56,3.732
		c-0.171,0.272-0.167,0.458,0.015,0.715c0.58,0.818,1.136,1.653,1.698,2.484c0.098,0.145,0.26,0.27,0.049,0.475
		c-0.632,0.611-1.247,1.24-1.871,1.86c-0.057,0.057-0.128,0.1-0.197,0.154c-0.135-0.09-0.256-0.171-0.377-0.253
		c-0.795-0.541-1.597-1.073-2.383-1.628c-0.255-0.18-0.447-0.194-0.72-0.019c-1.17,0.75-2.433,1.302-3.796,1.579
		c-0.396,0.08-0.504,0.279-0.563,0.609c-0.168,0.924-0.372,1.843-0.509,2.772c-0.057,0.389-0.218,0.47-0.572,0.458
		c-0.733-0.024-1.467-0.021-2.2-0.001c-0.325,0.009-0.475-0.064-0.529-0.426c-0.139-0.928-0.347-1.846-0.508-2.772
		c-0.063-0.361-0.191-0.559-0.599-0.65c-1.332-0.3-2.592-0.809-3.736-1.564c-0.301-0.198-0.503-0.148-0.772,0.043
		c-0.801,0.569-1.628,1.101-2.43,1.669c-0.232,0.165-0.369,0.169-0.572-0.045c-0.547-0.577-1.107-1.144-1.69-1.684
		c-0.249-0.231-0.19-0.383-0.026-0.616c0.565-0.803,1.101-1.627,1.669-2.428c0.179-0.253,0.204-0.433,0.027-0.713
		c-0.741-1.171-1.315-2.423-1.579-3.791c-0.08-0.416-0.315-0.521-0.666-0.583c-0.927-0.163-1.848-0.359-2.777-0.506
		c-0.312-0.049-0.426-0.15-0.417-0.471c0.021-0.773,0.018-1.548,0.001-2.321c-0.006-0.298,0.061-0.44,0.395-0.491
		c0.929-0.143,1.85-0.344,2.777-0.503c0.379-0.065,0.612-0.198,0.703-0.626c0.284-1.338,0.815-2.585,1.562-3.731
		c0.178-0.273,0.16-0.457-0.02-0.711c-0.568-0.801-1.096-1.631-1.673-2.425c-0.205-0.282-0.18-0.434,0.065-0.662
		c0.551-0.513,1.085-1.047,1.6-1.597c0.228-0.243,0.382-0.271,0.665-0.066c0.795,0.577,1.626,1.104,2.428,1.671
		c0.254,0.18,0.438,0.196,0.712,0.019c1.15-0.743,2.399-1.273,3.738-1.557c0.433-0.092,0.556-0.331,0.622-0.704
		c0.159-0.905,0.367-1.802,0.497-2.71c0.056-0.391,0.215-0.467,0.566-0.456c0.733,0.023,1.467,0.021,2.2,0
		c0.328-0.009,0.478,0.073,0.533,0.427c0.144,0.928,0.355,1.845,0.503,2.773c0.065,0.407,0.242,0.596,0.654,0.675
		c1.308,0.252,2.508,0.794,3.628,1.5c0.326,0.205,0.549,0.229,0.874-0.009c0.775-0.569,1.592-1.079,2.377-1.634
		c0.244-0.172,0.394-0.196,0.616,0.041c0.529,0.565,1.076,1.116,1.645,1.641c0.263,0.243,0.229,0.404,0.04,0.667
		c-0.56,0.781-1.079,1.591-1.637,2.374c-0.191,0.268-0.229,0.469-0.035,0.766c0.748,1.146,1.269,2.398,1.562,3.732
		c0.089,0.406,0.3,0.529,0.659,0.591c0.927,0.161,1.847,0.368,2.777,0.508c0.364,0.054,0.434,0.205,0.425,0.529
		c-0.02,0.732-0.024,1.465,0.001,2.196C66.741,52.433,66.658,52.592,66.27,52.649z"/>
	<path fill="#009FE3" d="M64.789,74.213c-2.066-0.602-4.132-1.205-6.199-1.806c-1.063-0.31-2.121-0.638-3.192-0.92
		c-0.969-0.255-1.59,0.335-1.414,1.295c0.06,0.329,0.087,0.665,0.171,0.987c0.087,0.334,0.025,0.447-0.352,0.492
		c-2.243,0.272-4.473,0.205-6.699-0.161c-11.271-1.858-19.634-11.987-19.293-23.372c0.04-1.342,0.038-1.325-1.308-1.467
		c-0.454-0.048-0.617,0.05-0.637,0.534c-0.099,2.353,0.079,4.676,0.592,6.976c2.973,13.319,16.304,21.901,29.663,19.104
		c0.361-0.076,0.372-0.2,0.308-0.497c-0.115-0.525-0.188-1.059-0.29-1.652c2.118,0.611,4.169,1.204,6.328,1.827
		c-1.787,1.343-3.501,2.63-5.262,3.953c-0.066-0.329-0.153-0.586-0.163-0.845c-0.023-0.59-0.226-0.736-0.851-0.618
		c-5.474,1.032-10.803,0.503-15.927-1.693c-10.306-4.416-16.796-14.5-16.59-25.701c0.024-1.332,0.022-1.305-1.309-1.407
		c-0.516-0.039-0.631,0.148-0.648,0.603c-0.061,1.676-0.014,3.344,0.209,5.008c1.105,8.246,4.982,14.907,11.639,19.882
		c6.073,4.539,12.965,6.324,20.511,5.629c0.394-0.036,0.852-0.277,1.163-0.079c0.314,0.201,0.196,0.724,0.309,1.095
		c0.226,0.747,1.045,1.026,1.657,0.568c2.494-1.871,4.988-3.743,7.481-5.615c0.184-0.138,0.38-0.266,0.538-0.431
		C65.778,75.324,65.542,74.432,64.789,74.213z"/>
	<path fill="#009FE3" d="M79.724,45.548c-1.767-8.32-6.275-14.765-13.499-19.244c-5.291-3.28-11.102-4.65-17.328-4.199
		c-0.837,0.061-0.835,0.064-0.936-0.751c-0.028-0.228-0.058-0.458-0.112-0.681c-0.184-0.765-0.981-1.081-1.622-0.647
		c-1.612,1.089-3.223,2.177-4.834,3.267c-1.074,0.727-2.139,1.467-3.219,2.183c-0.462,0.306-0.572,0.699-0.535,1.233
		c0.038,0.547,0.412,0.597,0.789,0.719c0.536,0.174,1.062,0.377,1.595,0.561c2.508,0.862,5.013,1.73,7.526,2.577
		c0.91,0.306,1.566-0.242,1.451-1.171c-0.033-0.27-0.054-0.542-0.11-0.807c-0.066-0.312,0.001-0.423,0.356-0.448
		c1.976-0.138,3.941-0.056,5.884,0.309c11.111,2.083,19.007,11.558,19.048,22.831c0.005,1.398,0.006,1.386,1.436,1.466
		c0.368,0.02,0.515-0.041,0.525-0.451c0.04-1.635-0.027-3.266-0.293-4.877c-1.086-6.575-4.238-11.966-9.525-16.032
		c-5.676-4.364-12.128-5.915-19.208-4.957c-0.354,0.048-0.441,0.196-0.394,0.531c0.059,0.423,0.203,0.845,0.104,1.312
		c-2.031-0.7-4.036-1.391-6.155-2.122c1.857-1.256,3.613-2.443,5.46-3.692c0.064,0.448,0.169,0.798,0.151,1.141
		c-0.038,0.731,0.356,0.707,0.896,0.632c4.697-0.648,9.274-0.164,13.695,1.563c10.735,4.193,17.776,14.656,17.474,25.921
		c-0.039,1.436-0.038,1.422,1.424,1.527c0.384,0.027,0.504-0.06,0.517-0.456C80.366,50.35,80.23,47.931,79.724,45.548z"/>
	<path fill="#009FE3" d="M25.759,39.684c0.263,0.11,0.423,0.151,0.567-0.181c0.416-0.958,0.938-1.863,1.502-2.743
		c0.056-0.088,0.105-0.18,0.151-0.26c0.046-0.182-0.104-0.225-0.198-0.289c-0.346-0.235-0.711-0.443-1.048-0.688
		c-0.243-0.176-0.376-0.15-0.522,0.117c-0.38,0.695-0.8,1.369-1.177,2.067C24.297,39.074,24.307,39.074,25.759,39.684z"/>
	<path fill="#009FE3" d="M23.693,46.362c0.021,0.002,0.041,0.005,0.085,0.011c0.351,0.143,0.337-0.165,0.386-0.366
		c0.168-0.687,0.303-1.383,0.487-2.065c0.384-1.424,0.391-1.414-1.062-1.836c-0.304-0.088-0.443-0.043-0.523,0.282
		c-0.185,0.747-0.428,1.479-0.607,2.227C22.085,46.179,22.096,46.182,23.693,46.362z"/>
	<path fill="#009FE3" d="M77.941,55.968c-0.007,0.062-0.015,0.125-0.027,0.186c-0.093,0.471-0.174,0.945-0.283,1.412
		c-0.354,1.519-0.358,1.518,1.182,1.851c0.041,0.009,0.084,0.014,0.122,0.03c0.162,0.071,0.213-0.011,0.255-0.155
		c0.3-1.023,0.511-2.065,0.725-3.239c-0.456-0.239-1.011-0.207-1.525-0.32C78.151,55.679,77.975,55.667,77.941,55.968z"/>
	<path fill="#009FE3" d="M76.776,61.496c-0.3-0.104-0.39-0.044-0.507,0.218c-0.357,0.799-0.746,1.584-1.113,2.379
		c-0.052,0.113-0.25,0.256-0.056,0.375c0.48,0.294,0.978,0.559,1.444,0.821c0.25,0.057,0.258-0.148,0.315-0.257
		c0.272-0.516,0.54-1.036,0.784-1.566C78.312,62.013,78.302,62.024,76.776,61.496z"/>
	<path fill="#009FE3" d="M27.595,43.399c-0.059-0.021-0.12-0.035-0.178-0.057c-0.182-0.069-0.291-0.053-0.361,0.172
		c-0.291,0.933-0.547,1.874-0.736,2.834c-0.045,0.228,0.046,0.306,0.234,0.341c0.472,0.086,0.944,0.168,1.416,0.251
		c0.263,0.068,0.239-0.131,0.276-0.289c0.113-0.486,0.231-0.971,0.352-1.454c0.109-0.437,0.451-1.026,0.283-1.269
		C28.661,43.609,28.043,43.562,27.595,43.399z"/>
	<path fill="#009FE3" d="M29.561,41.47c0.293,0.12,0.379,0.043,0.506-0.203c0.371-0.721,0.772-1.426,1.162-2.138
		c0.05-0.091,0.101-0.18,0.144-0.258c0.025-0.151-0.086-0.194-0.168-0.247c-0.384-0.25-0.781-0.482-1.156-0.745
		c-0.235-0.165-0.33-0.032-0.431,0.142c-0.27,0.469-0.55,0.932-0.807,1.408C28.042,40.857,28.05,40.848,29.561,41.47z"/>
	<path fill="#009FE3" d="M74.859,58.054c0.241,0.055,0.368,0.087,0.429-0.222c0.133-0.672,0.313-1.334,0.479-2.023
		c0.027-0.591-0.478-0.378-0.754-0.435c-1.115-0.228-1.118-0.213-1.348,0.873C73.355,57.716,73.356,57.709,74.859,58.054z"/>
	<path fill="#009FE3" d="M73.217,63.067c0.361-0.728,0.709-1.462,1.041-2.15c-0.002-0.213-0.002-0.213-0.691-0.489
		c-1.044-0.418-1.072-0.429-1.494,0.606c-0.177,0.433-0.742,0.867-0.452,1.296c0.249,0.368,0.842,0.503,1.28,0.747
		C73.014,63.14,73.138,63.226,73.217,63.067z"/>
	<path fill="#009FE3" d="M31.957,36.109c0.865,0.692,0.865,0.692,1.591-0.121c0.164-0.184,0.327-0.369,0.533-0.602
		c-0.206-0.184-0.394-0.343-0.573-0.511c-0.879-0.83-0.878-0.831-1.661,0.105C31.325,35.604,31.325,35.604,31.957,36.109z"/>
	<path fill="#009FE3" d="M29.578,33.796c0.079,0.053,0.175,0.199,0.257,0.114c0.403-0.418,0.784-0.856,1.192-1.308
		c-0.088-0.101-0.16-0.199-0.247-0.281c-0.271-0.258-0.572-0.49-0.813-0.772c-0.272-0.319-0.427-0.227-0.67,0.044
		C28.179,32.829,28.175,32.863,29.578,33.796z"/>
	<path fill="#009FE3" d="M73.728,66.654c-0.102-0.065-0.167,0.069-0.236,0.142c-1.077,1.149-1.068,1.261,0.192,2.204
		c0.067,0.05,0.124,0.116,0.197,0.154c0.066,0.035,0.194,0.081,0.214,0.056c0.379-0.471,0.745-0.951,1.113-1.429
		c-0.032-0.08-0.038-0.157-0.078-0.185C74.667,67.276,74.203,66.956,73.728,66.654z"/>
	<path fill="#009FE3" d="M71.426,65.322c-0.268-0.198-0.567-0.358-0.816-0.575c-0.355-0.31-0.577-0.295-0.851,0.127
		c-0.45,0.692-0.48,0.673,0.191,1.199c0.213,0.167,0.423,0.338,0.642,0.498c0.073,0.054,0.167,0.188,0.26,0.074
		c0.277-0.336,0.533-0.69,0.771-1.002C71.667,65.427,71.516,65.389,71.426,65.322z"/>
	<path fill="#009FE3" d="M51.008,44.231c-3.731-0.007-6.797,3.042-6.802,6.767c-0.006,3.733,3.037,6.78,6.777,6.785
		c3.743,0.006,6.796-3.028,6.803-6.759C57.791,47.295,54.742,44.238,51.008,44.231z M50.907,55.821
		c-2.692-0.065-4.802-2.25-4.74-4.908c0.062-2.689,2.25-4.795,4.915-4.731c2.695,0.065,4.803,2.246,4.742,4.906
		C55.761,53.774,53.568,55.886,50.907,55.821z"/>
</g>
</svg>
