<?xml version="1.0" encoding="utf-8"?>
<!-- Generator: Adobe Illustrator 26.2.1, SVG Export Plug-In . SVG Version: 6.00 Build 0)  -->
<svg version="1.1" id="Слой_1" xmlns="http://www.w3.org/2000/svg" xmlns:xlink="http://www.w3.org/1999/xlink" x="0px" y="0px"
	 width="739.659px" height="207.727px" viewBox="0 0 739.659 207.727" enable-background="new 0 0 739.659 207.727"
	 xml:space="preserve">
<g>
	<path fill="#FFFFFF" d="M601.184,188.406l-2.099-6.653h-12.54l-1.996,6.653h-8.906l11.261-35.215h12.079l11.261,35.215H601.184z
		 M592.892,161.074h-0.256l-4.043,13.461h8.394L592.892,161.074z"/>
	<path fill="#FFFFFF" d="M628.311,174.586v-6.757h13.154v19.809c-1.774,0.342-3.812,0.623-6.116,0.845s-4.325,0.333-6.065,0.333
		c-4.538,0-7.899-0.469-10.083-1.408c-2.185-0.938-3.686-2.644-4.504-5.118c-0.819-2.474-1.229-6.304-1.229-11.491
		c0-4.845,0.417-8.521,1.254-11.03c0.836-2.508,2.362-4.299,4.581-5.374c2.218-1.074,5.527-1.612,9.93-1.612
		c2.524,0,5.032,0.153,7.523,0.461c2.491,0.307,4.01,0.546,4.556,0.717v6.756c-3.822-0.478-6.756-0.717-8.804-0.717
		c-3.378,0-5.69,0.18-6.936,0.538c-1.246,0.358-2.072,1.237-2.482,2.636c-0.409,1.399-0.614,3.941-0.614,7.626
		c0,3.345,0.154,5.742,0.461,7.191c0.307,1.451,0.947,2.449,1.919,2.994c0.973,0.547,2.567,0.819,4.786,0.819
		c1.229,0,2.405-0.051,3.531-0.153v-7.063H628.311z"/>
	<path fill="#FFFFFF" d="M668.336,188.406l-4.606-12.335h-6.193v12.335h-8.906v-35.215h16.891c3.241,0,5.689,0.453,7.345,1.356
		c1.655,0.905,2.747,2.15,3.276,3.737c0.528,1.586,0.793,3.71,0.793,6.372c0,2.457-0.315,4.59-0.946,6.397
		c-0.632,1.81-1.887,3.123-3.763,3.941l5.426,13.41H668.336z M666.059,168.7c0.768-0.204,1.271-0.588,1.51-1.151
		c0.238-0.562,0.358-1.51,0.358-2.841c0-1.364-0.103-2.328-0.308-2.892s-0.69-0.947-1.459-1.151
		c-0.768-0.205-2.072-0.308-3.915-0.308h-4.709v8.65h4.606C663.986,169.007,665.291,168.905,666.059,168.7z"/>
	<path fill="#FFFFFF" d="M687.197,187.254c-2.099-1.04-3.413-2.704-3.941-4.99c-0.529-2.286-0.793-6.108-0.793-11.466
		c0-5.356,0.264-9.179,0.793-11.465c0.528-2.286,1.843-3.949,3.941-4.99s5.621-1.562,10.569-1.562c4.947,0,8.47,0.521,10.568,1.562
		s3.404,2.704,3.916,4.99s0.768,6.108,0.768,11.465c0,5.357-0.256,9.18-0.768,11.466s-1.817,3.95-3.916,4.99
		c-2.099,1.041-5.621,1.562-10.568,1.562C692.818,188.816,689.295,188.295,687.197,187.254z M702.219,181.061
		c0.75-0.358,1.229-1.186,1.433-2.482c0.205-1.296,0.308-3.89,0.308-7.78c0-3.89-0.103-6.482-0.308-7.779
		c-0.204-1.297-0.683-2.124-1.433-2.482c-0.751-0.358-2.235-0.538-4.453-0.538c-2.219,0-3.72,0.18-4.504,0.538
		c-0.785,0.358-1.28,1.202-1.484,2.533c-0.205,1.331-0.308,3.907-0.308,7.729c0,3.822,0.103,6.398,0.308,7.729
		c0.204,1.33,0.699,2.175,1.484,2.533c0.784,0.358,2.285,0.537,4.504,0.537C699.984,181.598,701.468,181.419,702.219,181.061z"/>
	<path fill="#FFFFFF" d="M23.922,123.327l49.09-99.981h24.626l49.253,99.981h-27.908l-12.805-26.598h-27.09l-9.52-12.476
		l-17.733,39.074H23.922z M85.161,49.941L73.178,75.388h24.297L85.161,49.941z"/>
	<rect x="158.723" y="100.624" fill="#FFFFFF" width="25.448" height="22.701"/>
	<polygon fill="#FFFFFF" points="169.678,23.345 255.049,23.345 255.049,44.36 225.006,44.36 225.006,123.326 199.558,123.326 
		199.558,44.36 169.678,44.36 	"/>
	<path fill="#FFFFFF" d="M264.488,52.403c2.793-6.674,6.65-12.503,11.575-17.484c4.925-4.978,10.697-8.892,17.321-11.738
		c6.62-2.846,13.71-4.27,21.261-4.27c7.768,0,14.963,1.423,21.587,4.27c6.62,2.846,12.37,6.73,17.238,11.655
		c4.871,4.928,8.675,10.727,11.412,17.404c2.737,6.677,4.103,13.846,4.103,21.507c0,7.661-1.393,14.774-4.186,21.341
		c-2.79,6.567-6.624,12.26-11.492,17.075c-4.871,4.818-10.617,8.596-17.238,11.329c-6.624,2.733-13.766,4.103-21.424,4.103
		c-7.551,0-14.641-1.37-21.261-4.103c-6.624-2.733-12.396-6.511-17.321-11.329c-4.925-4.815-8.782-10.508-11.575-17.075
		c-2.79-6.567-4.186-13.68-4.186-21.341C260.302,66.195,261.698,59.08,264.488,52.403 M286.241,85.401
		c1.643,3.611,3.857,6.813,6.65,9.607c2.79,2.79,6.015,4.981,9.686,6.567c3.664,1.586,7.578,2.378,11.738,2.378
		c4.266,0,8.293-0.738,12.067-2.215c3.774-1.48,7.086-3.555,9.932-6.238c2.846-2.683,5.088-5.856,6.733-9.523
		c1.639-3.664,2.461-7.741,2.461-12.23c0-4.16-0.795-8.127-2.381-11.904c-1.589-3.774-3.751-7.113-6.484-10.016
		c-2.737-2.896-5.992-5.194-9.769-6.893c-3.774-1.696-7.854-2.547-12.23-2.547c-4.27,0-8.266,0.851-11.987,2.547
		c-3.721,1.699-6.976,3.997-9.766,6.893c-2.793,2.903-5.008,6.241-6.65,10.016c-1.639,3.777-2.461,7.744-2.461,11.904
		C283.781,77.907,284.602,81.79,286.241,85.401"/>
	<path fill="#FFFFFF" d="M381.463,23.345h25.94v10.508l8.539-10.508h29.055c6.896,0,12.586,1.231,17.078,3.694
		c4.486,2.461,7.821,5.773,10.012,9.932l10.507-13.627h28.896c5.141,0,9.547,0.765,13.214,2.298
		c3.668,1.533,6.677,3.611,9.031,6.238c2.351,2.627,4.077,5.666,5.171,9.114c1.094,3.445,1.643,7.033,1.643,10.754v71.578h-26.103
		V55.685c0-2.188-0.851-4.349-2.547-6.484c-1.696-2.135-3.857-3.202-6.484-3.202h-31.519v77.327h-25.943V55.685
		c0-3.062-0.795-5.443-2.378-7.139c-1.589-1.696-3.807-2.547-6.65-2.547h-31.523v77.327h-25.94V23.345z"/>
	<polygon fill="#FEEB17" points="570.279,23.451 570.279,63.956 603.176,63.956 	"/>
	<polygon fill="#FEEB17" points="620.693,85.523 570.28,85.523 570.28,126.271 653.789,126.271 	"/>
	<polygon fill="#189CD9" points="681.675,85.523 715.737,85.523 698.221,63.959 664.159,63.959 664.128,63.959 631.142,23.345 
		597.08,23.345 680.675,126.271 714.737,126.271 681.641,85.523 	"/>
	<g>
		<path fill="#FFFFFF" d="M693.83,38.868l0.001-0.941c0.001-0.767-0.164-1.411-0.494-1.934c-0.33-0.522-0.873-0.894-1.629-1.118
			c0.668-0.292,1.176-0.675,1.522-1.149c0.347-0.474,0.52-1.042,0.521-1.704c0.002-1.19-0.409-2.117-1.231-2.783
			c-0.823-0.666-1.963-1-3.422-1.001l-4.825-0.006l-0.017,12.794l2.566,0.003l0.007-5.114l2.444,0.003
			c0.633,0.001,1.122,0.179,1.47,0.534c0.348,0.354,0.522,0.851,0.521,1.49l-0.001,0.904c-0.001,0.393,0.034,0.808,0.104,1.248
			c0.069,0.439,0.222,0.753,0.456,0.94l2.645,0.003l0-0.184c-0.234-0.188-0.399-0.476-0.496-0.866
			C693.877,39.599,693.83,39.225,693.83,38.868z M690.66,33.486c-0.355,0.304-0.892,0.455-1.613,0.454l-2.215-0.003l0.005-3.725
			l2.259,0.003c0.691,0.001,1.213,0.174,1.567,0.521c0.354,0.346,0.53,0.812,0.53,1.398C691.192,32.73,691.015,33.182,690.66,33.486
			z"/>
		<path fill="#FFFFFF" d="M688.743,23.345c-6.457-0.008-11.698,5.219-11.706,11.676s5.219,11.698,11.676,11.707
			c6.456,0.008,11.697-5.219,11.705-11.676C700.426,28.594,695.199,23.353,688.743,23.345z M688.715,44.823
			c-5.406-0.007-9.782-4.395-9.775-9.8c0.007-5.406,4.394-9.783,9.801-9.776c5.405,0.007,9.782,4.395,9.775,9.801
			C698.508,40.454,694.12,44.83,688.715,44.823z"/>
	</g>
</g>
</svg>
