<?xml version="1.0" encoding="utf-8"?>
<!-- Generator: Adobe Illustrator 26.2.1, SVG Export Plug-In . SVG Version: 6.00 Build 0)  -->
<svg version="1.1" id="Слой_1" xmlns="http://www.w3.org/2000/svg" xmlns:xlink="http://www.w3.org/1999/xlink" x="0px" y="0px"
	 width="50px" height="50px" viewBox="0 0 50 50" enable-background="new 0 0 50 50" xml:space="preserve">
<g>
	<path d="M49.257,17.466c-1.088-6.194-6.988-11.074-14.032-9.365c-5.057,1.227-8.669,5.882-8.637,11.143
		c0.032,5.241,3.645,9.794,8.71,10.944c0.41,0.093,0.369,0.209,0.237,0.521c-0.743,1.756-1.698,3.388-2.799,4.939
		c-0.649,0.914-1.368,1.771-2.086,2.631c-0.716,0.858-0.775,1.984-0.187,2.881c0.603,0.919,1.673,1.298,2.764,0.965
		c0.517-0.158,1.033-0.326,1.539-0.516c4.906-1.846,8.849-4.878,11.515-9.447c2.199-3.769,3.055-7.898,3.17-12.213
		C49.475,19.113,49.402,18.287,49.257,17.466z"/>
	<path d="M9.226,8.095c-5.768,1.387-9.622,7.223-8.481,13.035c0.936,4.773,3.829,7.804,8.54,9.059
		c0.379,0.101,0.356,0.217,0.23,0.505c-0.421,0.962-0.889,1.9-1.417,2.808c-1.001,1.721-2.216,3.285-3.495,4.806
		c-0.729,0.867-0.763,1.977-0.154,2.877c0.608,0.899,1.658,1.263,2.727,0.947c0.796-0.235,1.579-0.505,2.345-0.825
		c5.207-2.179,9.192-5.672,11.61-10.835c1.557-3.324,2.202-6.85,2.291-10.895c0.008-0.555-0.057-1.5-0.251-2.435
		C21.923,11.111,16.148,6.431,9.226,8.095z"/>
</g>
</svg>
