<?xml version="1.0" encoding="utf-8"?>
<!-- Generator: Adobe Illustrator 27.0.0, SVG Export Plug-In . SVG Version: 6.00 Build 0)  -->
<svg version="1.1" id="Слой_1" xmlns="http://www.w3.org/2000/svg" xmlns:xlink="http://www.w3.org/1999/xlink" x="0px" y="0px"
	 width="100px" height="56.783px" viewBox="0 0 100 56.783" enable-background="new 0 0 100 56.783" xml:space="preserve">
<g>
	<path d="M95.663,37.494c-0.001-0.111-0.048-0.21-0.083-0.311c-1.335-3.838-2.672-7.675-4.009-11.513
		c-2.014-5.779-4.028-11.559-6.043-17.338c-0.134-0.384-0.047-0.337-0.458-0.338c-3.181-0.001-6.361-0.001-9.542,0
		c-0.432,0-0.343-0.066-0.486,0.343c-1.822,5.235-3.641,10.47-5.461,15.705c-1.556,4.477-3.113,8.953-4.668,13.43
		c-0.109,0.313-0.125,0.302,0.207,0.302c2.523-0.001,5.046,0,7.569,0c0.049,0,0.098,0.002,0.147-0.001
		c0.113-0.005,0.122-0.012,0.163-0.13c0.013-0.037,0.023-0.075,0.034-0.113c0.374-1.278,0.747-2.557,1.121-3.835
		c0.121-0.413,0.244-0.826,0.371-1.258c0.113,0,0.22,0,0.327,0c3.642,0,7.284,0,10.926,0c0.079,0,0.157,0.004,0.236,0
		c0.073-0.004,0.107,0.038,0.127,0.097c0.016,0.046,0.026,0.094,0.039,0.141c0.453,1.592,0.902,3.185,1.361,4.775
		c0.104,0.361,0.019,0.322,0.431,0.322c2.474,0.001,4.948,0,7.422,0.001c0.107,0,0.215,0.01,0.322,0.015c0-0.079,0-0.157,0-0.236
		C95.686,37.545,95.663,37.526,95.663,37.494z M76.372,26.365c0.488-1.591,0.975-3.182,1.462-4.773
		c0.473-1.544,0.955-3.086,1.418-4.633c0.202-0.675,0.385-1.356,0.587-2.031c0.115-0.383,0.173-0.784,0.262-1.175
		c0.061-0.265,0.131-0.527,0.199-0.795c0.076,0.047,0.082,0.117,0.099,0.183c0.253,1.017,0.505,2.033,0.761,3.049
		c0.175,0.693,0.411,1.368,0.622,2.051c0.838,2.712,1.682,5.422,2.525,8.132c0.023,0.074,0.059,0.145,0.039,0.254
		c-2.677,0-5.344,0-8.009,0C76.304,26.528,76.347,26.449,76.372,26.365z"/>
	<path d="M45.558,44.481c-0.976,0.191-1.799,0.664-2.449,1.413c-0.958,1.104-1.281,2.383-0.953,3.807
		c0.231,1.003,0.794,1.802,1.612,2.421c0.573,0.435,1.225,0.689,1.926,0.826c0.005,0,0.011,0,0.016,0c0.033,0,0.065,0,0.098,0
		c0.001,0.006,0.002,0.012,0.003,0.018c0.002,0.01,0.003,0.02,0.005,0.03c0.059,0,0.118,0,0.177,0c0.275,0,0.55,0,0.825,0
		c0.079,0,0.157,0,0.236,0c0.039,0,0.079,0,0.118,0c-0.001-0.01,0.001-0.02,0.002-0.03c0.001-0.007,0-0.014,0.002-0.02c0,0,0,0,0,0
		c0.034-0.001,0.068-0.002,0.102-0.003c0.004,0,0.009,0,0.013,0c0.151-0.041,0.303-0.08,0.454-0.122
		c1.552-0.437,2.909-1.801,3.105-3.548c0.087-0.776,0.015-1.529-0.301-2.245C49.72,45.156,47.706,44.061,45.558,44.481z
		 M47.026,51.026c-1.097,0.291-2.131-0.231-2.529-1.271c-0.269-0.703-0.27-1.423,0.021-2.121c0.266-0.638,0.72-1.1,1.412-1.259
		c0.806-0.185,1.516,0.002,2.078,0.634c0.35,0.393,0.539,0.858,0.581,1.382c0.009,0.117,0.014,0.235,0.017,0.286
		c-0.005,0.381-0.034,0.694-0.148,0.99C48.198,50.346,47.74,50.837,47.026,51.026z"/>
	<path d="M9.383,48.02c-0.371-0.156-0.752-0.279-1.139-0.386c-0.198-0.055-0.395-0.114-0.59-0.179
		c-0.13-0.043-0.256-0.1-0.365-0.187C6.973,47.014,6.973,46.55,7.291,46.3c0.085-0.067,0.181-0.114,0.285-0.148
		c0.241-0.078,0.484-0.069,0.727-0.026c0.373,0.067,0.706,0.229,1.013,0.447c0.071,0.05,0.128,0.123,0.236,0.142
		c0.02-0.037,0.045-0.076,0.064-0.119c0.193-0.439,0.385-0.879,0.577-1.319c0.012-0.027,0.026-0.053,0.034-0.081
		c0.012-0.04,0.007-0.079-0.03-0.104c-0.056-0.039-0.114-0.076-0.173-0.111c-0.549-0.322-1.141-0.52-1.775-0.576
		c-0.471-0.041-0.943-0.035-1.401,0.105c-0.93,0.284-1.562,0.87-1.827,1.822c-0.09,0.325-0.111,0.658-0.082,0.993
		c0.056,0.648,0.352,1.153,0.913,1.495c0.235,0.144,0.482,0.262,0.744,0.346c0.261,0.084,0.525,0.157,0.787,0.236
		c0.262,0.08,0.524,0.161,0.767,0.291c0.164,0.088,0.28,0.216,0.332,0.394c0.143,0.494-0.016,0.818-0.385,1.031
		c-0.203,0.117-0.426,0.141-0.654,0.133c-0.395-0.014-0.743-0.164-1.065-0.381c-0.229-0.154-0.432-0.339-0.628-0.532
		c-0.061-0.061-0.106-0.143-0.196-0.171c-0.077,0.039-0.1,0.118-0.14,0.183c-0.212,0.342-0.419,0.686-0.629,1.029
		c-0.071,0.117-0.141,0.235-0.214,0.351c-0.031,0.05-0.024,0.094,0.014,0.131c0.056,0.055,0.116,0.106,0.175,0.157
		c0.529,0.456,1.127,0.778,1.814,0.924l0,0c0,0,0,0,0,0c0.005,0,0.009,0,0.014,0c0.034,0,0.067,0,0.101,0
		c0.003,0.008,0.004,0.015,0.005,0.023c0.001,0.01,0.001,0.02-0.001,0.03c0.059,0,0.118,0,0.177,0c0.353,0,0.707,0,1.06,0
		c0.059,0,0.118,0,0.177,0c0.039,0,0.079,0,0.118,0c-0.001-0.01,0-0.02,0.001-0.03c0.001-0.007,0.002-0.014,0.003-0.021c0,0,0,0,0,0
		c0.034-0.001,0.067-0.001,0.101-0.002c0.005,0,0.009,0,0.014,0c0,0,0,0,0,0l0,0c0.141-0.041,0.284-0.076,0.423-0.124
		c0.845-0.299,1.44-0.857,1.732-1.714c0.148-0.434,0.179-0.886,0.129-1.338C10.542,48.956,10.161,48.347,9.383,48.02z"/>
	<path d="M62.637,23.201c-0.544-0.886-1.253-1.606-2.151-2.135c-0.414-0.244-0.84-0.464-1.28-0.66
		c-1.22-0.543-2.488-0.948-3.774-1.297c-0.69-0.187-1.385-0.353-2.061-0.591c-0.518-0.182-1.029-0.381-1.498-0.674
		c-0.821-0.513-1.197-1.408-1.025-2.419c0.091-0.537,0.385-0.957,0.814-1.287c0.62-0.477,1.332-0.698,2.102-0.743
		c0.983-0.057,1.935,0.109,2.86,0.437c1.093,0.388,2.07,0.98,2.97,1.704c0.084,0.067,0.168,0.134,0.274,0.219
		c0.052-0.108,0.092-0.187,0.128-0.267c0.779-1.776,1.557-3.553,2.336-5.329c0.024-0.054,0.048-0.107,0.073-0.16
		c0.025-0.052,0.013-0.095-0.032-0.128c-0.048-0.034-0.098-0.065-0.148-0.097c-0.585-0.378-1.191-0.719-1.821-1.017
		c-1.59-0.752-3.256-1.239-5.008-1.422c-0.723-0.075-1.449-0.09-2.176-0.082c-0.886,0.01-1.761,0.109-2.625,0.305
		c-1.669,0.379-3.147,1.125-4.416,2.28c-1.263,1.15-2.161,2.527-2.628,4.177c-0.187,0.663-0.297,1.339-0.349,2.025
		c-0.085,1.105-0.023,2.197,0.26,3.271c0.382,1.445,1.159,2.626,2.368,3.516c0.523,0.385,1.08,0.711,1.662,0.997
		c1.068,0.523,2.186,0.913,3.328,1.234c0.858,0.241,1.72,0.467,2.56,0.768c0.554,0.198,1.097,0.419,1.609,0.715
		c0.441,0.255,0.751,0.622,0.967,1.077c0.14,0.296,0.225,0.607,0.264,0.929c0.053,0.441,0.056,0.882-0.06,1.316
		c-0.162,0.6-0.507,1.076-0.985,1.464c-0.742,0.601-1.609,0.842-2.544,0.855c-0.841,0.012-1.658-0.136-2.445-0.445
		c-0.903-0.354-1.718-0.855-2.478-1.452c-0.767-0.602-1.467-1.274-2.13-1.988c-0.058-0.062-0.098-0.15-0.206-0.166
		c-0.036,0.055-0.074,0.111-0.11,0.169c-1.151,1.883-2.301,3.765-3.451,5.648c-0.026,0.042-0.048,0.086-0.075,0.127
		c-0.033,0.05-0.023,0.091,0.018,0.129c0.022,0.02,0.042,0.041,0.064,0.061c0.88,0.816,1.818,1.556,2.835,2.196
		c1.635,1.03,3.416,1.65,5.325,1.91c0.701,0.096,1.406,0.139,2.113,0.147c1.181,0.013,2.353-0.068,3.51-0.315
		c1.128-0.241,2.206-0.617,3.213-1.184c1.889-1.064,3.304-2.567,4.181-4.559c0.52-1.181,0.773-2.426,0.837-3.709
		c0.047-0.943,0.012-1.883-0.162-2.816C63.489,24.959,63.156,24.046,62.637,23.201z"/>
	<path d="M30.244,38.297c3.16-0.81,5.236-3.489,5.515-6.336c0.081-0.831,0.045-1.651-0.161-2.455
		c-0.571-2.232-1.903-3.859-3.959-4.889c-0.76-0.38-1.57-0.599-2.418-0.691c-0.581-0.063-1.153-0.052-1.727,0.061
		c-0.713,0.141-1.407,0.346-2.095,0.573c-0.081,0.027-0.158,0.072-0.252,0.059c0-1.16,0-2.317,0-3.476
		c0.1,0.003,0.18,0.038,0.263,0.066c0.521,0.173,1.044,0.335,1.579,0.46c0.526,0.123,1.054,0.225,1.599,0.212
		c0.661-0.015,1.309-0.114,1.941-0.302c2.935-0.872,4.938-3.425,5.227-6.23c0.095-0.921,0.031-1.825-0.215-2.712
		c-1.005-3.616-4.646-6.053-8.633-5.235c-1.994,0.409-3.557,1.502-4.682,3.203c-0.598,0.904-0.965,1.9-1.107,2.978
		c-0.089,0.677-0.085,1.347,0.06,2.019c0.147,0.682,0.348,1.346,0.569,2.006c0.021,0.064,0.06,0.124,0.026,0.204
		c-1.154,0-2.31,0-3.464,0c-0.028-0.081,0.01-0.141,0.03-0.206c0.137-0.439,0.278-0.878,0.404-1.32
		c0.121-0.424,0.219-0.855,0.264-1.295c0.057-0.55,0.024-1.1-0.072-1.643c-0.25-1.417-0.851-2.669-1.837-3.718
		c-1.496-1.591-3.343-2.388-5.533-2.38C10.682,7.254,9.831,7.42,9.008,7.735c-2.615,1-4.415,3.403-4.683,6.062
		c-0.086,0.85-0.039,1.687,0.174,2.511c0.552,2.133,1.818,3.707,3.753,4.744c0.794,0.426,1.645,0.675,2.542,0.78
		c0.62,0.073,1.231,0.062,1.844-0.062c0.693-0.141,1.368-0.341,2.038-0.561c0.083-0.027,0.163-0.062,0.261-0.064
		c0,1.16,0,2.317,0,3.491c-0.091-0.027-0.175-0.048-0.256-0.075c-0.529-0.178-1.063-0.34-1.607-0.469
		c-0.574-0.136-1.152-0.24-1.747-0.205c-0.5,0.03-0.993,0.101-1.481,0.221c-2.936,0.724-5.213,3.276-5.521,6.328
		c-0.094,0.931-0.018,1.84,0.232,2.739c0.977,3.5,4.574,6.027,8.637,5.184c2.071-0.43,3.666-1.59,4.783-3.39
		c0.529-0.852,0.853-1.781,0.986-2.777c0.09-0.677,0.088-1.347-0.057-2.019c-0.146-0.682-0.347-1.347-0.568-2.006
		c-0.022-0.065-0.058-0.125-0.038-0.197c0.213-0.032,3.06-0.042,3.468-0.012c0.022,0.093-0.026,0.138-0.049,0.19
		c-0.417,0.913-0.644,1.868-0.667,2.873c-0.023,1.025,0.154,2.01,0.545,2.958c1.012,2.448,3.291,4.145,5.812,4.473
		C28.366,38.574,29.311,38.536,30.244,38.297z M14.721,36.812c-1.071,0.576-2.214,0.818-3.429,0.759
		c-2.408-0.117-4.684-1.662-5.625-4.053c-0.339-0.862-0.489-1.757-0.43-2.681c0.18-2.808,2.079-4.953,4.465-5.714
		c0.785-0.25,1.591-0.349,2.411-0.287c1.368,0.103,2.59,0.587,3.653,1.461c0.022,0.018,0.039,0.042,0.056,0.06
		c0.007,0.077-0.054,0.104-0.093,0.142c-1.086,1.08-2.173,2.159-3.26,3.239c-0.021,0.021-0.044,0.04-0.063,0.062
		c-0.063,0.079-0.124,0.092-0.229,0.052c-0.342-0.131-0.694-0.13-1.035,0.001c-0.107,0.041-0.162,0.012-0.229-0.055
		c-0.418-0.415-0.837-0.83-1.255-1.245c-0.349-0.346-0.697-0.692-1.046-1.037c-0.049-0.048-0.096-0.1-0.15-0.141
		c-0.186-0.142-0.455-0.125-0.619,0.036c-0.174,0.171-0.193,0.416-0.042,0.613c0.053,0.07,0.12,0.13,0.182,0.192
		c0.725,0.72,1.45,1.439,2.175,2.158c0.049,0.048,0.096,0.098,0.144,0.147c0.03,0.031,0.035,0.066,0.018,0.106
		c-0.059,0.136-0.092,0.278-0.108,0.426c-0.082,0.743,0.418,1.377,1.079,1.551c0.274,0.072,0.551,0.078,0.81-0.028
		c0.175-0.072,0.267-0.01,0.379,0.102c0.722,0.722,1.448,1.44,2.174,2.159c0.063,0.062,0.124,0.127,0.193,0.182
		c0.207,0.165,0.457,0.146,0.638-0.032c0.172-0.169,0.161-0.5,0.005-0.641c-0.058-0.053-0.11-0.112-0.166-0.167
		c-0.703-0.699-1.407-1.398-2.111-2.097c-0.042-0.041-0.081-0.086-0.126-0.124c-0.086-0.071-0.112-0.147-0.062-0.257
		c0.086-0.192,0.102-0.397,0.091-0.606c-0.008-0.149-0.049-0.289-0.103-0.427c-0.028-0.072-0.023-0.133,0.039-0.185
		c0.03-0.026,0.056-0.055,0.084-0.083c1.088-1.079,2.176-2.157,3.264-3.235c0.035-0.034,0.071-0.068,0.12-0.114
		c0.043,0.038,0.067,0.055,0.086,0.076c0.762,0.92,1.243,1.965,1.415,3.151C18.427,33.087,16.965,35.606,14.721,36.812z
		 M16.711,18.507c-0.036,0.047-0.072,0.093-0.111,0.137c-0.057,0.066-0.085,0.068-0.144,0.015c-0.029-0.026-0.056-0.055-0.084-0.083
		c-1.081-1.071-2.162-2.143-3.243-3.214c-0.021-0.021-0.04-0.044-0.063-0.062c-0.071-0.056-0.089-0.123-0.053-0.208
		c0.055-0.127,0.088-0.26,0.1-0.398c0.018-0.208,0.005-0.417-0.08-0.607c-0.061-0.137-0.018-0.21,0.077-0.304
		c0.61-0.598,1.214-1.202,1.82-1.805c0.174-0.173,0.349-0.346,0.522-0.519c0.078-0.077,0.138-0.163,0.153-0.277
		c0.026-0.201-0.051-0.383-0.217-0.479c-0.179-0.104-0.357-0.098-0.523,0.027c-0.07,0.053-0.131,0.118-0.194,0.18
		c-0.718,0.712-1.436,1.425-2.153,2.138c-0.049,0.048-0.099,0.096-0.147,0.145c-0.047,0.049-0.098,0.057-0.16,0.029
		c-0.045-0.02-0.091-0.036-0.138-0.049c-0.776-0.218-1.563,0.2-1.806,0.96c-0.092,0.289-0.104,0.585,0.008,0.866
		c0.068,0.17,0.015,0.262-0.1,0.375c-0.735,0.723-1.465,1.451-2.196,2.178c-0.049,0.048-0.1,0.095-0.145,0.146
		c-0.185,0.21-0.181,0.474,0.009,0.659c0.175,0.171,0.442,0.178,0.642,0.013c0.068-0.056,0.128-0.121,0.191-0.184
		c0.711-0.706,1.422-1.411,2.132-2.117c0.035-0.035,0.072-0.068,0.104-0.104c0.065-0.074,0.126-0.091,0.229-0.052
		c0.342,0.13,0.694,0.131,1.035-0.001c0.106-0.041,0.161-0.014,0.23,0.054c0.375,0.375,0.753,0.747,1.129,1.121
		c0.69,0.685,1.38,1.37,2.069,2.055c0.076,0.076,0.15,0.154,0.243,0.249c-0.189,0.176-0.371,0.308-0.558,0.434
		c-0.851,0.575-1.783,0.929-2.804,1.063c-2.987,0.391-5.764-1.338-6.813-3.992c-0.341-0.862-0.495-1.756-0.439-2.679
		c0.174-2.891,2.176-5.07,4.614-5.78c0.813-0.237,1.641-0.31,2.477-0.222c2.881,0.305,4.985,2.387,5.565,4.795
		C18.376,15.026,17.974,16.863,16.711,18.507z M26.413,8.501c0.872-0.287,1.767-0.378,2.673-0.284
		c2.775,0.289,4.961,2.272,5.588,4.846c0.696,2.857-0.648,5.709-3.136,7.083c-1.14,0.63-2.365,0.885-3.657,0.778
		c-1.325-0.11-2.509-0.593-3.542-1.436c-0.029-0.024-0.055-0.052-0.078-0.074c0.001-0.093,0.071-0.124,0.117-0.17
		c1.079-1.073,2.16-2.145,3.24-3.217c0.028-0.028,0.057-0.054,0.083-0.083c0.052-0.058,0.103-0.068,0.181-0.036
		c0.241,0.098,0.494,0.123,0.751,0.084c0.096-0.015,0.197-0.029,0.284-0.069c0.121-0.057,0.193-0.019,0.278,0.068
		c0.274,0.282,0.556,0.555,0.835,0.831c0.467,0.463,0.934,0.927,1.401,1.39c0.063,0.062,0.124,0.127,0.194,0.181
		c0.189,0.145,0.453,0.126,0.618-0.037c0.18-0.179,0.189-0.435,0.021-0.637c-0.044-0.053-0.095-0.099-0.144-0.148
		c-0.724-0.72-1.449-1.44-2.173-2.16c-0.049-0.048-0.096-0.099-0.146-0.145c-0.051-0.047-0.05-0.094-0.024-0.157
		c0.048-0.118,0.076-0.242,0.093-0.369c0.105-0.804-0.48-1.457-1.136-1.59c-0.279-0.056-0.547-0.041-0.809,0.06
		c-0.107,0.041-0.18,0.021-0.259-0.059c-0.429-0.432-0.863-0.859-1.295-1.288c-0.335-0.332-0.669-0.665-1.004-0.996
		c-0.056-0.055-0.11-0.114-0.175-0.156c-0.198-0.129-0.458-0.086-0.613,0.091c-0.147,0.168-0.133,0.463-0.003,0.598
		c0.068,0.07,0.136,0.142,0.205,0.211c0.718,0.712,1.436,1.424,2.155,2.136c0.028,0.028,0.053,0.058,0.083,0.083
		c0.07,0.058,0.087,0.124,0.051,0.208c-0.054,0.127-0.087,0.26-0.099,0.398c-0.019,0.208-0.001,0.417,0.081,0.607
		c0.06,0.137,0.016,0.213-0.078,0.305c-0.457,0.445-0.909,0.896-1.362,1.346c-0.635,0.629-1.269,1.259-1.903,1.888
		c-0.042,0.041-0.085,0.081-0.149,0.141c-0.053-0.057-0.087-0.091-0.117-0.128c-0.745-0.919-1.214-1.959-1.38-3.135
		C21.611,12.283,23.562,9.44,26.413,8.501z M22.522,33.734c-0.38-0.868-0.549-1.775-0.521-2.722
		c0.043-1.455,0.542-2.737,1.458-3.861c0.018-0.023,0.039-0.044,0.06-0.064c0.006-0.006,0.017-0.009,0.057-0.028
		c0.338,0.334,0.673,0.665,1.007,0.997c0.774,0.768,1.547,1.535,2.321,2.303c0.042,0.041,0.081,0.086,0.125,0.125
		c0.06,0.053,0.069,0.114,0.04,0.185c-0.063,0.156-0.101,0.316-0.106,0.486c-0.006,0.189,0.019,0.374,0.093,0.547
		c0.047,0.11,0.019,0.18-0.061,0.258c-0.567,0.558-1.13,1.119-1.695,1.68c-0.223,0.221-0.445,0.444-0.669,0.664
		c-0.095,0.093-0.157,0.198-0.162,0.335c-0.006,0.182,0.063,0.326,0.218,0.422c0.166,0.103,0.337,0.101,0.5-0.003
		c0.073-0.047,0.134-0.114,0.197-0.177c0.712-0.705,1.423-1.41,2.134-2.116c0.028-0.028,0.055-0.056,0.083-0.084
		c0.195-0.188,0.147-0.168,0.404-0.091c0.855,0.254,1.611-0.293,1.807-0.953c0.089-0.3,0.099-0.601-0.014-0.895
		c-0.053-0.138-0.026-0.222,0.081-0.327c0.724-0.707,1.439-1.422,2.156-2.135c0.077-0.076,0.157-0.149,0.226-0.232
		c0.17-0.203,0.156-0.453-0.021-0.637c-0.172-0.178-0.497-0.165-0.643-0.019c-0.062,0.063-0.127,0.123-0.19,0.185
		c-0.718,0.712-1.436,1.425-2.154,2.137c-0.042,0.041-0.085,0.082-0.126,0.124c-0.047,0.05-0.096,0.051-0.158,0.024
		c-0.154-0.068-0.318-0.096-0.486-0.101c-0.198-0.005-0.396,0.006-0.577,0.089c-0.101,0.047-0.158,0.026-0.231-0.047
		c-0.471-0.473-0.947-0.942-1.421-1.412c-0.641-0.636-1.282-1.273-1.923-1.91c-0.028-0.028-0.053-0.057-0.076-0.082
		c-0.001-0.064,0.043-0.09,0.08-0.12c0.961-0.778,2.049-1.262,3.28-1.402c2.115-0.241,3.933,0.398,5.433,1.903
		c0.963,0.967,1.542,2.147,1.737,3.498c0.491,3.401-1.755,6.367-4.804,7.114C26.871,38.155,23.76,36.56,22.522,33.734z"/>
	<path d="M62.632,44.596c-0.049-0.003-0.098-0.003-0.147-0.003c-0.609,0-1.217,0-1.826,0c-0.068,0-0.136,0.008-0.222,0.013
		c-0.069,0.277-0.137,0.552-0.206,0.826c-0.07,0.275-0.142,0.55-0.211,0.826c-0.069,0.276-0.133,0.553-0.201,0.828
		c-0.069,0.276-0.141,0.55-0.211,0.826c-0.069,0.275-0.13,0.553-0.207,0.827c-0.073,0.261-0.079,0.539-0.193,0.831
		c-0.045-0.212-0.076-0.385-0.12-0.556c-0.121-0.475-0.245-0.948-0.371-1.422c-0.252-0.947-0.505-1.893-0.759-2.839
		c-0.042-0.155-0.046-0.16-0.195-0.16c-0.511-0.002-1.021-0.001-1.532,0c-0.02,0-0.039,0.001-0.059,0.003
		c-0.054,0.004-0.091,0.028-0.106,0.083c-0.018,0.066-0.038,0.132-0.055,0.198c-0.11,0.417-0.222,0.833-0.33,1.25
		c-0.279,1.071-0.556,2.143-0.833,3.214c-0.01,0.038-0.01,0.079-0.023,0.115c-0.01,0.028,0.011,0.083-0.043,0.08
		c-0.05-0.023-0.054-0.062-0.062-0.101c-0.054-0.259-0.104-0.519-0.165-0.776c-0.246-1.039-0.496-2.077-0.745-3.116
		c-0.055-0.229-0.103-0.459-0.168-0.685c-0.079-0.274-0.009-0.266-0.319-0.266c-0.029,0-0.059,0-0.088,0
		c-0.53,0-1.06-0.001-1.59,0.001c-0.107,0.001-0.249-0.048-0.311,0.027c-0.076,0.093,0.022,0.221,0.052,0.329
		c0.616,2.177,1.235,4.353,1.854,6.529c0.113,0.396,0.23,0.79,0.338,1.187c0.035,0.127,0.046,0.153,0.204,0.149
		c0.02-0.001,0.039,0,0.059,0c0.56,0,1.119,0,1.679,0c0.039,0,0.079-0.002,0.118-0.001c0.057,0.001,0.093-0.031,0.11-0.08
		c0.026-0.074,0.047-0.149,0.069-0.224c0.221-0.772,0.443-1.544,0.662-2.317c0.168-0.594,0.355-1.182,0.483-1.787
		c0.032,0.019,0.064,0.039,0.096,0.058c0.057,0.228,0.106,0.458,0.171,0.684c0.27,0.942,0.544,1.882,0.817,2.823
		c0.071,0.245,0.142,0.489,0.211,0.734c0.022,0.077,0.07,0.112,0.15,0.109c0.049-0.002,0.098,0,0.147,0c0.511,0,1.021,0,1.532,0
		c0.31,0,0.31,0,0.393-0.293c0.725-2.543,1.45-5.086,2.175-7.63c0.019-0.066,0.038-0.132,0.055-0.198
		C62.719,44.637,62.692,44.6,62.632,44.596z"/>
	<path d="M38.243,4.16c-0.001,12.472-0.001,24.945-0.001,37.417c0,0.079-0.002,0.157,0.001,0.236
		c0.004,0.095,0.031,0.125,0.122,0.127c0.157,0.004,0.314,0.003,0.471,0.002c0.481-0.005,0.415,0.064,0.415-0.426
		c0.001-12.433,0.001-24.866,0.001-37.299c0-0.088,0.003-0.177-0.002-0.265c-0.002-0.037-0.019-0.074-0.029-0.11
		c0.009-0.019,0.008-0.037-0.004-0.055c-0.314,0-0.628,0-0.943,0c-0.011,0.018-0.012,0.036-0.003,0.056
		C38.215,3.944,38.243,4.054,38.243,4.16z"/>
	<path d="M33.932,52.509c-0.618-0.908-1.236-1.816-1.854-2.725c-0.055-0.08-0.108-0.162-0.18-0.27
		c0.149-0.046,0.262-0.076,0.371-0.115c0.708-0.251,1.163-0.739,1.358-1.467c0.119-0.444,0.141-0.893,0.044-1.341
		c-0.178-0.819-0.625-1.425-1.422-1.746c-0.351-0.141-0.717-0.195-1.091-0.215c-1.109-0.059-2.218-0.03-3.327-0.037
		c-0.311-0.002-0.274,0.011-0.274,0.271c0,2.563,0,5.126,0,7.689c0,0.059,0.001,0.118,0.005,0.176
		c0.003,0.043,0.025,0.074,0.07,0.079c0.039,0.004,0.078,0.006,0.117,0.006c0.579,0,1.158,0.001,1.738,0
		c0.195,0,0.195-0.003,0.198-0.194c0.001-0.059,0-0.118,0-0.177c0-0.825,0-1.65,0-2.475c0-0.075,0-0.149,0-0.251
		c0.118,0.053,0.139,0.144,0.18,0.214c0.53,0.894,1.061,1.787,1.583,2.686c0.083,0.143,0.172,0.205,0.345,0.202
		c0.697-0.011,1.394-0.005,2.091-0.005c0.049,0,0.098-0.001,0.147-0.003c0.041-0.002,0.067-0.048,0.046-0.082
		C34.03,52.655,33.981,52.582,33.932,52.509z M31.444,47.781c-0.074,0.273-0.237,0.466-0.507,0.565
		c-0.157,0.058-0.319,0.099-0.485,0.107c-0.215,0.011-0.431,0.011-0.646,0.011c-0.097,0-0.119-0.024-0.12-0.122
		c-0.002-0.323-0.001-0.647-0.001-0.97c0-0.304-0.001-0.607,0.001-0.911c0.001-0.101,0.022-0.125,0.118-0.125
		c0.303,0.001,0.606-0.016,0.907,0.053c0.367,0.083,0.674,0.253,0.754,0.781C31.496,47.378,31.499,47.579,31.444,47.781z"/>
	<path d="M39.662,50.04c-0.099-0.146-0.199-0.291-0.297-0.439c-0.043-0.065-0.027-0.103,0.051-0.126
		c0.084-0.025,0.171-0.045,0.254-0.074c0.734-0.255,1.193-0.762,1.38-1.516c0.093-0.376,0.112-0.757,0.054-1.14
		c-0.131-0.866-0.563-1.514-1.38-1.876c-0.373-0.165-0.77-0.221-1.174-0.242c-1.099-0.057-2.199-0.029-3.298-0.036
		c-0.316-0.002-0.278-0.003-0.279,0.294c-0.001,2.543,0,5.087,0,7.63c0,0.069,0,0.137,0.003,0.206
		c0.002,0.057,0.035,0.088,0.093,0.089c0.069,0.002,0.137,0.002,0.206,0.002c0.51,0,1.021,0.001,1.531,0
		c0.326,0,0.291,0.032,0.293-0.306c0.001-0.118,0-0.236,0-0.354c0-0.766,0-1.532,0.001-2.298c0-0.042-0.026-0.099,0.04-0.124
		c0.08,0.062,0.113,0.157,0.162,0.24c0.53,0.894,1.06,1.788,1.584,2.685c0.067,0.115,0.143,0.161,0.279,0.16
		c0.736-0.007,1.473-0.003,2.209-0.004c0.037,0,0.075-0.005,0.131-0.009c-0.024-0.125-0.089-0.188-0.138-0.259
		C40.801,51.71,40.231,50.875,39.662,50.04z M38.865,47.751c-0.064,0.274-0.22,0.477-0.485,0.585
		c-0.164,0.066-0.336,0.103-0.512,0.12c-0.029,0.003-0.059,0.005-0.088,0.004c-0.221-0.01-0.445,0.048-0.663-0.031
		c-0.038-0.203-0.009-0.408-0.016-0.612c-0.005-0.147-0.001-0.294-0.001-0.441c0,0,0,0,0,0c0-0.304-0.001-0.607,0.001-0.911
		c0.001-0.11,0.016-0.128,0.111-0.129c0.313,0,0.626-0.015,0.935,0.057c0.447,0.104,0.664,0.342,0.73,0.803
		C38.904,47.383,38.908,47.568,38.865,47.751z"/>
	<path d="M24.389,45.925c-0.138-0.398-0.281-0.794-0.413-1.194c-0.034-0.101-0.085-0.147-0.19-0.139c-0.039,0.003-0.078,0-0.118,0
		c-0.766,0-1.532-0.001-2.297,0c-0.315,0-0.265-0.027-0.365,0.262c-0.892,2.562-1.783,5.125-2.673,7.688
		c-0.028,0.081-0.075,0.16-0.059,0.261c0.048,0.004,0.095,0.01,0.143,0.01c0.628,0.001,1.257,0.001,1.885,0
		c0.039,0,0.079,0,0.118-0.002c0.057-0.002,0.089-0.039,0.107-0.086c0.024-0.064,0.04-0.131,0.059-0.197
		c0.103-0.358,0.209-0.715,0.308-1.073c0.023-0.082,0.066-0.113,0.145-0.111c0.059,0.001,0.118,0,0.177,0c0.874,0,1.748,0,2.621,0
		c0.049,0,0.098-0.001,0.147,0c0.121,0.004,0.124,0.004,0.159,0.123c0.113,0.385,0.223,0.771,0.336,1.157
		c0.054,0.186,0.056,0.188,0.233,0.188c0.638,0.001,1.276,0.001,1.914,0c0.045,0,0.097,0.014,0.144-0.049
		c-0.025-0.072-0.052-0.155-0.081-0.237C25.922,50.327,25.156,48.126,24.389,45.925z M23.584,49.711
		c-0.114,0.038-0.232,0.017-0.348,0.017c-0.519,0.003-1.038,0.002-1.557,0c-0.075,0-0.155,0.023-0.241-0.036
		c0.34-1.207,0.765-2.392,1.063-3.622c0.069,0.023,0.068,0.089,0.078,0.133c0.248,1.068,0.628,2.096,0.931,3.147
		C23.543,49.468,23.63,49.577,23.584,49.711z"/>
	<path d="M72.045,44.838c-0.019-0.055-0.04-0.11-0.06-0.165c-0.019-0.052-0.058-0.076-0.112-0.078
		c-0.049-0.001-0.098-0.002-0.147-0.002c-0.785,0-1.57,0-2.355,0c-0.049,0-0.098,0-0.147,0.001c-0.066,0.002-0.109,0.035-0.13,0.098
		c-0.022,0.065-0.044,0.13-0.066,0.195c-0.325,0.933-0.65,1.867-0.975,2.8c-0.556,1.599-1.113,3.198-1.666,4.799
		c-0.034,0.098-0.103,0.194-0.064,0.317c0.035,0.004,0.073,0.012,0.111,0.012c0.638,0.001,1.275,0.001,1.913,0.001
		c0.039,0,0.078-0.001,0.118-0.004c0.042-0.003,0.073-0.023,0.086-0.065c0.021-0.065,0.042-0.131,0.061-0.196
		c0.101-0.348,0.2-0.696,0.303-1.043c0.045-0.152,0.053-0.16,0.198-0.16c0.962-0.001,1.923-0.001,2.885,0
		c0.146,0,0.153,0.006,0.197,0.159c0.086,0.301,0.165,0.605,0.255,0.904c0.039,0.13,0.05,0.271,0.137,0.397c0.728,0,1.462,0,2.193,0
		c0.041-0.103-0.02-0.181-0.048-0.261C73.838,49.975,72.941,47.407,72.045,44.838z M71.543,49.728
		c-0.333,0.002-0.667,0.001-1.001,0.001c0,0,0,0.001,0,0.001c-0.314,0-0.628,0.001-0.942-0.001
		c-0.112-0.001-0.135-0.034-0.101-0.148c0.101-0.338,0.205-0.674,0.307-1.011c0.198-0.656,0.398-1.311,0.593-1.967
		c0.045-0.15,0.073-0.304,0.111-0.456c0.004-0.015,0.017-0.037,0.03-0.039c0.034-0.007,0.056,0.019,0.063,0.047
		c0.08,0.303,0.148,0.609,0.238,0.909c0.243,0.806,0.495,1.609,0.743,2.413c0.014,0.047,0.03,0.093,0.042,0.14
		C71.645,49.69,71.62,49.727,71.543,49.728z"/>
	<path d="M93.097,45.8c-0.125-0.361-0.256-0.719-0.378-1.081c-0.03-0.09-0.078-0.129-0.169-0.126c-0.069,0.002-0.137,0-0.206,0
		c-0.697,0-1.394,0-2.091,0c-0.098,0-0.196,0.001-0.295,0c-0.078-0.001-0.131,0.027-0.152,0.108
		c-0.015,0.057-0.038,0.111-0.057,0.167c-0.377,1.082-0.754,2.164-1.13,3.246c-0.515,1.48-1.032,2.959-1.544,4.44
		c-0.027,0.077-0.09,0.155-0.047,0.252c0.04,0.003,0.079,0.008,0.118,0.008c0.638,0.001,1.276,0,1.914,0
		c0.029,0,0.059-0.002,0.088-0.001c0.072,0.004,0.109-0.041,0.127-0.099c0.047-0.15,0.088-0.301,0.132-0.451
		c0.079-0.273,0.161-0.545,0.237-0.818c0.019-0.069,0.056-0.099,0.122-0.099c0.069-0.001,0.137-0.001,0.206-0.001
		c0.736,0,1.473,0,2.209,0c0.167,0,0.334,0.001,0.501,0c0.187-0.002,0.183,0.022,0.221,0.162c0.101,0.378,0.224,0.751,0.322,1.13
		c0.047,0.182,0.086,0.177,0.244,0.177c0.638-0.001,1.276,0,1.914-0.001c0.038,0,0.077-0.007,0.114-0.011
		c0.017-0.11-0.034-0.196-0.066-0.287C94.653,50.277,93.875,48.039,93.097,45.8z M92.198,49.729
		c-0.51,0.001-1.019,0.001-1.529,0.001c-0.155,0-0.31,0-0.498,0c0.363-1.258,0.778-2.448,1.089-3.698
		c0.098,0.226,0.123,0.441,0.184,0.646c0.174,0.581,0.348,1.161,0.524,1.741c0.117,0.383,0.239,0.765,0.358,1.148
		C92.373,49.716,92.364,49.729,92.198,49.729z"/>
	<path d="M16.329,44.766c-0.292-0.088-0.595-0.122-0.9-0.138c-1.109-0.057-2.218-0.029-3.328-0.036
		c-0.029,0-0.059-0.001-0.088,0.001c-0.099,0.007-0.122,0.028-0.126,0.123c-0.003,0.078-0.001,0.157-0.001,0.236
		c0,1.257,0,2.514,0,3.772c0,1.257,0,2.514,0,3.772c0,0.078,0.001,0.157,0.005,0.235c0.002,0.043,0.026,0.074,0.071,0.078
		c0.049,0.004,0.098,0.006,0.147,0.006c0.56,0,1.119,0,1.679,0c0.213,0,0.232,0.013,0.228-0.225c-0.001-0.049,0-0.098,0-0.147
		c0-0.678,0-1.355,0-2.033c0-0.078-0.001-0.157,0.008-0.235c0.002-0.021,0.034-0.052,0.056-0.055c0.057-0.01,0.117-0.01,0.176-0.01
		c0.373-0.003,0.746,0.002,1.119-0.008c0.314-0.008,0.627-0.033,0.934-0.11c0.723-0.18,1.242-0.603,1.529-1.298
		c0.316-0.766,0.337-1.553,0.09-2.333C17.676,45.562,17.144,45.012,16.329,44.766z M15.876,47.495
		c-0.043,0.341-0.216,0.577-0.557,0.678c-0.179,0.053-0.36,0.092-0.546,0.101c-0.205,0.01-0.41,0.009-0.616,0.008
		c-0.122-0.001-0.139-0.018-0.14-0.132c-0.002-0.274-0.001-0.548-0.001-0.822c0-0.274,0.001-0.548,0-0.822
		c0-0.067,0.019-0.12,0.094-0.12c0.361,0.004,0.724-0.03,1.08,0.06c0.038,0.01,0.077,0.015,0.114,0.026
		c0.349,0.103,0.536,0.342,0.574,0.699C15.889,47.279,15.89,47.389,15.876,47.495z"/>
	<path d="M83.041,44.595c-0.049-0.003-0.098-0.002-0.147-0.002c-0.638,0-1.275,0-1.913,0c-0.049,0-0.098,0.001-0.147,0.002
		c-0.056,0.001-0.092,0.035-0.113,0.08c-0.028,0.062-0.05,0.128-0.073,0.192c-0.254,0.709-0.516,1.416-0.76,2.129
		c-0.358,1.045-0.798,2.063-1.04,3.153c-0.074-0.062-0.083-0.14-0.102-0.216c-0.083-0.332-0.158-0.666-0.276-0.989
		c-0.405-1.113-0.802-2.229-1.202-3.343c-0.106-0.295-0.215-0.588-0.32-0.883c-0.03-0.084-0.078-0.131-0.172-0.124
		c-0.049,0.004-0.098,0-0.147,0c-0.618,0-1.236,0.002-1.854-0.001c-0.319-0.001-0.28,0.013-0.175,0.262
		c0.766,1.812,1.532,3.625,2.297,5.437c0.331,0.784,0.665,1.568,0.99,2.355c0.054,0.13,0.124,0.175,0.263,0.172
		c0.422-0.008,0.844-0.001,1.266-0.004c0.311-0.002,0.256,0.044,0.381-0.252c1.08-2.551,2.158-5.103,3.236-7.654
		c0.027-0.063,0.053-0.126,0.076-0.191C83.137,44.64,83.114,44.6,83.041,44.595z"/>
	<path d="M86.163,52.56c0-2.57,0-5.141,0-7.711c0-0.049-0.001-0.098-0.001-0.147c0-0.075-0.047-0.102-0.112-0.107
		c-0.049-0.004-0.098-0.002-0.147-0.002c-0.598,0-1.196,0-1.795,0c-0.049,0-0.098,0.001-0.147,0.004
		c-0.057,0.003-0.09,0.036-0.092,0.092c-0.003,0.078-0.002,0.157-0.002,0.235c0,1.256,0,2.511,0,3.767c0,1.266,0,2.531,0,3.797
		c0,0.078,0,0.157,0.003,0.235c0.002,0.056,0.034,0.088,0.092,0.089c0.02,0.001,0.039,0.002,0.059,0.002
		c0.657,0,1.314-0.001,1.971,0.001c0.146,0,0.175-0.028,0.17-0.167C86.162,52.619,86.163,52.589,86.163,52.56z"/>
</g>
</svg>
