<?xml version="1.0" encoding="utf-8"?>
<!-- Generator: Adobe Illustrator 27.0.0, SVG Export Plug-In . SVG Version: 6.00 Build 0)  -->
<svg version="1.1" id="Слой_1" xmlns="http://www.w3.org/2000/svg" xmlns:xlink="http://www.w3.org/1999/xlink" x="0px" y="0px"
	 width="102.047px" height="102.047px" viewBox="0 0 102.047 102.047" enable-background="new 0 0 102.047 102.047"
	 xml:space="preserve">
<g>
	<circle fill="#FCF6F2" cx="51.023" cy="51.023" r="51"/>
</g>
<g>
	<path fill="#BC7A40" d="M71.936,32.818c0.001-0.409-0.106-0.595-0.497-0.737c-6.661-2.409-13.317-4.832-19.971-7.259
		c-0.285-0.104-0.536-0.114-0.827-0.007c-6.687,2.44-13.377,4.874-20.071,7.296c-0.326,0.118-0.434,0.263-0.432,0.613
		c0.015,3.173,0.009,6.346,0.009,9.519c0,0.363-0.005,0.725,0.001,1.088c0.046,3.045-0.168,6.097,0.098,9.133
		c0.596,6.814,3.65,12.32,9.106,16.434c3.716,2.801,7.521,5.483,11.274,8.236c0.326,0.239,0.521,0.223,0.834-0.006
		c3.667-2.685,7.377-5.313,11.015-8.037c6.246-4.676,9.396-10.957,9.443-18.758C71.954,44.494,71.921,38.656,71.936,32.818z
		 M68.433,50.549c-0.068,6.489-2.714,11.732-7.892,15.643c-3.02,2.281-6.116,4.461-9.171,6.696c-0.24,0.176-0.387,0.202-0.647,0.011
		c-3.11-2.281-6.279-4.486-9.342-6.828c-5.087-3.888-7.653-9.093-7.747-15.497c-0.035-2.393-0.006-4.787-0.006-7.18
		c0-2.72,0.011-5.44-0.012-8.159c-0.004-0.421,0.137-0.576,0.515-0.713c5.524-1.995,11.042-4.006,16.558-6.021
		c0.255-0.093,0.473-0.086,0.724,0.006c5.516,2.014,11.033,4.026,16.556,6.022c0.363,0.131,0.485,0.289,0.484,0.681
		C68.439,40.322,68.487,45.436,68.433,50.549z"/>
	<path fill="#BC7A40" d="M58.862,42.603c-0.284-0.31-0.427-0.27-0.704,0.009c-2.975,2.996-5.969,5.973-8.942,8.971
		c-0.288,0.29-0.424,0.29-0.709-0.001c-1.534-1.566-3.096-3.105-4.639-4.663c-0.209-0.211-0.33-0.306-0.585-0.031
		c-0.616,0.663-1.274,1.289-1.914,1.93c-0.076,0.076-0.149,0.155-0.214,0.223c-0.006,0.152,0.109,0.2,0.179,0.27
		c2.42,2.424,4.846,4.841,7.258,7.272c0.231,0.232,0.345,0.191,0.551-0.017c3.851-3.862,7.708-7.72,11.573-11.568
		c0.231-0.23,0.198-0.343-0.014-0.547C60.076,43.85,59.449,43.245,58.862,42.603z"/>
</g>
</svg>
