<?xml version="1.0" encoding="utf-8"?>
<!-- Generator: Adobe Illustrator 27.0.0, SVG Export Plug-In . SVG Version: 6.00 Build 0)  -->
<svg version="1.1" id="Слой_1" xmlns="http://www.w3.org/2000/svg" xmlns:xlink="http://www.w3.org/1999/xlink" x="0px" y="0px"
	 width="276.907px" height="67.154px" viewBox="0 0 276.907 67.154" enable-background="new 0 0 276.907 67.154"
	 xml:space="preserve">
<g>
	<path fill="#FFFFFF" d="M43.5,26.731c0.001,0,0.002,0.001,0.004,0.001c0.469,1.185,0.624,2.442,0.853,3.683l0,0
		c0,0.002-0.001,0.005-0.001,0.007c0.001-0.001,0.002-0.002,0.003-0.003c0.603,1.796,0.876,3.665,1.23,5.516l0,0l0,0
		c0.025,0.073,0.047,0.147,0.07,0.22c0.34,1.066,0.552,2.165,0.794,3.255c0.095,0.075,0.109,0.176,0.091,0.287
		c0.173,0.779,0.443,1.538,0.499,2.341c0.055,0.498,0.406,0.854,0.619,1.276c0.191,0.379,0.411,0.744,0.508,1.163
		c1.343-0.147,2.692-0.044,4.037-0.109c0.11-0.285,0.271-0.534,0.503-0.735c0.907-1.132,0.805-2.589,1.242-3.871
		c0.039-0.114,0.076-0.229,0.114-0.344c0.066-0.451,0.139-0.901,0.275-1.336c0.029-0.092,0.059-0.184,0.095-0.275l0,0
		c0.14-0.917,0.312-1.827,0.504-2.734c0.037-0.173,0.074-0.346,0.112-0.518c0.153-0.7,0.317-1.399,0.484-2.097
		c0.465-1.939,0.808-3.906,1.359-5.825c0.003-0.001,0.006-0.001,0.009-0.002c0-0.01,0-0.019-0.001-0.029
		c0.037-0.835,0.421-1.598,0.5-2.425c-0.029-0.02-0.057-0.041-0.086-0.061c-0.145-0.103-0.29-0.205-0.435-0.308
		c-0.895-0.538-1.594-1.313-2.385-1.976c-0.72-0.603-1.401-1.253-2.09-1.891c-0.153-0.142-0.323-0.283-0.386-0.494
		c-0.008-0.028-0.015-0.058-0.02-0.089c-0.165-0.413-0.446-0.481-0.842-0.318c-0.159,0.065-0.352,0.046-0.529,0.066
		c-0.13,0.03-0.259,0.048-0.389,0.057c-0.108,0.007-0.215,0.008-0.323,0.001c-0.132-0.008-0.264-0.027-0.396-0.056
		c-0.16,0.009-0.32,0.026-0.473-0.014c-0.062-0.017-0.123-0.042-0.182-0.083c-0.202,0.076-0.307,0.261-0.452,0.401
		c-1.452,1.401-2.835,2.878-4.506,4.035c-0.016,0.015-0.032,0.031-0.048,0.046c-0.224,0.215-0.431,0.454-0.749,0.542
		c-0.063,0.03-0.105,0.064-0.134,0.101c-0.103,0.133-0.02,0.302,0.02,0.466c0.171,0.702,0.336,1.405,0.504,2.108
		c-0.001,0.008-0.001,0.016-0.002,0.024C43.497,26.735,43.498,26.733,43.5,26.731z M49.939,21.199
		c0.143-0.128,0.257-0.17,0.422-0.03c1.032,0.873,2.069,1.74,3.105,2.609c0.043,0.035,0.087,0.07,0.13,0.105
		c0.349,0.228,0.689,0.468,0.972,0.779c0.164,0.081,0.319,0.17,0.36,0.37c0.045,0.122,0.072,0.244,0.004,0.367
		c0.01,0.122,0.01,0.242-0.063,0.342c0.004,0.022-0.007,0.04-0.044,0.05c-0.319,1.404-0.644,2.806-0.952,4.212
		c-0.122,0.555-0.207,1.118-0.309,1.678l0,0l0,0c-0.42,2.571-0.967,5.117-1.531,7.66c-0.091,0.409-0.02,0.858-0.299,1.221
		c-0.659-0.173-1.329-0.06-1.994-0.086c-0.406-0.016-0.818,0.152-1.218-0.037c-0.002-0.001-0.003-0.002-0.005-0.003
		c-0.032-0.018-0.062-0.037-0.092-0.058c0.01,0.026,0.021,0.05,0.031,0.074c-0.022-0.007-0.033-0.029-0.031-0.074
		c-0.071-2.1-0.692-4.104-1.066-6.151c-0.07-0.381-0.137-0.762-0.206-1.143c-0.105-0.122-0.11-0.265-0.089-0.414
		c-0.599-2.461-1.152-4.932-1.626-7.42c-0.043-0.228-0.01-0.373,0.183-0.525c1.059-0.833,2.106-1.681,3.158-2.524l0,0
		C49.166,21.867,49.558,21.539,49.939,21.199z"/>
	<path fill="#FFFFFF" d="M67.751,41.174c0.159,0.207,0.317,0.414,0.476,0.621c0.738,0.254,1.146,0.119,1.74-0.581
		c0.011-0.013,0.022-0.025,0.033-0.039l0,0c0.068-0.642-0.071-1.177-0.713-1.452c-0.017-0.007-0.032-0.015-0.05-0.022
		c-0.538-0.062-0.959,0.178-1.342,0.517c-0.017,0.029-0.031,0.058-0.046,0.087c-0.134,0.274-0.168,0.562-0.099,0.866h-0.001
		C67.75,41.173,67.75,41.173,67.751,41.174z"/>
	<path fill="#FFFFFF" d="M30.509,42.292c-0.006,0.004-0.011,0.009-0.017,0.013c-0.093-0.056-0.096-0.237-0.236-0.202
		c-0.132,0.033-0.069,0.172-0.065,0.261c0.019,0.367,0.116,0.711,0.343,1.008c-0.002,0.004-0.002,0.008-0.004,0.013
		c0.003,0,0.007,0,0.01,0c0-0.001,0-0.002,0-0.003c0.001,0.001,0.002,0.001,0.003,0.002c0.169,0.114,0.338,0.228,0.507,0.342v-0.001
		l0,0l0,0l0,0l0,0c0.069,0.019,0.139,0.038,0.208,0.057c0.006,0.002,0.011,0.003,0.017,0.005c0.244-0.007,0.493,0.014,0.732-0.026
		c0.521-0.088,0.775-0.469,0.62-0.885c-0.031,0.014-0.062,0.023-0.094,0.035c-0.346,0.129-0.685,0.139-1.02,0.046
		c-0.136-0.038-0.271-0.09-0.405-0.16l0,0c-0.271-0.069-0.483-0.211-0.594-0.478l0,0l0,0C30.512,42.308,30.511,42.3,30.509,42.292z"
		/>
	<path fill="#FFFFFF" d="M33.372,15.439c2.202-1.271,4.369-2.602,6.634-3.761c2.169-1.226,4.338-2.451,6.507-3.677
		c0.624-0.452,1.316-0.783,2-1.128c0.049-0.116,0.154-0.105,0.252-0.111c0.094-0.13,0.221-0.204,0.377-0.232
		c0.011-0.017,0.018-0.039,0.033-0.05c1.055-0.755,1.055-0.754,2.565,0.293c0.403,0.15,0.764,0.372,1.102,0.635
		c0.234,0.085,0.469,0.167,0.647,0.354c0.094,0.003,0.178,0.025,0.223,0.12c1.686,0.942,3.372,1.885,5.059,2.827
		c0.182,0.102,0.367,0.197,0.552,0.294c0.013,0.007,0.027,0.014,0.04,0.021l0,0c0.12,0.07,0.241,0.14,0.361,0.209l0,0
		c0.14,0.137,0.301,0.234,0.496,0.27c0.175,0.179,0.384,0.299,0.629,0.355c2.235,1.385,4.558,2.624,6.752,4.075
		c0.174,0.115,0.353,0.07,0.527,0.111c0.104-0.008,0.209-0.016,0.313-0.024c1.23-0.094,2.464-0.188,3.743-0.286
		c-0.31-0.413-0.843-0.446-1.187-0.753c-0.014-0.013-0.029-0.025-0.042-0.039c-0.452-0.287-0.905-0.574-1.357-0.861
		c-0.005-0.001-0.009-0.003-0.014-0.005c-0.215-0.065-0.41-0.165-0.579-0.314c-0.011-0.009-0.022-0.017-0.033-0.027l0,0
		c-0.109-0.016-0.21-0.044-0.273-0.146c-0.025-0.014-0.051-0.028-0.076-0.042c-1.188-0.652-2.376-1.305-3.565-1.955
		c-0.082-0.045-0.173-0.075-0.261-0.11c-0.006-0.002-0.012-0.004-0.018-0.007c-0.367-0.236-0.735-0.472-1.102-0.708l0,0
		c-2.302-1.298-4.604-2.594-6.902-3.897c-0.022-0.012-0.038-0.033-0.053-0.056c-0.028-0.043-0.05-0.098-0.078-0.142
		c-0.302-0.012-0.501-0.236-0.746-0.365c-0.011-0.006-0.022-0.011-0.032-0.017c-0.843-0.44-1.688-0.878-2.481-1.407
		c-0.02-0.013-0.04-0.026-0.059-0.039c-0.817-0.496-1.707-0.866-2.473-1.449c-0.054-0.022-0.105-0.048-0.154-0.076
		c-0.049-0.029-0.095-0.061-0.136-0.1c-0.03-0.028-0.057-0.06-0.082-0.095c-0.099-0.031-0.188-0.036-0.27-0.023
		c-0.331,0.054-0.552,0.401-0.877,0.473c-0.02,0.005-0.041,0.009-0.062,0.011c-1.192,0.691-2.384,1.382-3.576,2.073
		c-0.068,0.036-0.137,0.071-0.205,0.107c-0.924,0.481-1.846,0.967-2.727,1.526c-0.01,0.013-0.02,0.026-0.031,0.038
		c-0.054,0.062-0.116,0.105-0.203,0.083c-0.012-0.003-0.025-0.007-0.039-0.012c-0.849,0.469-1.637,1.053-2.563,1.379
		c-0.001-0.001-0.002-0.002-0.003-0.003c-0.001,0.001-0.003,0.003-0.004,0.004c-0.001,0.001-0.003,0.003-0.003,0.003V8.782
		c-0.001-0.003-0.002-0.006-0.003-0.009c-0.003-0.001-0.006-0.001-0.009-0.002c0.003,0.004,0.006,0.009,0.009,0.014
		c-0.435,0.376-0.91,0.681-1.467,0.846c-0.026,0.043-0.056,0.082-0.087,0.119c-0.238,0.279-0.601,0.379-0.906,0.551
		c-1.636,0.921-3.281,1.824-4.931,2.721c-0.855,0.465-1.722,0.906-2.585,1.355c-0.044,0.023-0.088,0.046-0.132,0.069
		c0,0,0,0,0-0.001c-0.032,0.031-0.066,0.059-0.099,0.088c-0.441,0.382-1.01,0.562-1.479,0.901c-0.161,0.117-0.329,0.224-0.494,0.336
		c1.384,0.054,2.769,0.108,4.153,0.163C32.512,16.162,32.901,15.678,33.372,15.439z"/>
	<path fill="#FFFFFF" d="M26.303,41.276c0.278,0.161,0.562,0.227,0.874,0.132c0.128-0.129,0.257-0.257,0.385-0.386
		c0.089-0.113,0.178-0.226,0.266-0.34c0.321-0.439,0.763-0.727,1.228-0.986c0.071-0.23-0.173-0.232-0.255-0.351
		c-0.203-0.09-0.406-0.181-0.61-0.271c-0.103,0.012-0.192-0.011-0.256-0.099c-0.228-0.025-0.44-0.089-0.612-0.249
		c-1.485-0.536-2.971-1.073-4.456-1.609c-0.138,0.005-0.268-0.014-0.369-0.123c-0.387-0.084-0.768-0.188-1.125-0.365
		c0.089,0.009,0.13-0.011,0.147-0.044c-0.041,0.018-0.09,0.032-0.147,0.044c-1.381-0.36-2.702-0.885-4.004-1.461
		c-0.011-0.005-0.022-0.009-0.032-0.014c-0.544-0.189-1.088-0.378-1.632-0.566c-0.033-0.011-0.066-0.023-0.098-0.034
		c-0.134-0.017-0.293,0.03-0.364-0.145c-0.063-0.008-0.125-0.02-0.187-0.032c-0.642-0.118-1.255-0.375-1.915-0.4
		c-0.265-0.01-0.534-0.024-0.797,0.002c-0.266,0.026-0.13,0.179-0.061,0.297c0.056,0.034,0.111,0.067,0.167,0.101l0,0
		c0.908,0.247,1.761,0.616,2.553,1.126c0.521,0.233,1.039,0.472,1.493,0.827c0.29,0.174,0.579,0.348,0.869,0.522
		c1.203,0.65,2.405,1.3,3.609,1.947c0.115,0.062,0.205,0.132,0.218,0.27c0.209-0.018,0.363,0.073,0.48,0.24
		c0.525,0.003,0.979,0.251,1.441,0.447C24.197,40.216,25.281,40.683,26.303,41.276z"/>
	<path fill="#FFFFFF" d="M14.255,19.472c0.185-0.137,0.395-0.207,0.619-0.244c0.034-0.02,0.065-0.043,0.097-0.065
		c0.215-0.145,0.388-0.332,0.516-0.563c0.005-0.169,0.037-0.33,0.137-0.472c0-0.001,0.001-0.001,0.001-0.002
		c-0.039-0.16,0.094-0.364-0.124-0.477c-0.059,0.007-0.118,0.012-0.177,0.018c-0.999,0.104-2.004,0.079-3.006,0.083
		c-3.122,0.012-6.244,0.002-9.365,0.001c-0.052,0-0.103,0-0.155,0l0,0c-0.002,0.085-0.003,0.169-0.005,0.254
		c0.024,0.02,0.048,0.04,0.072,0.061c0.114,0.096,0.229,0.192,0.343,0.287c0.021,0.004,0.041,0.007,0.062,0.011
		c0.433,0.078,0.867,0.155,1.3,0.233l0,0l0,0C6.033,18.82,7.514,18.91,8.967,19.2c0.076,0.015,0.152,0.028,0.227,0.045
		c0.004,0.001,0.009,0.002,0.013,0.003l0,0c0.07,0.008,0.139,0.016,0.209,0.024c0.671,0.076,1.341,0.151,2.012,0.227
		C12.371,19.503,13.314,19.586,14.255,19.472z"/>
	<path fill="#FFFFFF" d="M96.321,17.742c-0.328-0.004-0.655-0.016-0.983-0.016c-3.606,0.006-7.212,0.014-10.818,0.021
		c-0.175,0.092-0.087,0.238-0.078,0.369c0.069,0.124,0.138,0.247,0.207,0.371c0.248,0.243,0.496,0.485,0.745,0.728
		c0.219,0.062,0.395,0.194,0.564,0.336c0.019,0.016,0.038,0.033,0.058,0.049c0.077,0.008,0.155,0.016,0.232,0.025
		c0.004,0.003,0.008,0.005,0.011,0.008c-0.001-0.003-0.001-0.006-0.002-0.008c0.532-0.003,1.064-0.006,1.596-0.009
		c0.164-0.027,0.328-0.051,0.492-0.073c0.765-0.104,1.535-0.161,2.307-0.198l0,0c1.593-0.246,3.186-0.492,4.78-0.738l0,0l0,0
		c0.324-0.204,0.778-0.129,1.032-0.488C96.605,17.917,96.695,17.747,96.321,17.742z"/>
	<path fill="#FFFFFF" d="M82.086,19.384c0.633-0.028,0.82-0.509,0.974-1.011c-0.024-0.313-0.173-0.555-0.373-0.769
		c-0.041-0.044-0.084-0.087-0.129-0.129c-0.488-0.316-0.92-0.23-1.307,0.181c-0.027,0.022-0.054,0.044-0.081,0.066
		c-0.068,0.055-0.137,0.11-0.205,0.165c-0.001,0.029-0.002,0.058-0.003,0.087c-0.006,0.215-0.013,0.431-0.019,0.646
		C81.113,19.19,81.527,19.409,82.086,19.384z"/>
	<path fill="#FFFFFF" d="M19.222,22.822c-0.142,0.131-0.319,0.124-0.494,0.125c-0.814,0.26-1.563,0.14-2.243-0.383
		c-0.425-0.235-0.737-0.561-0.868-1.036c-0.004-0.014-0.009-0.027-0.013-0.041c-0.133-0.033-0.333-0.119-0.338,0.091
		c-0.019,0.693-0.235,1.418,0.246,2.053c0.068,0.041,0.134,0.083,0.2,0.127c0.437,0.29,0.829,0.635,1.192,1.015
		c0.029,0.031,0.059,0.061,0.088,0.092c0.179,0.144,0.375,0.185,0.61,0.183c0.626-0.005,1.226-0.17,1.839-0.252
		c0.004-0.002,0.008-0.005,0.012-0.007c0.111-0.066,0.219-0.14,0.36-0.119c0.392-0.248,0.779-0.502,1.176-0.741
		c0.51-0.307,0.789,0.201,1.171,0.347c0.798,0.289,1.61,0.545,2.345,0.984c0.484,0.134,0.928,0.358,1.36,0.609
		c0.235,0.015,0.439,0.106,0.617,0.258h-0.001c1.73,0.546,3.254,1.544,4.916,2.239l0,0c0.242-0.1,0.293,0.237,0.499,0.219
		c0.334,0.034,0.618,0.186,0.887,0.376c0.183,0.026,0.345,0.098,0.48,0.226c0.324,0.056,0.608,0.198,0.868,0.395l0,0l0,0
		c1.377,0.557,2.732,1.163,4.057,1.836c0.191,0.024,0.356,0.102,0.496,0.233c0.213,0.047,0.422,0.102,0.568,0.283
		c0.207,0.231,0.545,0.176,0.777,0.354c0.524,0.156,1.028,0.36,1.513,0.611c0.435,0.224,0.924,0.336,1.325,0.632
		c0.381,0.064,0.16-0.227,0.211-0.357c-0.114-0.148-0.103-0.324-0.115-0.496c-0.156-0.537-0.312-1.073-0.468-1.61
		c-0.339-0.943-0.559-1.917-0.731-2.901c-0.056-0.317-0.134-0.499-0.505-0.561c-0.55-0.092-1.083-0.283-1.623-0.432
		c-0.456-0.121-0.926-0.195-1.352-0.413c-0.946-0.234-1.891-0.469-2.837-0.703c-1.157-0.303-2.329-0.555-3.443-1.004
		c-0.309-0.03-0.6-0.121-0.876-0.261c-0.737-0.192-1.475-0.385-2.212-0.578c-2.237-0.531-4.396-1.344-6.644-1.835
		c-0.503-0.11-0.785-0.571-1.224-0.786C20.666,22.341,19.994,22.656,19.222,22.822L19.222,22.822z"/>
	<path fill="#FFFFFF" d="M19.032,19.26c0.536-0.22,0.736-0.677,0.646-1.253c-0.037-0.087-0.074-0.175-0.11-0.262
		c-0.203-0.247-0.427-0.469-0.724-0.602c-0.007-0.003-0.013-0.007-0.02-0.01c-0.383-0.037-0.7,0.085-0.936,0.396
		c-0.002,0-0.005,0-0.007,0.001c0.001,0.002,0.001,0.004,0.002,0.007c-0.093,0.123-0.185,0.246-0.278,0.369
		c-0.022,0.056-0.038,0.111-0.052,0.166c-0.088,0.358-0.011,0.705,0.135,1.047C18.092,19.562,18.584,19.444,19.032,19.26z"/>
	<path fill="#FFFFFF" d="M17.957,21.596c0.161-0.009,0.323-0.018,0.484-0.027l0,0c0.191-0.138,0.409-0.132,0.628-0.118
		c0.244-0.098,0.513-0.159,0.726-0.303c0.332-0.225,0.594-0.516,0.264-0.946c-0.227,0.13-0.452,0.264-0.724,0.278l0,0l0,0
		c-0.607,0.231-1.217,0.177-1.827,0.055c-0.058-0.012-0.116-0.024-0.174-0.036l0,0c-0.327,0.036-0.682-0.225-0.981,0.095
		c0.019,0.068,0.042,0.129,0.067,0.187C16.699,21.425,17.353,21.471,17.957,21.596z"/>
	<path fill="#FFFFFF" d="M87.401,33.427c-0.041-0.014-0.094-0.025-0.167-0.032c-0.815,0.348-1.707,0.401-2.543,0.688
		c-1.876,0.646-3.684,1.476-5.594,2.027c-0.034,0.018-0.068,0.034-0.102,0.05c-0.223,0.11-0.453,0.196-0.704,0.226l0,0
		c-0.418,0.164-0.836,0.327-1.255,0.491c-1.821,0.763-3.643,1.527-5.464,2.29c-0.124,0.109-0.34,0.164-0.24,0.405
		c0.427,0.426,0.95,0.76,1.258,1.302c0.157,0.191,0.314,0.382,0.471,0.573c0.293,0.025,0.566-0.05,0.831-0.163
		c0.13-0.084,0.26-0.169,0.391-0.253l0,0c0.854-0.552,1.784-0.949,2.72-1.336c1.227-0.549,2.395-1.21,3.576-1.848
		c0.462-0.339,0.957-0.62,1.479-0.854c0.166-0.084,0.332-0.169,0.499-0.253c0.478-0.306,0.945-0.632,1.476-0.847
		c0.689-0.587,1.574-0.797,2.351-1.213c0.035-0.019,0.07-0.037,0.104-0.057c0.029-0.106,0.107-0.11,0.187-0.111
		c0.016,0,0.032,0,0.047-0.001c0.124-0.096,0.248-0.192,0.372-0.288c0.003-0.004,0.006-0.007,0.009-0.011
		c0.085-0.103,0.171-0.206,0.256-0.309C87.327,33.756,87.661,33.519,87.401,33.427z"/>
	<path fill="#FFFFFF" d="M74.291,23.434c-0.041,0.011-0.082,0.023-0.123,0.034c-0.823,0.229-1.646,0.458-2.469,0.687
		c-0.342,0.149-0.686,0.29-1.07,0.277c-0.336,0.226-0.729,0.276-1.11,0.364c-0.015,0.007-0.03,0.013-0.046,0.019
		c-0.512,0.214-1.042,0.369-1.592,0.453c-0.001,0-0.002,0-0.003,0.001c-0.135,0.045-0.268,0.099-0.406,0.134
		c-2.756,0.706-5.51,1.418-8.27,2.108c-0.436,0.109-0.657,0.296-0.683,0.767c-0.023,0.418-0.064,0.858-0.39,1.189
		c-0.001,0.015-0.004,0.029-0.005,0.044c-0.126,1.299-0.491,2.543-0.878,3.781c0.048,0.038,0.097,0.075,0.145,0.113
		c1.397-0.575,2.793-1.15,4.19-1.724c0.027-0.02,0.054-0.032,0.082-0.039c1.121-0.531,2.19-1.177,3.384-1.547
		c1.19-0.539,2.38-1.079,3.57-1.618c0.073-0.057,0.145-0.114,0.218-0.17c0.014-0.011,0.029-0.022,0.043-0.033
		c0.202-0.099,0.403-0.197,0.605-0.296c0.087,0.028,0.163,0.009,0.235-0.024c0.108-0.049,0.209-0.127,0.33-0.121
		c0.003,0.013,0.007,0.024,0.01,0.036c0.003-0.012,0.005-0.023,0.008-0.036l0.001,0.001l0,0c0,0,0.001,0,0.001-0.001
		c0.137-0.118,0.295-0.19,0.471-0.22c0.016-0.003,0.031-0.007,0.047-0.009c0.003-0.009,0.006-0.017,0.009-0.026
		c0.008-0.024,0.016-0.047,0.025-0.071c0.252-0.165,0.54-0.221,0.83-0.271c0.042-0.046,0.083-0.093,0.125-0.139
		c0.148-0.039,0.296-0.078,0.444-0.117c0.005-0.014,0.012-0.028,0.018-0.042c0.01-0.021,0.022-0.041,0.035-0.06
		c0.08-0.006,0.159-0.011,0.239-0.017l0,0c0.004-0.033,0.007-0.065,0.01-0.098c0.086-0.019,0.18-0.024,0.264-0.048
		c0.031-0.009,0.061-0.02,0.088-0.035c0.058-0.033,0.106-0.085,0.135-0.173c0.081-0.005,0.161-0.011,0.242-0.016l0,0
		c0.455-0.246,0.91-0.492,1.364-0.738c0.213,0.02,0.366-0.099,0.519-0.221c1.308-0.524,2.621-1.036,3.921-1.58
		c0.312-0.131,0.486-0.106,0.731,0.148c0.532,0.549,1.295,0.67,1.977,0.939c0.455,0.002,0.91,0.003,1.365,0.005
		c0.037,0,0.075,0,0.112,0c0.121-0.03,0.178-0.197,0.332-0.155c0.014-0.01,0.028-0.02,0.042-0.03
		c0.852-0.596,1.476-1.328,1.485-2.426c0-0.038,0.002-0.076,0.001-0.115c-0.003-0.124-0.006-0.248-0.009-0.371
		c-0.024-0.051-0.041-0.109-0.058-0.167c-0.038-0.125-0.082-0.246-0.228-0.269c-0.282-0.045-0.145,0.287-0.29,0.384
		c-0.083,0.056-0.154,0.129-0.231,0.195l0,0c-0.495,0.859-1.383,0.888-2.207,1.007c-0.26,0.037-0.574,0.023-0.823-0.157
		c-0.108,0.008-0.192-0.033-0.253-0.121c-0.491-0.166-0.873-0.485-1.214-0.863c-0.042-0.039-0.083-0.078-0.125-0.117
		c-1.372,0.436-2.723,0.939-4.123,1.288C74.988,23.216,74.641,23.331,74.291,23.434z"/>
	<path fill="#FFFFFF" d="M22.359,19.095c0.407,0.402,0.846,0.771,1.271,1.155c0.137,0.005,0.193,0.108,0.251,0.209
		c0.123,0.081,0.246,0.162,0.37,0.244c0.594,0.221,1.204,0.327,1.838,0.241c0.971-0.287,1.967-0.449,2.969-0.577
		c1.288-0.265,2.586-0.459,3.901-0.532c0.255-0.109,0.515-0.17,0.79-0.08l0,0l0,0c0.704-0.285,1.458-0.317,2.196-0.426
		c1.112-0.164,2.228-0.297,3.343-0.442c0.574-0.087,1.149-0.173,1.723-0.26c0.087-0.091,0.267-0.125,0.229-0.289
		c-0.012-0.051-0.151-0.072-0.232-0.107c-0.436,0.004-0.876,0.055-1.3-0.096c-0.045-0.001-0.09-0.002-0.135-0.003
		c-0.301-0.006-0.601-0.012-0.902-0.019c-0.042-0.001-0.083-0.001-0.125-0.002c-0.91,0.007-1.82,0.003-2.729-0.016
		c-1.352-0.027-2.703-0.087-4.052-0.195c0-0.001,0.001-0.001,0.001-0.002c-0.011,0-0.021,0-0.032,0
		c-0.153-0.006-0.307-0.012-0.46-0.017c-0.028-0.028-0.057-0.05-0.087-0.069c0.003,0.021,0.006,0.045,0.009,0.07
		c-0.22,0.005-0.439,0.015-0.658,0.007c-3.115-0.102-6.233,0.079-9.347-0.092c0.008,0.02,0.019,0.037,0.027,0.056
		C21.458,18.393,21.959,18.701,22.359,19.095z"/>
	<path fill="#FFFFFF" d="M62.088,18.235c-0.838,0.009-1.677,0.017-2.515,0.026c-0.024,0-0.049,0.001-0.073,0.001
		c-0.035,0.018-0.07,0.036-0.105,0.054c-0.001,0-0.002,0.001-0.002,0.001c0.064,0.027,0.129,0.05,0.194,0.075
		c0.884,0.339,1.817,0.466,2.747,0.61c1.288,0.154,2.575,0.308,3.863,0.462l0,0c0.627,0.051,1.26,0.072,1.857,0.291
		c0.068,0.025,0.136,0.051,0.204,0.082c0.107-0.01,0.212-0.012,0.317-0.007c0.174,0.008,0.345,0.035,0.513,0.08
		c0.091,0.024,0.181,0.053,0.27,0.087c1.277,0.318,2.554,0.635,3.83,0.953c0.012,0,0.025,0.002,0.037,0.002
		c0.633,0.025,1.254,0.194,1.895,0.123c0.618-0.068,1.187-0.234,1.638-0.69c0.077-0.064,0.154-0.128,0.232-0.191
		c0.554-0.498,1.106-0.998,1.663-1.492c0.28-0.248,0.556-0.495,0.663-0.871c0.002-0.007,0.005-0.013,0.007-0.02l0,0
		c-0.009-0.004-0.017-0.007-0.026-0.011c-0.002-0.001-0.005-0.002-0.007-0.003c-0.343-0.15-0.706,0.038-1.053-0.052
		c-0.099,0.003-0.198,0.006-0.298,0.01c-0.515,0.017-1.03,0.033-1.544,0.05c-2.948,0.096-5.895,0.193-8.843,0.284
		C65.731,18.144,63.909,18.187,62.088,18.235z"/>
	<path fill="#FFFFFF" d="M24.756,28.542c-0.008-0.016-0.017-0.032-0.027-0.047c-0.001,0-0.001,0-0.002,0
		c-0.199-0.018-0.348-0.135-0.495-0.255l0,0c-0.598-0.168-1.034-0.624-1.578-0.894c-0.368-0.182-0.36,0.015-0.362,0.264
		c0.021,0.167,0.037,0.333,0.053,0.5c0.12,1.262,0.097,2.523-0.004,3.784c-0.024,0.299-0.051,0.598-0.082,0.898
		c-0.001,0.042-0.001,0.084-0.002,0.126c0.007,0.188,0.015,0.376,0.022,0.563c0.003,0.076,0.006,0.151,0.009,0.227
		c0.001,0.02,0.002,0.041,0.002,0.061c0.045,0.03,0.089,0.059,0.134,0.088c0.667,0.438,1.347,0.851,2.146,0.999
		c0.055,0.01,0.111,0.019,0.168,0.027c0.032-1.773,0.132-3.547,0.051-5.321C24.773,29.224,24.929,28.872,24.756,28.542z"/>
	<path fill="#FFFFFF" d="M42.192,35.775c-1.04,0.587-2.033,1.154-3.098,1.574c-0.017,0.007-0.033,0.014-0.05,0.021
		c-1.469,0.918-3.126,1.491-4.553,2.485c-0.003,0.002-0.006,0.005-0.009,0.007c-0.34,0.254-0.224,0.487,0.06,0.683
		c0.114,0.079,0.245,0.127,0.305,0.264c0.248,0.152,0.475,0.326,0.631,0.578c0.16,0.114,0.249-0.017,0.353-0.1
		c0.279-0.368,0.665-0.581,1.087-0.741c0.902-0.479,1.878-0.778,2.827-1.142c0.589-0.226,1.172-0.467,1.758-0.701
		c0.267-0.171,0.552-0.3,0.866-0.36c0.12-0.203,0.522-0.132,0.603-0.373c0.02-0.059,0.021-0.136-0.007-0.241l0,0
		C42.489,37.179,42.295,36.509,42.192,35.775z"/>
	<path fill="#FFFFFF" d="M78.112,41.402c-0.67,0.289-1.284,0.728-2.044,0.783c-0.199,0.106-0.184,0.285-0.183,0.475
		c0.007,1.129-0.043,2.261,0.023,3.386c0.036,0.62-0.152,0.96-0.731,1.119c-0.136,0.037-0.264,0.106-0.395,0.16l0,0l0,0
		c-2.288,1.324-4.576,2.648-6.865,3.972c-0.184,0.177-0.398,0.301-0.64,0.382c-0.04,0.093-0.12,0.115-0.211,0.119
		c-3.634,2.12-7.267,4.24-10.901,6.36c-0.178,0.141-0.355,0.286-0.601,0.282c-0.127,0.254-0.358,0.335-0.616,0.37
		c-0.354,0.345-0.795,0.555-1.228,0.776l0,0l0,0c-0.141,0.151-0.314,0.249-0.512,0.305c-0.159,0.089-0.318,0.178-0.477,0.268l0,0
		c-0.101,0.123-0.228,0.204-0.382,0.242c-0.096,0.125-0.221,0.206-0.373,0.245c-0.475,0.382-1.071,0.577-1.523,0.998
		c-0.211,0.196-0.372-0.037-0.535-0.126c-0.194-0.105-0.371-0.241-0.556-0.364c-0.261-0.087-0.499-0.217-0.709-0.396
		c-0.232-0.073-0.444-0.183-0.616-0.359c-1.462-0.707-2.836-1.566-4.205-2.432c-0.105-0.013-0.197-0.048-0.252-0.146
		c-0.608-0.261-1.16-0.619-1.716-0.972c-1.334-0.629-2.532-1.491-3.807-2.221c-0.477-0.273-0.94-0.571-1.41-0.857
		c-1.494-0.813-2.963-1.668-4.407-2.568c-0.523-0.261-1.039-0.533-1.505-0.89c-0.579-0.171-1.007-0.601-1.517-0.89
		c-1.425-0.807-2.844-1.626-4.265-2.441c-0.242-0.173-0.082-0.414-0.087-0.616c-0.024-1.081-0.042-2.163-0.018-3.243
		c0.009-0.389-0.071-0.58-0.483-0.662c-0.302-0.06-0.576-0.262-0.863-0.402c-0.001,0-0.001-0.001-0.002-0.001l0,0
		c-0.25-0.158-0.499-0.316-0.749-0.473c-0.027-0.006-0.055-0.018-0.084-0.031c-0.154-0.07-0.31-0.185-0.305,0.213
		c0.025,2.145,0.017,4.29,0.021,6.435c0.926,0.441,1.704,1.111,2.563,1.656c0.026,0.016,0.051,0.033,0.076,0.049
		c0.13,0.056,0.265,0.103,0.39,0.17c2.665,1.443,5.244,3.034,7.857,4.567c0.856,0.502,1.746,0.956,2.535,1.568
		c0.051,0.039,0.102,0.077,0.152,0.118c0.168-0.078,0.268,0.062,0.383,0.13c1.637,0.968,3.28,1.929,4.904,2.919
		c1.324,0.807,2.781,1.399,3.958,2.443c0,0.011,0.001,0.022,0,0.033c0.007-0.005,0.014-0.009,0.02-0.014l0,0l0,0l0,0l0,0l0,0l0,0
		c0.14,0.007,0.256,0.063,0.348,0.168c0.535,0.288,1.069,0.575,1.604,0.863c0.213-0.026,0.369,0.062,0.48,0.239
		c0.168,0.087,0.335,0.174,0.503,0.261l0,0l0,0c0.596,0.168,1.09,0.54,1.625,0.827c0.332,0.179,0.577,0.163,0.895-0.029
		c0.91-0.55,1.842-1.061,2.765-1.588c0.789-0.514,1.615-0.963,2.466-1.366c0.046-0.026,0.093-0.052,0.139-0.078
		c0.565-0.332,1.13-0.664,1.696-0.996c0.649-0.511,1.372-0.896,2.114-1.249c1.092-0.687,2.195-1.357,3.347-1.942
		c0.621-0.428,1.257-0.83,1.969-1.095c0.987-0.731,2.08-1.285,3.144-1.888l0,0c0.159-0.154,0.334-0.281,0.552-0.339
		c1.931-1.218,3.927-2.324,5.905-3.462c0.123-0.103,0.25-0.198,0.406-0.24c0.023-0.006,0.047-0.011,0.072-0.015
		c0.422-0.312,0.881-0.555,1.382-0.715c0.005-0.004,0.011-0.008,0.016-0.012c0.483-0.37,1.022-0.636,1.588-0.853
		c0.019-0.031,0.045-0.04,0.079-0.026c0-0.027,0-0.054,0-0.08c0.006-1.509,0.01-3.018,0.019-4.528
		c0.002-0.348,0.021-0.695,0.032-1.043c-0.008-0.409-0.016-0.819-0.025-1.228C78.266,41.418,78.189,41.41,78.112,41.402z"/>
	<path fill="#FFFFFF" d="M31.375,41.661c0.56,0.221,0.893,0.066,1.281-0.617c0.023-0.041,0.047-0.083,0.07-0.128
		c0.065-0.253-0.016-0.486-0.103-0.717c-0.015-0.013-0.029-0.026-0.044-0.039c-0.188-0.169-0.378-0.335-0.599-0.426
		c-0.171-0.07-0.36-0.096-0.583-0.043c-0.193,0.129-0.385,0.258-0.578,0.387c-0.026,0.054-0.048,0.107-0.068,0.16
		C30.515,40.867,30.748,41.414,31.375,41.661z"/>
	<path fill="#FFFFFF" d="M78.239,27.26c-0.024,0.015-0.048,0.03-0.072,0.045c-0.367,0.229-0.75,0.425-1.165,0.554
		c-0.095,0.017-0.183,0.052-0.269,0.092c-0.192,0.088-0.377,0.2-0.621,0.193c-0.037-0.001-0.069,0.007-0.099,0.019
		c-0.162,0.065-0.215,0.303-0.21,0.536c0.012,0.599-0.001,1.199-0.012,1.798c-0.003,0.17-0.006,0.34-0.008,0.51
		c0,0.001,0,0.001,0,0.002c0-0.001,0-0.001,0-0.002c0.11,1.066,0.153,2.133,0.001,3.2c0.033,0.216-0.028,0.509,0.356,0.44
		c0.458-0.344,0.933-0.658,1.484-0.838c0.23-0.202,0.682-0.086,0.751-0.518c0-0.002,0.001-0.004,0.002-0.007
		c-0.007-1.826-0.01-3.653-0.027-5.479C78.348,27.626,78.498,27.395,78.239,27.26z"/>
	<path fill="#FFFFFF" d="M80.264,21.037c0.381,0.41,0.909,0.53,1.422,0.679c0.011,0,0.022-0.001,0.034-0.001
		c0.192-0.006,0.385-0.011,0.577-0.017c0.022-0.009,0.045-0.018,0.067-0.027c0.383-0.155,0.767-0.306,1.113-0.536
		c0.021-0.014,0.042-0.027,0.063-0.041c0.041-0.042,0.081-0.084,0.122-0.126c-0.001-0.035-0.003-0.069-0.004-0.104
		c-0.006-0.128-0.011-0.257-0.017-0.385c-0.001-0.029-0.003-0.058-0.004-0.087l0,0l0,0c-1.12,0.311-2.237,0.553-3.306-0.165
		c-0.056,0.017-0.1,0.036-0.137,0.056c-0.317,0.171,0.008,0.455,0.007,0.682C80.221,20.989,80.243,21.013,80.264,21.037z"/>
	<path fill="#FFFFFF" d="M33.644,43.365c0.166,0.247,0.331,0.493,0.497,0.74c0.455,0.407,0.663,0.973,0.933,1.494
		c0.308,0.596,0.722,1.065,1.273,1.457c1.272,0.903,2.689,1.535,4.064,2.247c1.329,0.491,2.578,1.148,3.814,1.832
		c0.827,0.26,1.507,0.811,2.29,1.152c0.196,0.085,0.401,0.415,0.673,0.103c-0.051-0.067-0.102-0.134-0.153-0.2
		c-0.209-0.176-0.419-0.352-0.628-0.528c-1.629-1.083-3.042-2.433-4.552-3.664c-1.379-1.03-2.757-2.06-4.136-3.09
		c-0.013-0.01-0.026-0.019-0.039-0.029c-0.212-0.163-0.425-0.327-0.637-0.49c-0.016-0.01-0.032-0.021-0.048-0.031
		c-0.376-0.241-0.745-0.496-1.133-0.715c-0.448-0.252-0.832-0.633-1.306-0.833c-0.187-0.079-0.387-0.13-0.611-0.134
		c-0.151,0.045-0.302,0.074-0.451-0.008c-0.113,0.005-0.177,0.023-0.209,0.052c-0.076,0.066,0.026,0.185,0.106,0.298
		C33.549,43.078,33.62,43.204,33.644,43.365z"/>
	<path fill="#FFFFFF" d="M29.403,43.772c-0.289-0.332-0.376-0.728-0.375-1.152c0-0.013-0.001-0.026,0-0.039
		c-0.356-0.089-0.652,0.033-0.694,0.392c-0.093,0.795-0.142,1.6,0.575,2.199c0.233,0.195,0.44,0.421,0.659,0.633
		c0.01,0.008,0.02,0.016,0.029,0.023c0.165,0.132,0.334,0.26,0.493,0.399c0.506,0.441,1.047,0.79,1.76,0.724
		c0.034-0.018,0.068-0.037,0.102-0.055c0.357-0.195,0.705-0.403,0.939-0.756c0.073-0.032,0.128-0.081,0.174-0.137
		c0.066-0.078,0.116-0.17,0.18-0.25c0.004-0.005,0.008-0.011,0.013-0.016c0.04-0.859,0.041-0.857-0.819-0.637
		c-0.083,0.021-0.173,0.021-0.26,0.027c0-0.013,0.001-0.026,0-0.039c-0.012,0.013-0.024,0.026-0.035,0.041c0.001,0,0.001,0,0.002,0
		v0.001c-0.007,0.017-0.01,0.034-0.015,0.051c-0.004,0.014-0.01,0.027-0.012,0.041h-0.001c-0.076,0.003-0.151,0.007-0.227,0.01
		c-0.044,0.002-0.089,0.004-0.133,0.006c-0.121,0.005-0.241,0.011-0.362,0.016c-0.056-0.038-0.112-0.076-0.169-0.115l0,0
		C30.471,44.88,29.852,44.44,29.403,43.772z M32.126,45.219L32.126,45.219L32.126,45.219L32.126,45.219z"/>
	<path fill="#FFFFFF" d="M57.65,38.213C57.651,38.213,57.651,38.213,57.65,38.213c0.686-0.002,1.278,0.28,1.854,0.611
		c0.013,0.006,0.025,0.011,0.038,0.017c0.107,0.047,0.215,0.095,0.322,0.142c0.165,0.076,0.33,0.153,0.496,0.23
		c0.452,0.166,0.904,0.333,1.357,0.499c0.188,0.03,0.363,0.087,0.507,0.219c0.524,0.139,1.023,0.339,1.489,0.619
		c0.279,0.055,0.529,0.167,0.73,0.374c0.189,0.056,0.371,0.121,0.382,0.364c0.114,0,0.228,0.001,0.342,0.001
		c0.345-0.28,0.738-0.492,1.07-0.798c0.277-0.257,0.311-0.438,0.081-0.603c-0.044-0.031-0.095-0.062-0.158-0.092
		c-1.317-0.65-2.647-1.277-3.947-1.959c-1.102-0.578-2.268-1.055-3.272-1.792c-0.477-0.35-0.647-0.29-0.786,0.224l0,0v0.001
		c-0.045,0.467-0.33,0.851-0.449,1.29C57.651,37.762,57.411,37.976,57.65,38.213z"/>
	<path fill="#FFFFFF" d="M66.755,42.604c-0.031-0.09-0.12-0.14-0.351-0.088c-0.158,0.09-0.317,0.179-0.475,0.269
		c-0.041,0.023-0.08,0.047-0.121,0.07c-1.753,0.999-3.405,2.158-4.935,3.46c-2.073,1.765-4.279,3.35-6.426,5.015
		c-0.08,0.062-0.169,0.111-0.254,0.166c-0.353,0.28-0.705,0.56-1.056,0.841c-0.003,0.002,0.012,0.034,0.024,0.047
		c0.014,0.014,0.034,0.021,0.051,0.031c0.81-0.302,1.619-0.604,2.429-0.906c1.579-0.953,3.279-1.668,4.922-2.497
		c0.547-0.276,1.096-0.546,1.645-0.819c0.046-0.091,0.126-0.125,0.223-0.129c0.045-0.095,0.131-0.122,0.226-0.131
		c0.007,0,0.012,0.001,0.018,0.001c0-0.005,0-0.01,0-0.015c1.485-1.128,2.817-2.397,3.708-4.067
		c0.003-0.006,0.005-0.012,0.008-0.018c0.123-0.271,0.247-0.543,0.37-0.814C66.742,42.894,66.793,42.717,66.755,42.604z"/>
	<path fill="#FFFFFF" d="M71.181,43.884c-0.007,0.012-0.015,0.023-0.022,0.035c-0.277,0.46-0.705,0.742-1.173,0.976
		c-0.243,0.24-0.533,0.397-0.863,0.479c-0.26,0.184-0.521,0.162-0.784,0.004c-0.31-0.061-0.586-0.197-0.844-0.376
		c-0.264-0.009-0.196,0.195-0.219,0.341c-0.027,0.165-0.019,0.343-0.097,0.488c-0.033,0.061-0.079,0.116-0.152,0.162l0.011-0.007
		c-0.007,0.112,0.012,0.205,0.048,0.285c0.098,0.219,0.323,0.348,0.499,0.528c0.582,0.593,1.201,0.714,1.907,0.272
		c0.292-0.183,0.621-0.252,0.932-0.376c0.007,0.005,0.014,0.01,0.021,0.015c0.008-0.012,0.017-0.023,0.026-0.035
		c0.64-0.271,0.96-0.902,1.464-1.326c0.002,0.001,0.003,0.002,0.005,0.003c0.001-0.003,0.001-0.006,0.002-0.009
		c0.03-0.075,0.05-0.156,0.092-0.223c0.398-0.645,0.286-1.342,0.2-2.032c-0.04-0.315-0.309-0.463-0.567-0.48
		c-0.318-0.02-0.172,0.297-0.225,0.467C71.356,43.346,71.382,43.651,71.181,43.884z"/>
	<path fill="#FFFFFF" d="M67.554,43.101c0,0.041,0.017,0.097,0.06,0.171c0.218,0.191,0.436,0.382,0.654,0.574
		c0.05,0.023,0.1,0.046,0.15,0.069c0.068,0.031,0.136,0.063,0.204,0.094c0.32,0.037,0.603-0.064,0.869-0.231
		c0.094-0.12,0.197-0.229,0.355-0.264c0.043-0.03,0.086-0.059,0.13-0.089c0.036-0.025,0.073-0.05,0.109-0.075
		c0.238-0.293,0.721-0.551,0.139-0.963l0,0c-0.012,0.009-0.025,0.018-0.037,0.027c-0.262,0.193-0.529,0.377-0.841,0.484
		c-0.166,0.173-0.372,0.134-0.574,0.114c-0.008-0.001-0.016-0.002-0.025-0.002l0,0c-0.04-0.001-0.08-0.003-0.12-0.005
		c-0.051-0.002-0.103-0.004-0.154-0.006c-0.106-0.004-0.212-0.007-0.319-0.011c-0.079-0.003-0.158-0.005-0.237-0.006
		c-0.025,0-0.05-0.002-0.076-0.002c-0.104-0.001-0.209,0.002-0.259,0.05C67.565,43.047,67.554,43.07,67.554,43.101z"/>
	<path fill="#FFFFFF" d="M47.398,27.09c0.342,0.798,0.357,1.737,0.518,2.613c0.042,0.111,0.08,0.224,0.117,0.336
		c0.118,0.367,0.205,0.741,0.247,1.127c0.001,0.008,0.002,0.017,0.003,0.025c0.208,0.181-0.013,0.639,0.379,0.665
		c0.248,0.017,0.566-0.078,0.664-0.332c0.096-0.249,0.06-0.548,0.083-0.825c-0.001-0.003-0.001-0.005-0.002-0.008
		c-0.258-1.116-0.271-2.265-0.459-3.391c-0.031-0.183,0.027-0.35,0.153-0.484c0.019-0.02,0.04-0.04,0.062-0.059
		c0.458-0.562,1.149-0.844,1.645-1.361c0.017-0.007,0.034-0.014,0.051-0.02c-0.003-0.008-0.006-0.014-0.008-0.022
		c0.213-0.766-0.132-1.401-0.478-2.036c-0.001-0.002-0.002-0.003-0.003-0.004c0,0.001,0,0.003,0,0.004
		c-0.206-0.029-0.392-0.022-0.573,0.123c-0.558,0.448-1.121,0.897-1.695,1.315C47.225,25.396,46.937,26.015,47.398,27.09z"/>
	<path fill="#FFFFFF" d="M51.558,49.547c0.274-0.007,0.403-0.184,0.549-0.395c0.341-0.495,0.321-1.104,0.533-1.636
		c0.024-0.061,0.051-0.121,0.082-0.179c-0.01-0.488,0.43-0.724,0.619-1.1c0.523-0.438,0.787-1.105,1.343-1.514
		c0.002,0,0.003,0.001,0.005,0.001c0.031,0.008,0.063,0.011,0.095,0.01c0.012-0.093,0.115-0.22,0.003-0.271
		c-0.141-0.065-0.252,0.063-0.355,0.156l0,0c-0.037-0.003-0.072,0.003-0.106,0.017c-0.026,0.032-0.053,0.063-0.08,0.094
		c-0.351,0.412-0.771,0.767-1.038,1.249c-0.199,0.229-0.417,0.445-0.594,0.691c-0.364,0.505-0.822,0.704-1.459,0.669
		c-0.809-0.043-1.624,0.026-2.437,0.039c-0.187,0.003-0.39,0.184-0.561-0.041c0.06-0.199-0.141-0.307-0.166-0.476
		c-0.004-0.005-0.007-0.01-0.011-0.015c-0.716-0.977-1.443-1.945-2.417-2.69l0,0c-0.018,0.016-0.034,0.031-0.05,0.047
		c-0.257,0.261-0.123,0.517,0.049,0.773c-0.003,0.004-0.006,0.008-0.009,0.012c0.007,0.002,0.014,0.004,0.021,0.006
		c0.909,0.778,1.785,1.584,2.197,2.758l0,0c-0.014,0.526,0.204,0.989,0.388,1.464c0.108,0.279,0.297,0.358,0.567,0.327
		c0.419-0.134,0.849-0.11,1.279-0.094l0,0c0.247,0,0.494,0,0.741,0.001l0,0c0.007-0.001,0.013-0.001,0.02-0.002
		c0.054-0.005,0.109-0.008,0.163-0.009C51.145,49.433,51.355,49.46,51.558,49.547C51.557,49.547,51.557,49.547,51.558,49.547
		C51.557,49.547,51.558,49.547,51.558,49.547z"/>
</g>
<g>
	<g>
		<path fill="#FFFFFF" d="M111.273,30.651c-0.575,0-1.106-0.144-1.594-0.431s-0.876-0.675-1.163-1.163
			c-0.288-0.488-0.431-1.019-0.431-1.593v-1.443h3.337v1.271h8.786v-2.713h-8.937c-0.575,0-1.106-0.143-1.594-0.431
			c-0.488-0.287-0.876-0.671-1.163-1.152c-0.288-0.481-0.431-1.016-0.431-1.604v-3.058c0-0.589,0.143-1.124,0.431-1.604
			c0.287-0.481,0.674-0.865,1.163-1.152c0.488-0.287,1.019-0.431,1.594-0.431h9.13c0.574,0,1.102,0.144,1.583,0.431
			s0.869,0.671,1.163,1.152s0.441,1.016,0.441,1.604v1.442h-3.381v-1.271h-8.786v2.713h8.98c0.574,0,1.102,0.144,1.583,0.431
			c0.481,0.288,0.869,0.671,1.163,1.152s0.441,1.016,0.441,1.604v3.058c0,0.574-0.147,1.105-0.441,1.593s-0.682,0.876-1.163,1.163
			s-1.009,0.431-1.583,0.431h-9.128V30.651z"/>
		<path fill="#FFFFFF" d="M125.916,30.651V14.069h3.294v8.679h1.68l4.242-4.587h3.316v1.12l-4.651,5.125l4.651,5.125v1.12h-3.316
			l-4.242-4.587h-1.68v4.587C129.21,30.651,125.916,30.651,125.916,30.651z"/>
		<path fill="#FFFFFF" d="M141.55,35.13v-3.316h7.408v-1.163h-6.245c-0.574,0-1.098-0.144-1.572-0.431s-0.854-0.667-1.142-1.141
			c-0.287-0.474-0.431-0.991-0.431-1.551v-9.324h3.295v9.152h6.094v-9.152h3.294v13.803c0,0.574-0.14,1.099-0.42,1.572
			c-0.28,0.474-0.657,0.851-1.13,1.13c-0.474,0.28-0.998,0.42-1.572,0.42h-7.579V35.13z"/>
		<path fill="#FFFFFF" d="M163.148,30.651l-8.979-15.504h3.876l6.503,11.262l6.503-11.262h3.854l-8.98,15.504
			C165.925,30.651,163.148,30.651,163.148,30.651z"/>
		<path fill="#FFFFFF" d="M179.255,30.651c-0.574,0-1.098-0.144-1.572-0.431s-0.851-0.667-1.131-1.141s-0.42-0.991-0.42-1.551v-4.78
			h9.368v-1.292h-9.368v-3.294h9.54c0.574,0,1.098,0.144,1.572,0.431s0.851,0.667,1.13,1.141c0.28,0.474,0.42,0.991,0.42,1.551
			v9.367L179.255,30.651L179.255,30.651z M185.5,27.356v-1.723h-6.073v1.723H185.5z"/>
		<path fill="#FFFFFF" d="M190.927,30.651v-12.49h9.54c0.574,0,1.098,0.144,1.572,0.431s0.851,0.667,1.131,1.141
			s0.42,0.991,0.42,1.551v9.367h-3.295v-9.195h-6.073v9.195C194.222,30.651,190.927,30.651,190.927,30.651z"/>
		<path fill="#FFFFFF" d="M207.401,35.582v-3.316h7.408v-1.615h-6.245c-0.574,0-1.098-0.144-1.572-0.431s-0.854-0.667-1.142-1.141
			c-0.287-0.474-0.431-0.991-0.431-1.551v-6.245c0-0.56,0.144-1.077,0.431-1.551s0.667-0.854,1.142-1.141
			c0.474-0.287,0.998-0.431,1.572-0.431h6.417c0.574,0,1.099,0.144,1.572,0.431s0.851,0.667,1.13,1.141
			c0.28,0.474,0.42,0.991,0.42,1.551V32.46c0,0.574-0.14,1.098-0.42,1.572s-0.657,0.851-1.13,1.13
			c-0.474,0.28-0.998,0.42-1.572,0.42C214.981,35.582,207.401,35.582,207.401,35.582z M214.809,27.356v-5.9h-6.094v5.9H214.809z"/>
		<path fill="#FFFFFF" d="M221.398,30.22c-0.474-0.287-0.851-0.667-1.131-1.141s-0.42-0.991-0.42-1.551v-9.367h3.295v9.195h6.073
			v-9.195h3.294v9.367c0,0.56-0.14,1.077-0.42,1.551s-0.657,0.854-1.13,1.141s-0.998,0.431-1.572,0.431h-6.417
			C222.396,30.651,221.872,30.507,221.398,30.22z"/>
		<path fill="#FFFFFF" d="M237.914,30.651c-0.574,0-1.098-0.144-1.572-0.431s-0.851-0.667-1.131-1.141s-0.42-0.991-0.42-1.551v-4.78
			h9.368v-1.292h-9.368v-3.294h9.54c0.574,0,1.098,0.144,1.572,0.431s0.851,0.667,1.13,1.141c0.28,0.474,0.42,0.991,0.42,1.551
			v9.367L237.914,30.651L237.914,30.651z M244.16,27.356v-1.723h-6.073v1.723H244.16z"/>
		<path fill="#FFFFFF" d="M249.155,30.651v-9.367c0-0.56,0.144-1.077,0.431-1.551s0.668-0.854,1.142-1.141s0.998-0.431,1.572-0.431
			h6.891v3.294h-6.74v9.195L249.155,30.651L249.155,30.651z"/>
		<path fill="#FFFFFF" d="M262.076,30.22c-0.474-0.287-0.851-0.667-1.131-1.141s-0.42-0.991-0.42-1.551v-6.245
			c0-0.56,0.14-1.077,0.42-1.551s0.657-0.854,1.131-1.141s0.998-0.431,1.572-0.431h6.267v-4.092h3.294V30.65h-9.561
			C263.073,30.651,262.549,30.507,262.076,30.22z M269.914,27.356v-5.9h-6.073v5.9H269.914z"/>
	</g>
	<g>
		<path fill="#FFFFFF" d="M116.057,41.299h-3.289v9.13h-1.343v-9.13h-3.282v-1.104h7.914V41.299z"/>
		<path fill="#FFFFFF" d="M116.816,50.429v-7.605h2.966c1.012,0,1.789,0.177,2.33,0.531s0.812,0.873,0.812,1.557
			c0,0.352-0.105,0.669-0.316,0.953s-0.522,0.5-0.935,0.65c0.459,0.108,0.828,0.319,1.107,0.633s0.418,0.689,0.418,1.125
			c0,0.698-0.256,1.232-0.77,1.603s-1.238,0.555-2.175,0.555h-3.437V50.429z M118.117,46.05h1.68c1.218,0,1.828-0.356,1.828-1.068
			s-0.577-1.08-1.729-1.103h-1.778v2.171H118.117z M118.117,47.09v2.291h2.151c0.543,0,0.95-0.101,1.219-0.302
			c0.27-0.201,0.404-0.485,0.404-0.85c0-0.759-0.558-1.139-1.673-1.139C120.218,47.09,118.117,47.09,118.117,47.09z"/>
		<path fill="#FFFFFF" d="M124.576,46.556c0-0.745,0.146-1.415,0.439-2.01c0.292-0.595,0.7-1.054,1.223-1.377
			s1.119-0.485,1.789-0.485c1.036,0,1.874,0.359,2.513,1.076c0.64,0.717,0.959,1.67,0.959,2.86v0.091
			c0,0.741-0.142,1.405-0.425,1.993s-0.688,1.046-1.216,1.374c-0.527,0.328-1.133,0.492-1.817,0.492
			c-1.031,0-1.866-0.358-2.505-1.075c-0.64-0.717-0.959-1.666-0.959-2.847L124.576,46.556L124.576,46.556z M125.883,46.71
			c0,0.844,0.196,1.521,0.587,2.031c0.391,0.511,0.915,0.766,1.571,0.766c0.661,0,1.186-0.259,1.575-0.776
			c0.389-0.518,0.583-1.243,0.583-2.175c0-0.834-0.198-1.51-0.594-2.028s-0.922-0.777-1.578-0.777c-0.642,0-1.16,0.256-1.553,0.766
			C126.079,45.028,125.883,45.759,125.883,46.71z"/>
		<path fill="#FFFFFF" d="M138.942,42.824v7.605h-1.307V47.47h-1.961l-1.792,2.959h-1.405l1.912-3.156
			c-0.487-0.178-0.861-0.453-1.121-0.826c-0.26-0.373-0.39-0.807-0.39-1.304c0-0.693,0.26-1.252,0.78-1.676s1.216-0.638,2.087-0.643
			H138.942z M134.184,45.157c0,0.37,0.126,0.669,0.38,0.896c0.253,0.227,0.588,0.343,1.005,0.348h2.066v-2.523h-1.87
			c-0.482,0-0.867,0.118-1.153,0.354C134.327,44.47,134.184,44.778,134.184,45.157z"/>
		<path fill="#FFFFFF" d="M150.813,50.429h-1.3V43.9h-3.5v6.529h-1.307v-7.605h6.107L150.813,50.429L150.813,50.429z"/>
		<path fill="#FFFFFF" d="M156.056,50.569c-1.031,0-1.87-0.338-2.516-1.016s-0.97-1.583-0.97-2.716v-0.239
			c0-0.754,0.144-1.428,0.432-2.021s0.691-1.057,1.209-1.392s1.079-0.503,1.683-0.503c0.989,0,1.757,0.326,2.305,0.977
			c0.548,0.651,0.823,1.584,0.823,2.797v0.542h-5.152c0.019,0.75,0.238,1.355,0.657,1.817c0.419,0.461,0.953,0.692,1.599,0.692
			c0.459,0,0.848-0.094,1.167-0.281c0.318-0.188,0.597-0.436,0.836-0.745l0.794,0.618C158.287,50.08,157.33,50.569,156.056,50.569z
			 M155.894,43.751c-0.525,0-0.965,0.191-1.321,0.573s-0.576,0.917-0.661,1.606h3.81v-0.099c-0.038-0.661-0.216-1.172-0.534-1.536
			C156.869,43.933,156.438,43.751,155.894,43.751z"/>
		<path fill="#FFFFFF" d="M166.951,46.71c0,1.158-0.265,2.09-0.794,2.797s-1.247,1.062-2.151,1.062
			c-0.923,0-1.649-0.293-2.179-0.878v3.662h-1.3V42.824h1.188l0.063,0.844c0.53-0.656,1.265-0.984,2.207-0.984
			c0.914,0,1.637,0.345,2.168,1.033c0.532,0.689,0.798,1.647,0.798,2.875V46.71z M165.65,46.563c0-0.857-0.183-1.535-0.548-2.031
			c-0.366-0.497-0.867-0.745-1.504-0.745c-0.788,0-1.378,0.349-1.771,1.047v3.634c0.389,0.693,0.984,1.04,1.785,1.04
			c0.623,0,1.119-0.247,1.487-0.741C165.466,48.272,165.65,47.538,165.65,46.563z"/>
		<path fill="#FFFFFF" d="M171.758,50.569c-1.031,0-1.87-0.338-2.516-1.016s-0.97-1.583-0.97-2.716v-0.239
			c0-0.754,0.144-1.428,0.432-2.021s0.691-1.057,1.209-1.392s1.079-0.503,1.683-0.503c0.989,0,1.757,0.326,2.305,0.977
			c0.548,0.651,0.823,1.584,0.823,2.797v0.542h-5.152c0.019,0.75,0.238,1.355,0.657,1.817c0.419,0.461,0.953,0.692,1.599,0.692
			c0.459,0,0.848-0.094,1.167-0.281c0.318-0.188,0.597-0.436,0.836-0.745l0.794,0.618C173.988,50.08,173.032,50.569,171.758,50.569z
			 M171.596,43.751c-0.525,0-0.965,0.191-1.321,0.573s-0.576,0.917-0.661,1.606h3.81v-0.099c-0.038-0.661-0.216-1.172-0.534-1.536
			C172.571,43.933,172.14,43.751,171.596,43.751z"/>
		<path fill="#FFFFFF" d="M176.348,50.429v-7.605h2.966c1.012,0,1.789,0.177,2.33,0.531s0.812,0.873,0.812,1.557
			c0,0.352-0.105,0.669-0.316,0.953s-0.522,0.5-0.935,0.65c0.459,0.108,0.828,0.319,1.107,0.633s0.418,0.689,0.418,1.125
			c0,0.698-0.256,1.232-0.77,1.603s-1.238,0.555-2.175,0.555h-3.437V50.429z M177.648,46.05h1.68c1.218,0,1.828-0.356,1.828-1.068
			s-0.577-1.08-1.729-1.103h-1.778L177.648,46.05L177.648,46.05z M177.648,47.09v2.291h2.151c0.543,0,0.95-0.101,1.219-0.302
			c0.27-0.201,0.404-0.485,0.404-0.85c0-0.759-0.558-1.139-1.673-1.139C179.749,47.09,177.648,47.09,177.648,47.09z"/>
		<path fill="#FFFFFF" d="M189.146,50.429c-0.075-0.15-0.136-0.417-0.183-0.801c-0.604,0.628-1.326,0.942-2.165,0.942
			c-0.75,0-1.365-0.212-1.845-0.636s-0.72-0.961-0.72-1.613c0-0.792,0.301-1.407,0.903-1.845s1.449-0.657,2.541-0.657h1.265v-0.597
			c0-0.455-0.136-0.816-0.408-1.086c-0.271-0.27-0.672-0.404-1.202-0.404c-0.464,0-0.853,0.117-1.167,0.352
			s-0.471,0.518-0.471,0.851h-1.307c0-0.38,0.134-0.746,0.404-1.1s0.635-0.634,1.097-0.84s0.969-0.31,1.521-0.31
			c0.876,0,1.562,0.219,2.06,0.657c0.497,0.438,0.754,1.042,0.773,1.81v3.5c0,0.698,0.089,1.253,0.267,1.666v0.112h-1.363V50.429z
			 M186.989,49.437c0.407,0,0.794-0.105,1.16-0.316c0.365-0.211,0.63-0.485,0.794-0.822v-1.561h-1.019
			c-1.593,0-2.39,0.466-2.39,1.398c0,0.408,0.136,0.727,0.408,0.956C186.213,49.323,186.562,49.437,186.989,49.437z"/>
		<path fill="#FFFFFF" d="M197.194,43.899h-3.507v6.529h-1.307v-7.605h4.814L197.194,43.899L197.194,43.899z"/>
		<path fill="#FFFFFF" d="M203.014,50.429c-0.075-0.15-0.136-0.417-0.183-0.801c-0.604,0.628-1.326,0.942-2.165,0.942
			c-0.75,0-1.365-0.212-1.845-0.636s-0.72-0.961-0.72-1.613c0-0.792,0.301-1.407,0.903-1.845s1.449-0.657,2.541-0.657h1.265v-0.597
			c0-0.455-0.136-0.816-0.408-1.086c-0.271-0.27-0.672-0.404-1.202-0.404c-0.464,0-0.853,0.117-1.167,0.352
			s-0.471,0.518-0.471,0.851h-1.307c0-0.38,0.134-0.746,0.404-1.1s0.635-0.634,1.097-0.84s0.969-0.31,1.521-0.31
			c0.876,0,1.562,0.219,2.06,0.657c0.497,0.438,0.754,1.042,0.773,1.81v3.5c0,0.698,0.089,1.253,0.267,1.666v0.112h-1.363V50.429z
			 M200.856,49.437c0.407,0,0.794-0.105,1.16-0.316c0.365-0.211,0.63-0.485,0.794-0.822v-1.561h-1.019
			c-1.593,0-2.39,0.466-2.39,1.398c0,0.408,0.136,0.727,0.408,0.956C200.08,49.323,200.429,49.437,200.856,49.437z"/>
		<path fill="#FFFFFF" d="M209.831,50.429v-7.605h2.966c1.012,0,1.789,0.177,2.33,0.531s0.812,0.873,0.812,1.557
			c0,0.352-0.105,0.669-0.316,0.953s-0.522,0.5-0.935,0.65c0.459,0.108,0.828,0.319,1.107,0.633s0.418,0.689,0.418,1.125
			c0,0.698-0.256,1.232-0.77,1.603s-1.238,0.555-2.175,0.555h-3.437V50.429z M211.131,46.05h1.68c1.218,0,1.828-0.356,1.828-1.068
			s-0.577-1.08-1.729-1.103h-1.778L211.131,46.05L211.131,46.05z M211.131,47.09v2.291h2.151c0.543,0,0.95-0.101,1.219-0.302
			c0.27-0.201,0.404-0.485,0.404-0.85c0-0.759-0.558-1.139-1.673-1.139C213.232,47.09,211.131,47.09,211.131,47.09z"/>
		<path fill="#FFFFFF" d="M227.711,50.429h-1.3v-3.247h-3.493v3.247h-1.307v-7.605h1.307v3.296h3.493v-3.296h1.3V50.429z"/>
		<path fill="#FFFFFF" d="M232.954,50.569c-1.031,0-1.87-0.338-2.516-1.016s-0.97-1.583-0.97-2.716v-0.239
			c0-0.754,0.144-1.428,0.432-2.021s0.691-1.057,1.209-1.392s1.079-0.503,1.683-0.503c0.989,0,1.757,0.326,2.305,0.977
			c0.548,0.651,0.823,1.584,0.823,2.797v0.542h-5.152c0.019,0.75,0.238,1.355,0.657,1.817c0.419,0.461,0.953,0.692,1.599,0.692
			c0.459,0,0.848-0.094,1.167-0.281c0.318-0.188,0.597-0.436,0.836-0.745l0.794,0.618C235.185,50.08,234.229,50.569,232.954,50.569z
			 M232.793,43.751c-0.525,0-0.965,0.191-1.321,0.573s-0.576,0.917-0.661,1.606h3.81v-0.099c-0.038-0.661-0.216-1.172-0.534-1.536
			C233.767,43.933,233.336,43.751,232.793,43.751z"/>
		<path fill="#FFFFFF" d="M240.763,43.26c0.956,0,1.721,0.32,2.295,0.959c0.574,0.64,0.861,1.482,0.861,2.526v0.12
			c0,0.717-0.139,1.358-0.415,1.922s-0.673,1.003-1.191,1.314c-0.518,0.312-1.114,0.467-1.789,0.467
			c-1.021,0-1.844-0.341-2.467-1.022c-0.624-0.682-0.935-1.597-0.935-2.745v-0.633c0-1.598,0.296-2.868,0.889-3.81
			c0.593-0.941,1.468-1.516,2.625-1.722c0.656-0.117,1.099-0.26,1.329-0.429c0.229-0.169,0.344-0.401,0.344-0.696h1.068
			c0,0.585-0.132,1.042-0.397,1.371c-0.265,0.328-0.688,0.56-1.269,0.696l-0.97,0.218c-0.773,0.183-1.353,0.491-1.739,0.924
			c-0.387,0.433-0.639,1.011-0.756,1.732C238.936,43.658,239.775,43.26,240.763,43.26z M240.51,44.328
			c-0.637,0-1.143,0.214-1.518,0.643s-0.562,1.022-0.562,1.782v0.112c0,0.815,0.188,1.461,0.565,1.937s0.887,0.713,1.529,0.713
			c0.646,0,1.157-0.239,1.532-0.717s0.562-1.176,0.562-2.095c0-0.717-0.189-1.292-0.566-1.726
			C241.676,44.545,241.162,44.328,240.51,44.328z"/>
		<path fill="#FFFFFF" d="M245.388,40.807c0-0.211,0.064-0.389,0.193-0.534s0.32-0.218,0.573-0.218c0.253,0,0.445,0.073,0.576,0.218
			c0.131,0.146,0.197,0.323,0.197,0.534s-0.066,0.387-0.197,0.527c-0.131,0.141-0.323,0.211-0.576,0.211s-0.444-0.07-0.573-0.211
			S245.388,41.018,245.388,40.807z M246.793,50.429h-1.3v-7.605h1.3V50.429z"/>
	</g>
</g>
</svg>
