<?xml version="1.0" encoding="utf-8"?>
<!-- Generator: Adobe Illustrator 24.0.2, SVG Export Plug-In . SVG Version: 6.00 Build 0)  -->
<svg version="1.1" id="Слой_1" xmlns="http://www.w3.org/2000/svg" xmlns:xlink="http://www.w3.org/1999/xlink" x="0px" y="0px"
	 width="102.047px" height="102.047px" viewBox="0 0 102.047 102.047" enable-background="new 0 0 102.047 102.047"
	 xml:space="preserve">
<g>
	<circle fill="#FCF6F2" cx="51.023" cy="51.023" r="51"/>
	<g>
		<path fill="#BC7A40" d="M31.779,34.115c0.052,0.264,0.109,0.531,0.204,0.781c0.167,0.441,0.495,0.669,0.98,0.635
			c0.489-0.034,0.792-0.311,0.907-0.988c0.266-1.571,1.1-2.682,2.552-3.336c0.374-0.168,0.573-0.486,0.578-0.881
			c0.005-0.418-0.204-0.738-0.597-0.918c-1.427-0.652-2.28-1.744-2.517-3.302c-0.07-0.463-0.307-0.802-0.706-1.035
			c-0.203,0-0.406,0-0.608,0c-0.433,0.258-0.635,0.65-0.717,1.139c-0.235,1.41-0.989,2.454-2.278,3.081
			c-0.439,0.214-0.797,0.469-0.81,0.993c-0.013,0.551,0.352,0.822,0.806,1.047C30.738,31.911,31.519,32.809,31.779,34.115z
			 M32.877,28.062c0.483,0.938,1.117,1.656,2.006,2.247c-0.858,0.572-1.522,1.281-1.999,2.263c-0.485-0.96-1.13-1.694-2.008-2.255
			C31.743,29.726,32.398,29.02,32.877,28.062z"/>
		<path fill="#BC7A40" d="M65.452,36.921c-0.365-0.634-0.872-0.94-1.608-0.931c-1.385,0.017-2.771,0.005-4.156,0.005
			c-7.248,0-14.496,0.006-21.744-0.008c-0.814-0.002-1.377,0.288-1.767,1.011c-0.52,0.963-1.094,1.898-1.639,2.848
			c-0.294,0.514-0.228,0.958,0.164,1.2c0.412,0.254,0.844,0.093,1.159-0.446c0.441-0.753,0.874-1.509,1.346-2.325
			c1.837,3.181,3.644,6.311,5.479,9.489c-3.674,0-7.28,0-10.958,0c0.09-0.153,0.148-0.252,0.206-0.352
			c0.674-1.167,1.353-2.332,2.021-3.503c0.329-0.576,0.148-1.128-0.41-1.258c-0.459-0.107-0.721,0.16-0.931,0.525
			c-0.848,1.476-1.701,2.949-2.553,4.423c-0.485,0.839-0.448,1.231,0.194,1.95c6.479,7.258,12.959,14.516,19.44,21.773
			c0.772,0.865,1.473,0.864,2.255-0.01c6.51-7.276,13.019-14.553,19.528-21.83c0.549-0.614,0.602-1.078,0.191-1.79
			C69.598,44.101,67.518,40.515,65.452,36.921z M63.124,37.556c-1.824,3.161-3.63,6.289-5.469,9.476
			c-1.841-3.189-3.64-6.304-5.471-9.476C55.85,37.556,59.456,37.556,63.124,37.556z M38.539,37.533c3.685,0,7.292,0,10.967,0
			c-1.829,3.169-3.634,6.294-5.482,9.497C42.182,43.841,40.378,40.719,38.539,37.533z M48.85,68.084
			c-5.575-6.244-11.132-12.468-16.764-18.775c0.269,0,0.43,0,0.59,0c3.428,0,6.857,0.004,10.285-0.007
			c0.347-0.001,0.522,0.064,0.632,0.445c1.723,5.951,3.467,11.895,5.205,17.842C48.839,67.731,48.935,67.866,48.85,68.084z
			 M50.876,68.865c-0.035,0.007-0.07,0.014-0.105,0.022c-1.906-6.506-3.812-13.012-5.719-19.523
			c0.195-0.098,0.379-0.052,0.556-0.052c2.229-0.004,4.458-0.001,6.687-0.004c0.564-0.001,0.89-0.273,0.903-0.732
			c0.013-0.473-0.335-0.775-0.911-0.787c-0.101-0.002-0.203,0-0.304,0c-2.026,0-4.053,0-6.079,0c-0.161,0-0.322,0-0.559,0
			c1.847-3.199,3.653-6.327,5.494-9.515c1.847,3.198,3.654,6.328,5.474,9.48c-0.499,0.112-0.86,0.359-0.79,0.896
			c0.079,0.604,0.561,0.686,1.111,0.673C54.708,55.86,52.792,62.362,50.876,68.865z M52.768,67.831
			c1.785-6.057,3.568-12.107,5.348-18.158c0.066-0.223,0.118-0.374,0.422-0.373c3.616,0.013,7.231,0.009,10.847,0.01
			c0.029,0,0.059,0.018,0.088,0.029C69.002,50.163,53.101,67.781,52.768,67.831z M58.989,47.769
			c1.832-3.174,3.638-6.303,5.481-9.496c1.833,3.173,3.639,6.3,5.485,9.496C66.272,47.769,62.666,47.769,58.989,47.769z"/>
		<path fill="#BC7A40" d="M69.184,69.084c-0.472-0.259-0.947-0.511-1.405-0.797c-0.374-0.233-0.792-0.124-1.024,0.216
			c-0.229,0.337-0.164,0.752,0.186,1.033c0.218,0.175,0.459,0.321,0.7,0.486c-1.847,1.23-2.428,1.906-3.321,3.88
			c-0.633-1.716-1.754-2.967-3.332-3.886c1.568-0.929,2.7-2.16,3.331-3.905c0.272,0.462,0.602,0.653,1.052,0.465
			c0.375-0.157,0.528-0.479,0.437-0.87c-0.152-0.656-0.315-1.311-0.516-1.952c-0.138-0.442-0.477-0.687-0.956-0.686
			c-0.474,0.001-0.811,0.224-0.958,0.677c-0.119,0.367-0.208,0.746-0.292,1.123c-0.376,1.698-1.338,2.955-2.843,3.807
			c-0.234,0.132-0.475,0.254-0.714,0.377c-0.397,0.204-0.606,0.523-0.605,0.972c0.001,0.452,0.23,0.762,0.618,0.966
			c0.089,0.047,0.185,0.082,0.275,0.128c1.722,0.869,2.887,2.181,3.281,4.112c0.064,0.313,0.14,0.625,0.228,0.932
			c0.15,0.521,0.541,0.825,1.025,0.815c0.47-0.009,0.829-0.298,0.973-0.807c0.11-0.389,0.203-0.782,0.296-1.175
			c0.371-1.563,1.283-2.724,2.642-3.548c0.302-0.183,0.631-0.319,0.935-0.499C69.935,70.506,69.937,69.497,69.184,69.084z"/>
		<path fill="#BC7A40" d="M72.702,35.489c-0.919-0.416-1.42-1.137-1.608-2.118c-0.121-0.631-0.427-0.901-0.91-0.904
			c-0.487-0.003-0.793,0.263-0.917,0.893c-0.196,0.997-0.705,1.731-1.646,2.15c-0.358,0.159-0.546,0.46-0.545,0.842
			c0.001,0.383,0.199,0.683,0.554,0.838c0.928,0.407,1.428,1.127,1.629,2.102c0.137,0.665,0.448,0.946,0.937,0.935
			c0.476-0.01,0.775-0.286,0.901-0.92c0.193-0.978,0.69-1.7,1.618-2.11c0.353-0.156,0.541-0.444,0.566-0.858
			C73.262,35.958,73.078,35.659,72.702,35.489z M70.359,37.185c-0.12,0.192-0.217,0.231-0.354,0.012
			c-0.198-0.318-0.655-0.529-0.708-0.82c-0.055-0.301,0.47-0.5,0.664-0.811c0.053-0.085,0.115-0.164,0.213-0.303
			c0.096,0.131,0.148,0.215,0.212,0.288c0.24,0.276,0.689,0.561,0.672,0.818C71.041,36.647,70.557,36.867,70.359,37.185z"/>
	</g>
</g>
</svg>
