<?xml version="1.0" encoding="utf-8"?>
<!-- Generator: Adobe Illustrator 27.0.0, SVG Export Plug-In . SVG Version: 6.00 Build 0)  -->
<svg version="1.1" id="Слой_1" xmlns="http://www.w3.org/2000/svg" xmlns:xlink="http://www.w3.org/1999/xlink" x="0px" y="0px"
	 width="173.629px" height="119.392px" viewBox="0 0 173.629 119.392" enable-background="new 0 0 173.629 119.392"
	 xml:space="preserve">
<path fill="#F4F4F4" d="M40.637,70.147c-3.15,0.912-6.3,1.826-9.45,2.738c-3.168,0.918-6.337,1.836-9.505,2.755
	c-1.495,0.434-2.209,1.731-1.776,3.231c1.118,3.867,2.239,7.733,3.361,11.599c0.439,1.514,1.737,2.232,3.248,1.794
	c6.319-1.829,12.637-3.661,18.955-5.493c1.529-0.443,2.238-1.738,1.794-3.272c-1.114-3.848-2.229-7.696-3.345-11.544
	C43.469,70.402,42.189,69.698,40.637,70.147z M41.532,70.956c0.027,0.099-0.055,0.154-0.096,0.219
	c-2.411,3.802-4.825,7.603-7.233,11.407c-0.104,0.164-0.173,0.218-0.374,0.123c-4.085-1.938-8.174-3.867-12.263-5.797
	c-0.059-0.028-0.125-0.041-0.21-0.068C21.679,76.58,41.08,70.944,41.532,70.956z M24.447,90.794
	c-0.156-0.156-0.193-0.337-0.244-0.51c-1.135-3.911-2.268-7.824-3.403-11.735c-0.092-0.318-0.133-0.633-0.005-0.967
	c1,0.471,1.992,0.938,2.984,1.406c1.616,0.763,3.232,1.528,4.85,2.287c0.165,0.077,0.226,0.135,0.133,0.332
	c-1.419,3.008-2.828,6.021-4.24,9.033C24.503,90.683,24.482,90.724,24.447,90.794z M45.35,85.818
	c-6.411,1.856-12.821,3.714-19.231,5.573c-0.205,0.059-0.41,0.077-0.622,0.059c-0.218-0.018-0.298-0.063-0.18-0.305
	c0.416-0.85,0.81-1.711,1.211-2.568c1.023-2.181,2.048-4.361,3.063-6.546c0.093-0.2,0.164-0.228,0.366-0.13
	c1.317,0.635,2.643,1.254,3.965,1.878c0.367,0.173,0.55,0.121,0.769-0.224c0.795-1.25,1.589-2.501,2.381-3.753
	c0.075-0.119,0.114-0.216,0.294-0.1c2.888,1.855,5.781,3.701,8.672,5.549c0.024,0.015,0.044,0.036,0.08,0.067
	C45.907,85.575,45.653,85.731,45.35,85.818z M46.439,84.387c-0.671-0.428-1.322-0.842-1.972-1.257
	c-2.182-1.394-4.364-2.789-6.547-4.182c-0.122-0.078-0.238-0.116-0.111-0.315c1.555-2.431,3.098-4.869,4.659-7.329
	c0.28,0.213,0.417,0.489,0.506,0.798c0.227,0.79,0.457,1.579,0.686,2.369c0.899,3.103,1.799,6.206,2.696,9.309
	C46.409,83.965,46.496,84.151,46.439,84.387z"/>
<path fill="#F4F4F4" d="M81.468,67.467c-1.316,2.141-2.632,4.283-3.949,6.424c-1.324,2.154-2.648,4.308-3.971,6.462
	c-0.624,1.016-0.361,2.121,0.658,2.748c2.628,1.617,5.256,3.232,7.885,4.847c1.03,0.632,2.135,0.371,2.767-0.657
	c2.641-4.295,5.281-8.59,7.92-12.886c0.639-1.039,0.373-2.14-0.669-2.781c-2.616-1.609-5.232-3.216-7.848-4.824
	C83.206,66.152,82.117,66.412,81.468,67.467z M82.392,67.465c0.066,0.042,0.048,0.115,0.058,0.174
	c0.593,3.399,1.182,6.799,1.777,10.198c0.026,0.146,0.014,0.213-0.149,0.262c-3.316,1.006-6.63,2.02-9.944,3.033
	c-0.048,0.015-0.092,0.041-0.154,0.07C74.031,80.889,82.13,67.691,82.392,67.465z M82.928,87.524
	c-0.169-0.008-0.283-0.091-0.401-0.164c-2.66-1.633-5.319-3.269-7.979-4.902c-0.216-0.133-0.401-0.29-0.501-0.546
	c0.81-0.248,1.614-0.495,2.418-0.741c1.31-0.401,2.621-0.799,3.93-1.203c0.133-0.041,0.198-0.04,0.247,0.12
	c0.746,2.438,1.5,4.873,2.252,7.309C82.902,87.432,82.911,87.466,82.928,87.524z M92.219,73.927
	c-2.679,4.358-5.358,8.716-8.036,13.074c-0.085,0.139-0.193,0.255-0.323,0.354c-0.133,0.102-0.202,0.118-0.259-0.08
	c-0.202-0.697-0.423-1.388-0.636-2.081c-0.544-1.764-1.087-3.529-1.637-5.292c-0.05-0.161-0.024-0.214,0.141-0.263
	c1.075-0.319,2.145-0.651,3.217-0.979c0.297-0.091,0.375-0.215,0.321-0.523c-0.193-1.119-0.388-2.238-0.584-3.356
	c-0.019-0.106-0.047-0.181,0.116-0.208c2.594-0.436,5.186-0.881,7.779-1.323c0.021-0.004,0.044-0.002,0.08-0.003
	C92.41,73.501,92.346,73.721,92.219,73.927z M92.099,72.553c-0.601,0.103-1.184,0.204-1.767,0.304
	c-1.956,0.334-3.913,0.668-5.869,1.003c-0.109,0.019-0.195,0.057-0.225-0.122c-0.371-2.18-0.753-4.359-1.135-6.559
	c0.269-0.023,0.489,0.062,0.698,0.192c0.536,0.331,1.073,0.66,1.61,0.99c2.11,1.297,4.219,2.593,6.328,3.891
	C91.865,72.33,92.01,72.39,92.099,72.553z"/>
<path fill="#F4F4F4" d="M109.737,46.16c-1.802,0.682-3.604,1.363-5.406,2.045c-1.812,0.686-3.625,1.371-5.437,2.057
	c-0.855,0.324-1.213,1.117-0.889,1.975c0.836,2.212,1.673,4.424,2.51,6.635c0.328,0.866,1.121,1.226,1.986,0.899
	c3.615-1.367,7.229-2.734,10.843-4.102c0.874-0.331,1.229-1.122,0.898-2c-0.832-2.201-1.665-4.403-2.498-6.604
	C111.407,46.177,110.625,45.824,109.737,46.16z M110.299,46.592c0.021,0.056-0.025,0.092-0.046,0.133
	c-1.234,2.339-2.47,4.677-3.702,7.017c-0.053,0.101-0.091,0.136-0.213,0.089c-2.483-0.944-4.967-1.882-7.452-2.821
	c-0.036-0.014-0.075-0.018-0.126-0.03C98.936,50.813,110.034,46.606,110.299,46.592z M101.221,59.007
	c-0.099-0.084-0.129-0.188-0.166-0.287c-0.847-2.237-1.694-4.475-2.541-6.713c-0.069-0.182-0.107-0.364-0.048-0.566
	c0.608,0.229,1.211,0.456,1.813,0.684c0.982,0.371,1.964,0.744,2.947,1.112c0.1,0.038,0.139,0.068,0.094,0.188
	c-0.69,1.828-1.375,3.658-2.061,5.488C101.249,58.939,101.238,58.964,101.221,59.007z M113.229,55.116
	c-3.667,1.387-7.334,2.774-11.001,4.162c-0.117,0.044-0.236,0.064-0.362,0.064c-0.129,0-0.178-0.023-0.12-0.17
	c0.204-0.517,0.394-1.04,0.589-1.56c0.497-1.325,0.995-2.65,1.488-3.976c0.045-0.121,0.085-0.141,0.208-0.093
	c0.801,0.31,1.606,0.611,2.41,0.914c0.223,0.084,0.328,0.045,0.44-0.167c0.407-0.769,0.814-1.539,1.219-2.309
	c0.038-0.073,0.056-0.132,0.168-0.072c1.778,0.951,3.558,1.897,5.337,2.844c0.015,0.008,0.027,0.019,0.05,0.036
	C113.544,54.948,113.403,55.051,113.229,55.116z M113.8,54.227c-0.413-0.219-0.814-0.431-1.214-0.644
	c-1.343-0.714-2.686-1.429-4.029-2.143c-0.075-0.04-0.145-0.057-0.08-0.179c0.797-1.496,1.587-2.996,2.386-4.509
	c0.174,0.112,0.267,0.267,0.333,0.444c0.17,0.452,0.341,0.903,0.512,1.355c0.672,1.775,1.343,3.55,2.014,5.325
	C113.763,53.982,113.822,54.086,113.8,54.227z"/>
<path fill="#F4F4F4" d="M142.164,46.38c-1.255,0.475-2.51,0.949-3.765,1.424c-1.262,0.478-2.524,0.955-3.786,1.433
	c-0.595,0.225-0.845,0.778-0.619,1.375c0.582,1.54,1.165,3.081,1.748,4.621c0.228,0.603,0.781,0.854,1.383,0.626
	c2.517-0.952,5.034-1.904,7.551-2.857c0.609-0.23,0.856-0.782,0.625-1.393c-0.579-1.533-1.159-3.066-1.74-4.599
	C143.328,46.392,142.783,46.146,142.164,46.38z M142.556,46.681c0.014,0.039-0.017,0.064-0.032,0.092
	c-0.859,1.629-1.72,3.257-2.578,4.887c-0.037,0.07-0.063,0.094-0.149,0.062c-1.729-0.657-3.459-1.311-5.189-1.965
	c-0.025-0.009-0.052-0.013-0.088-0.021C134.643,49.62,142.371,46.691,142.556,46.681z M136.234,55.326
	c-0.069-0.058-0.09-0.131-0.116-0.2c-0.59-1.558-1.179-3.117-1.77-4.675c-0.048-0.127-0.075-0.254-0.034-0.394
	c0.423,0.16,0.843,0.318,1.263,0.476c0.684,0.258,1.368,0.518,2.052,0.775c0.07,0.026,0.097,0.048,0.065,0.131
	c-0.481,1.273-0.957,2.547-1.435,3.822C136.254,55.279,136.246,55.297,136.234,55.326z M144.596,52.617
	c-2.554,0.966-5.107,1.932-7.661,2.898c-0.081,0.031-0.165,0.045-0.252,0.044c-0.09,0-0.124-0.016-0.083-0.118
	c0.142-0.36,0.275-0.724,0.41-1.086c0.346-0.923,0.693-1.845,1.036-2.769c0.031-0.084,0.059-0.098,0.145-0.065
	c0.558,0.216,1.118,0.425,1.678,0.637c0.155,0.059,0.228,0.032,0.306-0.116c0.284-0.536,0.567-1.072,0.849-1.608
	c0.027-0.051,0.039-0.092,0.117-0.05c1.238,0.662,2.478,1.321,3.717,1.981c0.01,0.005,0.019,0.013,0.035,0.025
	C144.816,52.5,144.717,52.571,144.596,52.617z M144.994,51.998c-0.288-0.153-0.567-0.3-0.845-0.448
	c-0.935-0.497-1.87-0.995-2.806-1.492c-0.052-0.028-0.101-0.04-0.055-0.125c0.555-1.042,1.105-2.086,1.662-3.14
	c0.121,0.078,0.186,0.186,0.232,0.309c0.118,0.315,0.238,0.629,0.357,0.944c0.468,1.236,0.936,2.472,1.402,3.709
	C144.968,51.827,145.009,51.9,144.994,51.998z"/>
<path fill="#F4F4F4" d="M158.508,30.4c-1.012-0.182-2.024-0.365-3.036-0.547c-1.018-0.183-2.036-0.367-3.054-0.55
	c-0.48-0.086-0.862,0.179-0.949,0.66c-0.224,1.242-0.448,2.484-0.671,3.726c-0.087,0.487,0.177,0.869,0.663,0.956
	c2.03,0.366,4.06,0.732,6.09,1.097c0.491,0.088,0.871-0.177,0.96-0.669c0.223-1.236,0.446-2.472,0.668-3.709
	C159.269,30.866,159.007,30.49,158.508,30.4z M158.647,30.752c-0.006,0.031-0.037,0.035-0.058,0.048
	c-1.207,0.732-2.414,1.464-3.62,2.197c-0.052,0.032-0.079,0.037-0.122-0.018c-0.878-1.113-1.758-2.225-2.637-3.336
	c-0.013-0.016-0.029-0.029-0.049-0.048C152.287,29.567,158.522,30.686,158.647,30.752z M151.085,33.945
	c-0.022-0.065-0.007-0.122,0.003-0.177c0.226-1.257,0.453-2.514,0.679-3.77c0.018-0.102,0.051-0.196,0.133-0.272
	c0.215,0.272,0.429,0.541,0.642,0.811c0.348,0.439,0.695,0.879,1.044,1.318c0.036,0.045,0.045,0.069-0.009,0.112
	c-0.818,0.647-1.633,1.298-2.449,1.947C151.116,33.922,151.104,33.931,151.085,33.945z M157.65,35.459
	c-2.059-0.371-4.119-0.742-6.178-1.113c-0.066-0.012-0.126-0.035-0.183-0.07c-0.059-0.035-0.075-0.059-0.008-0.111
	c0.235-0.181,0.466-0.368,0.698-0.553c0.591-0.47,1.183-0.94,1.772-1.412c0.054-0.043,0.078-0.041,0.121,0.014
	c0.282,0.362,0.568,0.72,0.852,1.08c0.079,0.1,0.138,0.111,0.247,0.044c0.398-0.24,0.795-0.481,1.192-0.723
	c0.038-0.023,0.062-0.045,0.097,0.013c0.553,0.923,1.108,1.845,1.663,2.767c0.005,0.008,0.007,0.016,0.013,0.03
	C157.84,35.468,157.747,35.476,157.65,35.459z M158.155,35.209c-0.129-0.214-0.254-0.421-0.379-0.628
	c-0.419-0.696-0.838-1.391-1.257-2.087c-0.023-0.039-0.051-0.066,0.013-0.104c0.775-0.466,1.548-0.936,2.33-1.41
	c0.049,0.099,0.049,0.195,0.031,0.295c-0.046,0.254-0.092,0.507-0.137,0.761c-0.18,0.997-0.359,1.994-0.539,2.991
	C158.205,35.086,158.204,35.15,158.155,35.209z"/>
<path fill="#F4F4F4" d="M72.312,46.334c-1.629-0.873-3.258-1.746-4.887-2.619c-1.639-0.878-3.277-1.757-4.916-2.634
	c-0.773-0.414-1.572-0.173-1.988,0.603c-1.073,1.999-2.144,3.999-3.215,5.999c-0.419,0.783-0.179,1.584,0.602,2.003
	c3.267,1.752,6.535,3.503,9.803,5.254c0.791,0.424,1.587,0.181,2.012-0.612c1.067-1.99,2.134-3.98,3.2-5.97
	C73.354,47.552,73.115,46.764,72.312,46.334z M72.355,47.012c-0.028,0.05-0.083,0.04-0.125,0.05c-2.47,0.583-4.94,1.163-7.409,1.748
	c-0.106,0.025-0.156,0.02-0.199-0.098c-0.883-2.39-1.771-4.779-2.659-7.167c-0.013-0.034-0.034-0.066-0.058-0.11
	C62.138,41.458,72.177,46.829,72.355,47.012z M57.654,48.277c-0.002-0.124,0.055-0.212,0.103-0.301
	c1.083-2.024,2.168-4.046,3.252-6.07c0.088-0.165,0.196-0.307,0.379-0.392c0.217,0.584,0.433,1.163,0.649,1.742
	c0.351,0.944,0.7,1.889,1.054,2.832c0.036,0.096,0.038,0.143-0.077,0.186c-1.757,0.653-3.512,1.313-5.267,1.97
	C57.72,48.254,57.695,48.262,57.654,48.277z M68.038,54.506c-3.315-1.777-6.63-3.554-9.946-5.33
	c-0.106-0.057-0.195-0.13-0.274-0.221c-0.081-0.093-0.095-0.143,0.047-0.194c0.503-0.179,1-0.37,1.5-0.558
	c1.271-0.476,2.543-0.951,3.813-1.431c0.116-0.044,0.156-0.027,0.199,0.092c0.281,0.775,0.571,1.546,0.858,2.319
	c0.08,0.214,0.174,0.266,0.398,0.213c0.813-0.191,1.626-0.382,2.438-0.574c0.077-0.018,0.131-0.042,0.158,0.076
	c0.433,1.885,0.872,3.769,1.309,5.653c0.004,0.015,0.003,0.032,0.006,0.058C68.359,54.627,68.195,54.59,68.038,54.506z
	 M69.041,54.358c-0.102-0.437-0.201-0.86-0.3-1.284c-0.33-1.422-0.66-2.843-0.991-4.265c-0.018-0.079-0.05-0.141,0.08-0.171
	c1.584-0.367,3.167-0.742,4.765-1.118c0.029,0.196-0.025,0.361-0.111,0.521c-0.22,0.408-0.438,0.816-0.657,1.225
	c-0.86,1.605-1.72,3.21-2.581,4.814C69.195,54.177,69.157,54.286,69.041,54.358z"/>
<path fill="#F4F4F4" d="M122.311,27.646c-1.408,0.157-2.816,0.315-4.224,0.472c-1.416,0.158-2.832,0.316-4.248,0.475
	c-0.668,0.075-1.067,0.575-0.993,1.245c0.192,1.728,0.386,3.456,0.579,5.184c0.076,0.677,0.576,1.077,1.251,1.002
	c2.824-0.315,5.648-0.631,8.472-0.947c0.683-0.077,1.08-0.576,1.004-1.261c-0.192-1.72-0.384-3.44-0.577-5.159
	C123.498,27.962,123.005,27.568,122.311,27.646z M122.633,28.056c0.004,0.044-0.035,0.061-0.057,0.086
	c-1.305,1.442-2.612,2.882-3.916,4.325c-0.056,0.062-0.09,0.08-0.168,0.025c-1.597-1.125-3.196-2.246-4.795-3.367
	c-0.023-0.016-0.05-0.027-0.084-0.044C113.769,28.993,122.441,28.018,122.633,28.056z M113.904,35.247
	c-0.055-0.078-0.058-0.158-0.066-0.235c-0.196-1.748-0.391-3.497-0.587-5.245c-0.016-0.142-0.01-0.279,0.069-0.412
	c0.391,0.274,0.779,0.546,1.167,0.818c0.632,0.443,1.263,0.888,1.897,1.329c0.065,0.045,0.087,0.074,0.032,0.151
	c-0.825,1.176-1.646,2.356-2.468,3.534C113.937,35.203,113.924,35.219,113.904,35.247z M123.167,34.662
	c-2.865,0.32-5.73,0.64-8.595,0.961c-0.091,0.01-0.18,0.003-0.269-0.021c-0.091-0.024-0.122-0.049-0.054-0.143
	c0.24-0.331,0.47-0.669,0.704-1.004c0.595-0.853,1.192-1.706,1.784-2.562c0.054-0.078,0.087-0.085,0.166-0.029
	c0.514,0.367,1.033,0.728,1.55,1.09c0.143,0.101,0.225,0.092,0.344-0.039c0.43-0.474,0.86-0.948,1.289-1.423
	c0.041-0.045,0.064-0.083,0.133-0.021c1.093,1.001,2.189,1.999,3.284,2.998c0.009,0.008,0.016,0.019,0.029,0.034
	C123.423,34.6,123.303,34.647,123.167,34.662z M123.736,34.133c-0.254-0.231-0.501-0.455-0.747-0.68
	c-0.827-0.754-1.653-1.507-2.48-2.261c-0.046-0.042-0.093-0.067-0.024-0.142c0.84-0.921,1.676-1.845,2.521-2.778
	c0.103,0.111,0.142,0.239,0.157,0.377c0.038,0.353,0.079,0.706,0.118,1.059c0.155,1.387,0.31,2.774,0.464,4.161
	C123.754,33.951,123.778,34.037,123.736,34.133z"/>
</svg>
