<?xml version="1.0" encoding="utf-8"?>
<!-- Generator: Adobe Illustrator 26.2.1, SVG Export Plug-In . SVG Version: 6.00 Build 0)  -->
<svg version="1.1" id="Слой_1" xmlns="http://www.w3.org/2000/svg" xmlns:xlink="http://www.w3.org/1999/xlink" x="0px" y="0px"
	 width="35.5px" height="50px" viewBox="0 0 35.5 50" enable-background="new 0 0 35.5 50" xml:space="preserve">
<path fill="#FFFFFF" d="M35.45,19.8c0-9.775-7.925-17.7-17.7-17.7s-17.7,7.925-17.7,17.7c0,7.714,4.944,14.258,11.829,16.682
	L17.75,47.9l5.821-11.4C30.483,34.09,35.45,27.533,35.45,19.8z"/>
<g>
	<path fill="#00ADEE" d="M29.418,12.194H17.706c-0.416,0-0.683,0.442-0.49,0.811l1.093,2.077c0.096,0.182,0.284,0.296,0.49,0.296
		h2.855v5.925c0,0.09,0.022,0.178,0.064,0.258l2.347,4.461c0.269,0.511,1.043,0.32,1.043-0.258V15.377h4.311
		c0.305,0,0.553-0.248,0.553-0.553v-2.077C29.971,12.442,29.724,12.194,29.418,12.194z"/>
	<path fill="#00ADEE" d="M13.548,12.49c-0.207-0.394-0.771-0.394-0.978-0.001L8.08,20.975c-0.195,0.368,0.072,0.812,0.489,0.812
		h2.28c0.202,0,0.388-0.11,0.485-0.288l1.725-3.158l4.441,8.726c0.094,0.185,0.285,0.302,0.493,0.302h2.467
		c0.416,0,0.683-0.442,0.49-0.811L13.548,12.49z"/>
	<circle fill="#00ADEE" cx="7.39" cy="25.509" r="1.861"/>
</g>
</svg>
