<?xml version="1.0" encoding="utf-8"?>
<!-- Generator: Adobe Illustrator 27.0.0, SVG Export Plug-In . SVG Version: 6.00 Build 0)  -->
<svg version="1.1" id="Слой_1" xmlns="http://www.w3.org/2000/svg" xmlns:xlink="http://www.w3.org/1999/xlink" x="0px" y="0px"
	 width="224px" height="224px" viewBox="0 0 224 224" enable-background="new 0 0 224 224" xml:space="preserve">
<g>
	<path fill="#020203" d="M12.893,126.756l14.214-28.951h7.131L48.5,126.756h-8.081l-3.708-7.702h-7.844l-2.757-3.613l-5.135,11.314
		H12.893z M30.626,105.506l-3.47,7.369h7.035L30.626,105.506z"/>
	<rect x="51.926" y="120.182" fill="#020203" width="7.369" height="6.573"/>
	<polygon fill="#020203" points="55.098,97.805 79.818,97.805 79.818,103.89 71.119,103.89 71.119,126.756 63.75,126.756 
		63.75,103.89 55.098,103.89 	"/>
	<path fill="#020203" d="M82.551,106.219c0.809-1.932,1.926-3.62,3.352-5.063c1.426-1.441,3.097-2.575,5.015-3.399
		c1.917-0.824,3.97-1.236,6.156-1.236c2.249,0,4.333,0.412,6.251,1.236c1.917,0.824,3.582,1.949,4.991,3.375
		c1.411,1.427,2.512,3.106,3.304,5.039c0.792,1.933,1.188,4.009,1.188,6.228c0,2.218-0.403,4.278-1.212,6.179
		c-0.808,1.902-1.918,3.55-3.328,4.944c-1.411,1.395-3.074,2.489-4.991,3.28c-1.918,0.791-3.986,1.188-6.204,1.188
		c-2.187,0-4.239-0.397-6.156-1.188c-1.918-0.791-3.589-1.885-5.015-3.28c-1.426-1.394-2.543-3.043-3.352-4.944
		c-0.808-1.902-1.212-3.961-1.212-6.179C81.339,110.213,81.743,108.153,82.551,106.219 M88.85,115.774
		c0.476,1.046,1.117,1.973,1.926,2.782c0.808,0.808,1.742,1.442,2.805,1.902c1.061,0.459,2.194,0.688,3.399,0.688
		c1.235,0,2.401-0.214,3.494-0.641c1.093-0.428,2.052-1.029,2.876-1.806c0.824-0.777,1.473-1.696,1.95-2.758
		c0.475-1.061,0.712-2.241,0.712-3.541c0-1.205-0.23-2.353-0.689-3.447c-0.46-1.093-1.086-2.06-1.878-2.9
		c-0.792-0.839-1.735-1.504-2.829-1.996c-1.093-0.491-2.274-0.738-3.541-0.738c-1.236,0-2.394,0.246-3.471,0.738
		c-1.077,0.492-2.02,1.157-2.828,1.996c-0.809,0.841-1.45,1.807-1.926,2.9c-0.475,1.094-0.712,2.242-0.712,3.447
		C88.138,113.604,88.375,114.729,88.85,115.774"/>
	<path fill="#020203" d="M116.422,97.805h7.511v3.043l2.473-3.043h8.413c1.997,0,3.644,0.356,4.945,1.07
		c1.299,0.712,2.265,1.671,2.899,2.876l3.043-3.946h8.367c1.489,0,2.764,0.221,3.826,0.665c1.062,0.444,1.933,1.046,2.615,1.806
		c0.681,0.761,1.18,1.641,1.497,2.639c0.317,0.997,0.476,2.036,0.476,3.114v20.726h-7.558V107.17c0-0.634-0.246-1.259-0.738-1.878
		s-1.117-0.927-1.878-0.927h-9.127v22.391h-7.512V107.17c0-0.887-0.23-1.576-0.688-2.067c-0.46-0.491-1.102-0.738-1.926-0.738
		h-9.128v22.391h-7.511L116.422,97.805L116.422,97.805z"/>
	<polygon fill="#FEEB1A" points="170.045,97.82 170.045,109.206 179.293,109.206 	"/>
	<polygon fill="#FEEB1A" points="184.218,115.269 170.046,115.269 170.046,126.724 193.521,126.724 	"/>
	<polygon fill="#1B9DD9" points="201.361,115.269 210.936,115.269 206.012,109.207 196.437,109.207 196.428,109.207 187.155,97.79 
		177.579,97.79 201.079,126.724 210.655,126.724 201.351,115.269 	"/>
	<path fill="#020203" d="M204.129,102.149l0-0.264c0-0.215-0.046-0.396-0.139-0.543c-0.093-0.147-0.245-0.251-0.457-0.314
		c0.188-0.082,0.33-0.19,0.427-0.323c0.097-0.133,0.146-0.293,0.146-0.478c0-0.334-0.115-0.595-0.346-0.782
		c-0.231-0.187-0.551-0.281-0.961-0.281l-1.355-0.002l-0.005,3.593l0.72,0.001l0.002-1.436l0.686,0.001
		c0.178,0,0.315,0.05,0.413,0.15c0.098,0.1,0.147,0.239,0.146,0.419l0,0.254c0,0.11,0.01,0.227,0.029,0.351
		c0.019,0.123,0.062,0.211,0.128,0.264l0.743,0.001l0-0.052c-0.066-0.053-0.112-0.134-0.139-0.243
		C204.142,102.354,204.129,102.249,204.129,102.149z M203.239,100.638c-0.1,0.085-0.251,0.128-0.453,0.128l-0.622-0.001l0.001-1.046
		l0.634,0.001c0.194,0,0.341,0.049,0.44,0.146c0.1,0.097,0.149,0.228,0.149,0.393C203.388,100.425,203.338,100.552,203.239,100.638z
		"/>
	<path fill="#020203" d="M202.7,97.79c-1.813-0.002-3.285,1.466-3.287,3.279c-0.002,1.813,1.466,3.285,3.279,3.288
		c1.813,0.002,3.285-1.466,3.287-3.279C205.981,99.264,204.513,97.792,202.7,97.79z M202.692,103.822
		c-1.518-0.002-2.747-1.234-2.745-2.752c0.002-1.518,1.234-2.747,2.752-2.745c1.518,0.002,2.747,1.234,2.745,2.753
		C205.443,102.594,204.21,103.824,202.692,103.822z"/>
</g>
</svg>
