<?xml version="1.0" encoding="utf-8"?>
<!-- Generator: Adobe Illustrator 24.0.2, SVG Export Plug-In . SVG Version: 6.00 Build 0)  -->
<svg version="1.1" id="Слой_1" xmlns="http://www.w3.org/2000/svg" xmlns:xlink="http://www.w3.org/1999/xlink" x="0px" y="0px"
	 width="299px" height="53.401px" viewBox="0 0 299 53.401" enable-background="new 0 0 299 53.401" xml:space="preserve">
<g>
	<path fill="#009EE2" d="M107.2,12.6c0.4-1.1,0.5-2.6,0.5-4.3c0-1.8-0.2-3.2-0.6-4.4c-0.4-1.1-1.1-2-2.2-2.6s-2.6-0.9-4.6-0.9h-11
		v23.9h4.9v-8h6c2,0,3.6-0.3,4.7-1C106.2,14.6,106.9,13.7,107.2,12.6z M102.5,10.8c-0.2,0.5-0.6,0.8-1.2,1s-1.6,0.3-3,0.3h-4V4.7h4
		c1.4,0,2.4,0.1,3,0.3c0.6,0.2,1,0.5,1.1,1c0.2,0.5,0.3,1.3,0.3,2.4S102.7,10.3,102.5,10.8z"/>
	<path fill="#009EE2" d="M123.2,0.4h-6.6l-8.1,23.9h5l1.7-5.1h9.3l1.7,5.1h5.1L123.2,0.4z M116.5,14.8l3.2-9.8h0.2l3.3,9.8H116.5z"
		/>
	<path fill="#009EE2" d="M147.2,24.4c1.1-0.1,2.1-0.2,2.9-0.4v-4.1c-1.5,0.2-3.1,0.3-4.8,0.3c-2.1,0-3.6-0.2-4.4-0.5
		c-0.8-0.3-1.3-1-1.6-2c-0.2-1-0.3-2.8-0.3-5.5c0-2.6,0.1-4.5,0.3-5.5s0.8-1.7,1.6-2s2.3-0.5,4.4-0.5c1.1,0,2.7,0.1,4.7,0.3v-4
		c-0.7-0.2-1.7-0.3-2.8-0.5c-1.1,0.2-2.2,0.1-3.2,0.1c-2.9,0-5.1,0.4-6.5,1.1s-2.3,1.9-2.8,3.6S134,9,134,12.3
		c0,3.4,0.2,5.9,0.7,7.6c0.5,1.7,1.4,2.9,2.8,3.6c1.4,0.7,3.6,1.1,6.5,1.1C145,24.6,146,24.5,147.2,24.4z"/>
	<polygon fill="#009EE2" points="174.8,0.4 169.4,0.4 162,10 159.6,10 159.6,0.4 154.6,0.4 154.6,24.3 159.6,24.3 159.6,14.2 
		162,14.2 169.2,24.3 174.9,24.3 165.9,11.8 	"/>
	<rect x="177.2" y="12.4" fill="#009EE2" width="9.1" height="4.1"/>
	<polygon fill="#009EE2" points="188.8,4.9 195.8,4.9 195.8,24.3 200.7,24.3 200.7,4.9 207.7,4.9 207.7,0.4 188.8,0.4 	"/>
	<path fill="#009EE2" d="M229.9,8c0-1.7-0.2-3.1-0.5-4.2c-0.4-1.1-1.1-1.9-2.2-2.5c-1.1-0.6-2.6-0.9-4.7-0.9h-11.3v23.9h4.9v-8.7
		h5.4l3.5,8.7h5.2l-3.8-9.3C228.8,14.1,229.9,11.8,229.9,8z M224.7,10.1c-0.2,0.5-0.6,0.8-1.2,1c-0.6,0.2-1.6,0.3-2.9,0.3h-4.3V4.7
		h4.4c1.4,0,2.3,0.1,2.9,0.3c0.6,0.2,1,0.5,1.1,0.9c0.2,0.4,0.3,1.2,0.3,2.2C224.9,9,224.8,9.7,224.7,10.1z"/>
	<path fill="#009EE2" d="M240.6,0.4l-8.1,23.9h5l1.7-5.1h9.3l1.7,5.1h5.1l-8.1-23.9C247.2,0.4,240.6,0.4,240.6,0.4z M240.5,14.8
		l3.2-9.8h0.2l3.3,9.8H240.5z"/>
	<path fill="#009EE2" d="M274.2,1.4c-1.5-0.7-3.9-1-7.3-1h-8.1v23.9h8.1c3.4,0,5.9-0.3,7.3-1c1.5-0.7,2.4-1.8,2.8-3.3
		s0.6-4.1,0.6-7.6s-0.2-6.1-0.6-7.6C276.6,3.2,275.7,2.1,274.2,1.4z M272.2,17.9c-0.2,0.9-0.7,1.5-1.4,1.8c-0.7,0.2-2.1,0.3-4.2,0.3
		h-3V4.7h3c2.1,0,3.5,0.1,4.2,0.3c0.7,0.2,1.2,0.8,1.4,1.8c0.2,1,0.3,2.8,0.3,5.5C272.5,15.1,272.4,16.9,272.2,17.9z"/>
	<polygon fill="#009EE2" points="299,4.7 299,0.4 282.6,0.4 282.6,24.3 299,24.3 299,20 287.5,20 287.5,14.3 297.4,14.3 297.4,10.1 
		287.5,10.1 287.5,4.7 	"/>
	<path fill="#009EE2" d="M92.9,39.8c-0.6-0.2-1.1-0.4-1.4-0.6c-0.3-0.2-0.5-0.4-0.6-0.6c-0.1-0.2-0.2-0.5-0.2-0.8
		c0-0.5,0.2-0.8,0.5-1.1s0.8-0.4,1.4-0.4c0.8,0,1.5,0.2,2.3,0.5l0.4-1c-0.8-0.4-1.7-0.5-2.7-0.5c-0.9,0-1.7,0.2-2.2,0.7
		c-0.6,0.4-0.8,1-0.8,1.8c0,0.7,0.2,1.3,0.6,1.7s1,0.8,1.9,1.2c0.6,0.2,1.1,0.4,1.4,0.6c0.3,0.2,0.5,0.4,0.7,0.6
		c0.1,0.2,0.2,0.5,0.2,0.8c0,0.5-0.2,0.9-0.6,1.2s-0.9,0.4-1.7,0.4c-0.5,0-0.9,0-1.4-0.1s-0.9-0.2-1.3-0.4v1.1
		c0.6,0.3,1.5,0.4,2.7,0.4c1.1,0,1.9-0.2,2.5-0.7s0.9-1.1,0.9-2c0-0.7-0.2-1.2-0.6-1.6C94.6,40.6,93.9,40.2,92.9,39.8z"/>
	<rect x="97.6" y="35.5" fill="#009EE2" width="1.1" height="9.7"/>
	<path fill="#009EE2" d="M107.9,41c0,0.3,0,0.7,0,1.4c0,0.6,0.1,1,0.1,1.2h-0.1l-5.3-8.1h-1.3v9.7h1v-5.5c0-0.8,0-1.7-0.1-2.6h0.1
		l5.3,8.2h1.3v-9.7h-1.1V41H107.9z"/>
	<path fill="#009EE2" d="M115.8,36.3c0.7,0,1.5,0.2,2.2,0.5l0.5-1c-0.8-0.4-1.7-0.6-2.7-0.6s-1.8,0.2-2.5,0.6
		c-0.7,0.4-1.2,1-1.6,1.7c-0.4,0.8-0.6,1.6-0.6,2.6c0,1.6,0.4,2.8,1.2,3.7c0.8,0.9,1.9,1.3,3.3,1.3c1,0,1.8-0.1,2.5-0.4v-1
		c-0.9,0.2-1.6,0.4-2.3,0.4c-1.1,0-2-0.3-2.6-1s-0.9-1.7-0.9-3c0-1.2,0.3-2.2,0.9-2.9C113.9,36.7,114.7,36.3,115.8,36.3z"/>
	<polygon fill="#009EE2" points="120.2,45.2 125.7,45.2 125.7,44.2 121.4,44.2 121.4,40.6 125.4,40.6 125.4,39.6 121.4,39.6 
		121.4,36.5 125.7,36.5 125.7,35.5 120.2,35.5 	"/>
	<path fill="#009EE2" d="M132.1,44.1l2.1-2.1c0.9-0.9,1.6-1.7,1.9-2.3s0.5-1.2,0.5-1.8c0-0.8-0.3-1.4-0.8-1.9s-1.2-0.7-2.1-0.7
		c-1.1,0-2,0.4-2.9,1.1l0.6,0.8c0.4-0.4,0.8-0.6,1.2-0.7c0.4-0.1,0.7-0.2,1.1-0.2c0.6,0,1,0.2,1.3,0.5s0.5,0.7,0.5,1.2
		c0,0.4-0.1,0.7-0.2,1c-0.1,0.3-0.3,0.6-0.6,1c-0.2,0.3-0.8,0.9-1.5,1.7l-2.6,2.6v1h6.4v-1L132.1,44.1L132.1,44.1z"/>
	<path fill="#009EE2" d="M141.7,35.3c-1.1,0-1.9,0.4-2.4,1.2s-0.8,2.1-0.8,3.8c0,1.6,0.3,2.9,0.8,3.7s1.3,1.3,2.4,1.3
		c1.1,0,1.9-0.4,2.4-1.2s0.8-2.1,0.8-3.8c0-1.6-0.3-2.9-0.8-3.7C143.5,35.7,142.7,35.3,141.7,35.3z M143.3,43.4
		c-0.3,0.7-0.9,1-1.6,1c-0.7,0-1.3-0.3-1.6-1c-0.3-0.6-0.5-1.7-0.5-3.1c0-1.4,0.2-2.4,0.5-3.1c0.3-0.6,0.9-1,1.6-1
		c0.7,0,1.3,0.3,1.6,1c0.3,0.6,0.5,1.7,0.5,3.1S143.6,42.7,143.3,43.4z"/>
	<path fill="#009EE2" d="M149.5,35.3c-1.1,0-1.9,0.4-2.4,1.2s-0.8,2.1-0.8,3.8c0,1.6,0.3,2.9,0.8,3.7s1.3,1.3,2.4,1.3
		c1.1,0,1.9-0.4,2.4-1.2s0.8-2.1,0.8-3.8c0-1.6-0.3-2.9-0.8-3.7C151.3,35.7,150.5,35.3,149.5,35.3z M151.1,43.4
		c-0.3,0.7-0.9,1-1.6,1c-0.7,0-1.3-0.3-1.6-1c-0.3-0.6-0.5-1.7-0.5-3.1c0-1.4,0.2-2.4,0.5-3.1c0.3-0.6,0.9-1,1.6-1
		c0.7,0,1.3,0.3,1.6,1c0.3,0.6,0.5,1.7,0.5,3.1S151.4,42.7,151.1,43.4z"/>
	<path fill="#009EE2" d="M159.5,35.4h-1.2l-4.6,6.6v1h4.7v2.2h1.1V43h1.4v-1h-1.4V35.4z M158.4,38.7v3.2h-3.6l3-4.3
		c0.2-0.3,0.4-0.6,0.6-1.1h0.1C158.4,37.4,158.4,38.1,158.4,38.7z"/>
	<circle fill="#009EE2" cx="5.5" cy="39.8" r="5.5"/>
	<path fill="#009EE2" d="M58.3,24.072V9.6h12.8c0.9,0,1.6-0.7,1.6-1.6V1.7c0.1-0.9-0.6-1.6-1.5-1.6H36.3c-1.2,0-2,1.3-1.5,2.4
		l3.3,6.2c0.3,0.5,0.8,0.9,1.5,0.9H48v14.351c1.565-0.67,3.293-1.038,5.121-1.038C54.981,22.912,56.727,23.333,58.3,24.072z"/>
	<path fill="#009EE2" d="M40.049,36.468l0.002-0.076c0-1.288,0.179-2.523,0.491-3.695L23.9,1c-0.6-1.2-2.3-1.2-2.9,0L7.6,26.3
		c-0.6,1.1,0.2,2.4,1.5,2.4h6.8c0.6,0,1.2-0.3,1.4-0.9l5.1-9.4l13.2,26c0.3,0.6,0.8,0.9,1.5,0.9h5.327
		c-2.141-4.07-2.379-7.443-2.376-8.772L40.049,36.468z"/>
	<g>
		<path fill="#009EE2" d="M72.182,36.861c0-0.021,0.002-0.041,0.002-0.062c0-3.904-2.824-7.479-7.069-7.479
			c-3.374,0-5.33,2.425-5.997,4.694c-0.667-2.269-2.624-4.694-5.997-4.694c-4.246,0-7.069,3.575-7.069,7.479
			c0,0.021,0.001,0.041,0.002,0.062c-0.01,0.357-0.007,2.09,0.961,4.499h24.209C72.189,38.951,72.192,37.218,72.182,36.861z"/>
		<path fill="#FFED00" d="M59.113,53.399v0.002c0.001,0,0.001-0.001,0.002-0.001c0.001,0,0.001,0.001,0.002,0.001
			c0.001,0,0.001-0.001,0.002-0.001c0.001,0,0.001,0.001,0.002,0.001v-0.002c7.578-4.087,10.763-8.709,12.101-12.038H47.012
			C48.35,44.69,51.535,49.312,59.113,53.399z"/>
	</g>
</g>
</svg>
