<?xml version="1.0" encoding="utf-8"?>
<!-- Generator: Adobe Illustrator 26.2.1, SVG Export Plug-In . SVG Version: 6.00 Build 0)  -->
<svg version="1.1" id="Слой_1" xmlns="http://www.w3.org/2000/svg" xmlns:xlink="http://www.w3.org/1999/xlink" x="0px" y="0px"
	 width="40px" height="40px" viewBox="0 0 40 40" enable-background="new 0 0 40 40" xml:space="preserve">
<path fill="#333333" d="M39.421,5.216c-0.138-0.933-0.761-1.467-1.688-1.45c-0.335,0.006-0.648,0.097-0.958,0.215
	C28.028,7.33,19.28,10.677,10.533,14.026c-2.809,1.076-5.619,2.152-8.424,3.237c-0.522,0.202-1.014,0.469-1.367,0.926
	c-0.342,0.442-0.303,0.873,0.11,1.246c0.317,0.285,0.704,0.442,1.105,0.568c2.837,0.884,5.675,1.765,8.51,2.657
	c0.231,0.073,0.397,0.028,0.591-0.094c6.716-4.208,13.435-8.411,20.153-12.616c0.204-0.128,0.407-0.257,0.643-0.319
	c0.27-0.07,0.597-0.192,0.766,0.087c0.178,0.294-0.142,0.472-0.33,0.641c-5.405,4.859-10.813,9.716-16.223,14.569
	c-0.169,0.151-0.267,0.299-0.283,0.54c-0.191,2.834-0.392,5.668-0.603,8.501c-0.018,0.237,0.05,0.283,0.261,0.255
	c0.51-0.067,0.931-0.295,1.3-0.65c1.427-1.371,2.866-2.73,4.287-4.107c0.211-0.204,0.335-0.196,0.561-0.029
	c2.806,2.067,5.62,4.122,8.43,6.184c0.353,0.259,0.738,0.438,1.16,0.545c0.822,0.209,1.478-0.066,1.906-0.798
	c0.193-0.331,0.317-0.689,0.397-1.062c0.364-1.696,0.726-3.392,1.088-5.088c1.464-6.858,2.924-13.717,4.395-20.574
	c0.163-0.76,0.269-1.534,0.524-2.274c0-0.203,0-0.406,0-0.609c0-0.178,0-0.355,0-0.533C39.464,5.236,39.441,5.232,39.421,5.216z"/>
</svg>
