<?xml version="1.0" encoding="utf-8"?>
<!-- Generator: Adobe Illustrator 27.0.0, SVG Export Plug-In . SVG Version: 6.00 Build 0)  -->
<svg version="1.1" id="Слой_1" xmlns="http://www.w3.org/2000/svg" xmlns:xlink="http://www.w3.org/1999/xlink" x="0px" y="0px"
	 width="20px" height="20px" viewBox="0 0 20 20" enable-background="new 0 0 20 20" xml:space="preserve">
<g>
	<circle fill="#EAF6FE" cx="9.896" cy="10.033" r="10"/>
	<path fill="#1B9DD9" d="M14.736,6.206c-0.113-0.329-0.44-0.472-0.806-0.352C11.731,6.579,9.532,7.305,7.333,8.03
		C6.712,8.235,6.091,8.439,5.47,8.642C5.3,8.698,5.165,8.794,5.086,8.959C4.936,9.273,5.073,9.617,5.41,9.765
		c0.668,0.294,1.337,0.586,2.006,0.877c0.052,0.023,0.086,0.048,0.099,0.11c0.151,0.715,0.306,1.429,0.46,2.143
		c0.057,0.263,0.11,0.526,0.174,0.787c0.041,0.165,0.164,0.249,0.312,0.229c0.082-0.011,0.146-0.058,0.209-0.105
		c0.502-0.376,1.005-0.75,1.505-1.129c0.061-0.046,0.095-0.051,0.158,0.001c0.576,0.477,1.154,0.951,1.735,1.421
		c0.379,0.307,0.868,0.139,0.98-0.337c0.504-2.139,1.005-4.278,1.509-6.417c0.067-0.285,0.124-0.573,0.208-0.854
		c0-0.063,0-0.127,0-0.19C14.736,6.276,14.747,6.237,14.736,6.206z M8.491,12.367c-0.005,0.018-0.005,0.038-0.033,0.057
		c-0.125-0.581-0.248-1.159-0.374-1.737c-0.009-0.042-0.012-0.066,0.033-0.091c0.865-0.479,1.73-0.959,2.595-1.439
		c0.004-0.002,0.011,0,0.034,0c-0.029,0.032-0.051,0.056-0.073,0.079c-0.574,0.6-1.147,1.201-1.722,1.799
		c-0.077,0.08-0.128,0.168-0.157,0.275C8.695,11.663,8.591,12.014,8.491,12.367z M8.964,12.872
		c-0.006-0.006-0.012-0.012-0.018-0.019c0.1-0.35,0.201-0.7,0.304-1.059c0.186,0.152,0.364,0.298,0.551,0.45
		C9.519,12.457,9.242,12.664,8.964,12.872z M14.175,6.47c-0.427,1.819-0.855,3.638-1.283,5.457c-0.13,0.551-0.259,1.102-0.389,1.653
		c-0.008,0.033-0.017,0.066-0.025,0.098c-0.041-0.003-0.059-0.032-0.083-0.051c-0.937-0.766-1.873-1.533-2.812-2.298
		c-0.059-0.048-0.058-0.071-0.007-0.124c0.955-0.995,1.907-1.992,2.86-2.988c0.075-0.078,0.149-0.156,0.146-0.276
		c-0.005-0.189-0.183-0.32-0.363-0.265c-0.042,0.013-0.082,0.033-0.12,0.054c-1.429,0.793-2.858,1.587-4.286,2.381
		c-0.048,0.026-0.087,0.046-0.148,0.019C6.998,9.834,6.329,9.543,5.66,9.25C5.64,9.241,5.622,9.23,5.602,9.22
		C5.62,9.183,5.656,9.183,5.684,9.174c2.805-0.926,5.61-1.85,8.415-2.775c0.026-0.009,0.064-0.026,0.08-0.016
		C14.213,6.406,14.181,6.443,14.175,6.47z"/>
</g>
</svg>
