<?xml version="1.0" encoding="utf-8"?>
<!-- Generator: Adobe Illustrator 26.2.1, SVG Export Plug-In . SVG Version: 6.00 Build 0)  -->
<svg version="1.1" id="Слой_1" xmlns="http://www.w3.org/2000/svg" xmlns:xlink="http://www.w3.org/1999/xlink" x="0px" y="0px"
	 width="40px" height="40px" viewBox="0 0 40 40" enable-background="new 0 0 40 40" xml:space="preserve">
<path fill="#333333" d="M37.566,14.058c0.004-1.457-0.196-2.891-0.712-4.248c-2.078-5.465-6.001-8.61-11.847-9.257
	c-1.66-0.184-3.333-0.025-4.999-0.07c-0.254,0-0.508-0.004-0.762,0.001c-1.901,0.038-3.804-0.091-5.699,0.253
	C7.394,1.854,2.589,7.43,2.469,13.679C2.428,15.838,2.397,18,2.467,20.157c0.174,5.405,2.699,9.393,7.418,12.002
	c0.274,0.151,0.383,0.293,0.381,0.611c-0.016,1.953-0.006,3.906-0.01,5.86c-0.001,0.366,0.019,0.704,0.429,0.862
	c0.393,0.151,0.623-0.095,0.863-0.335c1.728-1.73,3.461-3.456,5.183-5.192c0.216-0.218,0.432-0.317,0.746-0.315
	c1.89,0.015,3.78,0.005,5.669,0.008c1.064,0.002,2.121-0.034,3.178-0.206c6.112-0.994,11.075-6.632,11.222-12.822
	C37.599,18.441,37.561,16.249,37.566,14.058z M26.415,12.642c-0.928-1.897-2.965-3.043-5.068-2.853
	c-0.514,0.046-0.836-0.159-0.883-0.565c-0.049-0.416,0.257-0.712,0.782-0.756c3.685-0.311,6.85,2.542,7.021,6.316
	c-0.016,0.253-0.021,0.508-0.051,0.759c-0.055,0.461-0.364,0.75-0.734,0.703c-0.38-0.048-0.641-0.389-0.587-0.837
	C27.015,14.435,26.843,13.517,26.415,12.642z M25.658,14.911c-0.008,0.414-0.254,0.715-0.612,0.7
	c-0.388-0.016-0.599-0.247-0.647-0.63c-0.205-1.632-0.988-2.422-2.567-2.591c-0.403-0.043-0.679-0.327-0.651-0.671
	c0.031-0.388,0.342-0.594,0.879-0.581C23.998,11.183,25.694,12.963,25.658,14.911z M29.006,26.124
	c-0.648,0.676-1.323,1.328-2.01,1.963c-0.823,0.762-1.841,0.801-2.868,0.642c-1.807-0.281-3.397-1.11-4.89-2.113
	c-3.529-2.372-6.428-5.353-8.55-9.053c-0.857-1.494-1.513-3.068-1.574-4.827c-0.034-0.99,0.265-1.834,1.01-2.518
	c0.538-0.493,1.035-1.03,1.554-1.544c0.87-0.861,2.061-0.907,2.929-0.054c0.985,0.968,1.947,1.961,2.877,2.982
	c0.943,1.036,0.547,2.557-0.759,3.073c-1.169,0.462-1.644,1.36-1.201,2.543c0.897,2.395,2.589,4.072,4.938,5.047
	c1.011,0.42,2.062-0.103,2.512-1.111c0.647-1.449,2.172-1.732,3.28-0.602c0.911,0.93,1.812,1.87,2.717,2.806
	C29.758,24.171,29.789,25.309,29.006,26.124z M30.678,16.924c-0.094,0.484-0.427,0.733-0.829,0.639
	c-0.394-0.092-0.545-0.397-0.441-0.894c1.01-4.859-2.542-9.34-7.527-9.497c-0.238-0.007-0.477,0.002-0.714-0.011
	c-0.378-0.02-0.666-0.193-0.658-0.598c0.008-0.392,0.23-0.634,0.659-0.664c2.557-0.179,4.795,0.607,6.688,2.306
	c1.992,1.787,2.98,4.057,3.033,6.732C30.905,15.61,30.805,16.269,30.678,16.924z"/>
</svg>
