<?xml version="1.0" encoding="utf-8"?>
<!-- Generator: Adobe Illustrator 27.0.0, SVG Export Plug-In . SVG Version: 6.00 Build 0)  -->
<svg version="1.1" id="Слой_1" xmlns="http://www.w3.org/2000/svg" xmlns:xlink="http://www.w3.org/1999/xlink" x="0px" y="0px"
	 width="20px" height="20px" viewBox="0 0 20 20" enable-background="new 0 0 20 20" xml:space="preserve">
<g>
	<circle fill="#EAF6FE" cx="10" cy="10" r="10"/>
	<g>
		<path fill="#1B9DD9" d="M14.299,8.63c-0.043-0.485-0.127-0.961-0.297-1.42c-0.23-0.621-0.612-1.109-1.223-1.397
			c-0.57-0.27-1.176-0.402-1.797-0.482c-0.138-0.018-0.279-0.009-0.413-0.054c-0.019,0-0.037,0-0.055,0c-0.012,0-0.025,0-0.037,0
			s-0.025,0-0.037,0c-0.295,0-0.59,0-0.886,0c-0.019,0-0.037,0-0.055,0c-0.012,0-0.025,0-0.037,0c-0.037,0-0.074,0-0.111,0
			C9.288,5.312,9.217,5.304,9.149,5.311C8.565,5.368,7.997,5.487,7.452,5.707c-0.612,0.247-1.08,0.646-1.36,1.255
			C5.9,7.379,5.792,7.818,5.736,8.271c-0.068,0.544-0.073,1.091-0.06,1.638c0.011,0.45,0.057,0.895,0.172,1.331
			c0.263,0.999,0.839,1.715,1.852,2.03c0.049,0.015,0.066,0.037,0.066,0.09c-0.003,0.298-0.002,0.596-0.002,0.895
			c0,0.1,0.015,0.196,0.057,0.287c0.058,0.124,0.157,0.185,0.294,0.183c0.132-0.001,0.222-0.084,0.307-0.167
			c0.235-0.227,0.447-0.475,0.643-0.735c0.14-0.186,0.283-0.251,0.527-0.236c0.869,0.054,1.729-0.026,2.573-0.262
			c0.647-0.181,1.19-0.504,1.568-1.073c0.299-0.45,0.444-0.955,0.507-1.485C14.322,10.055,14.362,9.344,14.299,8.63z M11.387,6.07
			c0.345,0.066,0.68,0.162,1.003,0.3c0.489,0.208,0.797,0.579,0.984,1.065c0.171,0.446,0.243,0.913,0.275,1.386
			c0.013,0.196,0.026,0.393,0.02,0.59c-0.02,0.537-0.021,1.077-0.15,1.603c-0.15,0.617-0.46,1.123-1.036,1.433
			c-0.315,0.17-0.663,0.242-1.007,0.316c-0.616,0.132-1.241,0.178-1.869,0.145c-0.141-0.007-0.22,0.033-0.305,0.139
			c-0.342,0.431-0.688,0.859-1.056,1.268C8.2,14.367,8.154,14.44,8.073,14.408c-0.076-0.03-0.063-0.114-0.062-0.179
			c0.001-0.492,0.006-0.984,0.009-1.476c0-0.043,0.004-0.079-0.055-0.098c-0.837-0.259-1.312-0.846-1.514-1.678
			c-0.089-0.366-0.124-0.739-0.126-1.115C6.322,9.269,6.317,8.675,6.436,8.09c0.098-0.486,0.272-0.938,0.618-1.306
			c0.228-0.243,0.518-0.391,0.823-0.511C8.344,6.09,8.833,6.001,9.331,5.962C10.02,5.907,10.706,5.94,11.387,6.07z"/>
		<path fill="#1B9DD9" d="M9.086,8.749C9.287,8.593,9.317,8.404,9.193,8.18C9.041,7.905,8.859,7.651,8.66,7.408
			C8.509,7.224,8.357,7.193,8.154,7.317c-0.14,0.086-0.265,0.189-0.372,0.314C7.667,7.764,7.584,7.912,7.579,8.093
			c-0.001,0.063,0.01,0.122,0.034,0.18c0.075,0.175,0.153,0.349,0.225,0.525c0.639,1.556,1.799,2.559,3.342,3.158
			c0.153,0.06,0.298,0.032,0.432-0.047c0.243-0.144,0.412-0.356,0.527-0.611c0.056-0.124,0.045-0.252-0.055-0.351
			c-0.262-0.262-0.56-0.48-0.885-0.657c-0.167-0.091-0.341-0.041-0.459,0.11c-0.032,0.041-0.063,0.083-0.096,0.124
			c-0.14,0.179-0.221,0.203-0.437,0.128c-0.625-0.219-1.021-0.672-1.28-1.261C8.788,9.07,8.783,8.983,9.086,8.749z"/>
		<path fill="#1B9DD9" d="M9.938,7.206c0.04,0.004,0.08,0.004,0.12,0.006c0.874,0.035,1.589,0.564,1.88,1.39
			c0.104,0.296,0.146,0.601,0.155,0.913c0.003,0.101,0.045,0.142,0.122,0.138c0.075-0.004,0.109-0.05,0.108-0.151
			c-0.004-0.247-0.034-0.49-0.093-0.73c-0.261-1.06-1.119-1.769-2.176-1.801c-0.034,0-0.068,0.001-0.101,0
			C9.878,6.969,9.833,7,9.827,7.076C9.822,7.154,9.861,7.198,9.938,7.206z"/>
		<path fill="#1B9DD9" d="M11.486,9.266c0.003,0.096,0.043,0.145,0.117,0.143c0.074-0.002,0.11-0.05,0.111-0.149
			c0-0.022,0-0.043,0-0.065c0.001,0,0.002,0,0.004,0c-0.007-0.067-0.012-0.134-0.021-0.201c-0.098-0.771-0.648-1.335-1.54-1.406
			c-0.071-0.006-0.119,0.029-0.127,0.104c-0.007,0.076,0.024,0.124,0.105,0.133c0.043,0.005,0.085,0.011,0.128,0.016
			c0.575,0.065,1.021,0.438,1.167,0.978C11.47,8.965,11.481,9.115,11.486,9.266z"/>
		<path fill="#1B9DD9" d="M10.335,8.229c-0.078-0.001-0.126,0.033-0.132,0.109c-0.006,0.077,0.036,0.12,0.113,0.129
			c0.012,0.001,0.025,0.001,0.037,0.002c0.294,0.028,0.458,0.173,0.518,0.461c0.01,0.048,0.012,0.097,0.018,0.146
			c0.009,0.075,0.041,0.134,0.127,0.126c0.083-0.008,0.111-0.067,0.105-0.162c-0.004-0.032-0.009-0.08-0.017-0.129
			C11.042,8.504,10.736,8.232,10.335,8.229z"/>
	</g>
</g>
</svg>
