<?xml version="1.0" encoding="utf-8"?>
<!-- Generator: Adobe Illustrator 27.0.0, SVG Export Plug-In . SVG Version: 6.00 Build 0)  -->
<svg version="1.1" id="Layer_1" xmlns="http://www.w3.org/2000/svg" xmlns:xlink="http://www.w3.org/1999/xlink" x="0px" y="0px"
	 width="500px" height="240px" viewBox="0 0 500 240" enable-background="new 0 0 500 240" xml:space="preserve">
<g>
	<path fill="none" stroke="#434346" stroke-miterlimit="10" d="M416.828,106.822c-0.419-0.25-0.989-0.422-1.709-0.516l-0.728-0.085
		c-0.725-0.086-1.257-0.174-1.594-0.266c-0.339-0.09-0.509-0.249-0.509-0.474c0-0.208,0.154-0.391,0.461-0.549
		c0.306-0.158,0.705-0.261,1.192-0.31c0.486-0.049,1.023-0.035,1.56,0.05c0.536,0.084,0.908,0.236,1.118,0.456l0.484-1.524
		c-0.357-0.197-0.823-0.332-1.397-0.405c-0.576-0.073-1.182-0.079-1.819-0.017c-1.073,0.106-1.947,0.394-2.618,0.862
		c-0.674,0.47-1.01,1.061-1.01,1.769c0,0.581,0.195,1.002,0.587,1.264c0.39,0.263,0.92,0.425,1.59,0.489
		c0.249,0.026,0.436,0.043,0.56,0.047c0.826,0.082,1.438,0.168,1.84,0.259c0.4,0.09,0.6,0.249,0.6,0.472
		c0,0.251-0.174,0.448-0.521,0.589c-0.348,0.143-0.819,0.238-1.412,0.287c-0.702,0.042-1.315,0.009-1.837-0.1
		c-0.524-0.11-0.899-0.305-1.122-0.59l-0.514,1.555c0.324,0.272,0.85,0.461,1.576,0.569c0.723,0.106,1.479,0.114,2.269,0.023
		c1.095-0.127,1.966-0.416,2.614-0.866c0.646-0.45,0.968-1.035,0.968-1.758C417.456,107.483,417.248,107.072,416.828,106.822
		L416.828,106.822z"/>
	<path fill="none" stroke="#434346" stroke-miterlimit="10" d="M425.531,103.903c-0.273-0.533-0.673-0.944-1.204-1.235
		c-0.532-0.29-1.167-0.399-1.906-0.327c-0.562,0.055-1.049,0.214-1.46,0.476c-0.411,0.263-0.716,0.564-0.914,0.903l-0.091,0.009
		l-0.425-0.931l-1.415,0.14v7.203l1.72,1.985l0.121-0.015v-3.243l0.091-0.01c0.232,0.321,0.567,0.553,1.004,0.697
		c0.437,0.144,0.957,0.182,1.561,0.112c0.645-0.074,1.221-0.299,1.728-0.674c0.505-0.374,0.898-0.853,1.179-1.436
		c0.281-0.583,0.421-1.22,0.421-1.912C425.94,105.016,425.804,104.435,425.531,103.903z M423.567,107.491
		c-0.398,0.428-0.925,0.678-1.579,0.751c-0.461,0.052-0.884-0.03-1.27-0.249c-0.386-0.219-0.64-0.531-0.761-0.934v-1.664
		c0.096-0.418,0.34-0.772,0.735-1.061c0.394-0.288,0.826-0.457,1.297-0.505c0.647-0.066,1.171,0.082,1.574,0.44
		c0.401,0.359,0.602,0.881,0.602,1.566S423.964,107.065,423.567,107.491z"/>
	<path fill="none" stroke="#434346" stroke-miterlimit="10" d="M433.145,102.443c-0.315-0.351-0.727-0.599-1.234-0.743
		c-0.51-0.144-1.059-0.187-1.648-0.129c-0.92,0.09-1.724,0.376-2.412,0.859c-0.691,0.484-1.061,1.192-1.11,2.123l1.904-0.199
		c0.008-0.384,0.175-0.703,0.501-0.958c0.326-0.254,0.69-0.402,1.092-0.443c0.459-0.047,0.841-0.008,1.147,0.117
		c0.306,0.124,0.458,0.325,0.458,0.6c0,0.181-0.181,0.341-0.543,0.478c-0.364,0.138-0.935,0.282-1.715,0.433
		c-1.951,0.432-2.954,1.233-2.995,2.4c-0.034,0.711,0.202,1.234,0.705,1.564c0.502,0.33,1.168,0.448,1.993,0.353
		c0.625-0.072,1.166-0.263,1.625-0.571c0.457-0.308,0.787-0.662,0.991-1.065v1.165l1.713-0.197v-4.449
		C433.618,103.241,433.461,102.793,433.145,102.443L433.145,102.443z M431.843,105.65c0,0.242-0.079,0.499-0.238,0.771
		c-0.158,0.273-0.391,0.508-0.698,0.706c-0.306,0.2-0.666,0.322-1.076,0.368c-0.378,0.042-0.704,0.012-0.975-0.092
		c-0.273-0.104-0.409-0.304-0.409-0.601c0-0.322,0.158-0.557,0.476-0.704c0.318-0.148,0.768-0.279,1.351-0.394
		c0.818-0.141,1.34-0.339,1.568-0.597V105.65L431.843,105.65z"/>
	<path fill="none" stroke="#434346" stroke-miterlimit="10" d="M434.524,108.126v-6.806l1.31-0.129l0.335,1.415l0.072-0.007
		c0.167-0.478,0.443-0.89,0.829-1.236c0.385-0.345,0.861-0.545,1.429-0.601c0.284-0.028,0.587-0.011,0.908,0.05v1.894l-0.164,0.017
		c-0.078-0.093-0.224-0.17-0.437-0.228c-0.213-0.058-0.457-0.074-0.733-0.046c-0.316,0.032-0.617,0.151-0.902,0.355
		c-0.286,0.205-0.516,0.473-0.692,0.807c-0.175,0.334-0.263,0.706-0.263,1.117v3.203L434.524,108.126z"/>
	<path fill="none" stroke="#434346" stroke-miterlimit="10" d="M440.068,107.488v-6.715l1.275-0.126l0.327,1.396l0.07-0.007
		c0.163-0.472,0.432-0.878,0.807-1.218c0.375-0.34,0.838-0.537,1.392-0.591c0.276-0.027,0.571-0.01,0.884,0.051v1.869l-0.16,0.017
		c-0.076-0.092-0.218-0.168-0.425-0.226c-0.207-0.058-0.445-0.074-0.714-0.046c-0.307,0.031-0.601,0.148-0.878,0.349
		c-0.278,0.201-0.503,0.466-0.674,0.796c-0.17,0.33-0.256,0.697-0.256,1.102v3.16L440.068,107.488z"/>
	<path fill="none" stroke="#434346" stroke-miterlimit="10" d="M446.758,106.431c-0.534-0.239-0.937-0.606-1.208-1.102
		c-0.27-0.496-0.406-1.075-0.406-1.735c0-0.659,0.135-1.278,0.406-1.828c0.27-0.549,0.672-1.002,1.208-1.36
		c0.533-0.356,1.175-0.571,1.926-0.645c0.748-0.074,1.382,0.015,1.903,0.264c0.519,0.249,0.91,0.619,1.171,1.11
		c0.261,0.491,0.393,1.061,0.393,1.709s-0.131,1.247-0.393,1.793c-0.262,0.548-0.653,0.999-1.171,1.355
		c-0.521,0.357-1.154,0.579-1.903,0.665c-0.751,0.087-1.393,0.011-1.926-0.227V106.431z M449.7,104.836
		c0.287-0.21,0.506-0.473,0.659-0.792c0.153-0.317,0.229-0.662,0.229-1.033s-0.076-0.701-0.229-0.991
		c-0.153-0.289-0.373-0.508-0.659-0.657c-0.288-0.148-0.626-0.202-1.015-0.163c-0.389,0.04-0.732,0.163-1.026,0.372
		c-0.294,0.209-0.519,0.475-0.674,0.799c-0.155,0.324-0.233,0.674-0.233,1.049c0,0.375,0.078,0.706,0.233,0.992
		c0.155,0.287,0.379,0.503,0.674,0.649c0.293,0.146,0.636,0.196,1.026,0.153C449.075,105.172,449.412,105.046,449.7,104.836z"/>
	<path fill="none" stroke="#434346" stroke-miterlimit="10" d="M458.881,103.918l0.096-0.011l1.118-5.112l1.618-0.16l-1.564,6.541
		l-2.242,0.258l-0.818-4.14l-0.097,0.01l-0.822,4.329l-2.288,0.263l-1.628-6.329l1.693-0.167l1.147,4.938l0.098-0.011l0.988-5.147
		l1.725-0.17L458.881,103.918L458.881,103.918z"/>
	<path fill="none" stroke="#434346" stroke-miterlimit="10" d="M417.208,114.489c-0.341-0.355-0.785-0.6-1.332-0.734
		c-0.548-0.134-1.14-0.163-1.776-0.085c-0.994,0.122-1.861,0.443-2.603,0.964c-0.744,0.523-1.145,1.27-1.198,2.238l2.056-0.264
		c0.009-0.399,0.189-0.736,0.54-1.01c0.351-0.274,0.744-0.439,1.177-0.493c0.495-0.062,0.907-0.033,1.238,0.087
		c0.329,0.12,0.493,0.324,0.493,0.61c0,0.188-0.195,0.359-0.586,0.513c-0.393,0.154-1.008,0.321-1.849,0.502
		c-2.104,0.508-3.187,1.37-3.231,2.583c-0.037,0.741,0.218,1.277,0.761,1.605c0.543,0.327,1.26,0.43,2.15,0.305
		c0.674-0.094,1.259-0.309,1.753-0.643c0.493-0.333,0.849-0.712,1.069-1.136v1.21l1.848-0.257v-4.619
		C417.718,115.301,417.548,114.843,417.208,114.489L417.208,114.489z M415.804,117.858c0,0.251-0.085,0.519-0.256,0.807
		c-0.172,0.288-0.423,0.539-0.753,0.754c-0.331,0.217-0.718,0.354-1.161,0.415c-0.408,0.056-0.758,0.034-1.052-0.066
		c-0.295-0.1-0.441-0.304-0.441-0.611c0-0.334,0.172-0.584,0.515-0.746c0.342-0.163,0.827-0.313,1.456-0.45
		c0.883-0.171,1.445-0.393,1.691-0.667V117.858L415.804,117.858z"/>
	<path fill="none" stroke="#434346" stroke-miterlimit="10" d="M423.227,112.724l-1.583,5.673l-0.089,0.012l-1.596-5.284
		l-1.997,0.245l2.217,6.769l2.819-0.392l2.166-7.261L423.227,112.724L423.227,112.724z"/>
	<path fill="none" stroke="#434346" stroke-miterlimit="10" d="M427.647,112.182l-1.775,0.218v6.948l1.775-0.247v-3.274
		l-1.658-1.935l1.658-0.209V112.182z"/>
	<path fill="none" stroke="#434346" stroke-miterlimit="10" d="M434.965,112.266c-0.313-0.342-0.721-0.58-1.225-0.711
		c-0.504-0.132-1.048-0.162-1.633-0.09c-0.913,0.112-1.71,0.415-2.391,0.911c-0.683,0.498-1.05,1.212-1.1,2.139l1.889-0.243
		c0.008-0.382,0.174-0.704,0.497-0.965c0.322-0.261,0.683-0.417,1.081-0.467c0.456-0.057,0.834-0.027,1.138,0.089
		c0.302,0.117,0.454,0.313,0.454,0.587c0,0.18-0.181,0.344-0.54,0.489c-0.36,0.146-0.926,0.302-1.7,0.472
		c-1.933,0.476-2.928,1.297-2.968,2.459c-0.034,0.71,0.2,1.225,0.7,1.542c0.498,0.317,1.156,0.419,1.974,0.305
		c0.62-0.087,1.157-0.289,1.611-0.606c0.453-0.317,0.78-0.678,0.982-1.084v1.16l1.699-0.236v-4.43
		C435.433,113.048,435.277,112.608,434.965,112.266L434.965,112.266z M433.674,115.49c0,0.241-0.079,0.498-0.236,0.773
		c-0.158,0.275-0.389,0.515-0.692,0.719c-0.305,0.206-0.66,0.336-1.066,0.391c-0.376,0.051-0.698,0.028-0.968-0.069
		c-0.271-0.097-0.405-0.293-0.405-0.588c0-0.32,0.158-0.558,0.473-0.712c0.314-0.155,0.761-0.296,1.338-0.424
		c0.811-0.159,1.329-0.369,1.556-0.631L433.674,115.49L433.674,115.49z"/>
	<path fill="none" stroke="#434346" stroke-miterlimit="10" d="M436.472,112.745c-0.138-0.069-0.246-0.174-0.328-0.312
		c-0.081-0.139-0.122-0.296-0.122-0.473c0-0.177,0.04-0.344,0.122-0.503c0.081-0.159,0.191-0.29,0.328-0.394
		c0.138-0.103,0.289-0.166,0.453-0.186c0.164-0.02,0.315,0.005,0.453,0.075c0.138,0.069,0.247,0.174,0.327,0.312
		c0.08,0.139,0.121,0.295,0.121,0.471s-0.04,0.343-0.121,0.501c-0.08,0.159-0.19,0.29-0.327,0.393
		c-0.138,0.104-0.289,0.167-0.453,0.188C436.76,112.839,436.609,112.815,436.472,112.745z M437.317,112.529
		c0.119-0.091,0.214-0.204,0.284-0.342c0.07-0.138,0.105-0.284,0.105-0.437s-0.035-0.289-0.105-0.408
		c-0.07-0.119-0.165-0.211-0.284-0.272c-0.119-0.061-0.251-0.084-0.393-0.067c-0.142,0.017-0.274,0.072-0.394,0.164
		c-0.12,0.092-0.216,0.206-0.288,0.343c-0.072,0.137-0.108,0.284-0.108,0.436s0.035,0.29,0.105,0.412
		c0.071,0.121,0.166,0.212,0.288,0.271c0.121,0.06,0.253,0.081,0.396,0.063C437.067,112.673,437.198,112.619,437.317,112.529
		L437.317,112.529z M436.533,112.35v-0.958l0.476-0.059c0.106-0.013,0.185,0.001,0.239,0.044c0.054,0.043,0.08,0.109,0.08,0.2
		c0,0.138-0.07,0.228-0.212,0.272v0.01l0.116-0.014c0.06-0.008,0.09,0.021,0.09,0.086v0.322l-0.221,0.028v-0.352l-0.351,0.044v0.353
		l-0.218,0.027V112.35z M436.973,111.75c0.088-0.011,0.133-0.053,0.133-0.126c0-0.035-0.011-0.06-0.033-0.076
		c-0.022-0.016-0.056-0.022-0.099-0.016l-0.221,0.027v0.22l0.221-0.028V111.75z"/>
	<g>
		<polygon fill="none" stroke="#434346" stroke-miterlimit="10" points="404.753,110.351 404.546,113.896 400.794,108.32 
			401.003,104.745 403.159,102.498 403.278,100.448 405.167,103.303 405.065,105.039 405.802,104.264 405.802,104.264 
			407.213,109.086 406.951,113.638 405.128,110.911 404.788,109.758 		"/>
		<polygon fill="none" stroke="#434346" stroke-miterlimit="10" points="396.003,96.662 392.909,94.92 400.22,94.145 
			403.222,95.865 403.921,98.665 405.629,99.634 402.04,100.064 400.567,99.234 400.813,100.211 400.813,100.211 395.616,99.378 
			391.603,97.149 395.263,96.744 396.517,96.952 		"/>
		<polygon fill="none" stroke="#434346" stroke-miterlimit="10" points="412.823,95.11 415.852,93.328 412.658,99.653 
			409.581,101.498 406.798,100.937 404.982,102.017 406.664,98.734 408.198,97.832 407.231,97.628 407.231,97.628 410.788,93.658 
			414.726,91.36 413.147,94.472 412.312,95.411 		"/>
	</g>
</g>
<g>
	<path fill="none" stroke="#434346" stroke-width="2" stroke-miterlimit="10" d="M340.522,151.53c0,0,3.53,2.521,6.892,1.849
		c3.362-0.672,7.9-0.868,7.9-0.868s13.784-3.167,14.96-3.167c1.177,0,11.262-3.53,13.952-3.53c2.69,0,17.146-2.858,17.146-2.858
		s9.245-3.026,10.926-3.026s19.499-2.185,22.02-2.858c2.521-0.672,26.895-4.707,28.576-4.707s22.02-3.362,23.029-3.53
		c1.009-0.168,9.245,0,10.422-8.237s0-9.413,0-9.413s-0.336-7.228,1.681-10.254c2.017-3.026,2.017-7.228,1.009-10.086
		c-1.009-2.858-1.681-6.892-1.177-10.254c0.504-3.362,3.378-8.069,1.529-15.128s-6.836-9.894-9.411-9.993
		c-2.576-0.099-9.114,0.594-9.114,0.594s-0.793,0.198-2.576-1.288c-1.783-1.486-10.105-0.495-10.105-0.495l-67.067,5.647
		l-42.004,2.675l-22.587,0.892l-1.906-0.036c0,0-6.083-9.007-20.354-6.785c-14.271,2.223-31.935,18.599-31.935,18.599
		s-17.78,19.769-21.056,24.214c-3.275,4.445-9.358,18.599-9.709,28.308c-0.351,9.709,0,23.512,0,23.512"/>
	<path fill="none" stroke="#434346" stroke-width="2" stroke-miterlimit="10" d="M256.827,150.609c0,0-4.562-36.848,13.335-52.757
		l19.652-21.407c0,0,8.448-9.892,21.173-12.867c7.253-1.696,12.166,0,12.166,0s5.849,1.93,8.071,5.322"/>
	<path fill="none" stroke="#434346" stroke-width="2" stroke-miterlimit="10" d="M241.62,152.305l2.223-21.29
		c0,0,1.053-17.845,9.592-27.288c8.539-9.443,23.746-26.872,23.746-26.872s11.113-11.216,26.613-16.604"/>
	<path fill="none" stroke="#434346" stroke-width="2" stroke-miterlimit="10" d="M247.937,151.837c0,0,1.538-19.009,4.688-31.321"/>
	<path fill="none" stroke="#434346" stroke-width="2" stroke-miterlimit="10" d="M300.658,67.755c0,0,16.647-7.16,28.11,0.678"/>
	<path fill="none" stroke="#434346" stroke-width="2" stroke-miterlimit="10" d="M240.005,153.493c0,0-0.367,9.366-0.334,10.996
		c0.032,1.63,2.206,2.897,3.171,2.897c0.966,0,4.829-1.207,4.829-1.207l3.736,1.207c0,0,2.059,0.241,4.293-1.147
		c2.233-1.388,5.674-2.596,5.674-2.596l-1.932-12.437c0,0,0.06,0.545-1.871,1.333c-1.932,0.788-4.947,0.953-4.947,0.953
		S241.334,154.348,240.005,153.493c-1.328-0.855,1.729-2.286,1.729-2.286"/>
	<polyline fill="none" stroke="#434346" stroke-width="2" stroke-miterlimit="10" points="239.669,165.878 238.919,168.473 
		239.294,174.57 241.273,175.717 241.998,185.556 249.724,186.039 249.181,176.864 	"/>
	<polyline fill="none" stroke="#434346" stroke-width="2" stroke-miterlimit="10" points="251.407,177.286 251.897,186.039 
		256.847,186.039 262.401,184.892 261.374,174.208 263.185,171.552 261.676,167.93 	"/>
	<polyline fill="none" stroke="#434346" stroke-width="2" stroke-miterlimit="10" points="241.273,175.717 256.307,175.717 
		260.469,174.63 	"/>
	<polyline fill="none" stroke="#434346" stroke-width="2" stroke-miterlimit="10" points="240.005,169.318 256.847,169.077 
		260.469,167.93 	"/>
	
		<line fill="none" stroke="#434346" stroke-width="2" stroke-miterlimit="10" x1="256.307" y1="177.951" x2="256.847" y2="186.039"/>
	<polyline fill="none" stroke="#434346" stroke-width="2" stroke-miterlimit="10" points="261.374,163.644 262.74,165.878 
		261.374,167.159 	"/>
	<polyline fill="none" stroke="#434346" stroke-width="2" stroke-miterlimit="10" points="334.927,147.161 329.419,149.522 
		320.415,149.085 314.646,149.522 283.349,148.56 292.791,149.259 303.281,149.259 312.81,151.207 323.388,151.207 330.031,151.837 
		337.025,148.997 329.857,152.844 316.307,154.242 304.243,152.305 291.479,153.493 282.737,156.952 	"/>
	<polyline fill="none" stroke="#434346" stroke-width="2" stroke-miterlimit="10" points="282.388,153.493 289.731,151.207 
		299.26,151.207 	"/>
	<polyline fill="none" stroke="#434346" stroke-width="2" stroke-miterlimit="10" points="283.175,160.012 302.407,154.592 
		316.307,154.242 	"/>
	<polyline fill="none" stroke="#434346" stroke-width="2" stroke-miterlimit="10" points="282.737,164.033 308.614,155.991 
		318.492,154.242 	"/>
	<polyline fill="none" stroke="#434346" stroke-width="2" stroke-miterlimit="10" points="282.388,167.159 299.741,161.323 
		308.963,157.564 314.995,157.127 329.857,152.844 	"/>
	<polyline fill="none" stroke="#434346" stroke-width="2" stroke-miterlimit="10" points="281.426,148.997 273.209,152.057 
		270.324,149.522 278.629,146.724 	"/>
	<polyline fill="none" stroke="#434346" stroke-width="2" stroke-miterlimit="10" points="278.541,145.763 283.349,148.56 
		281.426,169.318 	"/>
	<polyline fill="none" stroke="#434346" stroke-width="2" stroke-miterlimit="10" points="270.324,149.522 269.712,169.318 
		272.707,171.516 	"/>
	
		<line fill="none" stroke="#434346" stroke-width="2" stroke-miterlimit="10" x1="273.209" y1="152.057" x2="272.707" y2="171.516"/>
	<line fill="none" stroke="#434346" stroke-width="2" stroke-miterlimit="10" x1="272.707" y1="171.516" x2="280.945" y2="167.93"/>
	<path fill="none" stroke="#434346" stroke-width="2" stroke-miterlimit="10" d="M331.225,147.161l-1.381-4.344v-4.784
		l-1.832-11.096l-1.018-8.958v-7.94l-1.018-9.569l1.425-10.587c0,0,0.509-3.665,0.509-5.497c0-1.832-0.509-8.551-0.509-8.551
		l0.234-8.121"/>
	<path fill="none" stroke="#434346" stroke-width="2" stroke-miterlimit="10" d="M329.883,69.847c0,0,0.125,3.124,3.499,1.999
		s3.643-5.998,3.643-5.998"/>
	<path fill="none" stroke="#434346" stroke-width="2" stroke-miterlimit="10" d="M342.754,67.716c0,0,7.498,3.381,7.498,12.003
		s-1.375,12.996-1.375,12.996"/>
	<path fill="none" stroke="#434346" stroke-width="2" stroke-miterlimit="10" d="M349.377,98.588c0,0,4.499,14.87,0.875,21.743"/>
	<path fill="none" stroke="#434346" stroke-width="2" stroke-miterlimit="10" d="M348.252,126.704c0,0,6.248,10.747,1.125,20.458"/>
	<path fill="none" stroke="#434346" stroke-width="2" stroke-miterlimit="10" d="M358.812,76.598c0,0,20.215,2.297,33.564-0.798
		c13.349-3.095,34.437-5.03,40.241-4.643c5.804,0.387,38.029-0.56,46.432-4.558"/>
	<path fill="none" stroke="#434346" stroke-width="2" stroke-miterlimit="10" d="M333.177,144.143c0,0,5.245,1.315,6.295,4.351"/>
</g>
</svg>
