<?xml version="1.0" encoding="utf-8"?>
<!-- Generator: Adobe Illustrator 27.0.0, SVG Export Plug-In . SVG Version: 6.00 Build 0)  -->
<svg version="1.1" id="Layer_1" xmlns="http://www.w3.org/2000/svg" xmlns:xlink="http://www.w3.org/1999/xlink" x="0px" y="0px"
	 width="500px" height="240px" viewBox="0 0 500 240" enable-background="new 0 0 500 240" xml:space="preserve">
<g>
	<path fill="none" stroke="#434346" stroke-width="2" stroke-miterlimit="10" d="M309.172,181.104c0,0-3.753-1.812-4.011-4.658
		s-0.647-4.788-0.647-4.788s0-3.364-3.494-2.976c-3.494,0.388-6.729-0.031-6.729-0.031s-3.494,0.937-4.27,2.231
		c-0.776,1.294-2.07,1.682-5.176,1.812c-3.106,0.129-5.305-2.329-5.305-2.329l-1.553-4.141h-13.845l-0.776-52.018l-0.647-3.106
		v-6.729l0.906-2.2l-0.259-10.093l1.165-7.246h13.457l0.388-12.94l0.776-1.294h12.94l0.078,4.871"/>
	<polyline fill="none" stroke="#434346" stroke-width="2" stroke-miterlimit="10" points="277.987,166.223 291.883,166.223 
		290.773,92.267 291.883,87.162 	"/>
	<line fill="none" stroke="#434346" stroke-width="2" stroke-miterlimit="10" x1="263.365" y1="92.078" x2="290.773" y2="92.267"/>
	<path fill="none" stroke="#434346" stroke-width="2" stroke-miterlimit="10" d="M278.899,87.162l21.196-0.444
		c0,0,4.328,0.222,4.661,3.44s-7.657,9.1-7.657,9.1s-6.325,5.66-5.216,13.317"/>
	<path fill="none" stroke="#434346" stroke-width="2" stroke-miterlimit="10" d="M404.333,57.806l-0.526-2.993h-3.58
		c0,0-17.373,3.836-22.954,5.204c-5.581,1.369-10.424,1.158-18.216,1.264c-5.747,0.078-25.081-2.9-38.05-5.879l-3.432,0.061
		l-0.28,2.585"/>
	<path fill="none" stroke="#434346" stroke-width="2" stroke-miterlimit="10" d="M287.111,73.179c0,0,3.995,2.774,6.658,3.329
		c2.663,0.555,8.656,0,8.656,0s2.24-1.443,2.341-3.329c0.101-1.887,0.878-11.763,0.878-11.763s0.177-2.552,3.529-2.996
		c0.828-0.11,3.819,0.016,7.969,0.266c0.257,0.015-0.266-0.016,0,0"/>
	<path fill="none" stroke="#434346" stroke-width="2" stroke-miterlimit="10" d="M414.53,159.829L390.719,136.9
		c0,0-2.882-2.436-3.88-11.2c-1.587-13.934,28.837-36.598,28.837-36.598V71.201c0,0-2.49-2.734-3.906-3.32
		c-1.416-0.586-2.588,0.098-2.588,0.098l-17.278,7.377l-7.765,0.194l-10.279,9.195c0.168,0.762,0.257,1.552,0.257,2.36
		c0,6.468-5.658,11.712-12.638,11.712s-12.638-5.243-12.638-11.712c0-0.697,0.066-1.38,0.192-2.044l-0.192-0.274l-10.442-9.612
		l-7.476,0.356l-19.461-8.042l-5.103,4.482c0,0,0,8.544,0,12.697c0,4.153,2.017,5.696,2.017,5.696l15.664,14.833
		c0,0,11.154,9.018,11.273,20.654c0.119,11.636-12.341,18.98-12.341,18.98l-16.613,16.732v15.426c0,0,0.336,1.896,1.441,2.448
		c1.106,0.553,3.001,2.556,3.001,2.556l19.268-7.847l7.66,0.158l10.108-9.318l0.787-0.581c-0.195-0.774-0.298-1.578-0.298-2.404
		c0-6.092,5.602-11.031,12.513-11.031s12.513,4.939,12.513,11.031c0,0.762-0.088,1.505-0.254,2.223c0,0,0.269,1.08,1.561,2.254
		c1.291,1.174,8.571,7.749,8.571,7.749l8.219,0.059l18.022,7.707c0,0,2.055-0.545,3.64-2.189c1.585-1.644,1.702-4.109,1.702-4.109
		L414.53,159.829z"/>
	<path fill="none" stroke="#434346" stroke-width="2" stroke-miterlimit="10" d="M319.942,56.796c0,0,23.269,6.705,36.442,6.468
		c13.173-0.237,17.233-0.158,23.564-1.341c6.331-1.183,12.957-2.524,12.957-2.524"/>
	<path fill="none" stroke="#434346" stroke-width="2" stroke-miterlimit="10" d="M325.803,73.415c0,0,2.5-1.869,9.678-0.37
		c7.178,1.499,12.699,2.84,24.531,2.603c11.832-0.237,16.249-0.631,16.249-0.631l12.936-2.554c0,0,2.209-0.364,2.997-0.443
		c0.789-0.079,2.682,0,2.682,0"/>
	<path fill="none" stroke="#434346" stroke-width="2" stroke-miterlimit="10" d="M401.487,58.047h12.965
		c0,0,1.254,0.174,1.225,1.986s0,5.714,0,5.714s1.103,3.21,1.103,4.342c0,1.133,0,9.818,0,9.818s-0.755,2.392,6.797,2.329
		c7.552-0.063,14.16,0.001,14.16,0.001s5.349,0.251,6.545,4.341l0.566,2.392l2.895,2.643h28.164c0,0,22.212,0.494,23.953,20.752
		c1.741,20.258-13.379,24.014-13.379,24.014s-8.993,4.842-18.48,2.174c-9.487-2.668-10.673-6.423-10.673-6.423l-3.459-2.075"/>
	<path fill="none" stroke="#434346" stroke-width="2" stroke-miterlimit="10" d="M419.579,90.526h21.049c0,0,7.51,3.162,9.586,6.325
		c2.075,3.162,3.558,6.028,3.755,8.795c0.198,2.767,0,33.006,0,33.006l-0.593,16.009l-6.522,7.214"/>
	<path fill="none" stroke="#434346" stroke-width="2" stroke-miterlimit="10" d="M454.057,119.288l8.88,8.82
		c0,0,6.778,5.553,13.639,4.165c6.86-1.388,10.454-4.165,10.454-4.165c11.914-11.221,2.474-22.342,2.474-22.342"/>
	<path fill="none" stroke="#434346" stroke-width="2" stroke-miterlimit="10" d="M454.057,116.593l8.472,8.33
		c0,0,5.635,6.125,14.455,4.492s12.332-7.84,12.332-7.84s2.368-1.797,2.695-6.697c0.964-14.453-15.599-15.109-15.599-15.109
		s-15.762-0.245-18.784,0c-3.022,0.245-4.16,3.379-4.16,3.379"/>
	<circle fill="none" stroke="#434346" stroke-width="2" stroke-miterlimit="10" cx="338.754" cy="145.909" r="4.586"/>
	<circle fill="none" stroke="#434346" stroke-width="2" stroke-miterlimit="10" cx="338.754" cy="104.203" r="4.586"/>
	<circle fill="none" stroke="#434346" stroke-width="2" stroke-miterlimit="10" cx="383.394" cy="104.203" r="4.586"/>
	<circle fill="none" stroke="#434346" stroke-width="2" stroke-miterlimit="10" cx="382.504" cy="145.909" r="4.586"/>
	<ellipse fill="none" stroke="#434346" stroke-width="2" stroke-miterlimit="10" cx="333.793" cy="159.943" rx="1.892" ry="1.593"/>
	<ellipse fill="none" stroke="#434346" stroke-width="2" stroke-miterlimit="10" cx="387.455" cy="159.943" rx="1.892" ry="1.593"/>
	<circle fill="none" stroke="#434346" stroke-width="2" stroke-miterlimit="10" cx="388.298" cy="89.519" r="1.892"/>
	<circle fill="none" stroke="#434346" stroke-width="2" stroke-miterlimit="10" cx="334.168" cy="89.519" r="1.892"/>
	<path fill="none" stroke="#434346" stroke-width="2" stroke-miterlimit="10" d="M330.486,153.633l-1.813,3.587
		c-0.526,1.041-1.797,1.459-2.839,0.932v0c-1.041-0.526-1.459-1.797-0.932-2.838l1.813-3.587c0.526-1.041,1.797-1.459,2.839-0.932
		l0,0C330.595,151.321,331.012,152.592,330.486,153.633z"/>
	<path fill="none" stroke="#434346" stroke-width="2" stroke-miterlimit="10" d="M341.769,164.991l-1.509,3.725
		c-0.438,1.081-1.67,1.603-2.751,1.165l0,0c-1.081-0.438-1.603-1.67-1.165-2.751l1.509-3.725c0.438-1.081,1.67-1.603,2.751-1.165
		l0,0C341.685,162.678,342.207,163.91,341.769,164.991z"/>
	<path fill="none" stroke="#434346" stroke-width="2" stroke-miterlimit="10" d="M383.219,162.975l1.864,4.409
		c0.454,1.075-0.048,2.314-1.123,2.769l0,0c-1.075,0.454-2.314-0.048-2.769-1.123l-1.864-4.409
		c-0.454-1.075,0.048-2.314,1.123-2.769l0,0C381.525,161.397,382.764,161.9,383.219,162.975z"/>
	<path fill="none" stroke="#434346" stroke-width="2" stroke-miterlimit="10" d="M394.019,151.722l2.235,3.34
		c0.649,0.97,0.389,2.282-0.581,2.931v0c-0.97,0.649-2.282,0.389-2.931-0.581l-2.235-3.34c-0.649-0.97-0.389-2.282,0.581-2.931l0,0
		C392.058,150.493,393.371,150.753,394.019,151.722z"/>
	<path fill="none" stroke="#434346" stroke-width="2" stroke-miterlimit="10" d="M385.801,82.841l-1.353,3.785
		c-0.393,1.099-1.602,1.671-2.7,1.278l0,0c-1.099-0.393-1.671-1.602-1.278-2.7l1.353-3.785c0.393-1.099,1.602-1.671,2.7-1.278l0,0
		C385.622,80.533,386.194,81.742,385.801,82.841z"/>
	<path fill="none" stroke="#434346" stroke-width="2" stroke-miterlimit="10" d="M396.983,94.317l-1.509,3.725
		c-0.438,1.081-1.67,1.603-2.751,1.165l0,0c-1.081-0.438-1.603-1.67-1.165-2.751l1.509-3.725c0.438-1.081,1.67-1.603,2.751-1.165
		l0,0C396.9,92.004,397.421,93.236,396.983,94.317z"/>
	<path fill="none" stroke="#434346" stroke-width="2" stroke-miterlimit="10" d="M329.251,92.712l1.827,3.58
		c0.53,1.039,0.118,2.312-0.922,2.842l0,0c-1.039,0.53-2.312,0.118-2.842-0.922l-1.827-3.58c-0.53-1.039-0.118-2.312,0.922-2.842h0
		C327.448,91.26,328.721,91.673,329.251,92.712z"/>
	<path fill="none" stroke="#434346" stroke-width="2" stroke-miterlimit="10" d="M340.899,81.27l1.312,3.799
		c0.381,1.103-0.205,2.306-1.308,2.686l0,0c-1.103,0.381-2.306-0.205-2.686-1.308l-1.312-3.799
		c-0.381-1.103,0.205-2.306,1.308-2.686l0,0C339.315,79.582,340.518,80.167,340.899,81.27z"/>
	<path fill="none" stroke="#434346" stroke-width="2" stroke-miterlimit="10" d="M418.307,91.411c0,0-2.516,0.608-2.631,4.052
		c-0.114,3.444,0,5.94,0,5.94h21.597"/>
	<path fill="none" stroke="#434346" stroke-width="2" stroke-miterlimit="10" d="M415.676,99.66c0,0-1.737-0.005-1.737,2.74
		s0,55.152,0,55.152"/>
	<path fill="none" stroke="#434346" stroke-width="2" stroke-miterlimit="10" d="M415.676,167.909c0,0,0.135,1.996,5.875,1.996
		s22.334,0.007,22.334,0.007s2.632,0.378,2.632-3.018c0-4.229,0.683-35.817,0.683-35.817v-17.865l-2.891-10.696"/>
	
		<line fill="none" stroke="#434346" stroke-width="2" stroke-miterlimit="10" x1="415.625" y1="103.903" x2="416.904" y2="112.923"/>
	<line fill="none" stroke="#434346" stroke-width="2" stroke-miterlimit="10" x1="424.71" y1="112.923" x2="443.442" y2="112.923"/>
	
		<line fill="none" stroke="#434346" stroke-width="2" stroke-miterlimit="10" x1="416.904" y1="116.573" x2="416.265" y2="161.875"/>
	<path fill="none" stroke="#434346" stroke-width="2" stroke-miterlimit="10" d="M319.942,66.685h4.88c0,0,2.228-0.719,2.228-1.653
		s-0.359-1.725,0-2.947"/>
	<path fill="none" stroke="#434346" stroke-width="2" stroke-miterlimit="10" d="M400.721,66.397h-3.45c0,0-1.869-0.287-1.941-1.15
		s-0.455-3.162-0.455-3.162"/>
	<line fill="none" stroke="#434346" stroke-width="2" stroke-miterlimit="10" x1="395.978" y1="67.044" x2="395.978" y2="71.069"/>
	<line fill="none" stroke="#434346" stroke-width="2" stroke-miterlimit="10" x1="326.332" y1="67.489" x2="326.332" y2="71.069"/>
	<line fill="none" stroke="#434346" stroke-width="2" stroke-miterlimit="10" x1="402.903" y1="61.282" x2="413.485" y2="61.282"/>
	<line fill="none" stroke="#434346" stroke-width="2" stroke-miterlimit="10" x1="402.903" y1="66.397" x2="409.328" y2="66.397"/>
	<line fill="none" stroke="#434346" stroke-width="2" stroke-miterlimit="10" x1="310.311" y1="61.282" x2="318.474" y2="61.282"/>
	<polyline fill="none" stroke="#434346" stroke-width="2" stroke-miterlimit="10" points="279.51,76.428 282.821,73.633 
		285.271,73.332 	"/>
	<path fill="none" stroke="#434346" stroke-width="2" stroke-miterlimit="10" d="M289.398,76.428l3.095,1.978
		c0,0,0.903,0.86,3.353,0.817s4.686,0.002,4.686,0.002"/>
	<path fill="none" stroke="#434346" stroke-width="2" stroke-miterlimit="10" d="M294.371,115.606l8.673-8.191
		c0,0,2.489-2.586,2.249-7.798"/>
	<path fill="none" stroke="#434346" stroke-width="2" stroke-miterlimit="10" d="M324.902,155.314"/>
	<path fill="none" stroke="#434346" stroke-width="2" stroke-miterlimit="10" d="M348.4,160.814c0,0,15.821,2.69,24.881,0"/>
	<path fill="none" stroke="#434346" stroke-width="2" stroke-miterlimit="10" d="M337.73,174.304c0,0,12.176,3.639,27.885,2.33
		c9.813-0.818,15.839-4.012,15.839-4.012"/>
	<path fill="none" stroke="#434346" stroke-width="2" stroke-miterlimit="10" d="M348.625,164.404c0,0,22.07,1.162,24.473-0.18"/>
	<line fill="none" stroke="#434346" stroke-width="2" stroke-miterlimit="10" x1="267.147" y1="113.863" x2="287.019" y2="113.32"/>
	<line fill="none" stroke="#434346" stroke-width="2" stroke-miterlimit="10" x1="268.016" y1="104.203" x2="285.39" y2="103.764"/>
	<path fill="none" stroke="#434346" stroke-width="2" stroke-miterlimit="10" d="M309.129,133.796L309.129,133.796
		c-2.998,0-5.429-2.43-5.429-5.429v-10.364c0-2.998,2.43-5.429,5.429-5.429h0c2.998,0,5.429,2.43,5.429,5.429v10.364
		C314.558,131.365,312.127,133.796,309.129,133.796z"/>
</g>
</svg>
