<?xml version="1.0" encoding="utf-8"?>
<!-- Generator: Adobe Illustrator 27.0.0, SVG Export Plug-In . SVG Version: 6.00 Build 0)  -->
<svg version="1.1" id="Layer_1" xmlns="http://www.w3.org/2000/svg" xmlns:xlink="http://www.w3.org/1999/xlink" x="0px" y="0px"
	 width="500px" height="500px" viewBox="0 0 500 500" enable-background="new 0 0 500 500" xml:space="preserve">
<g>
	<path fill="none" stroke="#434346" stroke-width="2" stroke-miterlimit="10" d="M404.632,389.864c0,0,5.749,0.47,6-5.881"/>
	<path fill="none" stroke="#434346" stroke-width="2" stroke-miterlimit="10" d="M352.384,256.708c0,0,41.432,51.823,49.324,61.293
		s18.151,34.855-6.971,56.952c-25.122,22.097-49.981,1.841-49.981,1.841l-63.119-67.581"/>
	<path fill="none" stroke="#434346" stroke-width="2" stroke-miterlimit="10" d="M349.753,252.63c0,0,19.072,27.49-26.946,59.352
		c0,0-23.43,12.068-36.32,2.072s-8.944-23.675-8.944-23.675"/>
	<polyline fill="none" stroke="#434346" stroke-width="2" stroke-miterlimit="10" points="328.482,200.478 328.482,278.784 
		278.366,285.324 268.005,279.989 268.005,266.014 272.824,260.473 273.065,206.742 322.699,198.309 	"/>
	<polyline fill="none" stroke="#434346" stroke-width="2" stroke-miterlimit="10" points="268.005,279.989 319.326,272.279 
		319.326,259.509 281.636,265.291 	"/>
	
		<line fill="none" stroke="#434346" stroke-width="2" stroke-miterlimit="10" x1="319.326" y1="272.279" x2="328.482" y2="278.784"/>
	<line fill="none" stroke="#434346" stroke-width="2" stroke-miterlimit="10" x1="319.326" y1="259.509" x2="323.904" y2="252.63"/>
	<polyline fill="none" stroke="#434346" stroke-width="2" stroke-miterlimit="10" points="273.065,206.742 263.232,208.213 
		263.232,210.757 264.249,212.08 264.351,218.796 263.369,218.901 206.685,219.027 151.137,218.901 147.476,217.512 
		124.373,217.512 111.37,220.795 111.37,227.359 135.23,231.778 148.738,230.596 180.461,230.596 185.581,230.596 261.259,230.596 
		272.933,236.141 	"/>
	<polyline fill="none" stroke="#434346" stroke-width="2" stroke-miterlimit="10" points="114.905,225.213 123.237,223.446 
		145.077,223.446 151.137,224.33 262.107,225.213 	"/>
	<path fill="none" stroke="#434346" stroke-width="2" stroke-miterlimit="10" d="M158.57,200.437c0,4.235,0,9.332,0,9.332
		s-0.496,1.946-2.277,2.37"/>
	<path fill="none" stroke="#434346" stroke-width="2" stroke-miterlimit="10" d="M123.241,217.798v-5.317l-4.79-2.456
		c0,0-0.781,1.228-0.67-3.796s-0.011-13.509-0.011-13.509s1.329-1.898,2.735-2.679c1.406-0.781,2.735-1.005,2.735-1.005
		s22.562-3.573,33.615,3.126c0,0,1.715,0.645,1.715,3.148c0,0.869,0,2.875,0,5.125"/>
	<polyline fill="none" stroke="#434346" stroke-width="2" stroke-miterlimit="10" points="163.782,213.65 168.526,215.961 
		202.836,219.018 	"/>
	<path fill="none" stroke="#434346" stroke-width="2" stroke-miterlimit="10" d="M119.051,206.625c0,0,5.005-4.666,23.245-3.139
		c18.239,1.527,15.76,7.373,15.76,7.373"/>
	<path fill="none" stroke="#434346" stroke-width="2" stroke-miterlimit="10" d="M358.963,215.387l91.463-57.233v-6.55l32.752-5.337
		c0,0,3.732-0.424,4.793,2.304s0,12.431,0,12.431l-2.426,3.638l-27.288,11.825l-1.516,1.668l-16.069,9.551h-6.064l-51.998,30.32"/>
	
		<line fill="none" stroke="#434346" stroke-width="2" stroke-miterlimit="10" x1="378.365" y1="210.726" x2="419.296" y2="186.167"/>
	
		<line fill="none" stroke="#434346" stroke-width="2" stroke-miterlimit="10" x1="417.326" y1="183.893" x2="452.648" y2="163.124"/>
	<path fill="none" stroke="#434346" stroke-width="2" stroke-miterlimit="10" d="M457.651,157.667l22.891-5.154
		c0,0,3.032-0.91,5.912,1.213"/>
	<path fill="none" stroke="#434346" stroke-width="2" stroke-miterlimit="10" d="M455.083,150.845c0,0,0.597-2.577-3.496-3.638
		c-4.093-1.061-5.912-4.093-5.912-4.093l-1.061-18.798c0,0,5.306-8.658,24.559-8.641c13.651,0.012,20.011,5.458,20.011,5.458
		l1.668,16.373c0,0,1.586,7.253-9.236,9.017"/>
	<path fill="none" stroke="#434346" stroke-width="2" stroke-miterlimit="10" d="M490.851,139.513c0,0-3.487-8.68-25.772-5.648"/>
	<line fill="none" stroke="#434346" stroke-width="2" stroke-miterlimit="10" x1="409.476" y1="202.337" x2="460.7" y2="232.328"/>
	<polyline fill="none" stroke="#434346" stroke-width="2" stroke-miterlimit="10" points="406.132,204.287 409.476,204.287 
		459.942,233.971 	"/>
	
		<line fill="none" stroke="#434346" stroke-width="2" stroke-miterlimit="10" x1="406.132" y1="210.726" x2="449.199" y2="234.603"/>
	<polyline fill="none" stroke="#434346" stroke-width="2" stroke-miterlimit="10" points="381.583,219.129 400.667,228.536 
		438.764,228.817 	"/>
	
		<line fill="none" stroke="#434346" stroke-width="2" stroke-miterlimit="10" x1="454.081" y1="228.453" x2="499.247" y2="228.453"/>
	
		<line fill="none" stroke="#434346" stroke-width="2" stroke-miterlimit="10" x1="411.916" y1="238.521" x2="499.247" y2="239.153"/>
	
		<line fill="none" stroke="#434346" stroke-width="2" stroke-miterlimit="10" x1="420.257" y1="245.977" x2="462.469" y2="238.521"/>
	
		<line fill="none" stroke="#434346" stroke-width="2" stroke-miterlimit="10" x1="416.718" y1="242.249" x2="439.594" y2="238.837"/>
	
		<line fill="none" stroke="#434346" stroke-width="2" stroke-miterlimit="10" x1="499.247" y1="235.488" x2="397.887" y2="233.971"/>
	<line fill="none" stroke="#434346" stroke-width="2" stroke-miterlimit="10" x1="382.855" y1="200.437" x2="329.59" y2="170.289"/>
	<polyline fill="none" stroke="#434346" stroke-width="2" stroke-miterlimit="10" points="278.867,205.756 278.867,202.088 
		329.59,192.403 354.519,206.742 	"/>
	<path fill="none" stroke="#434346" stroke-width="2" stroke-miterlimit="10" d="M321.363,171.888l-13.103,2.285l-4.216-0.798
		c0,0-1.139-1.595-4.102-1.481c-2.962,0.114-3.418,1.823-3.418,1.823l0.57,24.593"/>
	<path fill="none" stroke="#434346" stroke-width="2" stroke-miterlimit="10" d="M323.159,193.631v-25.497
		c0,0,1.162-2.439,5.323-1.561l57.461,31.737"/>
	<ellipse fill="none" stroke="#434346" stroke-width="2" stroke-miterlimit="10" cx="311.763" cy="184.085" rx="3.361" ry="3.874"/>
	<ellipse fill="none" stroke="#434346" stroke-width="2" stroke-miterlimit="10" cx="312.421" cy="184.085" rx="4.815" ry="5.55"/>
	
		<line fill="none" stroke="#434346" stroke-width="2" stroke-miterlimit="10" x1="308.943" y1="175.995" x2="321.363" y2="173.944"/>
	
		<line fill="none" stroke="#434346" stroke-width="2" stroke-miterlimit="10" x1="301.579" y1="197.751" x2="301.579" y2="177.021"/>
	
		<line fill="none" stroke="#434346" stroke-width="2" stroke-miterlimit="10" x1="382.191" y1="232.248" x2="361.601" y2="223.446"/>
	<line fill="none" stroke="#434346" stroke-width="2" stroke-miterlimit="10" x1="413.995" y1="246.084" x2="390.826" y2="235.94"/>
	<path fill="none" stroke="#434346" stroke-width="2" stroke-miterlimit="10" d="M377.207,287.691l52.569-5.741
		c0,0,5.345-2.525,5.312-7.345s-2.004-6.657-2.051-8.264c-0.047-1.607,1.95-6.831,1.95-6.831s2.733-3.521,0.101-4.646l-13.037-5.574
		"/>
	
		<line fill="none" stroke="#434346" stroke-width="2" stroke-miterlimit="10" x1="422.243" y1="273.709" x2="426.564" y2="275.532"/>
	
		<line fill="none" stroke="#434346" stroke-width="2" stroke-miterlimit="10" x1="390.625" y1="260.378" x2="415.259" y2="270.765"/>
	
		<line fill="none" stroke="#434346" stroke-width="2" stroke-miterlimit="10" x1="345.035" y1="242.404" x2="382.063" y2="256.767"/>
	<path fill="none" stroke="#434346" stroke-width="2" stroke-miterlimit="10" d="M291.401,141.831l25.835,24.551
		c0,0,0.897,1.598,1.523,2.364"/>
	<ellipse fill="none" stroke="#434346" stroke-width="2" stroke-miterlimit="10" cx="293.742" cy="132.438" rx="7.837" ry="8.845"/>
	<path fill="none" stroke="#434346" stroke-width="2" stroke-miterlimit="10" d="M286.155,130.259
		c0.937-4.408,4.401-7.679,8.533-7.679c4.85,0,8.782,4.51,8.782,10.073c0,5.563-3.932,10.073-8.782,10.073
		c-4.85,0-8.782-4.51-8.782-10.073C285.905,131.828,285.992,131.026,286.155,130.259"/>
	<path fill="none" stroke="#434346" stroke-width="2" stroke-miterlimit="10" d="M298.244,123.443l20.516,7.726l25.697,6.7
		c0,0,27.86,8.615,38.399,16.033c10.539,7.418,15.975,17.985,15.975,17.985l10.646,11.891"/>
	<path fill="none" stroke="#434346" stroke-width="2" stroke-miterlimit="10" d="M424.265,193.714c0,0,1.435,1.806,0.597,6.723
		c-0.838,4.916-1.721,9.901-1.721,9.901"/>
	
		<line fill="none" stroke="#434346" stroke-width="2" stroke-miterlimit="10" x1="301.579" y1="151.503" x2="299.942" y2="171.894"/>
	
		<line fill="none" stroke="#434346" stroke-width="2" stroke-miterlimit="10" x1="302.142" y1="171.894" x2="303.469" y2="153.299"/>
	<path fill="none" stroke="#434346" stroke-width="2" stroke-miterlimit="10" d="M333.951,169.593l-4.361-27.212
		c0,0-1.544-7.652-5.585-9.728"/>
	<path fill="none" stroke="#434346" stroke-width="2" stroke-miterlimit="10" d="M336.121,170.791l-4.778-29.508
		c0,0-0.914-5.342-4.977-8.13"/>
	<path fill="none" stroke="#434346" stroke-width="2" stroke-miterlimit="10" d="M392.32,162.596c0,0,5.066,7.542,4.215,16.901
		s-5.91,16.078-5.91,16.078"/>
	<path fill="none" stroke="#434346" stroke-width="2" stroke-miterlimit="10" d="M397.918,170.289c0,0,1.612,5.744,0.912,9.922
		c-0.7,4.178-2.229,9.41-4.283,12.909"/>
	<path fill="none" stroke="#434346" stroke-width="2" stroke-miterlimit="10" d="M409.476,237.247c0,0,12.695,7.365,13.113,14.311
		c0.418,6.946,1.113,16.152,1.113,16.152s-0.862,12.051-8.98,12.553c-8.118,0.502-30.547,4.519-30.547,4.519l-8.529,0.965"/>
	<path fill="none" stroke="#434346" stroke-width="2" stroke-miterlimit="10" d="M381.583,276.33l26.779-2.678
		c0,0,6.24,0.814,7.221-3.903l-1.153-21.634c0,0,0.165-5.865-9.226-9.594"/>
	<path fill="none" stroke="#434346" stroke-width="2" stroke-miterlimit="10" d="M363.735,270.89l20.274-5.105
		c0,0,8.118-3.682,8.118-9.875s-1.506-23.098-1.506-23.098s-0.834-5.625-9.037-8.838"/>
	<path fill="none" stroke="#434346" stroke-width="2" stroke-miterlimit="10" d="M382.063,256.767
		c-1.277,1.882-2.991,2.574-2.991,2.574l-19.846,5.917"/>
	<path fill="none" stroke="#434346" stroke-width="2" stroke-miterlimit="10" d="M379.992,228.041
		c2.009,0.335,2.009,1.925,2.009,1.925s1.423,16.571,1.423,22.094c0,2.056-0.603,3.591-1.361,4.707"/>
	
		<line fill="none" stroke="#434346" stroke-width="2" stroke-miterlimit="10" x1="334.002" y1="210.726" x2="351.687" y2="219.129"/>
	<line fill="none" stroke="#434346" stroke-width="2" stroke-miterlimit="10" x1="334.002" y1="233.14" x2="340.135" y2="218.796"/>
	
		<line fill="none" stroke="#434346" stroke-width="2" stroke-miterlimit="10" x1="323.159" y1="201.297" x2="323.904" y2="243.975"/>
	<path fill="none" stroke="#434346" stroke-width="2" stroke-miterlimit="10" d="M160.943,188.085c0,0,5.591,0.516,8.906,5.902
		c3.315,5.386,6.215,10.497,6.215,10.497l3.177,4.005"/>
	<path fill="none" stroke="#434346" stroke-width="2" stroke-miterlimit="10" d="M489.875,127.916
		c3.315,5.386,6.949,11.54,6.949,11.54l3.177,4.005"/>
	<path fill="none" stroke="#434346" stroke-width="2" stroke-miterlimit="10" d="M141.318,177.452c0,0,4.89-10.167,30.441-12.732
		c25.551-2.565,45.405-9.075,45.405-9.075"/>
	<path fill="none" stroke="#434346" stroke-width="2" stroke-miterlimit="10" d="M153.313,185.29
		c0.075-0.987,12.593-2.5,19.692-4.164c8.433-1.976,19.147-7.096,19.147-7.096"/>
	<path fill="none" stroke="#434346" stroke-width="2" stroke-miterlimit="10" d="M477.965,107.298c0,0,1.952-9.709,22.035-18.175"/>
	<path fill="none" stroke="#434346" stroke-width="2" stroke-miterlimit="10" d="M491.526,111.925
		c-0.1-0.569,3.867-2.362,8.474-4.426"/>
	<path fill="none" stroke="#434346" stroke-width="2" stroke-miterlimit="10" d="M132.459,177.774l-7.161-1.465l-9.667-2.846
		c0,0-20.405-5.916-30.757-6.043c-10.352-0.126-13.599-0.006-21.368,1.119"/>
	<path fill="none" stroke="#434346" stroke-width="2" stroke-miterlimit="10" d="M128.238,186.199c0,0-2.803-1.18-5.532-1.18
		c-2.729,0-13.352-0.071-17.851,0c-17.122,0.271-28.025-5.359-28.025-5.359"/>
	<path fill="none" stroke="#434346" stroke-width="2" stroke-miterlimit="10" d="M472.053,104.536c0,0,0.18-3.446-5.42-3.015
		c-5.6,0.431-6.691,3.015-6.691,3.015s-5.802,0.141-16.356-3.053c0,0-11.317-2.191-24.29,0c-12.973,2.191-34.048,4.13-43.649,4.345"
		/>
	<path fill="none" stroke="#434346" stroke-width="2" stroke-miterlimit="10" d="M444.613,119.829c0,0-14.549,5.936-38.481,3.614
		c-23.932-2.322-37.071-2.753-37.071-2.753"/>
	<path fill="none" stroke="#434346" stroke-width="2" stroke-miterlimit="10" d="M399.733,386.246
		c-3.582,14.666-0.508,19.086-0.508,19.086c0.37,0.619,0.803,1.205,1.299,1.75c5.159,5.673,15.25,4.898,22.539-1.731
		c7.289-6.629,9.016-16.601,3.857-22.274c-2.115-2.325-5.058-3.567-8.298-3.767h-11.856"/>
	
		<line fill="none" stroke="#434346" stroke-width="2" stroke-miterlimit="10" x1="391.767" y1="377.374" x2="401.098" y2="387.655"/>
	
		<line fill="none" stroke="#434346" stroke-width="2" stroke-miterlimit="10" x1="399.782" y1="369.962" x2="408.245" y2="381.051"/>
</g>
</svg>
