<?xml version="1.0" encoding="utf-8"?>
<!-- Generator: Adobe Illustrator 27.0.0, SVG Export Plug-In . SVG Version: 6.00 Build 0)  -->
<svg version="1.1" id="Layer_1" xmlns="http://www.w3.org/2000/svg" xmlns:xlink="http://www.w3.org/1999/xlink" x="0px" y="0px"
	 width="40px" height="40px" viewBox="0 0 40 40" enable-background="new 0 0 40 40" xml:space="preserve">
<g>
	<path fill="#FFFFFF" d="M38.299,24.88c-0.005-1.817-0.09-3.631-0.521-5.408c-0.473-1.948-1.323-3.663-3.048-4.816
		c-1.216-0.813-2.587-1.169-4.027-1.309c-3.61-0.351-6.654,0.589-8.787,3.805c0-0.948-0.012-1.896,0.006-2.844
		c0.006-0.326-0.046-0.463-0.428-0.459c-2.144,0.021-4.289,0.02-6.434,0.001c-0.368-0.003-0.431,0.116-0.43,0.45
		c0.009,7.863,0.009,15.726-0.001,23.589c0,0.327,0.068,0.424,0.411,0.421c2.249-0.017,4.498-0.019,6.747,0.001
		c0.383,0.004,0.455-0.105,0.454-0.467c-0.013-3.961-0.009-7.923-0.007-11.884c0.001-0.895,0.065-1.786,0.263-2.661
		c0.338-1.492,1.055-2.678,2.613-3.166c0.736-0.23,1.492-0.284,2.252-0.2c1.501,0.166,2.47,0.98,2.927,2.426
		c0.328,1.037,0.402,2.104,0.406,3.175c0.015,4.095,0.013,8.191,0.005,12.286c-0.001,0.306,0.035,0.432,0.397,0.429
		c2.264-0.02,4.528-0.017,6.791-0.002c0.326,0.002,0.423-0.065,0.422-0.411C38.298,33.517,38.31,29.198,38.299,24.88z"/>
	<path fill="#FFFFFF" d="M9.476,13.849c-2.218,0.015-4.435,0.019-6.653-0.003c-0.415-0.004-0.544,0.074-0.542,0.521
		c0.021,3.899,0.012,7.798,0.012,11.697c0,3.944,0.005,7.888-0.008,11.831c-0.001,0.338,0.087,0.415,0.418,0.412
		c2.262-0.016,4.525-0.017,6.787,0.001c0.351,0.003,0.407-0.108,0.406-0.427C9.887,30.01,9.886,22.138,9.897,14.265
		C9.898,13.925,9.806,13.847,9.476,13.849z"/>
	<path fill="#FFFFFF" d="M6.061,1.689C3.663,1.706,1.692,3.685,1.688,6.08c-0.004,2.432,2.007,4.453,4.42,4.442
		c2.402-0.011,4.374-2.019,4.365-4.445C10.464,3.646,8.479,1.672,6.061,1.689z"/>
</g>
<path fill="#FFFFFF" d="M-21.355-27.852c-0.002-0.402-0.111-0.515-0.504-0.516c-0.983-0.001-1.926-0.208-2.841-0.545
	c-2.499-0.919-4.287-2.607-5.404-5.017c-0.492-1.061-0.712-2.187-0.818-3.343c-0.012-0.132,0.007-0.282-0.111-0.37
	c0.002-0.041,0.005-0.083,0.007-0.124c-2.037,0-4.074,0-6.111,0c-0.001,0.048-0.003,0.096-0.004,0.144
	c-0.008,0.146-0.022,0.292-0.023,0.438c-0.005,8.405-0.009,16.809-0.015,25.214c0,0.454-0.019,0.906-0.102,1.355
	c-0.499,2.695-3.056,4.677-5.806,4.493c-2.818-0.188-5.095-2.466-5.232-5.233c-0.188-3.798,3.321-6.658,6.994-5.687
	c0.316,0.084,0.338-0.008,0.336-0.276c-0.009-1.816-0.016-3.632,0.005-5.447c0.004-0.345-0.091-0.46-0.428-0.493
	c-1.492-0.146-2.965-0.057-4.413,0.331c-5.919,1.588-9.558,7.24-8.547,13.264c0.796,4.741,4.744,8.668,9.484,9.45
	c0.375,0.062,0.771,0.035,1.125,0.213c0.098,0,0.196,0,0.294,0c0.049,0,0.098,0,0.147,0c0.074,0,0.147,0,0.221,0
	c0.074,0,0.147,0,0.221,0c0.074,0,0.147,0,0.221,0c0.098,0,0.196,0,0.294,0c0.049,0,0.098,0,0.147,0c0.074,0,0.147,0,0.221,0
	c0.038-0.014,0.076-0.026,0.115-0.037c0.007,0,0.015-0.001,0.022-0.001c1.055,0.01,2.07-0.202,3.057-0.564
	c3.53-1.293,5.946-3.71,7.266-7.225c0.511-1.362,0.634-2.789,0.69-4.228c0.04-1.031-0.08-2.057-0.077-3.088
	c0.006-2.527,0.002-5.055,0.002-7.582c0-0.675-0.002-1.35,0.002-2.024c0.001-0.104-0.052-0.244,0.069-0.301
	c0.097-0.045,0.175,0.063,0.251,0.119c1.138,0.83,2.381,1.471,3.701,1.948c1.625,0.588,3.298,0.954,5.039,0.924
	c0.423-0.007,0.504-0.08,0.505-0.494C-21.347-24.318-21.345-26.085-21.355-27.852z"/>
<path fill="#FFFFFF" d="M29.143,132.458c-4.69-6.825-9.378-13.65-14.074-20.47c-0.157-0.228-0.185-0.362,0.016-0.594
	c2.291-2.64,4.568-5.291,6.847-7.941c2.091-2.433,4.18-4.867,6.27-7.301c-1.05,0-2.101,0-3.151,0
	c-0.184,0.093-0.324,0.235-0.458,0.391c-0.952,1.113-1.901,2.229-2.862,3.336c-1.265,1.457-2.519,2.924-3.78,4.384
	c-1.432,1.659-2.864,3.318-4.284,4.988c-0.184,0.217-0.258,0.184-0.4-0.026c-1.323-1.954-2.673-3.89-4.005-5.838
	c-1.514-2.213-3.039-4.42-4.553-6.633c-0.146-0.213-0.266-0.455-0.497-0.602c-3.557,0-7.113,0-10.67,0
	c0.02,0.137,0.124,0.227,0.197,0.333c4.526,6.59,9.052,13.18,13.589,19.763c0.165,0.24,0.129,0.361-0.043,0.561
	c-4.037,4.678-8.067,9.362-12.097,14.046c-0.547,0.635-1.091,1.272-1.676,1.954c1.011,0,1.951-0.006,2.891,0.005
	c0.199,0.002,0.325-0.062,0.452-0.211c2.836-3.304,5.676-6.604,8.516-9.904c1.174-1.364,2.349-2.728,3.539-4.11
	c0.084,0.111,0.159,0.203,0.225,0.299c3.131,4.556,6.264,9.111,9.388,13.672c0.132,0.193,0.265,0.253,0.491,0.253
	c3.342-0.007,6.683-0.005,10.025-0.008c0.097,0,0.209,0.049,0.304-0.049C29.275,132.652,29.21,132.554,29.143,132.458z
	 M24.702,130.526c-1.408,0.002-2.816-0.003-4.224,0.007c-0.216,0.002-0.341-0.068-0.463-0.244
	c-7.329-10.489-14.662-20.975-21.993-31.462c-0.058-0.083-0.152-0.153-0.147-0.301c1.18,0,2.356-0.001,3.532,0.001
	c0.417,0.001,0.901-0.12,1.232,0.051c0.33,0.171,0.51,0.635,0.748,0.976c7.122,10.183,14.243,20.366,21.364,30.55
	c0.086,0.122,0.166,0.249,0.249,0.374C24.889,130.556,24.792,130.526,24.702,130.526z"/>
<g>
	<path fill="#FFFFFF" d="M71.032,156.048H43.84c-3.203,0-5.798,2.597-5.798,5.8v15.551c0,3.203,2.594,5.799,5.798,5.799h27.192
		c3.203,0,5.798-2.597,5.798-5.799v-15.551C76.83,158.645,74.235,156.048,71.032,156.048z M53.558,176.185v-14.607l11.077,7.302
		L53.558,176.185z"/>
</g>
<g>
	<path fill="#FFFFFF" d="M-67.314,9.018c-0.204-0.842-0.475-1.654-0.865-2.431c-1.428-2.842-3.687-4.669-6.725-5.567
		c-0.591-0.175-1.198-0.206-1.8-0.289c-0.075,0-0.15,0-0.225,0c-0.05,0-0.1,0-0.15,0c-6.185,0-12.37,0-18.555,0
		c-0.075,0-0.15,0-0.225,0c-0.1,0-0.2,0-0.3,0c-0.352,0.099-0.721,0.044-1.074,0.122c-2.501,0.547-4.577,1.793-6.168,3.804
		c-1.51,1.908-2.28,4.07-2.269,6.529c0.026,5.947,0.006,11.894,0.012,17.84c0.001,0.549,0.013,1.102,0.123,1.643
		c0.338,1.657,0.992,3.179,2.057,4.5c2.108,2.614,4.808,4.058,8.209,4.06c5.972,0.005,11.944,0.001,17.915,0.001
		c0.375,0,0.75-0.022,1.122-0.061c1.133-0.119,2.194-0.475,3.214-0.979c2.481-1.227,4.196-3.15,5.237-5.698
		c0.353-0.864,0.523-1.767,0.618-2.689c0-0.15,0-0.301,0-0.451c0-0.05,0-0.1,0-0.15s0-0.1,0-0.15c0-6.06,0-12.12,0-18.18
		c0-0.05,0-0.1,0-0.15c0-0.05,0-0.1,0-0.15c0-0.125,0-0.25,0-0.376C-67.272,9.811-67.22,9.408-67.314,9.018z M-75.214,5.584
		c1.754,0,3.2,1.448,3.197,3.2c-0.003,1.747-1.463,3.209-3.2,3.205c-1.738-0.004-3.205-1.473-3.205-3.208
		C-78.421,7.042-76.958,5.584-75.214,5.584z M-86.387,9.42c5.814,0.017,10.492,4.689,10.535,10.522
		c0.043,5.78-4.703,10.54-10.532,10.563c-5.793,0.023-10.55-4.729-10.554-10.541C-96.94,14.157-92.184,9.403-86.387,9.42z"/>
	<path fill="#FFFFFF" d="M-86.433,28.233c4.553,0.033,8.283-3.667,8.308-8.242c0.025-4.556-3.68-8.282-8.251-8.299
		c-4.559-0.017-8.281,3.692-8.29,8.26C-94.674,24.501-90.996,28.199-86.433,28.233z"/>
	<path fill="#FFFFFF" d="M-75.195,10.407c0.869-0.009,1.605-0.766,1.599-1.644c-0.006-0.887-0.739-1.607-1.63-1.6
		c-0.873,0.007-1.624,0.765-1.614,1.63C-76.831,9.649-76.049,10.416-75.195,10.407z"/>
</g>
<g>
	<path fill="#FFFFFF" d="M-52.203,157.683v5.365h-3.931v6.562h3.931v19.502h8.076v-19.5h5.42c0,0,0.508-3.146,0.755-6.587h-6.143
		v-4.488c0-0.67,0.88-1.571,1.751-1.571h4.401v-6.832h-5.985C-52.402,150.134-52.203,156.702-52.203,157.683L-52.203,157.683z"/>
</g>
</svg>
