<?xml version="1.0" encoding="utf-8"?>
<!-- Generator: Adobe Illustrator 27.0.0, SVG Export Plug-In . SVG Version: 6.00 Build 0)  -->
<svg version="1.1" id="Layer_1" xmlns="http://www.w3.org/2000/svg" xmlns:xlink="http://www.w3.org/1999/xlink" x="0px" y="0px"
	 width="292.584px" height="98.596px" viewBox="0 0 292.584 98.596" enable-background="new 0 0 292.584 98.596"
	 xml:space="preserve">
<g>
	<g>
		<g>
			<path fill="#FFFFFF" d="M123.174,34.924c0.193-1.76,0.193-8.581,0.193-11.551v-4.125h16.144v19.251h-4.125V23.098h-8.031v0.275
				c0,3.273-0.137,10.643-0.44,12.431c-0.275,1.705-0.853,2.695-2.64,2.695h-3.96v-3.988
				C121.267,34.649,122.22,34.786,123.174,34.924z"/>
			<path fill="#FFFFFF" d="M143.91,19.248h4.125v19.251h-4.125V19.248z"/>
			<path fill="#FFFFFF" d="M152.436,19.248h14.026v3.85h-9.901v15.401h-4.125V19.248z"/>
			<path fill="#FFFFFF" d="M171.797,19.248h5.308l7.783,19.251h-4.483l-1.595-4.07h-8.746l-1.595,4.07h-4.483L171.797,19.248z
				 M177.297,30.579l-2.86-7.261l-2.86,7.261H177.297z"/>
			<path fill="#FFFFFF" d="M120.864,54.372c0-6.325,4.125-10.176,9.901-10.176c5.17,0,9.021,3.08,9.598,8.251h-4.18
				c-0.468-3.053-2.64-4.4-5.418-4.4c-3.3,0-5.775,1.925-5.775,6.325s2.475,6.326,5.775,6.326c2.778,0,4.95-1.348,5.418-4.4h4.18
				c-0.578,5.17-4.428,8.251-9.598,8.251C124.989,64.548,120.864,60.697,120.864,54.372z"/>
			<path fill="#FFFFFF" d="M143.937,44.746h17.189v19.251h-4.125V48.596h-8.938v15.401h-4.125V44.746z"/>
			<path fill="#FFFFFF" d="M165.526,44.746h9.158c4.703,0,7.261,2.915,7.261,6.876s-2.558,6.93-7.261,6.93h-5.033v5.445h-4.125
				V44.746z M174.684,54.702c2.31,0,3.108-0.743,3.108-3.053c0-2.31-0.798-3.053-3.108-3.053h-5.033v6.105H174.684z"/>
			<path fill="#FFFFFF" d="M185.245,44.746h4.125v14.851l8.388-14.851h6.05v19.251h-4.125V49.147l-8.388,14.851h-6.05V44.746z"/>
			<path fill="#FFFFFF" d="M209.501,60.422V58.36c0-1.045,0.275-1.788,0.88-2.228c0.055-0.055,0.193-0.137,0.193-0.137
				c-1.348-0.77-2.585-2.145-2.585-4.785c0-3.96,2.558-6.463,7.261-6.463h9.873v19.251h-4.125v-6.27h-7.371v3.575
				c0,1.76-0.798,2.695-2.585,2.695h-3.933V60.01C207.906,60.147,208.703,60.285,209.501,60.422L209.501,60.422z M215.249,53.877
				h5.748v-5.28h-5.748c-2.035,0-3.108,0.605-3.108,2.64S213.214,53.877,215.249,53.877z"/>
			<path fill="#FFFFFF" d="M229.522,44.746h4.125v7.701h9.901v-7.701h4.125v19.251h-4.125v-7.701h-9.901v7.701h-4.125V44.746z"/>
			<path fill="#FFFFFF" d="M252.073,44.746h4.125v7.701h9.901v-7.701h4.125v19.251H266.1v-7.701h-9.901v7.701h-4.125V44.746z"/>
			<path fill="#FFFFFF" d="M275.917,60.422V58.36c0-1.045,0.275-1.788,0.88-2.228c0.055-0.055,0.192-0.137,0.192-0.137
				c-1.348-0.77-2.585-2.145-2.585-4.785c0-3.96,2.558-6.463,7.261-6.463h9.873v19.251h-4.125v-6.27h-7.371v3.575
				c0,1.76-0.798,2.695-2.585,2.695h-3.933V60.01C274.322,60.147,275.12,60.285,275.917,60.422L275.917,60.422z M281.665,53.877
				h5.748v-5.28h-5.748c-2.035,0-3.108,0.605-3.108,2.64S279.63,53.877,281.665,53.877z"/>
			<path fill="#FFFFFF" d="M120.864,79.87c0-6.325,4.125-10.176,9.901-10.176c5.775,0,9.901,3.85,9.901,10.176
				c0,6.326-4.125,10.176-9.901,10.176C124.989,90.046,120.864,86.196,120.864,79.87z M130.764,86.196
				c3.3,0,5.775-1.925,5.775-6.326c0-4.4-2.475-6.325-5.775-6.325s-5.775,1.925-5.775,6.325
				C124.989,84.271,127.464,86.196,130.764,86.196z"/>
			<path fill="#FFFFFF" d="M144.24,70.245h14.851v3.85h-10.726v3.245h5.033c4.703,0,7.261,2.585,7.261,6.105
				c0,3.575-2.558,6.05-7.261,6.05h-9.158V70.245z M153.398,85.646c2.31,0,3.108-0.578,3.108-2.228c0-1.595-0.798-2.228-3.108-2.228
				h-5.033v4.455H153.398z"/>
			<path fill="#FFFFFF" d="M162.859,79.87c0-6.325,4.125-10.176,9.901-10.176c5.775,0,9.901,3.85,9.901,10.176
				c0,6.326-4.125,10.176-9.901,10.176C166.984,90.046,162.859,86.196,162.859,79.87z M172.759,86.196
				c3.3,0,5.775-1.925,5.775-6.326c0-4.4-2.475-6.325-5.775-6.325s-5.775,1.925-5.775,6.325
				C166.984,84.271,169.459,86.196,172.759,86.196z"/>
			<path fill="#FFFFFF" d="M186.235,70.245h9.158c4.703,0,7.261,2.915,7.261,6.876c0,3.96-2.558,6.93-7.261,6.93h-5.033v5.445
				h-4.125V70.245z M195.393,80.2c2.31,0,3.108-0.743,3.108-3.053c0-2.31-0.798-3.053-3.108-3.053h-5.033V80.2H195.393z"/>
			<path fill="#FFFFFF" d="M205.129,79.87c0-6.325,4.125-10.176,9.901-10.176c5.775,0,9.901,3.85,9.901,10.176
				c0,6.326-4.125,10.176-9.901,10.176C209.254,90.046,205.129,86.196,205.129,79.87z M215.029,86.196
				c3.3,0,5.775-1.925,5.775-6.326c0-4.4-2.475-6.325-5.775-6.325c-3.3,0-5.775,1.925-5.775,6.325
				C209.254,84.271,211.729,86.196,215.029,86.196z"/>
			<path fill="#FFFFFF" d="M228.505,70.245h4.125v7.701h9.901v-7.701h4.125v19.251h-4.125v-7.701h-9.901v7.701h-4.125V70.245z"/>
			<path fill="#FFFFFF" d="M251.056,70.245h4.125v19.251h-4.125V70.245z"/>
		</g>
	</g>
	<g>
		<path fill="#FFFFFF" d="M71.115,79.434l-1.264,6.418l2.936,9.005c4.359-3.13,8.718-6.261,13.076-9.392l-7.31,0.241L71.115,79.434z
			"/>
		<path fill="#FFFFFF" d="M16.017,14.754C6.779,23.778,1.045,36.372,1.045,50.307c0,4.362,0.561,8.593,1.618,12.624l12.118-19.237
			l24.289-7.877l1.804-5.04l-1.027-0.502l-19.83-10.653l0.382-2.186L16.017,14.754z"/>
		<path fill="#FFFFFF" d="M85.896,85.463l0.048-0.079c-0.026,0.028-0.053,0.054-0.08,0.08L85.896,85.463z"/>
		<path fill="#FFFFFF" d="M43.198,28.792c0.312,1.423,0.763,1.9,0.926,2.05c0.904,0.816,2.334-0.056,3.327-2.565
			c0.069-0.174,0.136-0.355,0.2-0.545c-0.108,0.136-0.236,0.286-0.384,0.44c-0.392,0.404-0.924,0.826-1.595,1.063
			c-0.574,0.204-1.091,0.217-1.493,0.171c0.062-0.848,0.123-1.698,0.184-2.547L43.198,28.792z"/>
		<path fill="#FFFFFF" d="M47.714,73.161l-6.893-22.076l19.349-2.696l-3.112-5.64l-5.662,0.799l-5.514-4.741l-3.02,5.115
			l-3.84-3.583c-7.108,2.033-14.214,4.068-21.32,6.102l-3.366,8.156l-0.002,0.002l-4.684,8.235l7.198,5.058l9.898-9.368
			l-7.031-11.696c1.889,0.489,4.508,1.533,6.824,3.819c1.817,1.794,2.792,3.706,3.312,4.989c0.983-1.014,1.964-2.028,2.946-3.044
			l11.837,27.863h13.771L47.714,73.161z"/>
		<polygon fill="#FFFFFF" points="64.892,84.879 46.516,84.879 47.714,87.7 58.959,93.049 60.223,89.548 66.055,97.985 
			69.945,97.985 		"/>
		<path fill="#FFFFFF" d="M25.262,87.895L9.651,73.793l4.94-2.821l-6.807-5.737l-2.905,4.244l-3.661,5.35l15.648,11.839l0.002,0.002
			c2.49,2.321,5.217,4.387,8.143,6.161l0.007,0.005h0.002l6.855-0.565l3.501-3.889l2.529,3.307l1.654-1.848l-4.961-6.71
			L25.262,87.895z"/>
		<polygon fill="#FFFFFF" points="30.756,81.378 24.823,69.027 19.28,73.112 27.254,83.13 		"/>
		<polygon fill="#FFFFFF" points="85.995,61.539 88.135,69.515 82.566,82.741 83.466,82.741 91.051,70.097 89.009,61.539 		"/>
		<path fill="#FFFFFF" d="M79.76,43.035l-4.278,3.988l2.188,1.848c0,0,3.842-4.62,3.988-4.766
			C81.802,43.959,79.76,43.035,79.76,43.035z"/>
		<polygon fill="#FFFFFF" points="79.458,50.12 81.528,50.896 84.688,45.976 82.734,44.76 		"/>
		<polygon fill="#FFFFFF" points="83.07,51.372 85.017,52.05 88.177,47.652 86.146,46.692 		"/>
		<polygon fill="#FFFFFF" points="91.543,49.726 89.513,48.764 87.675,51.377 89.62,52.055 		"/>
		<polygon fill="#FFFFFF" points="71.568,49.864 63.797,44.739 70.122,55.096 71.018,73.015 72.769,74.571 75.103,60.372 
			78.117,64.36 79.458,59.983 76.368,56.384 73.79,52.882 74.789,51.413 		"/>
		<polygon fill="#FFFFFF" points="60.332,33.425 56.722,35.406 55.045,36.326 53.148,34.892 54.569,37.475 54.57,37.475 
			55.798,39.707 58.926,39.609 58.931,39.609 62.755,39.487 62.755,38.535 61.455,37.336 60.332,36.3 63.026,33.822 		"/>
		<path fill="#FFFFFF" d="M99.951,57.275c0.32-2.276,0.486-4.603,0.486-6.968c0-27.446-22.25-49.697-49.697-49.697
			c-11.726,0-22.501,4.06-31.001,10.853L2.532,2.296C2.478,2.788,2.425,3.281,2.37,3.773C2.35,3.958,2.33,4.146,2.309,4.331
			c-0.29,0.309-0.583,0.615-0.875,0.924c0.62,0.279,1.241,0.56,1.859,0.839c0.387-0.404,0.773-0.807,1.159-1.21
			c4.712,2.509,9.423,5.02,14.133,7.529h0.002c0.479,0.258,0.96,0.512,1.439,0.768l16.206,8.634l6.23,3.589l0.312-1.19l-2.173-3.425
			l3.261-12.156l9.625-4.377l18.312,7.587l-0.025,4.618l0.389,7.635l-0.709,0.195l-2.792-7.562l-13.976-4.61l-0.002,0.005
			l-3.579-1.18l3.205,3.005v0.002l-0.637,3.09l-5.204,2.936l0.092,3.619l5.232,5.947l-0.656,3.868l1.833,0.873l6.126-5.618
			l3.699,0.937l-0.707-4.533l-2.058-0.614l-5.163,1.585l0.279-3.041l-3.829-1.142l4.769-2.721l6.706,2.235l3.213-1.216l1.021,2.189
			l-1.334,1.569l1.188,6.968l-2.337-0.369v3.891l-1.945,2.723l12.212,5.934l2.237-3.245l13.009,6.976l1.28,5.376l-2.042,2.317
			l6.678,4.464l0.095,0.064l1.428,0.955l9.011,6.261l-6.953,9.021l0.573,0.515l10.758-10.049L99.951,57.275z"/>
		<polygon fill="#FFFFFF" points="28.79,94.903 27.495,94.957 30.108,97.657 36.393,97.9 38.609,97.985 38.223,94.507 		"/>
	</g>
</g>
</svg>
