<?xml version="1.0" encoding="utf-8"?>
<!-- Generator: Adobe Illustrator 27.0.0, SVG Export Plug-In . SVG Version: 6.00 Build 0)  -->
<svg version="1.1" id="_Слой_1" xmlns="http://www.w3.org/2000/svg" xmlns:xlink="http://www.w3.org/1999/xlink" x="0px"
	 y="0px" width="601.7px" height="235.12px" viewBox="0 0 601.7 235.12" enable-background="new 0 0 601.7 235.12"
	 xml:space="preserve">
<path fill="#FFFFFF" d="M194.07,124.13c-3.41-2.34-8.03-4.19-13.86-5.54l-5.87-1.28c-5.83-1.28-10.09-2.42-12.79-3.42
	c-2.71-0.99-4.06-2.38-4.06-4.15c0-1.64,1.23-2.95,3.68-3.95s5.64-1.49,9.55-1.49s8.24,0.55,12.58,1.65s7.36,2.61,9.07,4.53
	l3.94-11.73c-2.91-1.85-6.7-3.29-11.35-4.32c-4.66-1.03-9.55-1.55-14.67-1.55c-8.6,0-15.57,1.59-20.9,4.75
	c-5.34,3.16-8,7.52-8,13.07c0,4.55,1.54,8.01,4.64,10.39c3.09,2.39,7.3,4.11,12.64,5.18c1.99,0.42,3.48,0.71,4.47,0.85
	c6.62,1.35,11.54,2.56,14.78,3.63c3.23,1.06,4.85,2.49,4.85,4.26c0,1.99-1.41,3.4-4.21,4.21c-2.81,0.82-6.6,1.16-11.36,1.02
	c-5.62-0.29-10.51-1.09-14.67-2.4c-4.16-1.32-7.13-3.18-8.9-5.6l-4.06,11.73c2.56,2.42,6.72,4.37,12.48,5.87
	c5.76,1.49,11.8,2.24,18.13,2.24c8.82,0,15.86-1.5,21.12-4.48c5.26-2.99,7.89-7.36,7.89-13.12
	C199.19,129.93,197.49,126.48,194.07,124.13L194.07,124.13z"/>
<path fill="#FFFFFF" d="M266.38,108.03c-2.31-4.55-5.7-8.21-10.18-10.99c-4.48-2.77-9.81-4.16-16-4.16c-4.69,0-8.74,0.89-12.16,2.67
	c-3.41,1.78-5.93,3.95-7.57,6.51h-0.75l-3.51-7.79h-11.63v57.44l14.14,17.48h1v-25.97h0.75c1.92,2.78,4.69,4.95,8.32,6.51
	s7.96,2.35,13.01,2.35c5.4,0,10.24-1.28,14.51-3.84c4.26-2.56,7.59-6.08,9.97-10.56s3.57-9.53,3.57-15.15
	C269.85,117.41,268.69,112.58,266.38,108.03z M249.8,135.38c-3.34,3.1-7.75,4.64-13.22,4.64c-3.84,0-7.36-1.04-10.56-3.14
	s-5.3-4.82-6.3-8.16v-13.33c0.79-3.27,2.81-5.9,6.08-7.89s6.86-2.99,10.78-2.99c5.4,0,9.79,1.62,13.17,4.85
	c3.37,3.24,5.06,7.63,5.06,13.17C254.81,128.07,253.14,132.29,249.8,135.38z"/>
<path fill="#FFFFFF" d="M332.11,102.43c-2.77-3.16-6.38-5.55-10.82-7.15c-4.45-1.6-9.23-2.4-14.35-2.4
	c-7.96,0-14.89,1.69-20.79,5.07c-5.91,3.38-9.07,8.84-9.49,16.37h16.31c0.07-3.13,1.51-5.6,4.32-7.41s5.96-2.72,9.44-2.72
	c3.98,0,7.31,0.64,9.97,1.92c2.67,1.28,4,3.06,4,5.33c0,1.49-1.58,2.65-4.74,3.47c-3.17,0.82-8.13,1.51-14.88,2.08
	c-16.78,1.85-25.35,7.5-25.7,16.96c-0.29,5.75,1.72,10.22,6.02,13.38s10.01,4.75,17.12,4.75c5.4,0,10.09-1.05,14.08-3.15
	c3.98-2.1,6.86-4.71,8.64-7.84v9.6h15.03v-36.8C336.27,109.42,334.89,105.59,332.11,102.43L332.11,102.43z M320.7,127.76
	c0,1.99-0.69,4.04-2.08,6.13c-1.38,2.1-3.41,3.82-6.08,5.17c-2.66,1.36-5.78,2.03-9.33,2.03c-3.27,0-6.08-0.55-8.42-1.65
	c-2.35-1.1-3.52-2.86-3.52-5.28c0-2.63,1.36-4.41,4.1-5.33c2.74-0.93,6.63-1.6,11.68-2.03c7.11-0.43,11.66-1.6,13.65-3.52
	L320.7,127.76L320.7,127.76z"/>
<path fill="#FFFFFF" d="M344.27,150.69V94.27h11.63l2.99,12.05h0.64c1.49-3.84,3.96-7.04,7.41-9.6s7.73-3.84,12.85-3.84
	c2.56,0,5.3,0.39,8.21,1.17v15.89h-1.49c-0.71-0.85-2.03-1.62-3.95-2.29s-4.12-1.01-6.61-1.01c-2.84,0-5.55,0.73-8.1,2.19
	c-2.56,1.46-4.62,3.5-6.19,6.13c-1.56,2.63-2.35,5.65-2.35,9.07v26.66H344.27z"/>
<path fill="#FFFFFF" d="M394,150.69V94.27h11.63l2.99,12.05h0.64c1.49-3.84,3.96-7.04,7.41-9.6s7.73-3.84,12.85-3.84
	c2.56,0,5.3,0.39,8.21,1.17v15.89h-1.49c-0.71-0.85-2.03-1.62-3.95-2.29s-4.12-1.01-6.61-1.01c-2.84,0-5.55,0.73-8.1,2.19
	c-2.56,1.46-4.62,3.5-6.19,6.13c-1.56,2.63-2.35,5.65-2.35,9.07v26.66H394z"/>
<path fill="#FFFFFF" d="M455.82,148.24c-5.01-2.56-8.78-6.08-11.31-10.56c-2.52-4.48-3.79-9.53-3.79-15.14s1.26-10.75,3.79-15.2
	c2.52-4.44,6.29-7.96,11.31-10.56c5.01-2.59,11.07-3.89,18.18-3.89s13.15,1.3,18.13,3.89c4.98,2.6,8.73,6.13,11.25,10.61
	s3.79,9.53,3.79,15.14s-1.26,10.67-3.79,15.14c-2.52,4.48-6.28,8-11.25,10.56c-4.98,2.56-11.02,3.84-18.13,3.84
	s-13.17-1.28-18.18-3.84V148.24z M483.66,137.41c2.74-1.53,4.83-3.59,6.29-6.19c1.46-2.59,2.19-5.49,2.19-8.69s-0.73-6.11-2.19-8.75
	c-1.46-2.63-3.56-4.71-6.29-6.24c-2.74-1.53-5.96-2.29-9.65-2.29s-6.93,0.76-9.71,2.29c-2.77,1.53-4.89,3.61-6.35,6.24
	s-2.19,5.55-2.19,8.75s0.73,6.1,2.19,8.69c1.46,2.6,3.57,4.66,6.35,6.19c2.77,1.53,6.01,2.29,9.71,2.29S480.92,138.94,483.66,137.41
	z"/>
<path fill="#FFFFFF" d="M573.23,138.32h0.96l11.2-44.05h16.32l-15.78,56.42h-22.4l-8.11-37.11h-0.96l-8.11,37.11h-22.4l-15.78-56.42
	h16.42l11.2,44.05h0.96l9.71-44.05h17.06L573.23,138.32L573.23,138.32z"/>
<path fill="#FFFFFF" d="M197.17,185.47c-2.78-3.16-6.39-5.55-10.83-7.15c-4.44-1.6-9.22-2.4-14.34-2.4c-7.97,0-14.9,1.69-20.8,5.07
	s-9.07,8.84-9.49,16.37h16.32c0.07-3.13,1.51-5.6,4.31-7.41c2.81-1.81,5.96-2.72,9.44-2.72c3.98,0,7.31,0.64,9.98,1.92
	c2.66,1.28,3.99,3.06,3.99,5.33c0,1.49-1.58,2.65-4.74,3.47c-3.17,0.82-8.13,1.51-14.88,2.08c-16.78,1.85-25.35,7.5-25.7,16.95
	c-0.29,5.76,1.72,10.23,6.02,13.39c4.31,3.16,10.01,4.75,17.12,4.75c5.4,0,10.1-1.05,14.08-3.15s6.86-4.71,8.64-7.84v9.6h15.04
	v-36.8C201.33,192.45,199.94,188.63,197.17,185.47L197.17,185.47z M185.75,210.8c0,1.99-0.69,4.03-2.07,6.13
	c-1.39,2.1-3.42,3.82-6.08,5.17c-2.67,1.36-5.78,2.03-9.34,2.03c-3.27,0-6.07-0.55-8.42-1.65c-2.35-1.1-3.52-2.86-3.52-5.28
	c0-2.63,1.37-4.41,4.11-5.33c2.73-0.93,6.62-1.6,11.67-2.03c7.11-0.43,11.66-1.6,13.65-3.52L185.75,210.8L185.75,210.8z"/>
<path fill="#FFFFFF" d="M246.95,177.31l-13.23,44.05h-0.74l-13.23-44.05h-16.42l18.24,56.42h23.46l18.24-56.42H246.95L246.95,177.31
	z"/>
<path fill="#FFFFFF" d="M284.41,177.31h-15.14v56.42h15.14v-26.7l-14.14-17.49h14.14V177.31z"/>
<path fill="#FFFFFF" d="M348.18,185.47c-2.77-3.16-6.38-5.55-10.83-7.15c-4.44-1.6-9.22-2.4-14.34-2.4c-7.97,0-14.9,1.69-20.8,5.07
	s-9.06,8.84-9.49,16.37h16.32c0.07-3.13,1.51-5.6,4.32-7.41c2.8-1.81,5.95-2.72,9.43-2.72c3.99,0,7.31,0.64,9.98,1.92
	c2.66,1.28,4,3.06,4,5.33c0,1.49-1.59,2.65-4.75,3.47s-8.12,1.51-14.88,2.08c-16.78,1.85-25.35,7.5-25.7,16.95
	c-0.29,5.76,1.72,10.23,6.03,13.39c4.3,3.16,10,4.75,17.11,4.75c5.41,0,10.1-1.05,14.08-3.15s6.86-4.71,8.64-7.84v9.6h15.04v-36.8
	C352.34,192.45,350.95,188.63,348.18,185.47L348.18,185.47z M336.77,210.8c0,1.99-0.7,4.03-2.08,6.13c-1.39,2.1-3.42,3.82-6.08,5.17
	c-2.67,1.36-5.78,2.03-9.33,2.03c-3.28,0-6.08-0.55-8.43-1.65c-2.35-1.1-3.52-2.86-3.52-5.28c0-2.63,1.37-4.41,4.11-5.33
	c2.73-0.93,6.63-1.6,11.67-2.03c7.11-0.43,11.66-1.6,13.66-3.52L336.77,210.8L336.77,210.8z"/>
<path fill="#FFFFFF" d="M361.59,191.03c-1.23-0.72-2.2-1.71-2.93-2.94c-0.72-1.24-1.09-2.59-1.09-4.06s0.36-2.82,1.09-4.06
	c0.72-1.24,1.7-2.22,2.93-2.94c1.23-0.72,2.58-1.09,4.05-1.09s2.82,0.36,4.06,1.09c1.24,0.72,2.22,1.71,2.94,2.94
	c0.72,1.24,1.09,2.59,1.09,4.06s-0.36,2.82-1.09,4.06c-0.72,1.24-1.71,2.22-2.94,2.94c-1.24,0.72-2.59,1.09-4.06,1.09
	S362.82,191.76,361.59,191.03z M369.16,190.12c1.07-0.63,1.92-1.48,2.55-2.56c0.63-1.08,0.94-2.26,0.94-3.54s-0.31-2.45-0.94-3.52
	s-1.48-1.93-2.55-2.56s-2.25-0.96-3.52-0.96s-2.45,0.32-3.52,0.96c-1.07,0.64-1.93,1.49-2.57,2.56c-0.64,1.07-0.96,2.25-0.96,3.52
	s0.31,2.45,0.94,3.54c0.63,1.08,1.48,1.94,2.57,2.56c1.08,0.63,2.26,0.94,3.54,0.94S368.09,190.75,369.16,190.12L369.16,190.12z
	 M362.14,187.8v-7.98h4.26c0.95,0,1.66,0.2,2.14,0.61s0.72,0.99,0.72,1.75c0,1.15-0.63,1.83-1.9,2.05v0.08h1.04
	c0.54,0,0.81,0.27,0.81,0.81v2.69h-1.98v-2.94h-3.14v2.94h-1.95V187.8z M366.07,183.26c0.79,0,1.19-0.3,1.19-0.91
	c0-0.29-0.1-0.51-0.3-0.67c-0.2-0.16-0.5-0.24-0.89-0.24h-1.98v1.83h1.98V183.26z"/>
<g>
	<polygon fill="#FFFFFF" points="98.43,141.4 96.83,168.63 68.19,122.42 69.77,95.16 86.19,79.49 87.1,63.77 101.62,87.19 
		100.83,100.55 106.53,95.12 106.53,95.12 117.49,133.71 115.45,168.87 101.32,146.06 98.7,136.84 	"/>
	<polygon fill="#FFFFFF" points="32.3,30.09 9.52,15.09 63.85,13.4 86.67,28.4 92.03,50.45 105.19,59.1 77.65,59.96 66.47,52.6 
		68.33,60.25 68.33,60.25 29.43,50.44 0,31.1 26.82,30.26 36.11,32.6 	"/>
	<polygon fill="#FFFFFF" points="161.76,28.47 186.14,16.25 160.44,64.15 136.04,76.41 114.26,70.03 100.19,77.1 113.22,52.82 
		125.18,46.82 117.63,44.6 117.63,44.6 145.57,15.82 177.04,0 164.35,23.65 157.68,30.52 	"/>
</g>
</svg>
