<?xml version="1.0" encoding="UTF-8"?>
<svg id="_Слой_1" data-name="Слой 1" xmlns="http://www.w3.org/2000/svg" viewBox="0 0 601.7 235.12">
  <defs>
    <style>
      .cls-1 {
        fill: #1540ef;
        stroke-width: 0px;
      }
    </style>
  </defs>
  <path class="cls-1" d="m194.07,124.13c-3.41-2.34-8.03-4.19-13.86-5.54l-5.87-1.28c-5.83-1.28-10.09-2.42-12.79-3.42-2.71-.99-4.06-2.38-4.06-4.15,0-1.64,1.23-2.95,3.68-3.95,2.45-1,5.64-1.49,9.55-1.49s8.24.55,12.58,1.65c4.34,1.1,7.36,2.61,9.07,4.53l3.94-11.73c-2.91-1.85-6.7-3.29-11.35-4.32-4.66-1.03-9.55-1.55-14.67-1.55-8.6,0-15.57,1.59-20.9,4.75-5.34,3.16-8,7.52-8,13.07,0,4.55,1.54,8.01,4.64,10.39,3.09,2.39,7.3,4.11,12.64,5.18,1.99.42,3.48.71,4.47.85,6.62,1.35,11.54,2.56,14.78,3.63,3.23,1.06,4.85,2.49,4.85,4.26,0,1.99-1.41,3.4-4.21,4.21-2.81.82-6.6,1.16-11.36,1.02-5.62-.29-10.51-1.09-14.67-2.4-4.16-1.32-7.13-3.18-8.9-5.6l-4.06,11.73c2.56,2.42,6.72,4.37,12.48,5.87,5.76,1.49,11.8,2.24,18.13,2.24,8.82,0,15.86-1.5,21.12-4.48,5.26-2.99,7.89-7.36,7.89-13.12,0-4.55-1.7-8-5.12-10.35Z"/>
  <path class="cls-1" d="m266.38,108.03c-2.31-4.55-5.7-8.21-10.18-10.99-4.48-2.77-9.81-4.16-16-4.16-4.69,0-8.74.89-12.16,2.67-3.41,1.78-5.93,3.95-7.57,6.51h-.75l-3.51-7.79h-11.63v57.44l14.14,17.48h1v-25.97h.75c1.92,2.78,4.69,4.95,8.32,6.51,3.63,1.56,7.96,2.35,13.01,2.35,5.4,0,10.24-1.28,14.51-3.84,4.26-2.56,7.59-6.08,9.97-10.56,2.38-4.48,3.57-9.53,3.57-15.15,0-5.12-1.16-9.95-3.47-14.5Zm-16.58,27.35c-3.34,3.1-7.75,4.64-13.22,4.64-3.84,0-7.36-1.04-10.56-3.14-3.2-2.1-5.3-4.82-6.3-8.16v-13.33c.79-3.27,2.81-5.9,6.08-7.89,3.27-1.99,6.86-2.99,10.78-2.99,5.4,0,9.79,1.62,13.17,4.85,3.37,3.24,5.06,7.63,5.06,13.17s-1.67,9.76-5.01,12.85Z"/>
  <path class="cls-1" d="m332.11,102.43c-2.77-3.16-6.38-5.55-10.82-7.15-4.45-1.6-9.23-2.4-14.35-2.4-7.96,0-14.89,1.69-20.79,5.07-5.91,3.38-9.07,8.84-9.49,16.37h16.31c.07-3.13,1.51-5.6,4.32-7.41,2.81-1.81,5.96-2.72,9.44-2.72,3.98,0,7.31.64,9.97,1.92,2.67,1.28,4,3.06,4,5.33,0,1.49-1.58,2.65-4.74,3.47-3.17.82-8.13,1.51-14.88,2.08-16.78,1.85-25.35,7.5-25.7,16.96-.29,5.75,1.72,10.22,6.02,13.38,4.3,3.16,10.01,4.75,17.12,4.75,5.4,0,10.09-1.05,14.08-3.15,3.98-2.1,6.86-4.71,8.64-7.84v9.6h15.03v-36.8c0-4.47-1.38-8.3-4.16-11.46Zm-11.41,25.33c0,1.99-.69,4.04-2.08,6.13-1.38,2.1-3.41,3.82-6.08,5.17-2.66,1.36-5.78,2.03-9.33,2.03-3.27,0-6.08-.55-8.42-1.65-2.35-1.1-3.52-2.86-3.52-5.28,0-2.63,1.36-4.41,4.1-5.33,2.74-.93,6.63-1.6,11.68-2.03,7.11-.43,11.66-1.6,13.65-3.52v4.48Z"/>
  <path class="cls-1" d="m344.27,150.69v-56.42h11.63l2.99,12.05h.64c1.49-3.84,3.96-7.04,7.41-9.6,3.45-2.56,7.73-3.84,12.85-3.84,2.56,0,5.3.39,8.21,1.17v15.89h-1.49c-.71-.85-2.03-1.62-3.95-2.29-1.92-.67-4.12-1.01-6.61-1.01-2.84,0-5.55.73-8.1,2.19-2.56,1.46-4.62,3.5-6.19,6.13-1.56,2.63-2.35,5.65-2.35,9.07v26.66h-15.04Z"/>
  <path class="cls-1" d="m394,150.69v-56.42h11.63l2.99,12.05h.64c1.49-3.84,3.96-7.04,7.41-9.6,3.45-2.56,7.73-3.84,12.85-3.84,2.56,0,5.3.39,8.21,1.17v15.89h-1.49c-.71-.85-2.03-1.62-3.95-2.29-1.92-.67-4.12-1.01-6.61-1.01-2.84,0-5.55.73-8.1,2.19-2.56,1.46-4.62,3.5-6.19,6.13-1.56,2.63-2.35,5.65-2.35,9.07v26.66h-15.04Z"/>
  <path class="cls-1" d="m455.82,148.24c-5.01-2.56-8.78-6.08-11.31-10.56-2.52-4.48-3.79-9.53-3.79-15.14s1.26-10.75,3.79-15.2c2.52-4.44,6.29-7.96,11.31-10.56,5.01-2.59,11.07-3.89,18.18-3.89s13.15,1.3,18.13,3.89c4.98,2.6,8.73,6.13,11.25,10.61,2.52,4.48,3.79,9.53,3.79,15.14s-1.26,10.67-3.79,15.14c-2.52,4.48-6.28,8-11.25,10.56-4.98,2.56-11.02,3.84-18.13,3.84s-13.17-1.28-18.18-3.84Zm27.84-10.83c2.74-1.53,4.83-3.59,6.29-6.19,1.46-2.59,2.19-5.49,2.19-8.69s-.73-6.11-2.19-8.75c-1.46-2.63-3.56-4.71-6.29-6.24-2.74-1.53-5.96-2.29-9.65-2.29s-6.93.76-9.71,2.29c-2.77,1.53-4.89,3.61-6.35,6.24-1.46,2.63-2.19,5.55-2.19,8.75s.73,6.1,2.19,8.69c1.46,2.6,3.57,4.66,6.35,6.19,2.77,1.53,6.01,2.29,9.71,2.29s6.91-.76,9.65-2.29Z"/>
  <path class="cls-1" d="m573.23,138.32h.96l11.2-44.05h16.32l-15.78,56.42h-22.4l-8.11-37.11h-.96l-8.11,37.11h-22.4l-15.78-56.42h16.42l11.2,44.05h.96l9.71-44.05h17.06l9.71,44.05Z"/>
  <path class="cls-1" d="m197.17,185.47c-2.78-3.16-6.39-5.55-10.83-7.15-4.44-1.6-9.22-2.4-14.34-2.4-7.97,0-14.9,1.69-20.8,5.07s-9.07,8.84-9.49,16.37h16.32c.07-3.13,1.51-5.6,4.31-7.41,2.81-1.81,5.96-2.72,9.44-2.72,3.98,0,7.31.64,9.98,1.92,2.66,1.28,3.99,3.06,3.99,5.33,0,1.49-1.58,2.65-4.74,3.47-3.17.82-8.13,1.51-14.88,2.08-16.78,1.85-25.35,7.5-25.7,16.95-.29,5.76,1.72,10.23,6.02,13.39,4.31,3.16,10.01,4.75,17.12,4.75,5.4,0,10.1-1.05,14.08-3.15s6.86-4.71,8.64-7.84v9.6h15.04v-36.8c0-4.48-1.39-8.3-4.16-11.46Zm-11.42,25.33c0,1.99-.69,4.03-2.07,6.13-1.39,2.1-3.42,3.82-6.08,5.17-2.67,1.36-5.78,2.03-9.34,2.03-3.27,0-6.07-.55-8.42-1.65-2.35-1.1-3.52-2.86-3.52-5.28,0-2.63,1.37-4.41,4.11-5.33,2.73-.93,6.62-1.6,11.67-2.03,7.11-.43,11.66-1.6,13.65-3.52v4.48Z"/>
  <path class="cls-1" d="m246.95,177.31l-13.23,44.05h-.74l-13.23-44.05h-16.42l18.24,56.42h23.46l18.24-56.42h-16.32Z"/>
  <path class="cls-1" d="m284.41,177.31h-15.14v56.42h15.14v-26.7l-14.14-17.49h14.14v-12.23Z"/>
  <path class="cls-1" d="m348.18,185.47c-2.77-3.16-6.38-5.55-10.83-7.15-4.44-1.6-9.22-2.4-14.34-2.4-7.97,0-14.9,1.69-20.8,5.07-5.9,3.38-9.06,8.84-9.49,16.37h16.32c.07-3.13,1.51-5.6,4.32-7.41,2.8-1.81,5.95-2.72,9.43-2.72,3.99,0,7.31.64,9.98,1.92,2.66,1.28,4,3.06,4,5.33,0,1.49-1.59,2.65-4.75,3.47-3.16.82-8.12,1.51-14.88,2.08-16.78,1.85-25.35,7.5-25.7,16.95-.29,5.76,1.72,10.23,6.03,13.39,4.3,3.16,10,4.75,17.11,4.75,5.41,0,10.1-1.05,14.08-3.15s6.86-4.71,8.64-7.84v9.6h15.04v-36.8c0-4.48-1.39-8.3-4.16-11.46Zm-11.41,25.33c0,1.99-.7,4.03-2.08,6.13-1.39,2.1-3.42,3.82-6.08,5.17-2.67,1.36-5.78,2.03-9.33,2.03-3.28,0-6.08-.55-8.43-1.65-2.35-1.1-3.52-2.86-3.52-5.28,0-2.63,1.37-4.41,4.11-5.33,2.73-.93,6.63-1.6,11.67-2.03,7.11-.43,11.66-1.6,13.66-3.52v4.48Z"/>
  <path class="cls-1" d="m361.59,191.03c-1.23-.72-2.2-1.71-2.93-2.94-.72-1.24-1.09-2.59-1.09-4.06s.36-2.82,1.09-4.06c.72-1.24,1.7-2.22,2.93-2.94,1.23-.72,2.58-1.09,4.05-1.09s2.82.36,4.06,1.09c1.24.72,2.22,1.71,2.94,2.94.72,1.24,1.09,2.59,1.09,4.06s-.36,2.82-1.09,4.06c-.72,1.24-1.71,2.22-2.94,2.94-1.24.72-2.59,1.09-4.06,1.09s-2.82-.36-4.05-1.09Zm7.57-.91c1.07-.63,1.92-1.48,2.55-2.56.63-1.08.94-2.26.94-3.54s-.31-2.45-.94-3.52c-.63-1.07-1.48-1.93-2.55-2.56s-2.25-.96-3.52-.96-2.45.32-3.52.96c-1.07.64-1.93,1.49-2.57,2.56-.64,1.07-.96,2.25-.96,3.52s.31,2.45.94,3.54c.63,1.08,1.48,1.94,2.57,2.56,1.08.63,2.26.94,3.54.94s2.45-.31,3.52-.94Zm-7.02-2.32v-7.98h4.26c.95,0,1.66.2,2.14.61s.72.99.72,1.75c0,1.15-.63,1.83-1.9,2.05v.08h1.04c.54,0,.81.27.81.81v2.69h-1.98v-2.94h-3.14v2.94h-1.95Zm3.93-4.54c.79,0,1.19-.3,1.19-.91,0-.29-.1-.51-.3-.67-.2-.16-.5-.24-.89-.24h-1.98v1.83h1.98Z"/>
  <g>
    <polygon class="cls-1" points="98.43 141.4 96.83 168.63 68.19 122.42 69.77 95.16 86.19 79.49 87.1 63.77 101.62 87.19 100.83 100.55 106.53 95.12 106.53 95.12 117.49 133.71 115.45 168.87 101.32 146.06 98.7 136.84 98.43 141.4"/>
    <polygon class="cls-1" points="32.3 30.09 9.52 15.09 63.85 13.4 86.67 28.4 92.03 50.45 105.19 59.1 77.65 59.96 66.47 52.6 68.33 60.25 68.33 60.25 29.43 50.44 0 31.1 26.82 30.26 36.11 32.6 32.3 30.09"/>
    <polygon class="cls-1" points="161.76 28.47 186.14 16.25 160.44 64.15 136.04 76.41 114.26 70.03 100.19 77.1 113.22 52.82 125.18 46.82 117.63 44.6 117.63 44.6 145.57 15.82 177.04 0 164.35 23.65 157.68 30.52 161.76 28.47"/>
  </g>
</svg>