<?xml version="1.0" encoding="utf-8"?>
<!-- Generator: Adobe Illustrator 27.0.0, SVG Export Plug-In . SVG Version: 6.00 Build 0)  -->
<svg version="1.1" id="Layer_1" xmlns="http://www.w3.org/2000/svg" xmlns:xlink="http://www.w3.org/1999/xlink" x="0px" y="0px"
	 width="500px" height="500px" viewBox="0 0 500 500" enable-background="new 0 0 500 500" xml:space="preserve">
<g>
	<g>
		<path fill="none" stroke="#808080" stroke-width="2" stroke-miterlimit="10" d="M420.238,126.48c0,0.632-0.465,1.118-1.133,1.118
			c-0.752,0-1.464-0.609-1.595-1.356c-0.017-0.08-0.02-0.159-0.02-0.239c0-0.632,0.465-1.118,1.133-1.118
			c0.379,0,0.744,0.151,1.031,0.398c0.286,0.247,0.501,0.585,0.565,0.959C420.235,126.32,420.238,126.4,420.238,126.48z"/>
		<path fill="none" stroke="#808080" stroke-width="2" stroke-miterlimit="10" d="M426.965,126.678c0,0.636-0.468,1.118-1.138,1.118
			c-0.747,0-1.464-0.604-1.595-1.352c-0.016-0.079-0.019-0.159-0.019-0.235c0-0.64,0.468-1.122,1.137-1.122
			c0.373,0,0.74,0.151,1.03,0.398c0.286,0.243,0.496,0.585,0.565,0.959C426.962,126.523,426.965,126.602,426.965,126.678z"/>
		<path fill="none" stroke="#808080" stroke-width="2" stroke-miterlimit="10" d="M441.568,126.48c0,0.632-0.465,1.118-1.133,1.118
			c-0.752,0-1.464-0.609-1.595-1.356c-0.017-0.08-0.02-0.159-0.02-0.239c0-0.632,0.465-1.118,1.133-1.118
			c0.375,0,0.74,0.151,1.031,0.398c0.29,0.247,0.496,0.585,0.565,0.959C441.565,126.32,441.568,126.4,441.568,126.48z"/>
		<path fill="none" stroke="#808080" stroke-width="2" stroke-miterlimit="10" d="M448.295,126.678c0,0.636-0.468,1.118-1.138,1.118
			c-0.747,0-1.464-0.604-1.595-1.352c-0.016-0.079-0.02-0.159-0.02-0.235c0-0.64,0.47-1.122,1.139-1.122
			c0.373,0,0.74,0.151,1.03,0.398c0.286,0.243,0.501,0.585,0.565,0.959C448.292,126.523,448.295,126.602,448.295,126.678z"/>
		<path fill="none" stroke="#808080" stroke-width="2" stroke-miterlimit="10" d="M435.502,141.705c-0.374,0-0.74-0.151-1.031-0.398
			c-0.286-0.243-0.496-0.585-0.563-0.959c-0.017-0.08-0.02-0.159-0.02-0.235c0-0.636,0.47-1.118,1.138-1.118
			c0.373,0,0.74,0.151,1.025,0.398c0.292,0.243,0.502,0.581,0.57,0.955C436.75,141.101,436.249,141.705,435.502,141.705z"/>
		<path fill="none" stroke="#808080" stroke-width="2" stroke-miterlimit="10" d="M434.523,135.018c-0.375,0-0.74-0.151-1.027-0.398
			c-0.286-0.247-0.501-0.585-0.565-0.959c-0.016-0.083-0.023-0.163-0.023-0.243c0-0.076,0.008-0.147,0.02-0.219
			c0.095-0.521,0.532-0.895,1.117-0.895c0.373,0,0.74,0.151,1.03,0.398c0.136,0.115,0.251,0.251,0.342,0.398h0.005
			c0.108,0.171,0.183,0.362,0.218,0.561C435.772,134.41,435.274,135.018,434.523,135.018z"/>
		<path fill="none" stroke="#808080" stroke-width="2" stroke-miterlimit="10" d="M431.741,120.374
			c-0.374,0-0.741-0.151-1.027-0.398c-0.29-0.243-0.501-0.581-0.57-0.959c-0.016-0.08-0.019-0.159-0.019-0.235
			c0-0.636,0.468-1.118,1.137-1.118c0.373,0,0.74,0.151,1.03,0.394c0.286,0.247,0.496,0.585,0.565,0.959
			C432.989,119.77,432.492,120.374,431.741,120.374z"/>
		<path fill="none" stroke="#808080" stroke-width="2" stroke-miterlimit="10" d="M430.763,113.688
			c-0.374,0-0.741-0.151-1.031-0.398c-0.286-0.247-0.501-0.585-0.565-0.959c-0.016-0.08-0.019-0.159-0.019-0.235
			c0-0.636,0.465-1.121,1.137-1.121c0.373,0,0.74,0.151,1.025,0.398c0.29,0.247,0.498,0.585,0.565,0.959
			C432.011,113.079,431.51,113.688,430.763,113.688z"/>
		<path fill="none" stroke="#808080" stroke-width="2" stroke-miterlimit="10" d="M411.347,108.343c0,0.636-0.467,1.118-1.138,1.118
			c-0.747,0-1.461-0.605-1.592-1.356c-0.016-0.084-0.023-0.163-0.023-0.243c0-0.633,0.473-1.11,1.138-1.11
			c0.373,0,0.74,0.151,1.03,0.394c0.287,0.247,0.501,0.585,0.565,0.959C411.342,108.184,411.347,108.263,411.347,108.343z"/>
		<path fill="none" stroke="#808080" stroke-width="2" stroke-miterlimit="10" d="M418.072,108.549c0,0.632-0.473,1.114-1.138,1.114
			c-0.747,0-1.464-0.609-1.595-1.356c-0.016-0.08-0.02-0.159-0.02-0.235c0-0.636,0.467-1.118,1.138-1.118
			c0.375,0,0.74,0.151,1.027,0.398c0.287,0.243,0.501,0.581,0.565,0.955C418.065,108.39,418.072,108.47,418.072,108.549z"/>
		<path fill="none" stroke="#808080" stroke-width="2" stroke-miterlimit="10" d="M412.563,115.239c0,0.632-0.473,1.11-1.137,1.11
			c-0.747,0-1.464-0.604-1.595-1.352c-0.016-0.079-0.02-0.159-0.02-0.235c0-0.636,0.465-1.122,1.138-1.122
			c0.374,0,0.74,0.151,1.027,0.398c0.29,0.247,0.496,0.585,0.565,0.959C412.555,115.08,412.563,115.16,412.563,115.239z"/>
		<path fill="none" stroke="#808080" stroke-width="2" stroke-miterlimit="10" d="M419.286,115.434c0,0.636-0.47,1.118-1.138,1.118
			c-0.749,0-1.46-0.604-1.596-1.352c-0.016-0.08-0.019-0.159-0.019-0.235c0-0.64,0.468-1.122,1.138-1.122
			c0.373,0,0.74,0.151,1.03,0.398c0.286,0.243,0.501,0.581,0.565,0.959C419.282,115.279,419.286,115.359,419.286,115.434z"/>
		<path fill="none" stroke="#808080" stroke-width="2" stroke-miterlimit="10" d="M416.528,137.727c0,0.632-0.473,1.114-1.137,1.114
			c-0.747,0-1.464-0.609-1.595-1.356c-0.016-0.079-0.02-0.159-0.02-0.235c0-0.636,0.465-1.122,1.138-1.122
			c0.374,0,0.74,0.151,1.027,0.398c0.286,0.247,0.501,0.585,0.565,0.959C416.52,137.568,416.528,137.648,416.528,137.727z"/>
		<path fill="none" stroke="#808080" stroke-width="2" stroke-miterlimit="10" d="M423.251,137.922c0,0.636-0.47,1.118-1.137,1.118
			c-0.749,0-1.461-0.604-1.596-1.352c-0.016-0.079-0.019-0.159-0.019-0.235c0-0.64,0.468-1.122,1.138-1.122
			c0.373,0,0.74,0.151,1.03,0.398c0.286,0.243,0.498,0.581,0.565,0.959C423.247,137.767,423.251,137.847,423.251,137.922z"/>
		<path fill="none" stroke="#808080" stroke-width="2" stroke-miterlimit="10" d="M417.74,144.608c0,0.636-0.468,1.122-1.138,1.122
			c-0.747,0-1.459-0.609-1.595-1.356c-0.016-0.08-0.02-0.159-0.02-0.235c0-0.636,0.47-1.122,1.138-1.122
			c0.374,0,0.741,0.151,1.031,0.398c0.286,0.247,0.501,0.585,0.565,0.959C417.737,144.453,417.74,144.532,417.74,144.608z"/>
		<path fill="none" stroke="#808080" stroke-width="2" stroke-miterlimit="10" d="M424.467,144.819c0,0.633-0.473,1.114-1.138,1.114
			c-0.747,0-1.464-0.609-1.595-1.356c-0.016-0.079-0.02-0.159-0.02-0.235c0-0.636,0.465-1.122,1.138-1.122
			c0.374,0,0.74,0.151,1.027,0.398c0.286,0.247,0.501,0.585,0.565,0.959C424.459,144.66,424.467,144.739,424.467,144.819z"/>
		<path fill="none" stroke="#808080" stroke-width="2" stroke-miterlimit="10" d="M444.071,108.339c0,0.64-0.468,1.122-1.138,1.122
			c-0.747,0-1.464-0.604-1.595-1.356c-0.016-0.08-0.02-0.159-0.02-0.235c0-0.636,0.47-1.118,1.138-1.118
			c0.374,0,0.741,0.151,1.027,0.394c0.29,0.247,0.501,0.585,0.57,0.959C444.068,108.184,444.071,108.263,444.071,108.339z"/>
		<path fill="none" stroke="#808080" stroke-width="2" stroke-miterlimit="10" d="M450.795,108.542c0,0.636-0.465,1.122-1.138,1.122
			c-0.747,0-1.461-0.609-1.592-1.356c-0.016-0.084-0.023-0.163-0.023-0.243c0-0.632,0.473-1.11,1.138-1.11
			c0.374,0,0.74,0.151,1.03,0.398c0.287,0.243,0.501,0.581,0.565,0.955C450.79,108.386,450.795,108.466,450.795,108.542z"/>
		<path fill="none" stroke="#808080" stroke-width="2" stroke-miterlimit="10" d="M445.285,115.231c0,0.636-0.465,1.118-1.138,1.118
			c-0.749,0-1.461-0.604-1.592-1.352c-0.016-0.083-0.023-0.163-0.023-0.243c0-0.632,0.473-1.114,1.138-1.114
			c0.373,0,0.74,0.151,1.03,0.398c0.287,0.247,0.498,0.585,0.565,0.959C445.28,115.076,445.285,115.156,445.285,115.231z"/>
		<path fill="none" stroke="#808080" stroke-width="2" stroke-miterlimit="10" d="M452.01,115.434c0,0.636-0.47,1.118-1.138,1.118
			c-0.747,0-1.464-0.604-1.595-1.352c-0.016-0.08-0.02-0.159-0.02-0.235c0-0.64,0.47-1.122,1.138-1.122
			c0.375,0,0.74,0.151,1.027,0.398c0.29,0.243,0.501,0.581,0.57,0.959C452.007,115.279,452.01,115.359,452.01,115.434z"/>
		<path fill="none" stroke="#808080" stroke-width="2" stroke-miterlimit="10" d="M449.25,137.719c0,0.211-0.051,0.402-0.139,0.565
			h-0.005c-0.183,0.338-0.541,0.557-0.994,0.557c-0.41,0-0.811-0.183-1.109-0.473c-0.248-0.239-0.423-0.545-0.482-0.883
			c-0.016-0.083-0.023-0.163-0.023-0.243c0-0.632,0.473-1.114,1.138-1.114c0.373,0,0.74,0.151,1.03,0.398
			c0.287,0.247,0.501,0.585,0.565,0.959C449.245,137.564,449.25,137.644,449.25,137.719z"/>
		<path fill="none" stroke="#808080" stroke-width="2" stroke-miterlimit="10" d="M455.975,137.93c0,0.028,0,0.056-0.003,0.083
			c-0.041,0.593-0.501,1.026-1.134,1.026c-0.601,0-1.177-0.386-1.451-0.927c-0.067-0.135-0.115-0.279-0.144-0.426
			c-0.016-0.079-0.02-0.159-0.02-0.239c0-0.636,0.467-1.118,1.138-1.118c0.374,0,0.741,0.151,1.027,0.398
			c0.287,0.243,0.501,0.581,0.565,0.959C455.967,137.771,455.975,137.85,455.975,137.93z"/>
		<path fill="none" stroke="#808080" stroke-width="2" stroke-miterlimit="10" d="M450.469,144.616c0,0.632-0.473,1.114-1.137,1.114
			c-0.747,0-1.464-0.609-1.595-1.356c-0.016-0.08-0.02-0.159-0.02-0.235c0-0.636,0.465-1.122,1.138-1.122
			c0.374,0,0.74,0.151,1.027,0.398c0.29,0.247,0.496,0.585,0.565,0.959C450.461,144.457,450.469,144.536,450.469,144.616z"/>
		<path fill="none" stroke="#808080" stroke-width="2" stroke-miterlimit="10" d="M457.189,144.811c0,0.636-0.47,1.122-1.138,1.122
			c-0.749,0-1.46-0.609-1.596-1.356c-0.016-0.079-0.019-0.159-0.019-0.235c0-0.636,0.468-1.122,1.138-1.122
			c0.373,0,0.74,0.151,1.03,0.398c0.286,0.247,0.501,0.585,0.565,0.959C457.184,144.656,457.189,144.735,457.189,144.811z"/>
	</g>
	<g>
		<path fill="none" stroke="#808080" stroke-width="2" stroke-miterlimit="10" d="M344.721,356.838h19.254v-11.807h-3.237v-29.59
			c-6.093-3.778-13.356,0-13.356,0v29.097l-3.865,0.079l0.058,9.595l-92.122,96.061h7.336l86.5-91.317"/>
		
			<line fill="none" stroke="#808080" stroke-width="2" stroke-miterlimit="10" x1="297.261" y1="409.659" x2="348.964" y2="390.802"/>
		<polyline fill="none" stroke="#808080" stroke-width="2" stroke-miterlimit="10" points="349.016,358.19 349.016,453.721 
			358.418,453.721 358.418,378.665 		"/>
		<polyline fill="none" stroke="#808080" stroke-width="2" stroke-miterlimit="10" points="352.766,356.838 381.942,469.517 
			387.404,469.517 357.532,356.838 		"/>
		
			<line fill="none" stroke="#808080" stroke-width="2" stroke-miterlimit="10" x1="358.413" y1="397.662" x2="367.354" y2="413.177"/>
		
			<line fill="none" stroke="#808080" stroke-width="2" stroke-miterlimit="10" x1="358.418" y1="393.487" x2="363.461" y2="398.142"/>
		
			<line fill="none" stroke="#808080" stroke-width="2" stroke-miterlimit="10" x1="370.444" y1="404.604" x2="394.943" y2="427.533"/>
		<polyline fill="none" stroke="#808080" stroke-width="2" stroke-miterlimit="10" points="360.939,356.838 412.846,465.418 
			418.374,464.832 363.975,354.689 		"/>
		
			<line fill="none" stroke="#808080" stroke-width="2" stroke-miterlimit="10" x1="347.382" y1="344.538" x2="360.738" y2="344.538"/>
		<path fill="none" stroke="#808080" stroke-width="2" stroke-miterlimit="10" d="M349.151,301.66h9.819c0,0,2.334-3.776,0-6.625
			h-9.819C349.151,295.035,347.01,298.027,349.151,301.66z"/>
		
			<line fill="none" stroke="#808080" stroke-width="2" stroke-miterlimit="10" x1="349.843" y1="314.493" x2="349.843" y2="301.66"/>
		
			<line fill="none" stroke="#808080" stroke-width="2" stroke-miterlimit="10" x1="358.497" y1="314.385" x2="358.497" y2="301.66"/>
		
			<line fill="none" stroke="#808080" stroke-width="2" stroke-miterlimit="10" x1="349.151" y1="295.035" x2="349.151" y2="212.948"/>
		<line fill="none" stroke="#808080" stroke-width="2" stroke-miterlimit="10" x1="358.97" y1="295.035" x2="358.97" y2="212.948"/>
		<path fill="none" stroke="#808080" stroke-width="2" stroke-miterlimit="10" d="M347.351,212.948h13.778c0,0,0.821-2.426,0-4.288
			h-13.778C347.351,208.66,346.575,210.951,347.351,212.948z"/>
		<line fill="none" stroke="#808080" stroke-width="2" stroke-miterlimit="10" x1="349.151" y1="208.66" x2="349.151" y2="198.54"/>
		<line fill="none" stroke="#808080" stroke-width="2" stroke-miterlimit="10" x1="358.97" y1="208.66" x2="358.97" y2="198.54"/>
		<path fill="none" stroke="#808080" stroke-width="2" stroke-miterlimit="10" d="M347.67,198.231v-6.301c0,0,7.916-2.853,12.742,0
			v5.772C360.412,197.702,351.064,194.892,347.67,198.231z"/>
		<polyline fill="none" stroke="#808080" stroke-width="2" stroke-miterlimit="10" points="347.67,195.115 341.018,194.064 
			341.018,188.644 		"/>
		<polyline fill="none" stroke="#808080" stroke-width="2" stroke-miterlimit="10" points="341.018,194.064 363.915,172.928 
			380.774,175.793 360.535,194.064 		"/>
		<polygon fill="none" stroke="#808080" stroke-width="2" stroke-miterlimit="10" points="363.627,167.381 338.937,190.202 
			337.565,171.656 361.819,148.177 		"/>
		<polyline fill="none" stroke="#808080" stroke-width="2" stroke-miterlimit="10" points="361.819,148.177 380.549,152.123 
			381.733,171.019 363.627,167.381 363.915,172.928 		"/>
		
			<line fill="none" stroke="#808080" stroke-width="2" stroke-miterlimit="10" x1="381.011" y1="170.874" x2="381.011" y2="175.793"/>
		
			<line fill="none" stroke="#808080" stroke-width="2" stroke-miterlimit="10" x1="346.762" y1="162.563" x2="344.693" y2="138.841"/>
		
			<line fill="none" stroke="#808080" stroke-width="2" stroke-miterlimit="10" x1="354.95" y1="154.826" x2="353.432" y2="138.022"/>
		<polyline fill="none" stroke="#808080" stroke-width="2" stroke-miterlimit="10" points="340.719,132.727 293.572,135.751 
			203.38,141.669 		"/>
		<path fill="none" stroke="#808080" stroke-width="2" stroke-miterlimit="10" d="M203.583,147.118l119.894-7.206l41.176-2.641
			c0,0,1.689-2.904,0-6.403l-8.829,0.736"/>
		<path fill="none" stroke="#808080" stroke-width="2" stroke-miterlimit="10" d="M201.167,151.982l-8.586,0.873
			c-1.244,0.126-2.355-0.78-2.482-2.024l-1.547-15.222c-0.126-1.244,0.78-2.355,2.024-2.482l8.586-0.873
			c1.244-0.126,2.355,0.78,2.482,2.024l1.547,15.222C203.317,150.744,202.411,151.855,201.167,151.982z"/>
		
			<line fill="none" stroke="#808080" stroke-width="2" stroke-miterlimit="10" x1="197.003" y1="152.148" x2="200.24" y2="180.981"/>
		<line fill="none" stroke="#808080" stroke-width="2" stroke-miterlimit="10" x1="194.77" y1="132.433" x2="183.424" y2="30.483"/>
		<line fill="none" stroke="#808080" stroke-width="2" stroke-miterlimit="10" x1="173.433" y1="52.15" x2="198.069" y2="49.618"/>
		<line fill="none" stroke="#808080" stroke-width="2" stroke-miterlimit="10" x1="174.547" y1="65.611" x2="199.183" y2="63.078"/>
		<line fill="none" stroke="#808080" stroke-width="2" stroke-miterlimit="10" x1="176.293" y1="78.962" x2="200.929" y2="76.43"/>
		<line fill="none" stroke="#808080" stroke-width="2" stroke-miterlimit="10" x1="177.771" y1="92.312" x2="202.407" y2="89.78"/>
		
			<line fill="none" stroke="#808080" stroke-width="2" stroke-miterlimit="10" x1="179.308" y1="105.448" x2="203.944" y2="102.915"/>
		
			<line fill="none" stroke="#808080" stroke-width="2" stroke-miterlimit="10" x1="180.789" y1="118.796" x2="205.425" y2="116.264"/>
		<polyline fill="none" stroke="#808080" stroke-width="2" stroke-miterlimit="10" points="333.745,139.253 334.19,142.708 
			339.503,142.503 		"/>
		<polyline fill="none" stroke="#808080" stroke-width="2" stroke-miterlimit="10" points="344.84,140.734 337.565,141.162 
			345.54,148.556 		"/>
		<polyline fill="none" stroke="#808080" stroke-width="2" stroke-miterlimit="10" points="354.452,148.177 360.896,139.986 
			353.432,140.734 		"/>
		
			<line fill="none" stroke="#808080" stroke-width="2" stroke-miterlimit="10" x1="359.572" y1="141.669" x2="407.502" y2="139.445"/>
		
			<line fill="none" stroke="#808080" stroke-width="2" stroke-miterlimit="10" x1="365.137" y1="135.59" x2="406.347" y2="133.749"/>
		
			<rect x="341.119" y="130.578" transform="matrix(0.9982 -0.0607 0.0607 0.9982 -7.3799 21.4102)" fill="none" stroke="#808080" stroke-width="2" stroke-miterlimit="10" width="15.123" height="3.172"/>
		<polygon fill="none" stroke="#808080" stroke-width="2" stroke-miterlimit="10" points="461.156,148.696 409.701,149.773 
			405.151,104.661 454.599,104.176 		"/>
		<path fill="none" stroke="#808080" stroke-width="2" stroke-miterlimit="10" d="M458.382,132.306l40.349-1.86
			c0,0,2.594,2.819,0.366,5.885l-39.015,1.521"/>
		<path fill="none" stroke="#808080" stroke-width="2" stroke-miterlimit="10" d="M329.189,129.996v-9.802l-2.467-21.928
			l13.821-0.602c0,0,5.124-3.122,8.872-0.858l12.206-0.548l2.997,22.064l-0.952,8.961l-11.188,0.984"/>
		<path fill="none" stroke="#808080" stroke-width="2" stroke-miterlimit="10" d="M331.121,133.343l-0.315-8.831
			c0,0,4.593-2.471,6.748,0l0.011,8.417"/>
		
			<line fill="none" stroke="#808080" stroke-width="2" stroke-miterlimit="10" x1="329.189" y1="120.662" x2="342.969" y2="119.804"/>
		
			<line fill="none" stroke="#808080" stroke-width="2" stroke-miterlimit="10" x1="340.543" y1="97.663" x2="343.928" y2="130.663"/>
		<line fill="none" stroke="#808080" stroke-width="2" stroke-miterlimit="10" x1="349.416" y1="96.805" x2="352.58" y2="130.338"/>
		<polyline fill="none" stroke="#808080" stroke-width="2" stroke-miterlimit="10" points="351.541,119.325 364.619,118.321 
			368.436,114.163 		"/>
		<polyline fill="none" stroke="#808080" stroke-width="2" stroke-miterlimit="10" points="327.307,101.648 323.21,101.873 
			324.831,118.123 328.957,118.123 		"/>
		<polyline fill="none" stroke="#808080" stroke-width="2" stroke-miterlimit="10" points="362.548,103.071 365.944,103.071 
			367.154,112.989 369.269,114.591 369.269,117.791 366.349,120.758 364.464,119.526 		"/>
		<path fill="none" stroke="#808080" stroke-width="2" stroke-miterlimit="10" d="M366.485,107.504c0,0,16.929-3.09,40.453,14.874"
			/>
		<path fill="none" stroke="#808080" stroke-width="2" stroke-miterlimit="10" d="M365.908,104.464c0,0,15.588-2.822,28.645,5.646"
			/>
		<path fill="none" stroke="#808080" stroke-width="2" stroke-miterlimit="10" d="M189.173,143.155c0,0-9.536,11.196,3.765,9.663"/>
		<path fill="none" stroke="#808080" stroke-width="2" stroke-miterlimit="10" d="M203.155,149.143c0,0,8.845-13.736,26.066-13.611
			c17.221,0.125,24.155,3.175,27.51,4.264c3.355,1.089,15.265,6.96,23.149,7.799c7.884,0.839,17.864-2.866,20.548-6.298"/>
		<path fill="none" stroke="#808080" stroke-width="2" stroke-miterlimit="10" d="M309.314,134.63c0,0,9.611-12.37,19.845-11.318"/>
		
			<line fill="none" stroke="#808080" stroke-width="2" stroke-miterlimit="10" x1="337.565" y1="129.136" x2="343.711" y2="128.551"/>
	</g>
</g>
</svg>
