<?xml version="1.0" encoding="utf-8"?>
<!-- Generator: Adobe Illustrator 27.0.0, SVG Export Plug-In . SVG Version: 6.00 Build 0)  -->
<svg version="1.1" id="Layer_1" xmlns="http://www.w3.org/2000/svg" xmlns:xlink="http://www.w3.org/1999/xlink" x="0px" y="0px"
	 width="40px" height="40px" viewBox="0 0 40 40" enable-background="new 0 0 40 40" xml:space="preserve">
<path fill="#FFFFFF" d="M36.588,11.031c-0.002-0.402-0.111-0.515-0.504-0.516c-0.983-0.001-1.926-0.208-2.841-0.545
	c-2.499-0.919-4.287-2.607-5.404-5.017c-0.492-1.061-0.712-2.187-0.818-3.343c-0.012-0.132,0.007-0.282-0.111-0.37
	c0.002-0.041,0.005-0.083,0.007-0.124c-2.037,0-4.074,0-6.111,0c-0.001,0.048-0.003,0.096-0.004,0.144
	c-0.008,0.146-0.022,0.292-0.023,0.438c-0.005,8.405-0.009,16.809-0.015,25.214c0,0.454-0.019,0.906-0.102,1.355
	c-0.499,2.695-3.056,4.677-5.806,4.493c-2.818-0.188-5.095-2.466-5.232-5.233c-0.187-3.798,3.321-6.658,6.994-5.687
	c0.316,0.084,0.338-0.008,0.336-0.276c-0.009-1.816-0.016-3.632,0.005-5.447c0.004-0.345-0.091-0.46-0.428-0.493
	c-1.492-0.146-2.965-0.057-4.413,0.331c-5.919,1.588-9.558,7.24-8.547,13.264c0.796,4.741,4.744,8.668,9.484,9.45
	c0.375,0.062,0.771,0.035,1.125,0.213c0.098,0,0.196,0,0.294,0c0.049,0,0.098,0,0.147,0c0.074,0,0.147,0,0.221,0
	c0.074,0,0.147,0,0.221,0c0.074,0,0.147,0,0.221,0c0.098,0,0.196,0,0.294,0c0.049,0,0.098,0,0.147,0c0.074,0,0.147,0,0.221,0
	c0.038-0.014,0.076-0.026,0.115-0.037c0.007,0,0.015-0.001,0.022-0.001c1.055,0.01,2.07-0.202,3.057-0.564
	c3.53-1.293,5.946-3.71,7.266-7.225c0.511-1.362,0.634-2.789,0.69-4.228c0.04-1.031-0.08-2.057-0.077-3.088
	c0.006-2.527,0.002-5.055,0.002-7.582c0-0.675-0.002-1.35,0.002-2.024c0.001-0.104-0.052-0.244,0.069-0.301
	c0.097-0.045,0.175,0.063,0.251,0.119c1.138,0.83,2.381,1.471,3.701,1.948c1.625,0.588,3.298,0.954,5.039,0.924
	c0.423-0.007,0.504-0.08,0.505-0.494C36.596,14.565,36.598,12.798,36.588,11.031z"/>
</svg>
