<?xml version="1.0" encoding="utf-8"?>
<!-- Generator: Adobe Illustrator 27.0.0, SVG Export Plug-In . SVG Version: 6.00 Build 0)  -->
<svg version="1.1" id="Layer_1" xmlns="http://www.w3.org/2000/svg" xmlns:xlink="http://www.w3.org/1999/xlink" x="0px" y="0px"
	 width="40px" height="40px" viewBox="0 0 40 40" enable-background="new 0 0 40 40" xml:space="preserve">
<path fill="#FFFFFF" d="M37.716,37.975c-4.69-6.825-9.378-13.65-14.074-20.47c-0.157-0.228-0.185-0.362,0.016-0.594
	c2.291-2.64,4.568-5.291,6.847-7.941c2.091-2.433,4.18-4.867,6.27-7.301c-1.05,0-2.101,0-3.151,0
	c-0.184,0.093-0.324,0.235-0.458,0.391c-0.952,1.113-1.901,2.229-2.862,3.336c-1.265,1.457-2.519,2.924-3.78,4.384
	c-1.432,1.659-2.864,3.318-4.284,4.988c-0.184,0.217-0.258,0.184-0.4-0.026c-1.323-1.954-2.673-3.89-4.005-5.838
	c-1.514-2.213-3.039-4.42-4.553-6.633c-0.146-0.213-0.266-0.455-0.497-0.602c-3.557,0-7.113,0-10.67,0
	C2.136,1.805,2.239,1.894,2.312,2c4.526,6.59,9.052,13.18,13.589,19.763c0.165,0.24,0.129,0.361-0.043,0.561
	c-4.037,4.678-8.067,9.362-12.097,14.046c-0.547,0.635-1.091,1.272-1.676,1.954c1.011,0,1.951-0.006,2.891,0.005
	c0.199,0.002,0.325-0.062,0.452-0.211c2.836-3.304,5.676-6.604,8.516-9.904c1.174-1.364,2.349-2.728,3.539-4.11
	c0.084,0.111,0.159,0.203,0.225,0.299c3.131,4.556,6.264,9.111,9.388,13.672c0.132,0.193,0.265,0.253,0.491,0.253
	c3.342-0.007,6.683-0.005,10.025-0.008c0.097,0,0.209,0.049,0.304-0.049C37.847,38.17,37.782,38.072,37.716,37.975z M33.274,36.043
	c-1.408,0.002-2.816-0.003-4.224,0.007c-0.216,0.002-0.341-0.068-0.463-0.244C21.259,25.317,13.925,14.831,6.594,4.344
	C6.536,4.261,6.442,4.191,6.447,4.043c1.18,0,2.356-0.001,3.532,0.001c0.417,0.001,0.901-0.12,1.232,0.051
	c0.33,0.171,0.51,0.635,0.748,0.976c7.122,10.183,14.243,20.366,21.364,30.55c0.086,0.122,0.166,0.249,0.249,0.374
	C33.462,36.074,33.364,36.043,33.274,36.043z"/>
</svg>
